<svg width="286" height="222" viewBox="0 0 286 222" fill="none" xmlns="http://www.w3.org/2000/svg">
<path d="M229.641 103.118C230.542 102.804 230.972 101.903 230.689 101.087C230.406 100.26 229.505 99.8308 228.677 100.113L229.641 103.118Z" fill="#FFBF1E"/>
<path d="M234.347 99.6198C233.991 98.8244 234.347 97.8925 235.259 97.4843C236.066 97.1391 236.988 97.5158 237.333 98.3217C237.679 99.1281 237.302 100.049 236.432 100.426C236.223 100.52 236.002 100.562 235.793 100.562C235.185 100.562 234.609 100.217 234.347 99.6198ZM240.885 96.6048C240.487 95.8304 240.791 94.8775 241.65 94.4382C242.426 94.0295 243.379 94.3332 243.777 95.1081C244.175 95.8825 243.882 96.8354 243.012 97.2856C242.782 97.4007 242.53 97.4633 242.289 97.4633C241.723 97.4633 241.168 97.1491 240.885 96.6048ZM247.224 93.1921C246.774 92.4492 247.015 91.4753 247.853 90.973C248.597 90.5228 249.571 90.7634 250.022 91.5173C250.472 92.2606 250.231 93.2341 249.393 93.7364C249.142 93.8935 248.859 93.967 248.586 93.967C248.041 93.9565 247.517 93.6843 247.224 93.1921ZM253.322 89.3712C252.819 88.6593 252.998 87.6753 253.783 87.1206C254.496 86.6178 255.481 86.7749 255.984 87.4867C256.487 88.1986 256.33 89.1826 255.523 89.7483C255.25 89.9365 254.926 90.031 254.611 90.031C254.119 90.041 253.626 89.8109 253.322 89.3712ZM259.106 85.1C258.551 84.4302 258.645 83.4357 259.378 82.8284C260.038 82.2631 261.044 82.3366 261.61 83.0065C262.176 83.6658 262.102 84.6708 261.338 85.3096C261.044 85.5503 260.688 85.6653 260.332 85.6653C259.871 85.6653 259.42 85.4772 259.106 85.1ZM264.502 80.3577C263.884 79.7508 263.873 78.7458 264.555 78.055C265.162 77.4372 266.168 77.4267 266.786 78.034C267.404 78.6413 267.415 79.6458 266.734 80.3371C266.419 80.6508 266.021 80.8079 265.602 80.8079C265.215 80.8079 264.816 80.6613 264.502 80.3577ZM269.374 75.0715C268.683 74.5373 268.567 73.5427 269.144 72.7998C269.667 72.0985 270.663 71.962 271.355 72.4857C272.056 73.009 272.192 74.0035 271.585 74.7993C271.27 75.1971 270.81 75.4062 270.338 75.4062C270.003 75.4062 269.657 75.3016 269.374 75.0715ZM273.565 69.2406C272.811 68.8113 272.538 67.8479 273.031 66.9794C273.471 66.2256 274.435 65.9744 275.19 66.4137C275.944 66.8534 276.195 67.8273 275.724 68.6333C275.43 69.146 274.896 69.4392 274.341 69.4392C274.079 69.4497 273.817 69.3871 273.565 69.2406ZM276.845 62.8544C276.027 62.5407 275.619 61.6298 275.954 60.7503C276.248 59.9339 277.159 59.5047 277.976 59.8083C278.794 60.1015 279.223 61.012 278.877 61.9439C278.637 62.5717 278.039 62.9594 277.4 62.9594C277.222 62.9594 277.023 62.9279 276.845 62.8544ZM279.045 56.029C278.186 55.8723 277.62 55.045 277.798 54.0925C277.955 53.234 278.783 52.6688 279.642 52.8363C280.502 52.9934 281.067 53.8203 280.889 54.7728C280.742 55.5267 280.083 56.0605 279.338 56.0605C279.234 56.05 279.14 56.0395 279.045 56.029ZM279.999 48.9209C279.129 48.9104 278.427 48.1985 278.437 47.246C278.437 46.3771 279.15 45.6652 280.02 45.6652C280.889 45.6652 281.602 46.3771 281.602 47.3611C281.591 48.23 280.889 48.9209 280.02 48.9209C280.009 48.9209 280.009 48.9209 279.999 48.9209ZM175.515 47.2565C174.666 47.0369 174.163 46.1785 174.404 45.2257C174.624 44.3777 175.494 43.8857 176.342 44.1056C177.191 44.3254 177.684 45.1943 177.442 46.1155C177.265 46.8273 176.615 47.2985 175.913 47.2985C175.777 47.3091 175.64 47.2985 175.515 47.2565ZM277.924 40.3369C277.788 39.4785 278.364 38.662 279.234 38.5259C280.093 38.3898 280.91 38.9656 281.067 39.9496C281.193 40.808 280.596 41.614 279.506 41.7606C278.72 41.7606 278.05 41.1953 277.924 40.3369ZM177.589 40.3893C176.783 40.0647 176.395 39.1331 176.762 38.2432C177.086 37.4372 178.019 37.0498 178.826 37.3743C179.633 37.6989 180.02 38.6201 179.653 39.5204C179.402 40.138 178.815 40.5044 178.187 40.5044C177.987 40.5044 177.788 40.4625 177.589 40.3893ZM276.352 33.5324C276.101 32.6949 276.583 31.8156 277.421 31.5748C278.259 31.3236 279.14 31.8051 279.412 32.7159C279.663 33.5534 279.202 34.4327 277.903 34.7572C277.212 34.7572 276.593 34.328 276.352 33.5324ZM180.544 33.8151C179.779 33.3963 179.517 32.4227 179.968 31.5853C180.397 30.8211 181.361 30.5594 182.126 30.9886C182.891 31.4178 183.153 32.3809 182.681 33.2183C182.399 33.7313 181.864 34.0244 181.319 34.0244C181.058 34.0244 180.785 33.9512 180.544 33.8151ZM273.827 27.1048C273.44 26.3196 273.765 25.3775 274.54 24.9902C275.326 24.6028 276.269 24.9273 276.688 25.7753C277.086 26.5499 276.772 27.5026 275.996 27.9004C275.766 28.0155 275.524 28.0679 275.284 28.0679C274.708 28.0784 274.152 27.7643 273.827 27.1048ZM184.211 27.6596C183.488 27.1676 183.31 26.1836 183.866 25.367C184.369 24.6551 185.353 24.4772 186.066 24.9797C186.778 25.4822 186.956 26.4662 186.401 27.2409C186.097 27.691 185.605 27.9318 185.091 27.9318C184.798 27.9318 184.484 27.848 184.211 27.6596ZM188.476 21.881C187.805 21.3157 187.721 20.3212 188.35 19.5675C188.916 18.908 189.911 18.8242 190.581 19.3895C191.242 19.9548 191.326 20.9493 190.697 21.6821C190.383 22.059 189.932 22.2474 189.481 22.2474C189.135 22.2474 188.78 22.1323 188.476 21.881ZM270.129 21.3053C269.605 20.6039 269.741 19.6198 270.443 19.0964C271.134 18.573 272.13 18.7091 272.695 19.4628C273.23 20.1537 273.115 21.1377 272.423 21.6821C272.13 21.9124 271.795 22.0171 271.449 22.0171C270.977 22.0171 270.516 21.8077 270.129 21.3053ZM193.264 16.5107C192.646 15.893 192.646 14.8985 193.348 14.1971C193.966 13.59 194.972 13.59 195.58 14.2181C196.187 14.8357 196.187 15.8407 195.496 16.5107C195.192 16.8143 194.783 16.9713 194.374 16.9713C193.976 16.9817 193.568 16.8248 193.264 16.5107ZM265.445 16.2804C264.795 15.6941 264.743 14.6996 265.33 14.0506C265.916 13.4015 266.912 13.3492 267.645 14.0087C268.284 14.5949 268.337 15.5999 267.74 16.2385C267.425 16.5839 267.006 16.7515 266.577 16.7515C266.189 16.7515 265.812 16.6153 265.445 16.2804ZM259.944 12.0197C259.221 11.5381 259.022 10.5541 259.515 9.83179C259.997 9.10948 260.981 8.91058 261.778 9.44445C262.501 9.92599 262.71 10.91 262.218 11.6323C261.914 12.093 261.411 12.3442 260.898 12.3442C260.604 12.3442 260.301 12.25 259.944 12.0197ZM198.524 11.6219C198.01 10.9205 198.157 9.92599 198.943 9.35025C199.645 8.83729 200.64 8.99432 201.153 9.69568C201.667 10.3971 201.51 11.3916 200.734 11.9569C200.452 12.1663 200.127 12.2605 199.792 12.2605C199.31 12.2605 198.828 12.0406 198.524 11.6219ZM253.877 8.59652C253.092 8.21963 252.767 7.26701 253.144 6.48186C253.532 5.69672 254.475 5.3722 255.334 5.79096C256.12 6.1678 256.455 7.10998 256.078 7.89512C255.805 8.46041 255.24 8.79542 254.653 8.79542C254.433 8.79542 254.192 8.74305 253.877 8.59652ZM204.506 7.64389C204.108 6.86921 204.412 5.91658 205.282 5.46645C206.057 5.06865 207.01 5.38271 207.409 6.15735C207.807 6.93204 207.492 7.88466 206.634 8.32434C206.403 8.43949 206.152 8.50228 205.91 8.50228C205.334 8.50228 204.779 8.18822 204.506 7.64389ZM247.423 6.00032C246.595 5.73864 246.134 4.84879 246.397 4.01132C246.658 3.1843 247.549 2.72369 248.502 3.02728C249.33 3.30993 249.77 4.19975 249.498 5.02678C249.278 5.68626 248.66 6.10502 247.999 6.10502C247.832 6.10502 247.654 6.08406 247.423 6.00032ZM211.034 4.63943C210.772 3.81242 211.223 2.92259 212.145 2.62948C212.973 2.3573 213.853 2.81791 214.125 3.64492C214.398 4.47193 213.926 5.3722 213.025 5.66535C212.868 5.71768 212.7 5.73864 212.543 5.73864C211.872 5.73864 211.244 5.30942 211.034 4.63943ZM240.644 4.22069C239.785 4.05319 239.23 3.21571 239.408 2.36776C239.576 1.50935 240.414 0.95452 241.367 1.14295C242.226 1.31045 242.782 2.14793 242.603 2.99588C242.457 3.7496 241.797 4.26256 241.053 4.26256C240.948 4.26256 240.843 4.25209 240.644 4.22069ZM217.949 2.68182C217.792 1.82341 218.358 0.996396 219.322 0.818432C220.181 0.661403 220.998 1.23717 221.156 2.10605C221.302 2.96447 220.737 3.78101 219.5 3.97991C218.756 3.96944 218.096 3.43555 217.949 2.68182ZM233.698 3.26806C232.828 3.19478 232.178 2.43058 232.262 1.56169C232.335 0.692809 233.1 0.0437651 234.054 0.127513C234.923 0.190323 235.573 0.95452 235.51 1.82341C235.447 2.65042 234.756 3.28899 233.938 3.28899C233.897 3.27852 233.855 3.27852 233.698 3.26806ZM225.064 1.64544C225.033 0.776561 225.713 0.0437651 226.667 0.00189116C227.547 -0.0399827 228.28 0.629997 228.323 1.49888C228.365 2.36776 227.694 3.11103 226.646 3.16337C225.797 3.16337 225.095 2.49339 225.064 1.64544Z" fill="url(#paint0_linear_69_4446)"/>
<path d="M174.694 54.4071C174.914 54.4071 175.144 54.3546 175.365 54.25C175.93 53.9984 176.308 53.4226 176.308 52.8053C176.329 51.9364 175.637 51.2035 174.767 51.1825C174.191 51.1615 173.667 51.4651 173.384 51.9259C173.07 52.3761 173.007 52.9729 173.258 53.4961C173.531 54.0719 174.097 54.4071 174.694 54.4071Z" fill="#FFBF1E"/>
<path d="M134.733 149.733C134.451 148.906 134.901 148.005 135.729 147.733C136.557 147.45 137.458 147.901 137.762 148.801C138.055 149.628 137.615 150.528 136.787 150.811C136.619 150.874 136.442 150.905 136.263 150.905C135.603 150.905 134.996 150.497 134.733 149.733ZM132.198 143.232C131.842 142.436 132.198 141.504 132.994 141.148C133.79 140.793 134.723 141.148 135.132 142.049C135.478 142.844 135.111 143.776 134.304 144.121C134.105 144.205 133.885 144.258 133.675 144.258C133.068 144.258 132.481 143.902 132.198 143.232ZM129.023 137.076C128.573 136.333 128.803 135.359 129.547 134.909C130.291 134.459 131.265 134.689 131.779 135.548C132.219 136.301 131.968 137.265 131.213 137.704C130.961 137.851 130.689 137.924 130.417 137.924C129.882 137.924 129.358 137.641 129.023 137.076ZM124.989 131.622C124.392 130.984 124.434 129.989 125.073 129.392C125.712 128.796 126.708 128.827 127.368 129.539C127.965 130.177 127.923 131.172 127.294 131.769C126.99 132.051 126.603 132.187 126.215 132.187C125.786 132.187 125.367 132.02 124.989 131.622ZM119.834 127.791C119.038 127.445 118.661 126.513 119.007 125.718C119.352 124.922 120.285 124.545 121.207 124.954C122.003 125.32 122.349 126.252 121.982 127.047C121.72 127.623 121.144 127.969 120.547 127.969C120.327 127.958 120.107 127.916 119.834 127.791ZM111.913 125.467C111.892 124.598 112.583 123.876 113.59 123.844C114.449 123.844 115.151 124.524 115.172 125.383C115.193 126.252 114.501 126.974 113.495 127.006C112.636 127.006 111.934 126.325 111.913 125.467ZM106.244 126.828C105.375 126.754 104.736 125.99 104.809 125.121C104.883 124.252 105.658 123.614 106.601 123.687C107.471 123.75 108.12 124.503 108.057 125.383C107.994 126.21 107.303 126.849 106.486 126.849C106.433 126.838 106.402 126.838 106.244 126.828ZM99.0359 125.77C98.1766 125.592 97.632 124.765 97.7997 123.907C97.9778 123.049 98.8052 122.504 99.7797 122.692C100.629 122.881 101.173 123.718 100.995 124.566C100.838 125.31 100.178 125.812 99.4549 125.812C99.3293 125.823 99.2141 125.812 99.0359 125.77ZM92.0577 124.179C91.2089 123.98 90.6748 123.143 90.8635 122.284C91.0622 121.436 91.9111 120.903 92.8541 121.122C93.7029 121.321 94.237 122.169 94.0383 123.017C93.8706 123.75 93.2209 124.242 92.4977 124.242C92.3931 124.231 92.2674 124.221 92.0577 124.179ZM56.9679 123.237C56.098 123.226 55.3963 122.514 55.4068 121.635C55.4173 120.766 56.119 120.075 57.083 120.075C57.9529 120.075 58.6652 120.787 58.6652 121.656C58.6652 122.525 57.9529 123.237 57.083 123.237H56.9679ZM62.5212 121.541C62.4581 120.672 63.1078 119.919 64.0718 119.845C64.9517 119.782 65.7064 120.431 65.769 121.3C65.8321 122.169 65.1824 122.923 64.0928 123.007C63.2754 123.007 62.5837 122.368 62.5212 121.541ZM85.2157 122.933C84.3462 122.829 83.7386 122.033 83.8432 121.175C83.9479 120.306 84.7442 119.698 85.7187 119.814C86.5886 119.929 87.1857 120.724 87.0705 121.593C86.9655 122.389 86.2847 122.965 85.509 122.965C85.4464 122.954 85.3728 122.954 85.2157 122.933ZM49.7174 122.86C48.8475 122.776 48.2189 122.002 48.3029 121.133C48.3865 120.264 49.1618 119.636 50.1048 119.73C50.9747 119.803 51.6139 120.567 51.5403 121.436C51.4672 122.263 50.7755 122.881 49.9687 122.881C49.9266 122.871 49.8746 122.871 49.7174 122.86ZM69.625 120.997C69.583 120.128 70.2537 119.384 71.2387 119.332C72.0976 119.301 72.8418 119.981 72.8729 120.85C72.9044 121.719 72.2232 122.452 71.1966 122.493C70.3688 122.493 69.667 121.845 69.625 120.997ZM78.29 122.41C77.4206 122.389 76.7289 121.666 76.7499 120.787C76.7709 119.919 77.4937 119.238 78.4682 119.248C79.3376 119.269 80.0293 119.992 80.0083 120.871C79.9873 121.729 79.2855 122.41 78.4261 122.41C78.4051 122.41 78.3946 122.41 78.29 122.41ZM42.5296 121.845C41.6704 121.677 41.1046 120.861 41.2722 120.002C41.4399 119.144 42.2571 118.578 43.2106 118.767C44.0698 118.924 44.6356 119.751 44.4679 120.609C44.3212 121.373 43.6611 121.897 42.9172 121.897C42.8229 121.887 42.7182 121.876 42.5296 121.845ZM35.4466 120.149C34.6084 119.898 34.1369 119.018 34.3883 118.181C34.6398 117.343 35.52 116.872 36.4315 117.144C37.2697 117.385 37.7517 118.254 37.5212 119.091C37.3221 119.782 36.6935 120.232 36.0019 120.232C35.8448 120.243 35.6981 120.222 35.4466 120.149ZM28.5732 117.72C27.7664 117.385 27.3997 116.464 27.735 115.657C28.0703 114.852 29.0028 114.475 29.9039 114.852C30.7002 115.197 31.0774 116.129 30.7316 116.925C30.4697 117.521 29.8934 117.877 29.2753 117.877C29.0552 117.877 28.8457 117.835 28.5732 117.72ZM22.0142 114.485C21.2598 114.056 20.9978 113.083 21.4274 112.329C21.857 111.575 22.821 111.313 23.6801 111.795C24.4345 112.235 24.686 113.198 24.2459 113.951C23.9525 114.454 23.4287 114.736 22.8838 114.736C22.6114 114.736 22.3285 114.673 22.0142 114.485ZM15.9161 110.371C15.2351 109.827 15.1198 108.832 15.6647 108.152C16.2095 107.471 17.2049 107.356 17.9488 107.953C18.6403 108.487 18.7556 109.481 18.2212 110.172C17.9069 110.57 17.4459 110.779 16.9744 110.779C16.6391 110.769 16.2933 110.664 15.9161 110.371ZM10.5201 105.357C9.93334 104.707 9.98574 103.713 10.6354 103.127C11.285 102.541 12.2804 102.593 12.93 103.315C13.5167 103.965 13.4643 104.959 12.8147 105.545C12.5109 105.817 12.1337 105.954 11.7565 105.954C11.3269 105.943 10.8973 105.765 10.5201 105.357ZM6.06708 99.4733C5.60606 98.7299 5.83655 97.7564 6.57 97.2962C7.31392 96.8354 8.28833 97.0656 8.80176 97.8925C9.26279 98.6359 9.03225 99.6094 8.28833 100.07C8.02641 100.227 7.74352 100.311 7.46063 100.311C6.92623 100.29 6.41284 100.028 6.06708 99.4733ZM2.76658 92.8364C2.45225 92.02 2.86088 91.1091 3.66767 90.7949C4.48493 90.4808 5.39649 90.8894 5.75276 91.7894C6.06708 92.6058 5.65841 93.5168 4.84117 93.8309C4.65257 93.904 4.46398 93.9355 4.27538 93.9355C3.63623 93.946 3.03901 93.5483 2.76658 92.8364ZM72.0245 86.2936C72.0035 85.4247 72.6947 84.7024 73.7007 84.6709C74.5601 84.6709 75.2619 85.3512 75.2829 86.2096C75.3039 87.0786 74.6122 87.8009 73.6066 87.8324C72.7578 87.8324 72.0455 87.1521 72.0245 86.2936ZM66.2195 87.2987C65.3606 87.1311 64.7945 86.3147 64.9622 85.4562C65.1194 84.5978 65.9577 84.0325 66.9217 84.2206C67.7811 84.3987 68.3257 85.2256 68.158 86.0841C68.0008 86.8379 67.3512 87.3507 66.6074 87.3507C66.5133 87.3507 66.4082 87.3402 66.2195 87.2987ZM79.1388 85.8539C79.0338 84.985 79.6419 84.2001 80.5848 84.0846C81.4543 83.9695 82.2506 84.5663 82.3657 85.4352C82.4813 86.2936 81.8837 87.0996 80.7 87.2461C79.9247 87.2356 79.2435 86.6599 79.1388 85.8539ZM0.754862 85.7284C0.587218 84.8699 1.15301 84.043 2.01219 83.8859C2.87136 83.7184 3.6991 84.2836 3.87722 85.2361C4.03439 86.0946 3.46859 86.9215 2.32652 87.1101C1.5826 87.1101 0.912025 86.5868 0.754862 85.7284ZM86.1902 84.7754C86.0225 83.9174 86.578 83.0901 87.521 82.9019C88.3799 82.7239 89.2078 83.2786 89.386 84.1371C89.5641 84.9955 89.0086 85.8224 87.7408 86.0526C86.997 86.0526 86.3368 85.5293 86.1902 84.7754ZM93.1579 83.2891C92.9482 82.4412 93.4512 81.5828 94.3942 81.3527C95.243 81.1326 96.1024 81.6453 96.3221 82.4937C96.5424 83.3417 96.0288 84.2001 94.698 84.4928C93.9857 84.4827 93.3466 84.001 93.1579 83.2891ZM59.1472 83.9069C58.487 83.3312 58.4139 82.3367 58.99 81.6768C59.5661 81.0175 60.5616 80.944 61.3159 81.6038C61.9656 82.1901 62.0181 83.1846 61.4315 83.8334C61.1172 84.1791 60.6873 84.3567 60.2578 84.3567C59.8805 84.3567 59.5035 84.2206 59.1472 83.9069ZM100.063 81.4992C99.8218 80.6613 100.314 79.7824 101.247 79.5203C102.085 79.2796 102.965 79.7719 103.196 80.6093C103.437 81.4467 102.944 82.3157 101.582 82.6398C100.89 82.6398 100.262 82.1901 100.063 81.4992ZM106.905 79.4892C106.643 78.6618 107.114 77.7724 108.036 77.4792C108.864 77.2176 109.755 77.6883 110.017 78.5153C110.279 79.3532 109.807 80.2321 108.885 80.5253C108.728 80.5778 108.571 80.5988 108.414 80.5988C107.743 80.5988 107.114 80.1696 106.905 79.4892ZM0.00046383 78.4107C-0.0204916 77.5418 0.67104 76.8194 1.5826 76.7884C2.44177 76.7884 3.14378 77.4687 3.16474 78.4212C3.18569 79.2901 2.49416 80.023 1.5826 80.044C0.723425 80.0545 0.0214193 79.3637 0.00046383 78.4107ZM53.7196 79.4682C53.0178 78.9445 52.8817 77.95 53.4052 77.2591C53.9293 76.5578 54.9248 76.4217 55.7001 77.0185C56.3918 77.5523 56.5279 78.5363 55.9934 79.2376C55.6791 79.6463 55.2181 79.8554 54.7361 79.8554C54.4218 79.8449 54.0759 79.7299 53.7196 79.4682ZM113.694 77.3221C113.422 76.4952 113.872 75.6053 114.784 75.3016C115.612 75.0295 116.513 75.4692 116.785 76.2961C117.068 77.1231 116.618 78.0235 115.685 78.3377C115.517 78.3897 115.35 78.4212 115.193 78.4212C114.532 78.4107 113.914 77.9815 113.694 77.3221ZM120.453 75.0295C120.159 74.2026 120.599 73.3021 121.5 72.988C122.318 72.6948 123.229 73.1241 123.522 73.9514C123.816 74.7784 123.386 75.6783 122.464 76.003C122.297 76.066 122.118 76.0971 121.94 76.0971C121.29 76.087 120.683 75.6783 120.453 75.0295ZM48.0096 75.3957C47.2759 74.9144 47.0767 73.9409 47.5587 73.2081C48.0407 72.4752 49.0152 72.2761 49.843 72.8204C50.5658 73.3021 50.765 74.2861 50.2725 75.0085C49.9687 75.4587 49.4657 75.7098 48.9627 75.7098C48.6483 75.7098 48.3445 75.6158 48.0096 75.3957ZM127.169 72.6218C126.865 71.8054 127.284 70.8944 128.196 70.5593C129.013 70.2561 129.924 70.6748 130.228 71.4912C130.532 72.3076 130.113 73.2186 129.212 73.5533C129.034 73.6268 128.845 73.6583 128.657 73.6583C128.007 73.6478 127.399 73.2601 127.169 72.6218ZM1.71881 72.9359C0.84916 72.8309 0.241452 72.0355 0.356706 71.104C0.451006 70.2351 1.23684 69.6068 2.10649 69.7113C2.97614 69.8059 3.6048 70.5908 3.48955 71.5748C3.38477 72.3706 2.70372 72.9569 1.91789 72.9569C1.85502 72.9464 1.78168 72.9464 1.71881 72.9359ZM42.0266 71.6798C41.2722 71.2401 41.0103 70.2766 41.4504 69.5232C41.8904 68.7694 42.8544 68.5077 43.703 68.9995C44.4575 69.4392 44.7089 70.4127 44.2689 71.1561C43.9755 71.6588 43.4411 71.9414 42.9068 71.9414C42.6343 71.9414 42.3514 71.8679 42.0266 71.6798ZM133.832 70.1095C133.518 69.2926 133.927 68.3821 134.828 68.0365C135.645 67.7223 136.557 68.1305 136.871 68.9369C137.185 69.7533 136.777 70.6643 135.865 71.02C135.676 71.0935 135.488 71.1246 135.299 71.1246C134.681 71.1246 134.073 70.7373 133.832 70.1095ZM35.8448 68.3506C35.0589 67.9634 34.7446 67.021 35.1323 66.2361C35.52 65.4507 36.4629 65.1365 37.3431 65.5658C38.1289 65.9534 38.4432 66.9059 38.0451 67.6808C37.7726 68.2356 37.2069 68.5497 36.6306 68.5497C36.3896 68.5598 36.1486 68.5077 35.8448 68.3506ZM140.486 67.5237C140.161 66.7173 140.559 65.7963 141.46 65.4297C142.278 65.1055 143.189 65.5032 143.514 66.3091C143.839 67.1155 143.44 68.0365 142.539 68.4031C142.351 68.4762 142.152 68.5182 141.953 68.5182C141.324 68.5182 140.727 68.1411 140.486 67.5237ZM2.80849 65.8799C2.0541 65.4402 1.80263 64.4667 2.30556 63.6083C2.75611 62.8649 3.73053 62.6243 4.47445 63.085C5.21836 63.5352 5.45936 64.5087 4.9669 65.3146C4.67354 65.8174 4.14965 66.1 3.6048 66.1C3.34286 66.0895 3.05996 66.0265 2.80849 65.8799ZM147.097 64.8439C146.772 64.0375 147.16 63.1165 148.051 62.7498C148.858 62.4151 149.779 62.8023 150.115 63.6083C150.45 64.4146 150.062 65.3356 149.161 65.7123C148.962 65.7963 148.763 65.8279 148.564 65.8279C147.936 65.8279 147.338 65.4612 147.097 64.8439ZM29.4429 65.4717C28.6361 65.1365 28.2484 64.2156 28.5837 63.4096C28.919 62.6033 29.841 62.2161 30.7212 62.5823C31.5279 62.9069 31.9261 63.8284 31.6013 64.6343C31.3498 65.2521 30.763 65.6288 30.1344 65.6288C29.9458 65.6288 29.7467 65.5868 29.4429 65.4717ZM22.8733 63.179C22.0351 62.9279 21.5636 62.0485 21.8151 61.2111C22.0665 60.3736 22.9467 59.9024 23.8478 60.1746C24.686 60.4156 25.1784 61.2846 24.9375 62.122C24.7384 62.8234 24.1097 63.2736 23.4182 63.2736C23.2715 63.2736 23.1353 63.2526 22.8733 63.179ZM153.677 62.101C153.342 61.2946 153.73 60.3736 154.599 60.0074C155.396 59.6618 156.328 60.028 156.674 60.8344C157.019 61.6298 156.653 62.5617 155.741 62.9594C155.542 63.043 155.343 63.085 155.134 63.085C154.515 63.0745 153.929 62.7083 153.677 62.101ZM7.74352 60.9179C7.52349 60.07 8.03687 59.2116 9.00082 58.9709C9.84955 58.7718 10.6982 59.2851 10.9078 60.133C11.1173 60.9809 10.5935 61.8394 9.27325 62.101C8.57123 62.1115 7.92161 61.6298 7.74352 60.9179ZM16.1571 61.7973C15.2875 61.6928 14.6797 60.8969 14.7846 60.0385C14.8893 59.1695 15.6856 58.5627 16.6286 58.6778C17.4983 58.7718 18.1165 59.5572 18.0222 60.4261C17.9279 61.2321 17.2468 61.8289 16.4505 61.8289C16.3876 61.8184 16.3353 61.8184 16.1571 61.7973ZM160.247 59.3161C159.89 58.5207 160.247 57.5892 161.148 57.1805C161.944 56.8353 162.877 57.2016 163.222 58.0079C163.568 58.8033 163.201 59.7348 162.332 60.112C162.122 60.2061 161.903 60.2481 161.693 60.2481C161.085 60.2586 160.509 59.9024 160.247 59.3161ZM166.764 56.4271C166.408 55.6313 166.764 54.6998 167.644 54.3021C168.44 53.9459 169.373 54.2916 169.74 55.087C170.096 55.8829 169.75 56.8143 168.86 57.2226C168.65 57.3166 168.43 57.3586 168.221 57.3586C167.612 57.3691 167.036 57.0134 166.764 56.4271Z" fill="url(#paint1_linear_69_4446)"/>
<path d="M138.254 157.658C139.469 157.417 139.993 156.559 139.794 155.711C139.574 154.81 138.726 154.287 137.877 154.497C137.028 154.695 136.504 155.554 136.703 156.402C136.892 157.177 137.541 157.658 138.254 157.658Z" fill="#FFBF1E"/>
<path fill-rule="evenodd" clip-rule="evenodd" d="M116.167 195.951V198.673C116.167 202.902 112.731 206.325 108.497 206.325H59.535C55.3021 206.325 51.8651 202.902 51.8651 198.673V195.951C51.8651 191.722 55.3021 188.288 59.535 188.288H108.497C112.731 188.288 116.167 191.722 116.167 195.951Z" fill="#FFEEB3"/>
<path d="M50.7769 198.663V195.941C50.7769 191.115 54.7059 187.179 59.5465 187.179H108.509C113.339 187.179 117.279 191.104 117.279 195.941V198.663C117.279 203.488 113.35 207.424 108.509 207.424H59.5359C54.7059 207.424 50.7769 203.499 50.7769 198.663ZM59.5359 189.398C55.9212 189.398 52.9771 192.339 52.9771 195.951V198.673C52.9771 202.285 55.9212 205.226 59.5359 205.226H108.499C112.113 205.226 115.057 202.285 115.057 198.673V195.951C115.057 192.339 112.113 189.398 108.499 189.398H59.5359Z" fill="#001A49"/>
<path fill-rule="evenodd" clip-rule="evenodd" d="M110.646 197.124C110.646 200.317 108.058 202.903 104.862 202.903H61.5896C58.3938 202.903 55.8057 200.317 55.8057 197.124C55.8057 193.931 58.3938 191.345 61.5896 191.345H104.862C108.058 191.345 110.646 193.931 110.646 197.124Z" fill="white"/>
<path d="M54.7046 197.122C54.7046 193.333 57.7958 190.245 61.5887 190.245H104.862C108.654 190.245 111.746 193.333 111.746 197.122C111.746 200.912 108.654 204 104.862 204H61.5887C57.7958 204 54.7046 200.912 54.7046 197.122ZM61.5887 192.454C59.011 192.454 56.9154 194.547 56.9154 197.122C56.9154 199.698 59.011 201.792 61.5887 201.792H104.862C107.439 201.792 109.535 199.698 109.535 197.122C109.535 194.547 107.439 192.454 104.862 192.454H61.5887Z" fill="#001A49"/>
<path fill-rule="evenodd" clip-rule="evenodd" d="M102.955 178.752V179.421C102.955 183.651 99.5284 187.074 95.2955 187.074H59.535C55.3021 187.074 51.8651 183.64 51.8651 179.421V178.752C51.8651 174.522 55.3021 171.099 59.535 171.099H95.285C99.5179 171.099 102.955 174.522 102.955 178.752Z" fill="url(#paint2_linear_69_4446)" fill-opacity="0.2"/>
<path d="M50.7769 179.422V178.752C50.7769 173.926 54.7059 169.99 59.5465 169.99H95.2965C100.127 169.99 104.067 173.916 104.067 178.752V179.422C104.067 184.248 100.137 188.184 95.2965 188.184H59.536C54.7059 188.184 50.7769 184.258 50.7769 179.422ZM59.536 172.199C55.9212 172.199 52.9771 175.14 52.9771 178.752V179.422C52.9771 183.034 55.9212 185.975 59.536 185.975H95.286C98.9007 185.975 101.845 183.034 101.845 179.422V178.752C101.845 175.14 98.9007 172.199 95.286 172.199H59.536Z" fill="#001A49"/>
<path fill-rule="evenodd" clip-rule="evenodd" d="M164.386 150.298L176.068 196.81C176.728 199.427 175.241 201.541 172.757 201.541H102.001C99.5179 201.541 96.9718 199.427 96.3116 196.81L84.629 150.309C83.9689 147.692 85.4569 145.577 87.94 145.577H158.696C161.179 145.567 163.725 147.681 164.386 150.298Z" fill="white"/>
<path d="M87.94 147.765H158.696C160.174 147.765 161.839 149.199 162.248 150.832L173.931 197.343C174.099 198.003 174.036 198.579 173.753 198.935C173.543 199.207 173.208 199.343 172.757 199.343H102.001C100.524 199.343 98.8578 197.909 98.4493 196.276L86.7667 149.775C86.5991 149.115 86.6617 148.539 86.9449 148.184C87.1542 147.901 87.4895 147.765 87.94 147.765ZM87.94 145.566C85.4569 145.566 83.9689 147.681 84.629 150.298L96.3116 196.81C96.9718 199.426 99.5179 201.541 102.001 201.541H172.757C175.241 201.541 176.728 199.426 176.068 196.81L164.386 150.309C163.725 147.691 161.179 145.577 158.696 145.577H87.94V145.566Z" fill="#001A49"/>
<path fill-rule="evenodd" clip-rule="evenodd" d="M214.836 200.379V202.798C214.836 205.331 212.772 207.393 210.236 207.393H102.85C100.314 207.393 98.2501 205.331 98.2501 202.798V200.379C98.2501 199.322 99.109 198.464 100.168 198.464H212.908C213.976 198.474 214.836 199.322 214.836 200.379Z" fill="white"/>
<path d="M100.461 200.673H212.625V202.798C212.625 204.117 211.546 205.195 210.226 205.195H102.85C101.53 205.195 100.45 204.117 100.45 202.798V200.673H100.461ZM100.168 198.474C99.109 198.474 98.2501 199.333 98.2501 200.39V202.809C98.2501 205.342 100.314 207.404 102.85 207.404H210.226C212.761 207.404 214.825 205.342 214.825 202.809V200.39C214.825 199.333 213.966 198.474 212.908 198.474H100.168Z" fill="#001A49"/>
<path fill-rule="evenodd" clip-rule="evenodd" d="M159.536 154.643L168.672 190.916C169.186 192.958 167.897 194.611 165.791 194.611H105.932C103.826 194.611 101.71 192.958 101.196 190.916L92.0595 154.643C91.546 152.601 92.8348 150.948 94.9406 150.948H154.8C156.896 150.958 159.022 152.612 159.536 154.643Z" fill="url(#paint3_linear_69_4446)" fill-opacity="0.2"/>
<path d="M100.126 191.187L90.9886 154.914C90.6638 153.605 90.8945 152.318 91.6488 151.354C92.393 150.402 93.5978 149.847 94.9387 149.847H154.798C157.417 149.847 159.963 151.836 160.603 154.369L169.74 190.643C170.064 191.941 169.834 193.239 169.079 194.202C168.335 195.155 167.13 195.71 165.789 195.71H105.93C103.31 195.71 100.765 193.721 100.126 191.187ZM94.9282 152.056C94.258 152.056 93.7129 152.286 93.3776 152.716C93.0422 153.134 92.9586 153.731 93.1158 154.38L102.252 190.653C102.64 192.202 104.327 193.511 105.92 193.511H165.779C166.449 193.511 166.994 193.281 167.33 192.852C167.665 192.433 167.749 191.836 167.591 191.187L158.455 154.914C158.067 153.364 156.38 152.056 154.788 152.056H94.9282Z" fill="#001A49"/>
<path fill-rule="evenodd" clip-rule="evenodd" d="M48.6688 150.132C43.0106 149.348 41.5018 145.767 41.5018 145.767C41.5018 145.767 44.5089 142.689 49.4126 143.443C53.8447 144.124 55.4058 145.955 56.9459 148.091C56.9459 148.091 54.3162 150.918 48.6688 150.132Z" fill="white"/>
<path d="M48.5131 151.221C42.3 150.362 40.5502 146.353 40.4874 146.185L40.2045 145.515L40.7179 144.992C40.8541 144.845 44.1755 141.516 49.5822 142.343C54.3601 143.076 56.1515 145.086 57.8487 147.441L58.3728 148.174L57.7651 148.833C57.6605 148.949 55.3552 151.367 50.6087 151.367C49.9486 151.377 49.2573 151.325 48.5131 151.221ZM49.2468 144.531C46.1767 144.06 43.966 145.264 42.9391 146.007C43.6412 146.939 45.3281 148.561 48.8274 149.043C52.2644 149.514 54.4122 148.561 55.4392 147.891C54.1294 146.248 52.6414 145.055 49.2468 144.531Z" fill="#001A49"/>
<path fill-rule="evenodd" clip-rule="evenodd" d="M249.621 55.9039V117.187C249.621 126.702 241.899 134.418 232.375 134.418H42.8328C33.3085 134.418 25.5864 126.702 25.5864 117.187V55.9039C25.5864 46.3881 33.3085 38.6729 42.8328 38.6729H232.385C241.909 38.6833 249.621 46.3986 249.621 55.9039Z" fill="white"/>
<path d="M42.8327 38.6825H232.385C241.909 38.6825 249.631 46.3977 249.631 55.9134V117.196C249.631 126.712 241.909 134.427 232.385 134.427H42.8327C33.3084 134.427 25.5863 126.712 25.5863 117.196V55.9029C25.5863 46.3977 33.3084 38.6825 42.8327 38.6825ZM42.8327 36.4737C32.1139 36.4737 23.386 45.1939 23.386 55.9029V117.186C23.386 127.895 32.1139 136.615 42.8327 136.615H232.385C243.104 136.615 251.832 127.895 251.832 117.186V55.9029C251.832 45.1939 243.104 36.4737 232.385 36.4737H42.8327Z" fill="#001A49"/>
<path fill-rule="evenodd" clip-rule="evenodd" d="M59.2733 144.928C59.2733 144.928 61.1488 146.927 62.4376 149.021C63.7264 151.115 64.4807 154.506 64.4807 154.506L59.2733 144.928Z" fill="white"/>
<path d="M64.4793 155.605C65.3172 155.448 65.6841 154.862 65.5585 154.265C65.5269 154.119 64.7411 150.675 63.3792 148.445C62.0483 146.278 60.1624 144.258 60.0788 144.174C59.6594 143.734 58.9681 143.713 58.5172 144.122C58.0772 144.54 58.0562 145.231 58.4651 145.681C58.4861 145.702 60.2775 147.618 61.4932 149.596C62.677 151.512 63.4002 154.716 63.4002 154.747C63.5153 155.249 63.9763 155.605 64.4793 155.605Z" fill="#001A49"/>
<path fill-rule="evenodd" clip-rule="evenodd" d="M76.6987 159.773C76.7302 165.51 71.4283 170.158 64.8484 170.158C58.2682 170.158 52.9141 165.51 52.8826 159.773C52.8515 154.037 58.153 149.389 64.7329 149.389C71.3026 149.389 76.6672 154.037 76.6987 159.773Z" fill="white"/>
<path d="M51.7814 159.783C51.7709 156.977 52.9131 154.276 54.9983 152.172C57.4498 149.701 61.002 148.288 64.7319 148.288C71.8988 148.288 77.7663 153.439 77.7978 159.772C77.8184 162.577 76.6767 165.279 74.581 167.383C72.129 169.853 68.5773 171.266 64.847 171.266C57.6805 171.266 51.813 166.116 51.7814 159.783ZM56.5594 153.721C54.8827 155.407 53.9712 157.553 53.9817 159.762C54.0132 164.891 58.8853 169.058 64.847 169.058C67.9907 169.058 70.9768 167.875 73.0199 165.823C74.6962 164.138 75.6076 161.992 75.5971 159.783C75.566 154.653 70.6935 150.486 64.7319 150.486C61.5781 150.486 58.6025 151.669 56.5594 153.721Z" fill="#001A49"/>
<path d="M64.1964 198.507H97.5154C98.123 198.507 98.6156 198.016 98.6156 197.408C98.6156 196.801 98.123 196.309 97.5154 196.309H64.1964C63.5883 196.309 63.0958 196.801 63.0958 197.408C63.0958 198.016 63.5883 198.507 64.1964 198.507Z" fill="#001A49"/>
<path d="M64.291 195.481H92.6644C93.2721 195.481 93.7646 194.989 93.7646 194.381C93.7646 193.774 93.2721 193.282 92.6644 193.282H64.291C63.6829 193.282 63.1904 193.774 63.1904 194.381C63.1904 194.989 63.6829 195.481 64.291 195.481Z" fill="#001A49"/>
<path d="M44.7961 209.128H272.728C273.245 209.128 273.665 208.617 273.665 207.987C273.665 207.356 273.245 206.845 272.728 206.845H44.7961C44.2787 206.845 43.8595 207.356 43.8595 207.987C43.8506 208.617 44.2698 209.128 44.7961 209.128Z" fill="#001A49"/>
<path d="M52.3079 105.628C53.1147 103.043 54.1417 100.708 55.1788 97.9756C55.4511 97.2537 55.6818 95.924 56.5202 95.8715C57.1799 95.83 58.3641 97.0966 58.8146 97.4943C60.4177 98.918 62.0629 100.572 63.6451 101.923L59.6634 92.1447C58.9928 93.4533 57.1383 94.2597 55.7444 94.4268C51.4384 94.94 48.0224 89.894 46.5454 87.9155C44.0724 92.1552 46.5559 96.3113 48.4624 99.5879C49.7722 101.839 50.9354 104.006 52.3079 105.628Z" fill="#FFEEB3"/>
<path d="M100.671 75.5532C97.6426 75.5532 94.9187 74.2866 92.9697 72.2556C91.1568 76.4537 91.293 79.7929 93.4202 82.1905C97.3913 86.6708 107.901 87.8434 121.134 85.9169C115.979 82.3056 111.641 77.5947 108.487 72.1195C106.538 74.224 103.762 75.5532 100.671 75.5532Z" fill="white"/>
<path d="M187.689 41.2788C188.37 44.3146 188.748 47.4762 188.748 50.7108C188.748 53.7888 188.412 56.7824 187.805 59.6718C199.539 52.5012 207.817 45.8223 212.878 41.2788H187.689Z" fill="white"/>
<path d="M53.848 83.0485C54.6758 82.7659 56.5828 84.6083 57.3896 85.0585C61.193 87.1941 65.9705 85.9695 68.4956 83.3312C72.3936 79.2906 72.2155 70.8634 71.8486 63.0434C71.8066 62.1115 71.4191 60.6357 71.6599 59.8819C71.6809 59.8293 71.7125 59.7773 71.7545 59.7143L69.2814 58.4266C68.894 59.3376 66.8404 59.3166 65.7192 59.4001C63.8228 59.5467 62.7121 59.5887 61.0254 59.5887C58.0393 59.5887 53.3449 59.4526 52.402 61.0229C50.6627 63.9124 54.9901 70.0049 53.4601 73.1766C52.7268 74.7053 50.5055 74.5902 49.2482 73.6583C48.5254 73.1245 48.0329 71.6693 46.66 71.6483C43.7474 71.6067 44.7323 75.7729 46.4718 76.6208C47.6345 77.1966 49.3007 76.7048 49.9189 77.7724C49.573 79.9394 49.3112 82.2841 48.9654 84.6608C48.8503 85.4042 48.5149 86.2831 48.5775 86.8589C48.7036 87.8954 50.5265 89.5913 51.1657 90.2091C52.8004 91.8004 55.6083 93.5173 57.8716 91.2557C58.0598 90.073 58.238 88.8794 58.5418 87.8119C57.295 87.1941 55.849 86.3567 54.6128 85.4142C53.9316 84.9225 52.2973 83.5718 53.848 83.0485ZM57.777 72.6113C57.0227 71.8994 56.761 69.8899 57.1063 68.6858C59.0764 66.8224 60.0824 73.3026 57.777 72.6113ZM68.3074 72.0355C66.5156 72.3917 67.1022 69.4186 67.1547 68.0159C69.3025 65.7338 69.6903 71.7634 68.3074 72.0355ZM69.837 63.7133C70.277 63.8599 70.6648 64.1425 70.6018 64.7708C70.4867 65.9219 67.9616 65.7548 67.2488 66.1105C64.525 67.4507 64.9439 72.1405 65.9079 75.0089C66.2222 75.9509 66.6937 77.5107 65.3314 77.5002C64.4409 77.4897 63.9589 76.045 63.6026 74.7263C62.0625 68.9159 63.8543 63.6503 69.837 63.7133ZM64.6716 78.8299C65.2793 78.8614 66.5887 77.9504 67.2593 78.7354C68.4225 80.086 65.7403 80.8084 64.483 80.7454C62.7857 80.6618 61.57 79.3427 60.3652 79.018C60.6375 79.9184 60.5118 80.2326 61.2241 80.8399C62.0309 81.5307 64.022 81.2691 64.1896 82.3682C64.3989 83.7184 63.0159 83.5302 62.1776 83.3207C60.166 82.8289 58.1019 80.976 58.3431 78.5367C58.7305 74.7263 62.9844 78.7564 64.6716 78.8299ZM57.0017 63.9019C57.5047 63.8073 58.1334 63.9329 58.5313 63.9959C59.2966 64.1215 60.187 64.4251 60.3547 65.0534C60.5013 65.5977 60.3021 66.1315 59.7786 66.2991C59.0343 66.5397 58.4477 65.7233 57.4837 65.9119C56.3626 66.1315 56.2474 67.6703 55.3776 67.7333C54.9481 67.7643 54.4451 67.5342 54.3194 67.1575C53.8795 65.7753 55.9957 64.09 57.0017 63.9019ZM49.7302 76.15C48.8398 76.2336 46.3667 74.5482 46.4718 73.6583C46.5764 72.7474 47.3412 72.9254 47.7186 72.9884C48.4624 73.1245 49.0595 73.7734 49.3428 73.9409C49.8979 74.2866 50.6416 74.5797 50.5896 75.2811C50.558 75.6578 50.2017 76.108 49.7302 76.15Z" fill="white"/>
<path d="M64.954 102.949C64.2103 97.8829 62.4915 93.7999 59.8723 90.6072C59.9979 91.183 59.9038 91.6958 59.6731 92.1565L63.6547 101.934C64.0947 102.29 64.5351 102.646 64.954 102.949Z" fill="white"/>
<path d="M135.457 99.7878C136.043 99.2331 136.4 98.4267 136.609 97.4952C135.98 96.7309 134.817 97.5998 134.409 97.9769C134.88 98.4477 135.509 98.7829 135.457 99.7878Z" fill="white"/>
<path d="M123.765 115.679C123.43 115.365 122.121 117.071 121.471 115.773C120.79 114.423 123.86 112.737 124.635 112.141C128.543 109.094 132.818 105.744 133.541 100.081C130.691 101.233 130.597 104.07 128.271 105.922C125.096 108.456 119.365 108.048 116.871 110.612C116.138 111.366 115.603 114.025 114.378 113.962C111.737 113.836 115.54 109.032 115.813 108.79C119.271 105.796 126.856 106.592 128.46 102.279C125.966 102.844 122.801 103.588 119.836 104.289C118.967 104.499 117.269 105.075 116.672 104.478C115.824 103.619 116.808 102.039 117.249 101.41C118.202 100.06 120.381 99.5262 120.119 97.4847C117.877 97.2336 116.043 98.6989 114.66 99.8819C111.737 102.384 109.484 105.933 109.484 111.178C109.484 113.732 110.04 115.689 110.731 118.066C112.125 122.818 113.539 128.597 114.744 134.417H130.607C128.313 128.168 125.976 121.887 123.765 115.679Z" fill="white"/>
<path d="M136.798 101.705C137.951 100.972 139.785 100.428 139.386 98.4491C139.219 98.334 138.831 98.4281 138.716 98.2605C138.098 99.4331 137.49 100.616 136.798 101.705Z" fill="white"/>
<path d="M74.0576 57.7782C74.8955 56.9719 75.4721 56.365 76.0692 55.5797C74.3299 55.2135 71.3333 56.6267 70.4219 55.3911C69.7617 54.4911 70.9144 51.6752 70.7047 50.1254C67.205 50.7642 62.6368 51.4761 58.4455 51.6542C54.2336 51.8318 49.6549 51.6542 47.1402 53.9468C43.6511 57.1289 43.0644 64.258 44.9399 70.1205C46.4696 69.199 48.1879 69.8588 49.3405 70.8848C50.0112 71.4707 50.4512 72.6853 51.4467 72.3186C51.8867 71.5967 51.5934 70.6437 51.4467 69.9214C50.7655 66.6762 48.4081 60.9083 51.8341 58.7202C54.5059 57.0139 61.0967 57.7257 65.6229 57.3801C67.0584 57.2755 69.2902 56.6682 69.3633 58.0504C69.3738 58.1865 69.3322 58.3015 69.2902 58.4166L71.7628 59.7042C72.1506 59.139 73.6382 58.176 74.0576 57.7782Z" fill="#F7C154"/>
<path d="M99.6345 126.106C97.4863 120.767 95.789 115.25 93.7879 110.026C91.6923 104.562 89.0936 100.134 83.9177 98.061C78.6057 95.9254 72.3503 95.9044 64.9531 95.0985C65.5818 96.7838 66.2524 98.5112 66.6819 100.647C66.9126 101.808 67.9917 106.352 66.3886 106.582C65.4771 106.708 64.2929 105.305 63.8004 104.855C61.4325 102.73 59.2217 100.416 57.0004 98.8249C56.3612 100.563 55.7011 102.154 54.9888 104.091C54.5593 105.263 53.8151 108.843 52.4952 108.875C51.5207 108.896 50.1898 106.425 49.7183 105.713C48.7964 104.332 48.0946 103.107 47.424 101.976C45.5274 98.7833 43.61 95.8624 43.4004 91.7378C37.6062 93.5803 31.4872 95.7158 25.5883 97.6318V117.187C25.5883 126.703 33.3103 134.418 42.8346 134.418H78.9096C79.5277 130.932 80.1353 127.509 80.764 124.002C81.0678 122.327 80.9947 120.076 82.3882 120.369C83.8026 120.662 82.9327 122.913 82.671 124.483C82.1259 127.791 81.5603 131.11 80.9842 134.428H103.092C101.856 131.581 100.661 128.671 99.6345 126.106Z" fill="url(#paint4_linear_69_4446)"/>
<path d="M95.1288 108.026C92.7609 102.216 89.7958 98.1441 84.1169 95.9665C78.4591 93.7994 71.7426 93.7889 63.9996 93.004C62.8784 91.4127 61.988 89.5913 60.6466 88.2201C67.279 88.3457 71.1976 84.6293 72.8112 79.123C74.2257 74.3176 74.1211 69.115 73.7647 63.3361C73.7231 62.6037 73.4609 61.7138 73.576 61.138C73.7857 60.091 75.7347 58.7928 76.7403 57.7878C77.453 57.076 79.9046 55.4641 79.6113 54.2496C79.2344 52.6793 73.6391 54.145 72.3292 53.8624C72.0464 52.8784 73.7437 48.0104 71.9418 48.0209C69.8987 48.0419 67.6669 48.6908 65.6238 48.9734C63.4651 49.2771 61.2858 49.4866 59.0124 49.6437C54.4022 49.9679 49.6973 49.6748 46.6591 51.8418C41.3153 55.6523 40.9067 64.2996 43.4004 71.4597C41.7344 75.0715 44.1862 78.7669 47.8114 78.9239C47.5496 80.3266 47.3189 81.7504 47.2353 83.3206C45.5064 84.7549 44.5844 86.995 43.8824 89.4447C38.3082 91.3502 31.7492 93.3392 25.6826 95.3802C25.6616 95.3907 25.6197 95.4012 25.5883 95.4117V97.6309C31.4872 95.7259 37.6062 93.5903 43.4004 91.7374C43.61 95.8619 45.5274 98.7929 47.4239 101.976C48.0946 103.106 48.7964 104.331 49.7183 105.713C50.1898 106.425 51.5207 108.895 52.4952 108.874C53.8046 108.843 54.5488 105.263 54.9888 104.09C55.701 102.164 56.3612 100.562 57.0004 98.8244C59.2217 100.416 61.4325 102.729 63.8004 104.854C64.2929 105.294 65.4771 106.707 66.3886 106.582C67.9917 106.351 66.9126 101.808 66.6819 100.646C66.2524 98.5103 65.5817 96.7829 64.9531 95.0976C72.3503 95.904 78.6057 95.935 83.9177 98.0601C89.0936 100.133 91.6923 104.561 93.7879 110.026C95.789 115.25 97.4863 120.766 99.6345 126.105C100.661 128.67 101.856 131.58 103.103 134.417H105.25C103.836 131.256 102.474 127.979 101.258 124.954C99.0684 119.5 97.3081 113.365 95.1288 108.026ZM54.6114 85.4352C55.8481 86.3672 57.2937 87.2046 58.5405 87.8324C58.2367 88.9004 58.0589 90.0936 57.8702 91.2766C55.6174 93.5378 52.799 91.8104 51.1643 90.2301C50.5252 89.6123 48.7023 87.9164 48.5762 86.8799C48.5031 86.3041 48.8489 85.4247 48.964 84.6813C49.3204 82.2946 49.5717 79.9604 49.9175 77.7934C49.2994 76.7254 47.6332 77.2176 46.4705 76.6418C44.7311 75.7939 43.7461 71.6168 46.6591 71.6693C48.0316 71.6903 48.5136 73.1455 49.2468 73.6793C50.5042 74.6108 52.7254 74.7259 53.4592 73.1976C54.9888 70.0255 50.6613 63.9329 52.4006 61.0439C53.3436 59.4737 58.0379 59.6097 61.024 59.6097C62.7108 59.6097 63.8214 59.5677 65.7179 59.4211C66.839 59.3376 68.9032 59.3581 69.2806 58.4476C69.3221 58.3431 69.3642 58.2276 69.3537 58.081C69.2911 56.6993 67.0488 57.3066 65.6133 57.4111C61.0761 57.7568 54.4963 57.0449 51.8245 58.7513C48.3984 60.9284 50.7664 66.7073 51.4366 69.9524C51.5833 70.6643 51.877 71.6273 51.4366 72.3496C50.4416 72.7058 49.9911 71.5017 49.3309 70.9154C48.1782 69.8894 46.4599 69.2301 44.9301 70.1515C43.0546 64.2891 43.6519 57.16 47.1306 53.9774C49.6452 51.6848 54.224 51.8629 58.4359 51.6848C62.6272 51.5072 67.2059 50.7953 70.695 50.1565C70.8938 51.7058 69.7415 54.5112 70.4118 55.4221C71.3237 56.6678 74.3203 55.2441 76.0596 55.6107C75.4624 56.3956 74.8859 57.0134 74.0475 57.8088C73.6286 58.207 72.1511 59.17 71.7531 59.7458C71.7111 59.8083 71.6695 59.8609 71.659 59.9134C71.4178 60.6563 71.8057 62.143 71.8472 63.0745C72.2141 70.8944 72.3923 79.3216 68.4947 83.3627C65.9696 85.99 61.1812 87.2256 57.3883 85.09C56.5814 84.6398 54.6745 82.7974 53.8466 83.08C52.296 83.5718 53.9307 84.9224 54.6114 85.4352ZM46.5646 87.9269C48.0421 89.9054 51.4576 94.951 55.7641 94.4382C57.168 94.2707 59.0124 93.4647 59.6827 92.1561C59.9134 91.6954 60.0075 91.1826 59.8818 90.6068C62.491 93.7994 64.2198 97.8824 64.9636 102.949C64.5341 102.635 64.1042 102.29 63.6643 101.923C62.0716 100.583 60.4374 98.9185 58.8342 97.4948C58.3833 97.0866 57.1891 95.8199 56.5394 95.8724C55.701 95.9245 55.4708 97.2542 55.1985 97.9765C54.1609 100.709 53.1238 103.043 52.3275 105.629C50.9546 104.007 49.7919 101.839 48.4926 99.5993C46.5751 96.3227 44.0814 92.1561 46.5646 87.9269Z" fill="#001A49"/>
<path d="M65.3396 77.4902C66.702 77.5007 66.2305 75.9514 65.9162 74.9989C64.9522 72.1305 64.5332 67.4406 67.2571 66.1005C67.9698 65.7448 70.4949 65.9123 70.61 64.7608C70.6731 64.1325 70.2852 63.8603 69.8452 63.7032C63.852 63.6402 62.0707 68.9059 63.6213 74.7058C63.9672 76.0349 64.4492 77.4902 65.3396 77.4902Z" fill="#001A49"/>
<path d="M55.3762 67.7319C56.246 67.6694 56.3612 66.1306 57.4823 65.9105C58.4568 65.7224 59.0329 66.5283 59.7767 66.2982C60.3007 66.1306 60.4894 65.5963 60.3533 65.0521C60.1856 64.4347 59.2947 64.1311 58.5299 63.995C58.132 63.932 57.5033 63.8064 57.0003 63.9005C55.9943 64.0891 53.8781 65.7744 54.318 67.1561C54.4437 67.5333 54.9467 67.7634 55.3762 67.7319Z" fill="#001A49"/>
<path d="M67.1537 68.0164C67.1012 69.4196 66.5146 72.3926 68.3064 72.0364C69.6894 71.7643 69.3015 65.7342 67.1537 68.0164Z" fill="#001A49"/>
<path d="M57.1054 68.6871C56.7595 69.8803 57.0218 71.9008 57.7761 72.6126C60.081 73.3035 59.0754 66.8237 57.1054 68.6871Z" fill="#001A49"/>
<path d="M49.3409 73.9514C49.0581 73.7734 48.4609 73.1241 47.7167 72.9985C47.3398 72.9359 46.585 72.7579 46.4699 73.6688C46.3653 74.5583 48.8379 76.2441 49.7287 76.1601C50.2103 76.1076 50.5666 75.6578 50.5877 75.3016C50.6402 74.5898 49.896 74.2966 49.3409 73.9514Z" fill="#001A49"/>
<path d="M58.3412 78.5463C58.1005 80.9855 60.1646 82.8385 62.1762 83.3302C63.0145 83.5398 64.3975 83.7174 64.1878 82.3777C64.0101 81.2787 62.0295 81.5298 61.2227 80.8495C60.5104 80.2422 60.6361 79.9385 60.3638 79.0276C61.5686 79.3522 62.7838 80.6609 64.4815 80.7549C65.7389 80.818 68.4211 80.0956 67.2579 78.7449C66.5873 77.96 65.2779 78.871 64.6698 78.8395C62.983 78.7554 58.7291 74.7254 58.3412 78.5463Z" fill="#001A49"/>
<path d="M132.965 106.97C134.212 106.111 135.354 105.064 136.8 104.101C138.696 102.824 140.98 102.091 141.494 99.6943C141.494 99.1815 141.494 98.6683 141.494 98.166C141.064 96.9409 140.09 96.25 138.424 96.25C136.705 94.0935 133.814 95.5067 132.577 97.0144C131.865 97.8939 131.289 99.5897 130.083 99.9769C129.685 100.102 129.109 100.071 128.648 100.165C125.264 100.846 122.623 101.61 119.26 102.27C119.847 101.464 121.565 100.647 122.037 99.108C122.529 97.5062 122.016 95.8103 120.507 95.3706C118.401 94.7533 115.687 96.5012 114.472 97.3806C112.837 98.5637 111.339 100.102 110.354 101.495C108.206 104.541 106.582 109.482 107.672 114.894C108.143 117.24 109.107 119.532 109.778 121.981C110.888 126.033 111.779 130.147 112.628 134.408H114.755C113.55 128.587 112.125 122.809 110.742 118.056C110.05 115.68 109.495 113.722 109.495 111.168C109.495 105.923 111.747 102.374 114.671 99.8723C116.054 98.6893 117.887 97.2235 120.13 97.4751C120.381 99.5057 118.202 100.05 117.259 101.401C116.829 102.018 115.834 103.61 116.683 104.468C117.28 105.064 118.967 104.489 119.847 104.28C122.801 103.578 125.976 102.835 128.47 102.27C126.867 106.572 119.291 105.787 115.823 108.781C115.551 109.011 111.747 113.827 114.388 113.952C115.614 114.015 116.148 111.356 116.882 110.602C119.375 108.037 125.107 108.446 128.281 105.912C130.597 104.07 130.702 101.223 133.551 100.071C132.829 105.735 128.543 109.084 124.646 112.131C123.87 112.738 120.8 114.413 121.481 115.763C122.131 117.061 123.441 115.355 123.776 115.669C125.987 121.877 128.313 128.158 130.618 134.418H132.839C130.304 127.624 127.768 120.84 125.295 114.235C127.936 111.9 131.047 110.026 132.965 106.97ZM136.8 101.704C137.502 100.616 138.099 99.4326 138.717 98.2601C138.832 98.4381 139.22 98.3336 139.388 98.4486C139.786 100.427 137.952 100.971 136.8 101.704ZM136.601 97.4957C136.391 98.4381 136.046 99.2336 135.448 99.7883C135.5 98.7833 134.882 98.4486 134.39 97.9669C134.819 97.6007 135.972 96.7318 136.601 97.4957Z" fill="#001A49"/>
<path d="M82.3885 120.37C80.9846 120.077 81.0577 122.328 80.7644 124.002C80.1357 127.509 79.5281 130.932 78.9099 134.419H80.9951C81.5712 131.1 82.1473 127.781 82.6818 124.474C82.9331 122.914 83.803 120.663 82.3885 120.37Z" fill="#001A49"/>
<path d="M92.2035 64.8964C92.2035 69.5652 95.9964 73.3551 100.67 73.3551C103.394 73.3551 105.814 72.0569 107.365 70.0574C105.291 65.9749 103.855 61.5151 103.184 56.8148C102.388 56.5637 101.55 56.4381 100.67 56.4381C95.9964 56.4276 92.2035 60.217 92.2035 64.8964Z" fill="#F6F6F6"/>
<path d="M93.1364 69.3862C93.681 69.6584 93.8907 70.3287 93.6184 70.873C93.3771 71.3442 93.178 71.8044 92.9792 72.2547C94.9278 74.2857 97.6521 75.5523 100.68 75.5523C103.771 75.5523 106.548 74.2227 108.497 72.1186C108.109 71.4382 107.732 70.7474 107.376 70.046C105.825 72.0455 103.404 73.3432 100.68 73.3432C96.0073 73.3432 92.2144 69.5538 92.2144 64.885C92.2144 60.2161 96.0073 56.4262 100.68 56.4262C101.56 56.4262 102.398 56.5623 103.195 56.8034C103.08 56.0285 102.996 55.2541 102.933 54.4687C102.21 54.3116 101.455 54.2281 100.68 54.2281C94.7916 54.2281 90.0137 59.012 90.0137 64.885C90.0137 66.8424 90.5482 68.6744 91.4807 70.2447C91.5437 70.1086 91.5958 69.9935 91.6694 69.8575C91.9312 69.3237 92.5913 69.1036 93.1364 69.3862Z" fill="#001A49"/>
<path d="M104.957 50.7222C104.957 65.3781 112.7 78.2226 124.33 85.4042C131.497 84.1375 139.324 82.0335 147.287 79.102C162.406 73.5432 174.99 67.2831 185.164 61.264C186.065 57.8929 186.547 54.3651 186.547 50.7117C186.547 46.5241 185.908 42.4834 184.734 38.6729H106.759C105.585 42.4834 104.957 46.5241 104.957 50.7222Z" fill="url(#paint5_linear_69_4446)"/>
<path d="M184.198 64.3626C174.286 70.0679 162.278 75.9304 148.039 81.1645C141.04 83.7398 133.989 85.7183 127.304 87.0585C132.846 89.8744 139.112 91.4657 145.755 91.4657C163.484 91.4762 178.571 80.1595 184.198 64.3626Z" fill="url(#paint6_linear_69_4446)"/>
<path d="M102.748 50.7227C102.748 51.9893 102.81 53.235 102.925 54.4806C102.999 55.266 103.082 56.0509 103.188 56.8153C103.858 61.5156 105.293 65.9753 107.368 70.0579C107.724 70.7593 108.102 71.4501 108.489 72.1305C111.653 77.6057 115.981 82.3166 121.136 85.9279C122.173 85.7813 123.242 85.6037 124.31 85.4151C112.691 78.2335 104.937 65.3891 104.937 50.7332C104.937 46.5456 105.576 42.5048 106.75 38.6943H104.466C104.214 39.5527 103.994 40.4216 103.795 41.301C103.124 44.3263 102.748 47.4776 102.748 50.7227Z" fill="#001A49"/>
<path d="M145.747 91.4766C139.104 91.4766 132.838 89.8854 127.295 87.0694C126.143 87.2996 125.011 87.5091 123.89 87.6973C130.302 91.4977 137.773 93.6853 145.747 93.6853C165.298 93.6853 181.821 80.5787 187.029 62.7092C186.107 63.264 185.153 63.8188 184.189 64.3735C178.573 80.16 163.485 91.4766 145.747 91.4766Z" fill="#001A49"/>
<path d="M186.547 50.7222C186.547 54.376 186.054 57.9038 185.164 61.2745C186.065 60.7407 186.945 60.2175 187.804 59.6832C188.422 56.7943 188.747 53.7897 188.747 50.7222C188.747 47.4771 188.37 44.3261 187.689 41.2902C187.49 40.4109 187.27 39.542 187.018 38.6836H184.734C185.907 42.4836 186.547 46.5246 186.547 50.7222Z" fill="#001A49"/>
<path d="M187.803 59.6837C186.944 60.207 186.064 60.7407 185.163 61.275C174.979 67.2835 162.395 73.5542 147.286 79.113C139.323 82.0444 131.496 84.1485 124.33 85.4151C123.25 85.6037 122.192 85.7813 121.155 85.9279C107.911 87.8544 97.4123 86.6818 93.4412 82.2015C91.314 79.8038 91.1778 76.4541 92.9907 72.2665C93.1894 71.8168 93.3886 71.3561 93.6298 70.8848C93.9021 70.3406 93.6924 69.6812 93.1478 69.3986C92.6028 69.126 91.9426 69.3356 91.6598 69.8798C91.5867 70.0159 91.5342 70.1415 91.4711 70.267C88.0661 77.1765 89.7424 81.3636 91.775 83.6668C95.5574 87.9274 103.07 89.0269 109.818 89.0269C111.159 89.0269 112.469 88.9849 113.716 88.9114C116.921 88.7338 120.348 88.3046 123.889 87.7078C125.01 87.5192 126.142 87.3101 127.295 87.0795C133.98 85.7398 141.041 83.7508 148.03 81.186C162.269 75.9514 174.277 70.0894 184.189 64.3841C185.153 63.8293 186.106 63.2745 187.028 62.7193C201.424 54.1249 211.001 46.0849 216.114 41.301C217.214 40.2751 218.105 39.3957 218.796 38.6943H215.664C214.878 39.4585 213.945 40.3169 212.866 41.301C207.816 45.8337 199.538 52.5126 187.803 59.6837Z" fill="#001A49"/>
<path fill-rule="evenodd" clip-rule="evenodd" d="M239.814 37.6086C239.814 49.5739 230.112 59.2677 218.136 59.2677C206.16 59.2677 196.458 49.5739 196.458 37.6086C196.458 25.6432 206.16 15.9493 218.136 15.9493C230.101 15.9493 239.814 25.6536 239.814 37.6086Z" fill="#F6F6F6"/>
<path d="M195.347 37.6073C195.347 25.0556 205.563 14.8488 218.126 14.8488C230.689 14.8488 240.904 25.0556 240.904 37.6073C240.904 50.1592 230.689 60.3659 218.126 60.3659C205.573 60.3764 195.347 50.1592 195.347 37.6073ZM197.558 37.6073C197.558 48.9446 206.789 58.1673 218.136 58.1673C229.484 58.1673 238.715 48.9446 238.715 37.6073C238.715 26.27 229.484 17.0472 218.136 17.0472C206.789 17.0472 197.558 26.27 197.558 37.6073Z" fill="black"/>
<path d="M236.503 39.699C236.503 27.7336 226.801 18.0397 214.824 18.0397C209.041 18.0397 204.483 20.4161 201.361 23.8812C198.825 26.9589 197.149 30.7589 196.635 34.9254C196.573 35.721 196.552 36.5061 196.594 37.2913C196.625 37.8566 196.594 38.4847 196.531 39.1442C197.316 50.3875 206.673 59.275 218.135 59.275C218.659 59.275 219.173 59.233 219.697 59.1915C229.871 57.9248 236.503 50.5652 236.503 39.699Z" fill="#F2F2F2"/>
<path d="M195.347 37.6073C195.347 25.0556 205.563 14.8488 218.126 14.8488C230.689 14.8488 240.904 25.0556 240.904 37.6073C240.904 50.1592 230.689 60.3659 218.126 60.3659C205.573 60.3764 195.347 50.1592 195.347 37.6073ZM197.558 37.6073C197.558 48.9446 206.789 58.1673 218.136 58.1673C229.484 58.1673 238.715 48.9446 238.715 37.6073C238.715 26.27 229.484 17.0472 218.136 17.0472C206.789 17.0472 197.558 26.27 197.558 37.6073Z" fill="#001A49"/>
<path fill-rule="evenodd" clip-rule="evenodd" d="M286.001 34.2142C286.001 38.5796 282.48 42.1179 278.143 42.1179C273.805 42.1179 270.284 38.5796 270.284 34.2142C270.284 29.8488 273.805 26.3105 278.143 26.3105C282.48 26.3105 286.001 29.8488 286.001 34.2142Z" fill="url(#paint7_linear_69_4446)"/>
<path fill-rule="evenodd" clip-rule="evenodd" d="M9.8694 63.2224C9.8694 65.8397 7.74245 67.9648 5.12299 67.9648C2.50356 67.9648 0.376587 65.8397 0.376587 63.2224C0.376587 60.6051 2.50356 58.4801 5.12299 58.4801C7.74245 58.4801 9.8694 60.6051 9.8694 63.2224Z" fill="url(#paint8_linear_69_4446)"/>
<path d="M138.968 108.384H179.747C180.354 108.384 180.847 107.892 180.847 107.285C180.847 106.677 180.354 106.185 179.747 106.185H138.968C138.36 106.185 137.867 106.677 137.867 107.285C137.867 107.892 138.36 108.384 138.968 108.384Z" fill="#F6F6F6"/>
<path d="M169.615 112.654H179.758C180.365 112.654 180.858 112.162 180.858 111.555C180.858 110.947 180.365 110.455 179.758 110.455H169.615C169.008 110.455 168.515 110.947 168.515 111.555C168.515 112.162 169.008 112.654 169.615 112.654Z" fill="#D9DADB"/>
<path d="M138.914 116.893H179.725C180.333 116.893 180.825 116.402 180.825 115.794C180.825 115.187 180.333 114.695 179.725 114.695H138.914C138.306 114.695 137.814 115.187 137.814 115.794C137.814 116.402 138.306 116.893 138.914 116.893Z" fill="#F6F6F6"/>
<path d="M138.821 121.208H163.287C163.894 121.208 164.387 120.716 164.387 120.109C164.387 119.502 163.894 119.01 163.287 119.01H138.821C138.213 119.01 137.721 119.502 137.721 120.109C137.721 120.716 138.213 121.208 138.821 121.208Z" fill="#D9DADB"/>
<path d="M138.914 116.893H179.725C180.333 116.893 180.825 116.402 180.825 115.794C180.825 115.187 180.333 114.695 179.725 114.695H138.914C138.307 114.695 137.814 115.187 137.814 115.794C137.804 116.391 138.296 116.893 138.914 116.893Z" fill="#F6F6F6"/>
<path d="M166.546 121.208H168.683C169.291 121.208 169.783 120.716 169.783 120.109C169.783 119.502 169.291 119.01 168.683 119.01H166.546C165.938 119.01 165.446 119.502 165.446 120.109C165.446 120.716 165.938 121.208 166.546 121.208Z" fill="#D9DADB"/>
<path d="M138.821 125.394H155.009C155.617 125.394 156.109 124.902 156.109 124.295C156.109 123.688 155.617 123.196 155.009 123.196H138.821C138.213 123.196 137.721 123.688 137.721 124.295C137.721 124.902 138.213 125.394 138.821 125.394Z" fill="#D9DADB"/>
<path d="M138.968 108.384H179.747C180.354 108.384 180.847 107.892 180.847 107.285C180.847 106.677 180.354 106.185 179.747 106.185H138.968C138.36 106.185 137.867 106.677 137.867 107.285C137.867 107.892 138.36 108.384 138.968 108.384Z" fill="#D9DADB"/>
<path d="M138.914 112.654H163.296C163.904 112.654 164.396 112.162 164.396 111.555C164.396 110.947 163.904 110.455 163.296 110.455H138.914C138.306 110.455 137.814 110.947 137.814 111.555C137.814 112.162 138.306 112.654 138.914 112.654Z" fill="#D9DADB"/>
<path d="M138.914 116.893H179.725C180.333 116.893 180.825 116.402 180.825 115.794C180.825 115.187 180.333 114.695 179.725 114.695H138.914C138.306 114.695 137.814 115.187 137.814 115.794C137.814 116.402 138.306 116.893 138.914 116.893Z" fill="#F6F6F6"/>
<path d="M172.403 121.208H179.664C180.272 121.208 180.764 120.716 180.764 120.109C180.764 119.502 180.272 119.01 179.664 119.01H172.403C171.795 119.01 171.303 119.502 171.303 120.109C171.303 120.716 171.795 121.208 172.403 121.208Z" fill="#D9DADB"/>
<path d="M138.914 116.893H179.725C180.333 116.893 180.825 116.402 180.825 115.794C180.825 115.187 180.333 114.695 179.725 114.695H138.914C138.307 114.695 137.814 115.187 137.814 115.794C137.804 116.391 138.296 116.893 138.914 116.893Z" fill="#D9DADB"/>
<path d="M161.336 125.394H179.662C180.27 125.394 180.762 124.902 180.762 124.295C180.762 123.688 180.27 123.196 179.662 123.196H161.336C160.729 123.196 160.236 123.688 160.236 124.295C160.226 124.902 160.729 125.394 161.336 125.394Z" fill="#D9DADB"/>
<path fill-rule="evenodd" clip-rule="evenodd" d="M251.487 209.257C249.046 206.222 246.458 203.583 246.458 203.583C246.458 203.583 248.752 198.6 248.973 198.192C249.192 197.784 252.514 202.348 255.762 204.515C259.02 206.682 264.951 207.279 269.258 203.677C273.564 200.077 269.069 191.597 269.069 191.597L259.115 173.382C259.115 173.382 259.629 173.016 263.673 166.222C267.717 159.427 261.808 148.09 261.808 148.09C261.808 148.09 266.512 149.409 268.503 141.955C270.504 134.502 255.856 123.217 252.504 118.81C249.14 114.403 244.813 95.6012 240.967 91.11C237.122 86.6192 228.216 90.3671 228.216 90.3671C228.216 90.3671 226.183 87.331 219.844 84.8813C213.505 82.4316 200.765 88.7233 196.584 92.0419C192.403 95.3606 197.233 104.499 197.233 104.499C197.233 104.499 196.479 104.907 195.369 105.431C194.268 105.954 191.177 107.755 191.177 107.755C191.177 107.755 193.367 120.914 196.94 123.562C199.172 125.217 204.568 123.845 204.568 123.845C204.568 123.845 209.901 133.916 210.247 137.329C210.446 139.276 206.684 139.485 202.158 140.019C198.763 140.427 194.908 141.338 192.11 141.6C185.572 142.217 176.383 157.491 176.383 157.491L152.19 183.609L134.702 173.759C134.702 173.759 132.293 161.071 123.816 155.449C120.505 153.251 118.221 155.408 116.838 157.03C115.465 158.653 118.881 159.354 118.881 159.354C118.881 159.354 118.64 159.794 117.11 160.652C115.58 161.511 115.717 162.693 115.717 162.693C115.717 162.693 108.885 162.578 107.439 165.478C105.993 168.378 111.033 167.928 111.903 167.802C112.783 167.676 110.708 169.006 109.388 169.665C108.079 170.325 107.052 172 107.251 173.476C107.439 174.952 110.488 171.79 113.485 171.435C116.481 171.079 117.571 177.37 118.975 182.123C120.379 186.886 123.816 186.677 123.816 186.677C123.816 186.677 140.308 203.081 149.214 205.729C158.12 208.388 165.308 199.784 165.308 199.784L187.175 181.097C187.175 181.097 188.935 184.28 191.083 186.583C193.231 188.886 197.506 190.299 197.506 190.299C197.506 190.299 202.127 195.742 205.595 198.946C209.063 202.149 211.179 202.851 211.179 202.851C211.179 202.851 207.921 206.567 205.972 209.823C204.023 213.078 201.414 217.727 201.414 217.727H257.606C257.627 217.716 253.929 212.293 251.487 209.257Z" fill="#F6F6F6"/>
<path fill-rule="evenodd" clip-rule="evenodd" d="M241.815 176.626C239.175 176.584 232.605 175.328 232.605 175.328L230.373 142.698C230.373 142.698 229.86 141.766 224.328 139.819C218.795 137.872 217.81 130.429 217.81 130.429L208.6 131.727C208.6 131.727 210.319 134.668 210.549 137.212C210.78 139.756 200.847 140.185 195.294 140.835C189.741 141.483 184.072 147.084 179.106 154.59C174.139 162.096 152.125 183.504 152.125 183.504L148.961 182.017C148.961 182.017 144.843 181.002 140.495 186.016C136.147 191.031 136.87 198.097 136.87 198.097C136.87 198.097 147.117 207.937 154.179 206.095C160.655 204.399 187.394 180.908 187.394 180.908C187.394 180.908 189.091 183.776 191.491 186.582C193.89 189.376 197.264 189.094 197.264 189.094C197.264 189.094 199.359 192.852 201.633 196.348C203.917 199.835 210.476 203.132 210.476 203.132H243.135C243.135 203.132 245.943 198.767 247.41 191.879C248.751 185.629 246.949 175.893 246.949 175.893L250.207 176.27C250.207 176.27 251.235 185.765 251.046 190.12C250.857 194.475 249.097 197.929 249.097 197.929C249.097 197.929 263.116 210.575 267.245 204.158C271.373 197.741 256.358 175.338 256.358 175.338C256.358 175.338 244.456 176.658 241.815 176.626Z" fill="url(#paint9_linear_69_4446)"/>
<path fill-rule="evenodd" clip-rule="evenodd" d="M248.076 211.046C245.145 206.837 242.931 203.321 242.931 203.321L211.752 202.54C211.752 202.54 207.977 206.711 205.383 211.601C202.789 216.503 200.797 221.002 200.797 221.002L253.981 220.662C253.97 220.674 251.007 215.255 248.076 211.046Z" fill="#001A49"/>
<path fill-rule="evenodd" clip-rule="evenodd" d="M268.44 205.959C262.206 209.884 254.274 204.723 250.911 201.363C250.324 200.777 249.842 200.096 249.182 199.74C248.689 201.133 247.988 202.315 247.264 203.478C248.145 204.807 249.538 205.708 250.711 206.922C252.943 209.246 255.018 211.664 256.935 214.48C257.753 215.673 259.461 217.369 258.465 219.076C257.218 219.253 256.946 218.071 256.548 217.453C253.918 213.255 250.649 209.434 246.877 205.969C246.657 205.76 246.238 205.551 245.923 205.205C245.567 204.807 245.494 204.378 245.158 204.252C244.341 203.938 242.382 204.137 241.04 204.064C232.711 203.572 224.915 203.771 216.418 203.771C214.982 203.771 213.327 203.572 212.3 203.865C211.242 204.168 209.503 206.576 208.759 207.498C205.899 211.036 204.201 214.344 202.441 219.076C202.158 219.829 201.77 221.117 200.817 220.991C199.685 220.834 200.209 219.599 200.534 218.699C202.724 212.523 205.804 207.571 209.733 203.289C204.159 200.18 199.601 196.055 196.322 190.654C191.984 189.157 189.155 186.131 187.028 182.425C179.578 188.696 172.935 195.092 165.098 200.986C162.468 202.965 159.89 204.912 156.768 206.157C148.69 209.361 142.058 204.21 137.51 200.515C133.738 197.437 130.364 194.244 126.781 190.947C125.618 189.879 124.549 188.518 123.334 187.691C122.108 186.854 120.631 186.393 119.405 185.105C118.106 183.734 117.435 181.263 116.817 178.887C116.261 176.752 115.528 173.559 113.747 173.14C111.442 172.606 110.184 175.296 107.806 174.962C107.125 174.867 106.664 174.365 106.465 173.904C105.417 171.517 107.638 169.371 108.76 168.544C107.041 168.628 106.108 167.728 105.983 166.44C105.689 163.572 109.105 162.127 111.536 161.656C112.563 161.457 113.684 161.635 114.606 161.373C115.727 161.059 116.167 159.824 117.006 159.646C114.156 158.536 116.251 155.783 117.959 154.862C122.527 152.391 126.75 156.286 128.877 158.599C132.481 162.504 135.079 167.309 135.677 173.433C141.125 176.416 146.49 179.473 151.959 182.425C160.708 174.344 168.943 165.54 176.383 156.014C180.008 151.376 183.329 145.765 188.453 142.614C192.518 140.112 197.956 139.557 204.065 139.17C205.825 139.055 207.858 139.097 209.241 138.018C209.262 135.485 207.983 133.402 207.04 131.413C206.066 129.361 205.207 127.298 204.358 125.1C202.189 125.529 199.434 125.969 197.265 125.1C193.283 123.509 192.696 117.333 191.418 112.663C191.031 111.24 189.983 109.24 190.265 107.785C190.747 105.325 194.96 105.859 196.207 104.153C195.148 101.955 193.891 99.85 193.912 96.7829C193.933 93.0771 196.5 90.4077 199.088 88.6489C203.813 85.4457 212.541 82.5248 220.253 84.2416C223.899 85.0476 226.424 87.0681 228.688 89.0256C231.642 87.6123 237.101 87.4973 239.7 89.0256C242.308 90.5648 244.048 93.7469 245.253 96.6784C247.799 102.865 248.742 110.695 251.958 116.484C255.049 122.043 261.064 125.006 265.077 129.884C266.889 132.083 268.89 135.223 269.582 138.688C270.672 144.163 268.586 149.24 262.971 149.219C263.987 151.02 264.448 153.334 264.982 155.626C265.527 157.992 266.103 160.525 265.946 163.09C265.632 168.167 262.761 171.276 260.006 173.904C263.662 179.191 266.806 185.084 269.875 191.324C270.954 193.522 272.023 195.689 272.17 198.118C272.17 198.474 272.17 198.819 272.17 199.175C271.782 202.431 270.567 204.619 268.44 205.959ZM197.558 102.415C198.26 101.651 198.543 99.955 199.088 99.3477C198.847 98.9185 196.154 95.5268 198.417 95.4218C199.203 95.3907 199.8 96.6994 200.24 97.3377C203.331 101.913 207.061 105.085 212.499 107.199C213.306 107.513 214.364 107.607 214.899 108.445C214.993 109.052 214.763 109.335 214.616 109.69C217.047 111.46 215.946 116.129 213.851 117.636C214.637 119.792 215.464 121.907 216.921 123.76C217.298 124.242 217.99 125.247 218.545 125.194C219.299 125.132 220.085 122.933 220.463 122.326C222.296 119.405 224.978 117.134 227.65 115.344C227.325 110.591 226.927 105.922 226.592 101.18C224.392 100.028 221.804 98.95 222.191 95.7254C222.422 93.7469 223.826 92.899 224.297 91.0356C224.853 90.5753 225.502 90.1981 226.309 89.9785C224.643 87.6754 221.406 86.5028 217.78 86.0526C210.488 85.1421 201.477 88.4187 197.852 92.3652C195.525 94.8985 195.504 99.0231 197.558 102.415ZM233.958 174.574C240.559 175.674 247.767 176.291 253.499 174.574C259.073 172.899 264.364 168.303 263.84 160.598C263.735 158.976 263.285 157.155 262.876 155.427C262.279 152.863 261.965 150.706 260.288 149.209C259.702 148.686 259.063 148.382 259.23 147.586C259.461 146.529 261.064 147.199 263.065 147.011C266.47 146.697 268.063 144.446 267.759 140.217C267.664 138.929 267.109 137.034 266.512 135.715C262.834 127.571 254.243 125.079 249.936 117.05C247.935 113.323 246.845 108.351 245.536 103.838C244.142 99.0651 242.392 92.7109 238.442 90.7319C234.785 88.9 229.578 90.7114 226.466 92.1661C225.942 92.7109 225.481 93.3702 225.031 94.0821C224.622 94.7309 224.056 95.5788 224.171 96.5733C224.266 97.4423 225.104 98.0601 225.796 98.4893C226.403 98.866 227.922 99.0336 228.289 99.5463C228.729 100.143 228.656 102.697 228.771 104.142C230.574 127.121 232.638 151.732 233.958 174.574ZM200.523 101.075C199.402 105.126 196.175 107.063 192.288 108.351C192.917 110.622 193.608 112.841 194.111 115.239C195.19 115.051 196.259 112.642 197.558 112.653C198.082 112.653 198.606 113.208 198.617 113.7C198.648 115.03 195.41 116.558 194.687 117.333C195.693 121.101 196.521 123.781 201.393 123.456C202.671 123.373 204.201 122.546 205.228 122.786C206.171 123.007 206.747 125.802 207.051 126.524C207.648 127.969 208.245 129.099 208.78 130.355C212.143 129.863 216.01 129.853 219.509 129.497C219.352 128.733 219.111 128.052 218.933 127.298C214.752 126.649 213.432 121.876 212.038 118.4C210.781 118.777 207.921 119.416 207.921 117.73C207.921 116.275 211.253 116.683 212.227 116.108C213.212 115.532 214.49 113.857 213.956 112.182C213.526 110.852 211.577 109.932 210.121 111.229C209.503 111.784 208.727 113.763 207.826 113.815C205.793 113.93 207.386 111.209 207.921 110.559C208.675 109.628 209.639 109.01 210.31 108.644C206.37 106.78 203.007 104.373 200.523 101.075ZM227.828 117.824C224.674 119.813 222.485 122.766 220.64 126.053C222.097 131.622 224.025 136.71 229.452 138.301C228.855 131.538 228.394 124.618 227.828 117.824ZM220.158 131.601C216.659 131.8 213.149 132.009 209.712 132.271C210.624 134.48 212.709 138.374 210.1 140.122C207.868 141.609 202.189 141.284 198.993 141.651C195.306 142.07 191.837 142.939 189.322 144.519C185.331 147.032 182.47 151.449 179.17 155.815C172.831 164.21 166.104 170.837 159.053 178.594C156.664 181.222 153.667 183.745 150.817 186.445C150.01 187.21 148.575 188.864 147.747 188.738C147.412 188.686 147.066 188.403 146.982 188.068C146.553 186.32 150.429 185.22 150.335 183.954C145.316 181.284 140.371 178.531 135.488 175.726C133.539 176.04 133.696 173.873 133.382 172.281C132.324 166.974 130.385 163.289 127.253 159.939C125.974 158.568 124.696 157.312 123.135 156.684C121.584 156.066 118.588 156.055 118.053 157.542C121.574 156.903 123.669 158.411 124.088 161.174C124.57 161.667 125.063 162.368 125.618 163.184C125.995 163.739 127.808 166.409 125.807 166.534C124.696 166.608 123.858 164.263 123.219 163.467C121.836 161.75 119.688 159.761 117.477 161.939C118.933 162.41 119.992 163.184 121.312 164.43C121.878 164.954 124.036 166.828 123.9 168.063C123.847 168.523 123.313 168.984 122.946 169.015C121.919 169.11 120.945 167.11 120.264 166.43C118.577 164.744 116.879 163.341 113.464 163.561C111.306 163.698 108.476 164.367 108.193 166.147C109.21 166.681 110.603 166.126 112.217 166.241C112.731 166.273 113.296 166.524 113.841 166.524C115.339 166.545 116.639 166.189 117.959 166.713C118.965 167.11 121.406 168.534 121.312 169.874C121.28 170.355 120.767 170.774 120.453 170.827C119.237 171.036 118.336 169.225 117.1 168.722C115.392 168.021 113.045 168.953 111.452 169.675C110.069 170.313 108.633 170.722 108.382 172.543C109.22 172.627 109.996 171.79 110.97 171.392C111.829 171.036 113.537 170.722 114.711 171.109C118.598 172.397 118.21 178.699 120.075 182.31C120.641 183.409 121.846 184.498 122.946 185.084C123.303 185.273 123.806 185.262 124.193 185.472C124.769 185.786 125.429 186.665 126.11 187.293C130.574 191.439 134.87 195.647 139.711 199.447C142.561 201.677 145.4 203.802 149.193 204.713C153.562 205.76 157.271 203.938 160.404 201.939C166.23 198.212 171.531 193.229 176.686 188.728C181.234 184.771 185.718 180.803 190.381 176.574C191.031 175.977 191.732 174.951 192.487 175.045C192.759 175.077 193.157 175.328 193.252 175.715C193.545 176.888 191.753 178.029 191.146 178.584C190.15 179.494 189.27 180.049 188.558 180.981C190.108 183.651 191.9 185.995 194.593 187.587C195.504 188.131 196.71 188.298 197.558 188.926C198.459 189.597 199.528 191.847 200.335 192.852C202.839 195.94 205.762 198.411 209.335 200.599C210.037 201.028 210.75 201.709 211.441 201.845C212.572 202.064 214.249 201.75 215.747 201.75C225.775 201.75 236.053 201.499 245.441 202.326C249.601 196.83 251.414 186.508 249.276 177.537C245.378 178.008 240.726 177.537 237.017 177.055C235.299 176.835 232.627 176.846 232.04 175.432C231.632 174.438 231.852 172.585 231.757 171.025C231.139 161.018 230.311 150.141 229.651 140.593C224.758 139.327 222.139 135.778 220.158 131.601ZM258.287 174.951C256.338 176.092 253.991 176.846 251.299 177.244C252.461 182.949 252.65 189.931 251.015 195.239C250.796 195.951 250.219 196.903 250.25 197.343C250.303 198.034 251.822 199.521 252.451 200.117C254.808 202.368 258.245 204.849 262.122 205.194C266.994 205.624 270.336 202.682 269.98 197.636C269.813 195.302 268.618 193.407 267.686 191.418C265.014 185.776 261.462 179.631 258.287 174.951Z" fill="#001A49"/>
<path fill-rule="evenodd" clip-rule="evenodd" d="M201.865 103.848C200.786 103.324 200.42 104.444 199.948 105.282C199.435 106.213 198.534 108.255 200.43 107.962C201.079 107.857 203.228 104.517 201.865 103.848Z" fill="#001A49"/>
<defs>
<linearGradient id="paint0_linear_69_4446" x1="234.823" y1="124.335" x2="302.715" y2="49.6311" gradientUnits="userSpaceOnUse">
<stop stop-color="#CD10FF"/>
<stop offset="1" stop-color="#9F06FF"/>
</linearGradient>
<linearGradient id="paint1_linear_69_4446" x1="95.7881" y1="173.775" x2="151.308" y2="73.1981" gradientUnits="userSpaceOnUse">
<stop stop-color="#CD10FF"/>
<stop offset="1" stop-color="#9F06FF"/>
</linearGradient>
<linearGradient id="paint2_linear_69_4446" x1="80.6726" y1="190.851" x2="86.6878" y2="171.005" gradientUnits="userSpaceOnUse">
<stop stop-color="#CD10FF"/>
<stop offset="1" stop-color="#9F06FF"/>
</linearGradient>
<linearGradient id="paint3_linear_69_4446" x1="135.273" y1="204.934" x2="160.303" y2="159.494" gradientUnits="userSpaceOnUse">
<stop stop-color="#CD10FF"/>
<stop offset="1" stop-color="#9F06FF"/>
</linearGradient>
<linearGradient id="paint4_linear_69_4446" x1="69.2899" y1="144.52" x2="93.3489" y2="99.4593" gradientUnits="userSpaceOnUse">
<stop stop-color="#CD10FF"/>
<stop offset="1" stop-color="#9F06FF"/>
</linearGradient>
<linearGradient id="paint5_linear_69_4446" x1="150.962" y1="96.4515" x2="177.863" y2="47.9985" gradientUnits="userSpaceOnUse">
<stop stop-color="#CD10FF"/>
<stop offset="1" stop-color="#9F06FF"/>
</linearGradient>
<linearGradient id="paint6_linear_69_4446" x1="159.385" y1="97.8729" x2="173.377" y2="67.5707" gradientUnits="userSpaceOnUse">
<stop stop-color="#CD10FF"/>
<stop offset="1" stop-color="#9F06FF"/>
</linearGradient>
<linearGradient id="paint7_linear_69_4446" x1="279.146" y1="45.8548" x2="289.864" y2="34.8619" gradientUnits="userSpaceOnUse">
<stop stop-color="#CD10FF"/>
<stop offset="1" stop-color="#9F06FF"/>
</linearGradient>
<linearGradient id="paint8_linear_69_4446" x1="5.72924" y1="70.207" x2="12.1586" y2="63.5685" gradientUnits="userSpaceOnUse">
<stop stop-color="#CD10FF"/>
<stop offset="1" stop-color="#9F06FF"/>
</linearGradient>
<linearGradient id="paint9_linear_69_4446" x1="210.769" y1="224.266" x2="254.697" y2="145.963" gradientUnits="userSpaceOnUse">
<stop stop-color="#CD10FF"/>
<stop offset="1" stop-color="#9F06FF"/>
</linearGradient>
</defs>
</svg>
