<svg width="230" height="215" viewBox="0 0 230 215" fill="none" xmlns="http://www.w3.org/2000/svg">
<path d="M165.854 196.805C166.569 196.805 167.159 196.234 167.167 195.512C167.176 194.792 166.594 194.194 165.87 194.186C165.048 194.186 164.457 194.774 164.457 195.496C164.457 196.217 165.048 196.805 165.771 196.805C165.846 196.805 165.854 196.805 165.854 196.805ZM170.675 196.682C171.548 196.64 172.105 196.026 172.071 195.305C172.038 194.583 171.415 194.028 170.7 194.062C169.877 194.111 169.328 194.733 169.37 195.455C169.412 196.142 169.985 196.682 170.675 196.682ZM160.95 196.648C161.648 196.648 162.222 196.101 162.255 195.405C162.288 194.683 161.731 194.07 161.008 194.037C160.227 193.987 159.595 194.535 159.553 195.256C159.512 195.976 160.06 196.598 160.783 196.64C160.908 196.648 160.933 196.648 160.95 196.648ZM175.563 196.242C176.527 196.135 177.042 195.48 176.951 194.758C176.859 194.037 176.211 193.531 175.488 193.622C174.682 193.722 174.174 194.376 174.266 195.09C174.349 195.762 174.914 196.242 175.563 196.242ZM156.062 196.234C156.727 196.234 157.301 195.728 157.367 195.056C157.442 194.335 156.918 193.697 156.195 193.622C155.405 193.531 154.757 194.053 154.674 194.767C154.591 195.487 155.114 196.135 155.829 196.21C155.971 196.234 156.02 196.234 156.062 196.234ZM151.191 195.596C151.823 195.596 152.38 195.14 152.488 194.501C152.604 193.788 152.122 193.117 151.407 193.001C150.593 192.876 149.928 193.365 149.82 194.078C149.711 194.792 150.202 195.462 150.917 195.571C151.058 195.587 151.125 195.596 151.191 195.596ZM180.409 195.455C181.464 195.272 181.921 194.576 181.78 193.871C181.639 193.167 180.941 192.702 180.234 192.851C179.444 193.008 178.979 193.697 179.128 194.41C179.245 195.024 179.793 195.455 180.409 195.455ZM146.362 194.749C146.968 194.749 147.517 194.319 147.642 193.706C147.783 193.001 147.326 192.304 146.619 192.163C145.813 192.006 145.123 192.479 144.99 193.183C144.857 193.896 145.323 194.576 146.037 194.708C146.187 194.742 146.27 194.749 146.362 194.749ZM185.163 194.269C185.288 194.269 185.413 194.253 185.537 194.21C186.302 193.995 186.701 193.265 186.502 192.577C186.302 191.881 185.579 191.483 184.881 191.682C184.091 191.915 183.692 192.644 183.9 193.34C184.083 193.904 184.598 194.269 185.163 194.269ZM141.557 193.722C142.147 193.722 142.688 193.315 142.829 192.718C142.995 192.013 142.563 191.309 141.856 191.143C141.058 190.961 140.352 191.4 140.194 192.104C140.028 192.81 140.468 193.515 141.175 193.672C141.349 193.713 141.457 193.722 141.557 193.722ZM189.801 192.669C189.968 192.669 190.134 192.636 190.292 192.57C191.023 192.288 191.364 191.525 191.098 190.854C190.841 190.182 190.076 189.841 189.403 190.107C188.629 190.413 188.314 191.177 188.58 191.847C188.787 192.363 189.286 192.669 189.801 192.669ZM136.794 192.529C137.368 192.529 137.9 192.147 138.058 191.566C138.249 190.87 137.833 190.148 137.135 189.957C136.354 189.743 135.631 190.157 135.439 190.861C135.248 191.558 135.664 192.279 136.362 192.461C136.562 192.511 136.678 192.529 136.794 192.529ZM132.073 191.177C132.63 191.177 133.154 190.82 133.328 190.256C133.544 189.568 133.162 188.83 132.464 188.614C131.674 188.375 130.942 188.773 130.735 189.468C130.527 190.157 130.918 190.886 131.616 191.093C131.815 191.161 131.948 191.177 132.073 191.177ZM194.257 190.629C194.465 190.629 194.664 190.579 194.864 190.48C195.587 190.098 195.828 189.311 195.495 188.673C195.163 188.034 194.365 187.786 193.725 188.125C193.01 188.498 192.761 189.286 193.101 189.925C193.326 190.372 193.783 190.629 194.257 190.629ZM127.401 189.675C127.95 189.675 128.465 189.327 128.648 188.773C128.873 188.084 128.499 187.346 127.809 187.123C127.061 186.865 126.313 187.23 126.08 187.918C125.847 188.598 126.213 189.344 126.894 189.577C127.127 189.659 127.26 189.675 127.401 189.675ZM198.471 188.141C198.721 188.141 198.978 188.068 199.203 187.918C199.868 187.48 200.034 186.675 199.635 186.069C199.236 185.464 198.421 185.298 197.823 185.696C197.141 186.153 196.983 186.964 197.382 187.571C197.632 187.935 198.047 188.141 198.471 188.141ZM122.771 188.043C123.303 188.043 123.81 187.711 124.002 187.189C124.251 186.509 123.902 185.762 123.229 185.505C122.48 185.224 121.724 185.571 121.466 186.244C121.217 186.923 121.558 187.669 122.239 187.927C122.464 188.018 122.614 188.043 122.771 188.043ZM118.183 186.269C118.698 186.269 119.189 185.962 119.397 185.448C119.671 184.776 119.347 184.013 118.674 183.749C117.925 183.449 117.161 183.765 116.886 184.435C116.612 185.108 116.936 185.871 117.61 186.135C117.859 186.244 118.025 186.269 118.183 186.269ZM202.395 185.215C202.694 185.215 202.993 185.116 203.234 184.908C203.849 184.394 203.924 183.565 203.459 183.01C202.993 182.454 202.17 182.381 201.613 182.844C200.99 183.367 200.923 184.187 201.389 184.742C201.646 185.058 202.02 185.215 202.395 185.215ZM113.661 184.362C114.168 184.362 114.65 184.063 114.867 183.574C115.157 182.911 114.85 182.14 114.185 181.858C114.143 181.841 113.586 183.026 113.586 183.026L113.088 184.237C113.312 184.328 113.487 184.362 113.661 184.362ZM109.198 182.288C109.68 182.288 110.137 182.024 110.37 181.568C110.694 180.92 110.436 180.134 109.788 179.809C109.538 179.677 109.339 179.636 109.148 179.627C109.031 179.511 108.898 179.42 108.74 179.345C108.026 179.03 107.236 179.329 106.945 179.984C106.654 180.647 106.937 181.41 107.602 181.7C107.843 181.808 108.009 181.841 108.183 181.841C108.283 181.94 108.391 182.024 108.516 182.09C108.799 182.24 108.998 182.288 109.198 182.288ZM205.977 181.883C206.318 181.883 206.667 181.75 206.925 181.484C207.49 180.888 207.465 180.068 206.941 179.57C206.418 179.072 205.586 179.097 205.088 179.62C204.531 180.191 204.547 181.02 205.071 181.518C205.321 181.758 205.653 181.883 205.977 181.883ZM103.736 179.809C104.227 179.809 104.701 179.536 104.925 179.064C105.233 178.409 104.95 177.63 104.302 177.323C103.578 176.975 102.797 177.257 102.481 177.903C102.165 178.557 102.44 179.337 103.096 179.643C103.354 179.768 103.545 179.809 103.736 179.809ZM209.194 178.193C209.585 178.193 209.967 178.027 210.225 177.696C210.732 177.041 210.624 176.221 210.05 175.78C209.477 175.341 208.654 175.449 208.213 176.021C207.723 176.635 207.822 177.455 208.388 177.903C208.62 178.102 208.903 178.193 209.194 178.193ZM99.3142 177.655C99.788 177.655 100.253 177.398 100.486 176.941C100.819 176.294 100.561 175.507 99.9211 175.183C99.1813 174.819 98.3999 175.076 98.0758 175.723C97.7516 176.369 98.0175 177.157 98.6659 177.48C98.9069 177.605 99.1148 177.655 99.3142 177.655ZM94.9504 175.399C95.4241 175.399 95.8813 175.142 96.1141 174.694C96.4465 174.056 96.1972 173.26 95.5571 172.929C94.8589 172.556 94.0609 172.796 93.72 173.435C93.3792 174.073 93.6204 174.86 94.2604 175.208C94.5347 175.349 94.7425 175.399 94.9504 175.399ZM212.028 174.214C212.461 174.214 212.885 173.998 213.142 173.608C213.574 172.953 213.408 172.14 212.801 171.743C212.195 171.345 211.38 171.511 210.989 172.115C210.541 172.813 210.723 173.624 211.338 174.006C211.546 174.147 211.787 174.214 212.028 174.214ZM90.6279 173.061C91.0934 173.061 91.5423 172.813 91.775 172.381C92.1242 171.751 91.8914 170.956 91.2596 170.607C90.5614 170.218 89.7635 170.441 89.4061 171.079C89.0569 171.71 89.2813 172.506 89.9131 172.862C90.1957 173.011 90.4119 173.061 90.6279 173.061ZM86.3471 170.64C86.7961 170.64 87.2283 170.408 87.4777 170.002C87.8434 169.38 87.6438 168.575 87.0205 168.211C86.2972 167.796 85.4993 168.02 85.1419 168.643C84.7845 169.272 85.0005 170.068 85.6322 170.425C85.89 170.582 86.1227 170.64 86.3471 170.64ZM214.481 169.986C214.954 169.986 215.412 169.729 215.644 169.281C216.018 168.584 215.777 167.789 215.137 167.448C214.497 167.109 213.708 167.348 213.358 167.987C212.976 168.716 213.225 169.504 213.865 169.836C214.073 169.936 214.281 169.986 214.481 169.986ZM82.1245 168.136C82.5734 168.136 83.0056 167.913 83.2467 167.507C83.6207 166.884 83.4212 166.08 82.7985 165.707C82.1084 165.293 81.302 165.483 80.9282 166.105C80.5529 166.719 80.7442 167.532 81.3682 167.905C81.6595 168.078 81.892 168.136 82.1245 168.136ZM216.592 165.566C217.099 165.566 217.581 165.268 217.797 164.778C218.113 164.024 217.805 163.253 217.132 162.971C216.467 162.69 215.694 163.004 215.42 163.676C215.104 164.405 215.412 165.176 216.077 165.459C216.234 165.533 216.417 165.566 216.592 165.566ZM77.9513 165.55C78.3839 165.55 78.7989 165.342 79.0579 164.953C79.4478 164.348 79.2727 163.535 78.6664 163.146C77.9689 162.706 77.1625 162.888 76.7711 163.501C76.3811 164.115 76.5636 164.919 77.1787 165.31C77.4613 165.483 77.7114 165.55 77.9513 165.55ZM73.8369 162.881C74.2607 162.881 74.6845 162.674 74.9346 162.292C75.3334 161.686 75.1671 160.874 74.5609 160.484C73.9031 160.045 73.0893 160.202 72.6817 160.799C72.2741 161.397 72.4404 162.208 73.0393 162.615C73.338 162.806 73.5882 162.881 73.8369 162.881ZM218.379 160.997C218.911 160.997 219.41 160.675 219.601 160.145C219.859 159.415 219.51 158.652 218.828 158.411C218.146 158.171 217.398 158.511 217.157 159.191C216.899 159.92 217.249 160.683 217.93 160.924C218.08 160.974 218.229 160.997 218.379 160.997ZM69.7725 160.12C70.1875 160.12 70.5951 159.92 70.8453 159.556C71.2602 158.968 71.1101 158.146 70.5201 157.732C69.8549 157.268 69.0412 157.416 68.6247 158.005C68.2098 158.593 68.3599 159.415 68.9499 159.829C69.2575 160.036 69.515 160.12 69.7725 160.12ZM65.7832 157.259C66.182 157.259 66.5808 157.077 66.8383 156.728C67.2709 156.148 67.1458 155.328 66.5558 154.896C65.9068 154.415 65.0842 154.539 64.6604 155.121C64.2278 155.7 64.3529 156.521 64.9341 156.952C65.2417 157.175 65.5169 157.259 65.7832 157.259ZM219.834 156.348C220.407 156.348 220.931 155.973 221.097 155.394C221.313 154.598 220.898 153.876 220.199 153.694C219.501 153.503 218.778 153.917 218.595 154.614C218.379 155.369 218.778 156.098 219.476 156.289C219.593 156.33 219.709 156.348 219.834 156.348ZM61.8586 154.316C62.2412 154.316 62.6326 154.15 62.8902 153.819C63.339 153.255 63.2478 152.426 62.6739 151.978C62.0176 151.472 61.1935 151.581 60.7535 152.151C60.3135 152.724 60.421 153.544 60.9949 153.985C61.2862 154.217 61.5761 154.316 61.8586 154.316ZM221.031 151.613C221.629 151.613 222.169 151.206 222.311 150.602C222.485 149.797 222.036 149.102 221.33 148.943C220.623 148.795 219.925 149.242 219.775 149.947C219.601 150.717 220.041 151.415 220.748 151.581C220.831 151.597 220.931 151.613 221.031 151.613ZM58.0194 151.265C58.402 151.265 58.7831 151.099 59.0406 150.776C59.4983 150.213 59.4071 149.391 58.8508 148.936C58.2357 148.429 57.4043 148.513 56.9467 149.068C56.489 149.623 56.5641 150.452 57.1291 150.908C57.4367 151.165 57.7281 151.265 58.0194 151.265ZM54.2538 148.114C54.6187 148.114 54.9851 147.966 55.2426 147.659C55.7165 147.111 55.6576 146.29 55.1102 145.809C54.5025 145.279 53.671 145.337 53.1972 145.884C52.7234 146.431 52.7823 147.252 53.3311 147.734C53.646 148.007 53.9536 148.114 54.2538 148.114ZM221.987 146.813C222.61 146.813 223.167 146.365 223.275 145.735C223.408 144.922 222.926 144.251 222.211 144.135C221.496 144.019 220.823 144.499 220.706 145.213C220.565 145.992 221.047 146.663 221.754 146.796C221.829 146.805 221.912 146.813 221.987 146.813ZM50.5882 144.856C50.937 144.856 51.2857 144.715 51.5432 144.442C52.0347 143.911 52.0097 143.082 51.477 142.593C50.8707 142.037 50.0393 142.079 49.5567 142.609C49.0666 143.14 49.1078 143.969 49.6405 144.458C49.9481 144.74 50.2718 144.856 50.5882 144.856ZM222.718 141.979C223.366 141.979 223.932 141.498 224.015 140.835C224.123 140.056 223.624 139.392 222.909 139.293C222.194 139.194 221.529 139.691 221.43 140.412C221.33 141.233 221.837 141.888 222.552 141.971C222.61 141.971 222.668 141.979 222.718 141.979ZM47.03 141.482C47.3714 141.482 47.7113 141.349 47.9615 141.092C48.4677 140.578 48.4604 139.749 47.9439 139.243C47.3714 138.679 46.54 138.688 46.0323 139.202C45.5261 139.716 45.5335 140.545 46.05 141.051C46.3649 141.357 46.6975 141.482 47.03 141.482ZM43.5808 137.983C43.9045 137.983 44.2371 137.859 44.4946 137.618C45.0184 137.112 45.0273 136.292 44.5284 135.769C43.9884 135.197 43.1643 135.164 42.6331 135.662C42.1004 136.151 42.0754 136.98 42.5669 137.51C42.8994 137.85 43.2394 137.983 43.5808 137.983ZM223.258 137.112C223.932 137.112 224.505 136.598 224.563 135.919C224.638 135.131 224.114 134.493 223.391 134.418C222.668 134.343 222.028 134.874 221.953 135.587C221.879 136.408 222.41 137.038 223.134 137.104C223.175 137.112 223.217 137.112 223.258 137.112ZM40.2728 134.368C40.5803 134.368 40.879 134.261 41.1277 134.045C41.6766 133.572 41.7355 132.743 41.2616 132.196C40.7216 131.582 39.8902 131.533 39.3501 132.014C38.8086 132.495 38.76 133.315 39.2339 133.862C39.5414 134.211 39.9064 134.368 40.2728 134.368ZM223.624 132.238C224.314 132.238 224.888 131.707 224.929 131.011C224.987 130.223 224.447 129.593 223.724 129.543C223.001 129.485 222.369 130.032 222.319 130.745C222.269 131.566 222.818 132.188 223.541 132.229C223.566 132.238 223.591 132.238 223.624 132.238ZM37.106 130.621C37.3959 130.621 37.6961 130.521 37.936 130.322C38.4937 129.866 38.5761 129.037 38.1199 128.482C37.6284 127.868 36.8059 127.777 36.2408 128.225C35.6757 128.672 35.5757 129.493 36.0333 130.065C36.357 130.455 36.7308 130.621 37.106 130.621ZM223.915 127.354C224.605 127.354 225.187 126.807 225.22 126.111C225.27 125.323 224.721 124.701 223.998 124.66C223.283 124.618 222.652 125.165 222.61 125.887C222.568 126.708 223.125 127.321 223.848 127.363C223.873 127.354 223.898 127.354 223.915 127.354ZM34.1129 126.749C34.3866 126.749 34.6618 126.666 34.9032 126.484C35.4844 126.053 35.6007 125.232 35.168 124.651C34.7119 124.013 33.8878 123.889 33.2977 124.312C32.7076 124.734 32.584 125.555 33.0078 126.135C33.3228 126.567 33.7142 126.749 34.1129 126.749ZM31.3112 122.745C31.5613 122.745 31.81 122.678 32.0263 122.529C32.6341 122.131 32.7989 121.319 32.4001 120.713C31.9601 120.042 31.1449 119.876 30.5386 120.266C29.9323 120.664 29.766 121.476 30.1648 122.081C30.4635 122.537 30.8874 122.745 31.3112 122.745ZM224.156 122.463C224.854 122.463 225.436 121.907 225.469 121.202C225.511 120.415 224.954 119.801 224.231 119.76C223.508 119.718 222.893 120.282 222.851 121.004C222.818 121.824 223.383 122.429 224.106 122.463C224.123 122.463 224.139 122.463 224.156 122.463ZM28.7183 118.574C28.9346 118.574 29.1583 118.516 29.3672 118.4C29.9897 118.035 30.2149 117.256 29.8485 116.626C29.4585 115.963 28.6521 115.731 28.0194 116.095C27.3969 116.46 27.1717 117.239 27.5381 117.87C27.8119 118.334 28.2607 118.574 28.7183 118.574ZM224.322 117.571C225.029 117.571 225.611 117.007 225.636 116.294C225.652 115.49 225.079 114.885 224.356 114.868C223.616 114.852 223.034 115.424 223.009 116.145C222.992 116.949 223.558 117.555 224.289 117.571C224.306 117.571 224.314 117.571 224.322 117.571ZM26.3653 114.313C26.5655 114.313 26.7656 114.271 26.9554 114.172C27.6044 113.849 27.8619 113.061 27.5293 112.414C27.1717 111.701 26.383 111.436 25.7341 111.759C25.0851 112.083 24.8276 112.87 25.1528 113.517C25.4265 114.048 25.8842 114.313 26.3653 114.313ZM224.405 112.68C225.12 112.68 225.71 112.108 225.719 111.386C225.719 110.565 225.137 109.977 224.405 109.977C223.674 109.977 223.092 110.565 223.092 111.287C223.084 112.074 223.666 112.671 224.389 112.68C224.397 112.68 224.405 112.68 224.405 112.68ZM24.3464 109.836C24.5038 109.836 24.6613 109.803 24.8203 109.745C25.4927 109.479 25.8341 108.733 25.5678 108.062C25.2764 107.315 24.5201 106.984 23.8476 107.241C23.1736 107.498 22.8337 108.261 23.0985 108.932C23.3149 109.513 23.8225 109.836 24.3464 109.836ZM224.397 107.788C225.137 107.78 225.719 107.183 225.71 106.462C225.702 105.657 225.112 105.085 224.397 105.085C223.657 105.094 223.075 105.691 223.084 106.412C223.092 107.208 223.682 107.788 224.397 107.788ZM22.7748 105.218C23.8314 104.969 24.2375 104.248 24.0388 103.552C23.8314 102.789 23.1074 102.374 22.4099 102.565C21.7109 102.756 21.2959 103.477 21.4872 104.173C21.677 104.845 22.2009 105.218 22.7748 105.218ZM224.272 102.888C225.045 102.863 225.611 102.25 225.586 101.529C225.553 100.724 224.962 100.152 224.223 100.185C223.499 100.21 222.934 100.816 222.959 101.545C222.992 102.341 223.574 102.888 224.272 102.888ZM21.7448 100.434C22.6424 100.318 23.1486 99.6632 23.0412 98.9418C22.9161 98.1293 22.2509 97.6403 21.5358 97.748C20.8221 97.8557 20.3232 98.519 20.4307 99.232C20.5396 99.9616 21.1046 100.434 21.7448 100.434ZM224.023 98.005C224.829 97.9552 225.378 97.3335 225.336 96.6121C225.287 95.8079 224.655 95.2608 223.94 95.3022C223.217 95.3437 222.668 95.9654 222.71 96.6868C222.76 97.4744 223.341 98.005 224.023 98.005ZM21.3533 95.5593C22.0773 95.5593 22.6674 94.9706 22.6674 94.2494C22.6586 93.4285 22.0685 92.8565 21.3533 92.8565C20.6131 92.8647 20.0319 93.4616 20.0407 94.183C20.0481 94.9788 20.6308 95.5593 21.3533 95.5593ZM223.641 93.1217C224.497 93.0472 225.021 92.4005 224.946 91.6791C224.879 90.8915 224.239 90.3609 223.516 90.4189C222.793 90.4853 222.261 91.1153 222.327 91.8367C222.402 92.6243 222.976 93.1217 223.641 93.1217ZM21.6697 90.6843C22.3098 90.6843 22.866 90.22 22.9661 89.5734C23.0824 88.7526 22.5762 88.0976 21.861 87.9981C21.1458 87.8985 20.4807 88.3961 20.3806 89.1173C20.2644 89.8967 20.7544 90.5682 21.4696 90.6761C21.5358 90.6843 21.6035 90.6843 21.6697 90.6843ZM223.092 88.2551C223.973 88.1555 224.489 87.5006 224.397 86.7876C224.289 85.9751 223.624 85.4777 222.909 85.5688C222.194 85.6683 221.687 86.3234 221.787 87.0446C221.879 87.7742 222.444 88.2551 223.092 88.2551ZM22.6924 85.9171C23.2648 85.9171 23.7887 85.544 23.955 84.9637C24.1801 84.2093 23.7887 83.4797 23.0912 83.2723C22.3922 83.065 21.6697 83.4547 21.4622 84.1511C21.2371 84.9387 21.6358 85.6683 22.3348 85.8674C22.4511 85.9005 22.5762 85.9171 22.6924 85.9171ZM222.369 83.4133C223.3 83.2806 223.782 82.609 223.666 81.8961C223.524 81.0918 222.843 80.611 222.128 80.7353C221.413 80.8598 220.939 81.5396 221.064 82.2527C221.18 82.9655 221.737 83.4133 222.369 83.4133ZM24.3964 81.3406C24.8865 81.3406 25.3603 81.0587 25.584 80.5862C25.9254 79.84 25.634 79.0606 24.9689 78.7621C24.3126 78.4637 23.5312 78.7539 23.2325 79.4172C22.8999 80.1384 23.1824 80.9095 23.8387 81.2163C24.03 81.2991 24.2125 81.3406 24.3964 81.3406ZM221.446 78.6046C222.435 78.4306 222.884 77.7341 222.726 77.0211C222.552 76.2335 221.854 75.7857 221.147 75.935C220.44 76.0926 219.992 76.7889 220.141 77.4937C220.299 78.1902 220.839 78.6046 221.446 78.6046ZM26.7156 77.0295C27.1556 77.0295 27.5794 76.8139 27.8295 76.416C28.2533 75.7277 28.0694 74.9152 27.4469 74.5421C26.8318 74.1608 26.0254 74.3515 25.6428 74.965C25.219 75.6448 25.4015 76.449 26.0166 76.8387C26.2329 76.9631 26.4742 77.0295 26.7156 77.0295ZM220.307 73.8458C221.347 73.6136 221.762 72.8923 221.571 72.196C221.371 71.4248 220.657 71.0103 219.958 71.1844C219.26 71.3669 218.836 72.0799 219.011 72.7763C219.202 73.4644 219.726 73.8458 220.307 73.8458ZM29.5247 73.0249C29.9147 73.0249 30.2973 72.8509 30.5548 72.5193C31.0536 71.8974 30.9536 71.0683 30.3885 70.6207C29.8234 70.173 29.0009 70.2642 28.5432 70.8279C28.037 71.4746 28.1371 72.2953 28.7095 72.7348C28.9596 72.9338 29.2422 73.0249 29.5247 73.0249ZM32.7503 69.3355C33.0991 69.3355 33.4478 69.203 33.7053 68.9294C34.263 68.3573 34.2454 67.5282 33.7215 67.0225C33.1991 66.525 32.3677 66.5334 31.8689 67.0556C31.3038 67.6526 31.3288 68.4734 31.8527 68.9708C32.1014 69.2112 32.4251 69.3355 32.7503 69.3355ZM218.919 69.1532C219.052 69.1532 219.194 69.1283 219.327 69.0869C220.017 68.8631 220.391 68.1251 220.166 67.437C219.908 66.666 219.169 66.2929 218.487 66.5168C217.797 66.7406 217.423 67.4784 217.648 68.1666C217.855 68.7967 218.371 69.1532 218.919 69.1532ZM36.2908 65.9446C36.5984 65.9446 36.9147 65.8369 37.1634 65.6131C37.7697 65.0825 37.8197 64.2534 37.3385 63.7144C36.8559 63.1755 36.0333 63.1259 35.4844 63.5983C34.8781 64.1373 34.8281 64.958 35.3093 65.5052C35.5668 65.7954 35.9244 65.9446 36.2908 65.9446ZM217.274 64.5436C217.44 64.5436 217.598 64.5104 217.764 64.4524C218.437 64.187 218.761 63.4243 218.495 62.7528C218.204 62.0066 217.44 61.6833 216.766 61.9403C216.093 62.2055 215.761 62.96 216.027 63.6315C216.259 64.2284 216.75 64.5436 217.274 64.5436ZM40.0888 62.8357C40.364 62.8357 40.6377 62.7528 40.8702 62.5704C41.528 62.0729 41.6354 61.252 41.1954 60.6801C40.754 60.108 39.9314 60.0002 39.3575 60.4397C38.7173 60.9205 38.6011 61.733 39.0426 62.3134C39.2913 62.6533 39.6901 62.8357 40.0888 62.8357ZM215.137 60.1495C215.362 60.1495 215.594 60.0914 215.802 59.9671C216.426 59.6023 216.633 58.798 216.268 58.1763C215.869 57.4881 215.062 57.2726 214.439 57.6373C213.816 58.0021 213.599 58.798 213.965 59.4281C214.248 59.9173 214.688 60.1495 215.137 60.1495ZM44.0796 59.9919C44.3283 59.9919 44.5858 59.9173 44.8021 59.768C45.4761 59.3204 45.6424 58.5078 45.2348 57.9109C44.836 57.3058 44.0208 57.1481 43.4145 57.5462C42.7405 57.9939 42.5742 58.8064 42.9819 59.4115C43.2394 59.7846 43.6558 59.9919 44.0796 59.9919ZM48.244 57.3886C48.4677 57.3886 48.6929 57.3306 48.9003 57.2145C49.6067 56.7916 49.8142 55.9958 49.4404 55.374C49.0755 54.7522 48.2691 54.5448 47.6451 54.9179C46.955 55.316 46.7475 56.1118 47.1051 56.7419C47.3464 57.1565 47.7864 57.3886 48.244 57.3886ZM212.344 56.1118C212.635 56.1118 212.918 56.0206 213.159 55.8216C213.724 55.3657 213.816 54.5614 213.367 53.9977C212.868 53.376 212.037 53.2847 211.472 53.7325C210.906 54.1801 210.815 55.0092 211.264 55.573C211.571 55.9461 211.954 56.1118 212.344 56.1118ZM52.5336 55.0092C52.741 55.0092 52.9397 54.9595 53.1398 54.86C53.855 54.4869 54.1037 53.6993 53.7711 53.0526C53.4386 52.4142 52.641 52.1654 52.0009 52.4971C51.2857 52.8702 51.037 53.6578 51.3696 54.3044C51.6021 54.7521 52.0597 55.0092 52.5336 55.0092ZM56.9467 52.8452C57.1292 52.8452 57.3204 52.8038 57.5029 52.7209C58.2357 52.3894 58.5183 51.61 58.2181 50.9549C57.9193 50.3001 57.138 50.0099 56.4817 50.3083C55.7415 50.6482 55.459 51.4276 55.7665 52.0826C55.974 52.5634 56.4478 52.8452 56.9467 52.8452ZM208.994 52.5716C209.344 52.5716 209.701 52.4307 209.959 52.1489C210.449 51.6182 210.416 50.7892 209.884 50.3C209.294 49.7529 208.463 49.7861 207.972 50.3083C207.482 50.839 207.507 51.668 208.039 52.1572C208.354 52.4557 208.67 52.5716 208.994 52.5716ZM61.4525 50.897C61.6188 50.897 61.785 50.8638 61.9513 50.7975C61.9925 50.7809 61.5261 49.5539 61.5261 49.5539L61.0361 48.3434L61.5261 49.5539L61.011 48.3516C60.2797 48.6502 59.9633 49.413 60.2385 50.0844C60.446 50.5902 60.936 50.897 61.4525 50.897ZM205.188 49.4959C205.595 49.4959 206.002 49.3051 206.251 48.9486C206.675 48.36 206.534 47.5393 205.944 47.1246C205.279 46.6522 204.464 46.7931 204.04 47.3816C203.616 47.9703 203.758 48.7911 204.348 49.2057C204.656 49.413 204.921 49.4959 205.188 49.4959ZM66.0481 49.1642C66.1893 49.1642 66.3306 49.1394 66.4719 49.0896C67.2459 48.8243 67.6035 48.0781 67.371 47.39C67.1297 46.7101 66.3895 46.3453 65.6993 46.5858C64.943 46.8428 64.578 47.589 64.8105 48.2689C64.993 48.8243 65.5007 49.1642 66.0481 49.1642ZM70.729 47.6884C71.8591 47.4232 72.2668 46.7018 72.0755 46.0055C71.8753 45.3091 71.1528 44.9028 70.4627 45.0935C69.6813 45.3091 69.2737 46.0303 69.4738 46.7267C69.6312 47.3071 70.1551 47.6884 70.729 47.6884ZM201.048 46.876C201.505 46.876 201.946 46.6356 202.195 46.2127C202.552 45.5826 202.328 44.7867 201.696 44.4302C200.981 44.0323 200.184 44.2561 199.834 44.8944C199.485 45.5245 199.71 46.3205 200.341 46.677C200.607 46.8262 200.824 46.876 201.048 46.876ZM75.5085 46.5195C76.5887 46.3039 77.0286 45.6074 76.8712 44.9028C76.7137 44.198 76.0074 43.7586 75.2996 43.9162C74.5108 44.0985 74.0694 44.8033 74.2283 45.5079C74.3696 46.1132 74.9096 46.5195 75.5085 46.5195ZM80.3043 45.4582C81.3682 45.2593 81.8258 44.5629 81.6669 43.8581C81.5183 43.1534 80.8193 42.7058 80.113 42.8549C79.3228 43.0207 78.8739 43.7172 79.024 44.4218C79.1565 45.0355 79.698 45.4582 80.3043 45.4582ZM196.659 44.6872C197.158 44.6872 197.64 44.397 197.856 43.9078C198.147 43.2446 197.856 42.4736 197.191 42.1834C196.451 41.8517 195.678 42.1502 195.379 42.8135C195.08 43.4768 195.379 44.2478 196.044 44.5379C196.302 44.654 196.485 44.6872 196.659 44.6872ZM85.1169 44.4634C86.1726 44.2809 86.6298 43.5845 86.4885 42.8798C86.3471 42.175 85.6489 41.7108 84.9424 41.8601C84.1528 42.0175 83.6872 42.714 83.8368 43.4186C83.9532 44.0323 84.5018 44.4634 85.1169 44.4634ZM89.9297 43.5181C90.9687 43.3441 91.4342 42.656 91.3013 41.9512C91.1683 41.2382 90.4783 40.7739 89.7718 40.9066C88.9738 41.0559 88.5083 41.744 88.6414 42.4486C88.766 43.0871 89.3146 43.5181 89.9297 43.5181ZM192.104 42.8715C192.644 42.8715 193.151 42.5399 193.343 42.001C193.584 41.3211 193.226 40.5749 192.545 40.3345C191.788 40.0609 191.04 40.4174 190.791 41.0973C190.541 41.7771 190.899 42.5233 191.58 42.772C191.813 42.8467 191.963 42.8715 192.104 42.8715ZM94.7591 42.6311C95.7815 42.4736 96.2637 41.7937 96.1389 41.0807C96.0143 40.3677 95.3327 39.8951 94.6178 40.0195C93.8282 40.1604 93.3461 40.8319 93.4708 41.5449C93.5872 42.1834 94.1358 42.6311 94.7591 42.6311ZM99.6051 41.8019C100.619 41.6528 101.101 40.9812 100.985 40.2682C100.869 39.5551 100.195 39.0743 99.4805 39.1904C98.6742 39.3231 98.1922 40.0029 98.3168 40.716C98.4166 41.3543 98.9734 41.8019 99.6051 41.8019ZM187.432 41.3875C188.006 41.3875 188.53 41.0144 188.696 40.4424C188.895 39.746 188.488 39.0246 187.798 38.8257C187.017 38.6017 186.294 39.008 186.094 39.7044C185.895 40.4008 186.302 41.1222 187 41.3211C187.191 41.3709 187.308 41.3875 187.432 41.3875ZM104.451 41.0309C105.449 40.8983 105.939 40.2268 105.831 39.5138C105.723 38.8007 105.058 38.3033 104.343 38.4111C103.537 38.5355 103.046 39.207 103.154 39.92C103.263 40.5667 103.819 41.0309 104.451 41.0309ZM109.314 40.3179C110.295 40.1936 110.793 39.5386 110.702 38.8173C110.602 38.1043 109.937 37.5985 109.222 37.698C108.408 37.8141 107.918 38.4774 108.017 39.1904C108.109 39.8455 108.665 40.3179 109.314 40.3179ZM182.678 40.177C183.276 40.177 183.817 39.7625 183.958 39.1572C184.116 38.4526 183.675 37.7562 182.969 37.5903C182.179 37.4162 181.481 37.8557 181.323 38.5603C181.165 39.265 181.606 39.9698 182.312 40.1273C182.487 40.1688 182.578 40.177 182.678 40.177ZM114.177 39.663C115.141 39.5551 115.656 38.9002 115.565 38.179C115.473 37.4576 114.825 36.9518 114.102 37.0431C113.287 37.1509 112.788 37.8059 112.88 38.5272C112.963 39.1822 113.528 39.663 114.177 39.663ZM177.865 39.2152C178.489 39.2152 179.045 38.7676 179.154 38.1375C179.278 37.4245 178.804 36.7446 178.09 36.6203C177.292 36.4794 176.61 36.9519 176.485 37.6649C176.361 38.3779 176.834 39.0577 177.549 39.1822C177.707 39.2152 177.79 39.2152 177.865 39.2152ZM119.048 39.0743C120.003 38.9748 120.519 38.3281 120.436 37.6069C120.353 36.8857 119.704 36.3715 118.989 36.4544C118.175 36.5539 117.668 37.2006 117.751 37.9136C117.834 38.5851 118.399 39.0743 119.048 39.0743ZM123.935 38.5521C124.875 38.4608 125.398 37.8225 125.323 37.1011C125.248 36.3799 124.608 35.8575 123.885 35.9322C123.079 36.015 122.555 36.6535 122.63 37.3747C122.697 38.0463 123.27 38.5521 123.935 38.5521ZM173.011 38.4692C173.659 38.4692 174.224 37.9882 174.307 37.3333C174.399 36.6203 173.9 35.957 173.177 35.8659C172.387 35.758 171.722 36.2556 171.623 36.9684C171.523 37.6815 172.022 38.3447 172.736 38.4442C172.903 38.4692 172.961 38.4692 173.011 38.4692ZM128.823 38.1043C129.745 38.0297 130.277 37.3913 130.211 36.6783C130.144 35.957 129.513 35.4264 128.79 35.4928C127.992 35.5591 127.451 36.1892 127.509 36.9105C127.576 37.5821 128.149 38.1043 128.823 38.1043ZM168.14 37.9054C168.805 37.9054 169.378 37.3997 169.445 36.728C169.52 36.0068 168.988 35.3683 168.273 35.2938C167.458 35.2108 166.818 35.7498 166.752 36.4628C166.685 37.184 167.217 37.8225 167.932 37.8888C168.048 37.9054 168.09 37.9054 168.14 37.9054ZM133.719 37.7312C134.616 37.6732 135.165 37.0514 135.115 36.3301C135.065 35.6089 134.434 35.0616 133.719 35.1113C132.912 35.1694 132.364 35.7912 132.414 36.5126C132.455 37.2006 133.037 37.7312 133.719 37.7312ZM163.244 37.5074C163.925 37.5074 164.499 36.9768 164.549 36.2887C164.599 35.5673 164.05 34.9456 163.327 34.8959C162.512 34.8461 161.889 35.3933 161.847 36.1145C161.806 36.8359 162.354 37.4576 163.078 37.4992C163.186 37.5074 163.219 37.5074 163.244 37.5074ZM138.631 37.4328C139.504 37.3913 140.061 36.7778 140.028 36.0565C139.994 35.3352 139.371 34.7798 138.656 34.8129C137.85 34.8543 137.293 35.4678 137.326 36.1892C137.351 36.8939 137.933 37.4328 138.631 37.4328ZM158.34 37.2586C159.038 37.2586 159.62 36.7032 159.653 35.9984C159.678 35.2772 159.113 34.6719 158.389 34.6389C157.575 34.6057 156.976 35.1694 156.943 35.8907C156.918 36.6121 157.483 37.2172 158.207 37.2504C158.306 37.2587 158.323 37.2586 158.34 37.2586ZM143.535 37.2338C144.383 37.209 144.957 36.6037 144.932 35.8825C144.907 35.1611 144.292 34.5973 143.577 34.6139C142.771 34.6389 142.197 35.244 142.222 35.9654C142.247 36.6783 142.829 37.2338 143.535 37.2338ZM153.435 37.1343C154.15 37.1343 154.74 36.5623 154.749 35.8409C154.757 35.1197 154.175 34.5228 153.452 34.5144C152.637 34.5144 152.047 35.0865 152.039 35.8078C152.031 36.5291 152.612 37.1261 153.336 37.1343C153.427 37.1343 153.435 37.1343 153.435 37.1343ZM148.448 37.1343C149.271 37.1261 149.853 36.5291 149.844 35.8078C149.836 35.0947 149.254 34.5144 148.531 34.5144C147.716 34.5228 147.135 35.1113 147.135 35.8327C147.135 36.554 147.725 37.1343 148.448 37.1343Z" fill="#001A49"/>
<path fill-rule="evenodd" clip-rule="evenodd" d="M168.256 23.6946C158.697 23.6946 150.95 31.4216 150.95 40.9559C150.95 50.4902 158.697 58.2172 168.256 58.2172C177.815 58.2172 185.562 50.4902 185.562 40.9559C185.562 31.4216 177.815 23.6946 168.256 23.6946Z" fill="#001A49"/>
<path fill-rule="evenodd" clip-rule="evenodd" d="M197.159 137.916C191.465 117.322 183.386 109.72 185.472 105.441C187.567 101.163 191.308 96.504 190.634 94.1329C189.969 91.7616 188.606 90.4185 188.606 90.4185C188.606 90.4185 188.298 88.4785 187.592 87.1271C186.885 85.7674 185.647 84.7643 185.647 84.7643C185.647 84.7643 187.326 82.8076 185.564 81.9785C183.793 81.1496 182.097 80.2873 182.097 80.2873C182.097 80.2873 183.993 75.7108 182.355 72.1872C180.718 68.6636 179.338 66.1017 177.11 66.7816C174.882 67.4614 175.074 68.8627 176.013 72.436C176.952 76.0093 177.534 77.7089 174.234 80.6272C170.934 83.5456 167.792 87.152 166.445 85.7758C165.099 84.3995 164.741 82.078 165.257 80.2043C165.78 78.3306 166.745 74.8651 163.902 74.7159C161.059 74.5749 158.973 81.133 159.33 86.6214C159.688 92.1016 159.089 95.1443 162.289 101.138C168.681 113.11 168.216 132.005 168.216 132.005C168.216 132.005 147.12 123.3 135.632 122.802C120.795 122.164 115.375 127.163 114.053 126.177C111.601 124.369 114.394 108.783 114.394 108.783C114.394 108.783 123.612 108.153 127.345 102.2C131.077 96.247 128.192 89.3657 128.192 89.3657C128.192 89.3657 128.592 83.8689 127.178 82.6999C125.765 81.5309 124.976 82.1112 124.976 82.1112C124.976 82.1112 125.026 66.9474 111.177 61.6829C91.3858 54.1631 76.6489 70.2058 76.6489 70.2058C76.6489 70.2058 62.0852 60.3232 52.7836 70.7943C43.4733 81.2656 51.9934 101.586 38.9027 111.908C25.8105 122.222 1.54648 124.378 1.32281 136.391C1.09766 148.404 10.0416 151.504 10.0416 151.504C10.0416 151.504 5.32095 155.028 4.37329 161.47C3.69933 166.08 4.99721 173.367 10.9731 176.751C19.2431 181.434 24.854 179.196 24.854 179.196C24.854 179.196 16.8504 190.894 17.8304 197.933C18.8119 204.972 20.1084 209.805 30.5238 210.005C40.9467 210.203 57.2718 208.147 57.2718 208.147C57.2718 208.147 53.7975 211.098 49.7243 215.079H133.861C130.603 204.251 127.079 197.087 127.079 197.087C127.079 197.087 128.359 194.368 129.705 190.422C131.052 186.476 132.698 180.298 134.194 179.196C135.69 178.094 142.232 172.273 143.254 168.559C144.268 164.844 142.406 158.345 142.406 158.345C142.406 158.345 170.735 162.59 180.917 161.893C191.091 161.179 203.701 161.545 197.159 137.916ZM97.0381 121.89C96.0906 124.361 94.8105 126.052 92.2586 126.981C88.6261 128.307 84.5781 129.087 80.7545 129.65C78.918 129.916 77.189 130.007 75.351 130.032C73.5896 130.057 72.3668 130.778 70.7216 131.267C67.8536 132.129 66.5233 128.689 68.0699 126.724C71.4868 122.371 69.5076 114.263 73.6396 110.3C71.1454 108.575 73.7971 104.38 76.7902 105.839C79.8156 107.315 82.7499 108.957 86.1158 109.454C89.1166 109.902 92.591 110.98 95.5835 110.192C96.8802 109.852 98.7007 110.631 98.9417 112.091C99.5151 115.647 98.2933 118.615 97.0381 121.89Z" fill="white"/>
<path fill-rule="evenodd" clip-rule="evenodd" d="M99.3242 102.54L98.4763 109.886C98.4763 109.886 91.6935 111.527 85.8667 110.309C80.0394 109.082 74.1047 104.231 74.1047 104.231L66.5735 131.334C66.5735 131.334 56.7731 137.527 48.0381 147.882C36.6499 161.379 25.6105 179.877 25.6105 179.877C25.6105 179.877 8.63789 182.422 5.63744 168.477C2.63553 154.532 10.0344 150.917 10.0344 150.917C10.0344 150.917 -0.456161 145.619 1.39796 136.731C3.25062 127.843 13.0436 124.933 23.4003 121.194C33.7819 117.447 45.0788 112.215 48.3956 99.398C51.7036 86.6219 49.102 72.7183 61.0626 70.1232C73.0658 67.5199 77.8203 73.8126 77.6541 73.7547C77.6452 73.7547 79.3743 69.0123 87.1301 65.8203C94.3867 62.8357 105.234 61.7248 111.277 64.7591C124.618 71.4497 122.756 81.1831 122.756 81.1831C122.756 81.1831 122.183 82.0868 120.895 80.3375C119.606 78.5964 118.75 74.5008 115.226 71.8975C111.701 69.2942 107.861 67.9262 107.861 67.9262C107.861 67.9262 103.223 72.1628 99.8229 78.3975C96.4149 84.6321 93.6469 91.6544 93.6469 91.6544C93.6469 91.6544 85.9831 89.5485 84.7611 94.3571C84.0462 97.1594 86.382 99.9949 89.416 101.363C92.7159 102.855 97.2045 100.6 97.2045 100.6L99.3242 102.54Z" fill="#001A49"/>
<path fill-rule="evenodd" clip-rule="evenodd" d="M132.031 216.049L125.389 197.603L74.2681 195.322L50.0144 216.049H132.031Z" fill="url(#paint0_linear_69_4694)"/>
<path fill-rule="evenodd" clip-rule="evenodd" d="M109.305 197.087L127.077 197.171C127.077 197.171 130.401 189.311 131.565 185.605C132.721 181.899 133.402 179.968 135.547 177.589C137.683 175.209 143.634 171.197 143.244 163.154C142.853 155.112 140.027 152.351 140.027 152.351C140.027 152.351 145.48 145.072 146.461 137.154C147.442 129.237 147.475 129.054 147.475 129.054C147.475 129.054 140.601 126.89 134.183 127.031C128.049 127.156 122.762 128.888 122.762 128.888C122.762 128.888 127.293 141.507 114.55 144.168C108.224 145.487 100.702 144.4 94.9164 141.125C87.053 136.682 84.1686 131.84 84.1686 131.84C84.1686 131.84 67.6682 133.78 58.018 141.971C48.7091 149.872 43.2894 159.191 43.2894 159.191C43.2894 159.191 48.2426 158.661 51.9258 161.131C55.6076 163.601 58.018 167.373 58.018 167.373L63.4376 175.391L69.44 186.542L109.305 197.087Z" fill="url(#paint1_linear_69_4694)"/>
<path fill-rule="evenodd" clip-rule="evenodd" d="M162.489 41.2051C160.976 43.6841 163.07 47.9868 166.212 47.448C168.739 47.0168 168.274 42.0508 166.636 40.6082C167.542 40.2185 169.122 40.1355 170.103 40.5252C169.063 42.5979 169.413 47.3236 172.131 47.448C174.583 47.5558 175.688 43.6094 174.333 41.288C175.988 41.6196 177.401 41.8352 177.634 43.1451C177.941 44.8695 176.029 46.304 175.007 46.9423C173.511 47.8875 171.923 48.1195 170.942 49.3052C170.152 50.2668 169.487 54.0226 171.366 54.0309C172.97 54.0391 172.147 52.1406 172.638 51.0793C172.97 50.3497 174.309 49.9187 175.348 49.3881C177.85 48.1195 181.939 44.1068 178.988 40.8652C177.983 39.7625 176.312 39.066 174.674 38.9251C173.993 38.8671 173.22 39.1905 172.388 39.091C171.507 38.9915 170.493 38.0462 169.172 37.9053C167.177 37.6981 165.921 38.3614 164.434 39.2567C160.327 37.7976 157.061 40.6745 157.493 44.9111C157.634 46.304 158.283 47.5558 159.014 48.2854C160.776 50.0596 163.519 50.0845 165.19 51.6597C164.716 53.9148 167.451 54.462 167.642 52.4225C168.025 48.4015 162.879 48.8491 160.701 46.6853C159.164 45.1431 159.347 40.9978 162.489 41.2051ZM172.222 44.8282C171.94 44.2146 171.624 42.7472 172.139 42.1253C172.58 42.7886 172.912 44.1897 172.222 44.8282ZM165.539 45.0852C164.442 44.8282 163.819 42.9545 164.866 42.2165C165.406 42.8134 165.955 44.0572 165.539 45.0852Z" fill="white"/>
<path fill-rule="evenodd" clip-rule="evenodd" d="M170.444 60.2748C169.53 60.6147 168.358 60.623 167.061 60.7805C165.856 60.9298 163.57 60.9048 163.678 62.3806C163.769 63.6989 166.886 64.0886 168.25 64.4948C169.181 64.7683 170.012 65.0005 170.876 65.2575C171.915 65.5726 174.417 66.6918 174.342 64.7517C174.284 63.1766 171.774 63.4254 170.535 62.8117C171.957 62.2645 177.169 62.7372 175.781 60.3661C175.39 59.7028 173.993 59.3463 173.071 58.9316C172.007 58.4592 171.034 58.028 170.278 57.6632C172.032 57.2404 175.839 58.3099 175.689 56.229C175.589 54.7532 172.904 55.2008 170.785 55.3004C169.58 55.3583 168.374 55.3419 167.402 55.3833C165.748 55.4578 163.869 55.0599 163.844 56.5689C163.828 57.7876 166.005 58.285 166.895 58.6746C168.017 59.1804 169.031 59.7442 170.444 60.2748Z" fill="#001A49"/>
<path fill-rule="evenodd" clip-rule="evenodd" d="M0.00895691 138.44C0.432755 145.446 4.42206 148.556 8.81163 151.274C7.04874 153.712 4.74727 156.357 3.89967 159.881C2.95937 163.835 3.95705 168.204 5.51099 171.272C8.48788 177.166 14.0238 181.61 22.7764 181.229C20.7399 184.976 18.0543 189.32 17.1066 194.478C15.9927 200.522 17.8056 205.662 21.5963 208.406C29.31 214.003 45.0701 211.158 54.6865 209.675C53.6226 210.794 51.6361 212.402 50.1984 213.728C49.8246 214.069 48.7681 214.732 49.2669 215.587C49.5082 216 50.3235 216.075 51.046 215.926C51.8185 215.76 52.6087 214.649 53.1665 214.151C54.8028 212.683 55.8505 211.905 57.4795 210.52C58.2535 209.865 59.0172 209.027 59.6824 208.745C60.6462 208.348 61.9853 208.332 63.2405 208.075C71.6518 206.316 79.4818 204.294 89.6399 204.7C101.344 205.164 110.662 202.453 117.652 198.449C120.57 198.573 123.745 198.225 126.879 198.284C129.713 203.672 131.683 209.923 133.82 216.009C134.992 216.191 135.415 215.635 135.848 215.08C133.861 208.481 131.517 202.229 128.658 196.509C130.104 193.524 131.492 190.299 132.548 186.966C133.121 185.15 133.487 183.369 134.152 181.817C136.114 177.3 140.968 175.011 143.379 170.84C145.058 167.938 145.507 163.81 144.567 159.533C153.919 160.601 163.303 162.194 173.344 162.907C183.876 163.661 194.964 163.205 198.481 156.241C200.434 152.36 200.01 146.831 199.071 142.229C196.785 131.037 191.922 122.456 188.406 112.515C187.708 110.542 186.311 107.441 186.793 105.427C187.309 103.296 189.287 101.804 190.351 99.6894C191.864 96.6715 192.429 92.3106 189.927 90.3208C189.553 87.9331 188.547 86.1755 187.217 84.7495C187.367 82.3534 185.164 81.2839 183.918 80.0237C184.591 77.0971 184.125 73.9548 183.244 71.5837C182.421 69.3701 181 66.8911 178.93 66.0124C176.461 64.9677 174.691 66.3439 174.109 67.8695C173.029 70.705 176.096 73.7973 176.312 76.2266C176.495 78.2993 173.843 80.09 172.588 81.2093C171.964 81.7647 171.258 82.428 170.385 83.1494C169.072 84.2437 167.534 85.6532 166.661 83.5722C165.697 81.2757 167.8 78.7553 167.509 76.2266C167.235 73.8886 163.835 72.8523 161.84 74.3694C160.377 75.4804 159.546 77.7769 158.964 79.8579C156.953 87.046 158.715 95.5108 161.084 100.958C161.923 102.89 162.937 104.73 163.619 106.786C165.747 113.212 166.204 120.723 166.67 128.906C159.155 126.85 150.685 124.404 141.874 123.078C134.776 122.008 127.145 122.05 121.143 123.757C119.14 124.33 117.187 125.316 115.05 125.026C113.945 122.787 114.61 119.579 114.967 117.009C115.341 114.289 115.765 111.562 116.322 109.24C121.925 108.569 125.665 106.662 128.167 102.74C129.215 101.099 130.112 98.9017 130.279 95.7346C130.378 93.8112 130.312 88.2896 128.333 88.4721C126.613 88.6378 127.851 92.2526 127.91 94.0434C128.001 96.8457 127.535 98.6199 126.812 100.203C125.316 103.462 122.59 105.609 118.608 106.455C110.462 108.171 104.045 104.274 99.7309 100.883C99.1491 100.427 98.2514 99.4324 97.6197 99.3661C97.0794 99.308 96.3729 99.7392 95.6747 99.8717C93.4719 100.303 91.1777 100.436 89.0747 99.6147C87.3042 98.9267 84.9103 96.6633 86.448 94.1263C87.1961 92.8993 89.108 92.4101 91.269 92.5178C92.9316 92.6091 95.6829 93.4381 94.7354 90.8348C98.5923 83.0664 102.931 75.7705 107.852 69.0551C112.823 71.1526 116.38 74.1788 119.024 78.6806C119.863 80.1148 120.844 81.6404 122.157 82.4777C123.346 83.2405 125.042 83.1576 126.472 83.6551C126.638 85.0147 125.707 87.0377 127.486 87.0294C128.907 87.0211 129.181 84.3348 128.674 82.8924C128.275 81.7647 127.469 81.599 126.646 81.118C126.945 74.386 124.427 69.909 120.894 66.518C117.411 63.1769 112.623 60.814 107.187 59.7694C94.0454 57.2407 82.6736 62.6048 76.4652 68.7152C72.4508 66.203 67.0886 64.3044 61.4026 65.5066C56.4995 66.543 52.4263 69.4281 50.0659 73.3579C47.688 77.3127 47.2641 83.1991 46.6829 89.0606C45.5013 100.958 41.8357 109.506 33.9895 114.638C26.2507 119.703 15.6278 121.768 7.67267 126.626C3.65834 129.047 0.116379 132.811 0.00895691 138.44ZM70.7542 84.1691C72.2595 77.0639 76.1488 71.4594 81.4198 67.6291C86.6476 63.8236 93.7378 61.0296 102.657 61.552C108.609 61.9001 114.011 63.9894 117.893 66.9574C121.783 69.9338 124.477 74.3777 124.244 80.8031C122.374 80.3388 121.667 78.4899 120.861 77.0888C118.193 72.4874 114.244 69.4862 109.265 67.2144C108.933 66.6009 108.808 65.8879 107.993 65.8631C106.988 65.8383 106.156 67.5544 105.541 68.4001C100.662 75.1156 95.8991 82.7929 92.4245 90.3458C86.3068 88.9611 81.461 93.8941 84.5528 98.9598C86.5312 102.201 92.1502 103.404 97.0794 101.911C97.6113 102.458 98.7169 102.558 98.9413 103.428C99.1076 104.092 98.7584 105.443 98.6836 106.471C98.6005 107.624 98.5756 108.718 98.426 109.597C80.8209 110.658 66.8723 102.483 70.7542 84.1691ZM33.6908 166.123C31.4128 169.19 28.8524 172.433 26.5833 175.657C25.9343 176.577 24.9293 178.618 24.2141 178.866C23.2503 179.206 21.5786 178.965 20.3234 178.866C16.259 178.543 13.6 177.134 11.5207 175.318C8.7204 172.871 6.25999 168.983 5.93478 164.514C5.56985 159.508 7.7227 156.473 9.90939 153.795C10.5245 153.041 12.0534 152.003 11.9372 150.926C11.8371 149.94 10.0006 149.367 9.1442 148.82C6.25117 146.954 3.42583 144.542 2.6268 140.629C1.31419 134.195 5.50363 130.606 9.39288 128.309C17.3406 123.617 28.5448 121.353 36.2174 115.898C43.8149 110.501 47.7792 101.356 48.9932 89.4753C49.6171 83.4395 49.807 77.5697 52.7162 73.6067C55.3105 70.0665 59.8825 66.9574 66.1748 67.4466C69.6652 67.7202 72.1845 69.1711 74.8936 70.3982C71.4531 74.983 68.7676 79.7915 67.9539 86.6895C67.1637 93.3883 69.0178 99.051 71.8431 102.724C72.2757 103.288 73.0159 103.835 73.0321 104.324C73.0483 105.219 72.3831 106.62 72.1006 107.698C69.9227 115.972 67.9789 123.716 65.8422 131.841C50.6884 138.789 43.1247 153.396 33.6908 166.123ZM164.018 82.7347C164.184 84.6168 165.207 86.5486 166.977 86.9547C168.955 87.4107 170.468 86.1589 171.466 85.3546C172.314 84.6582 173.112 83.8706 174.001 83.0747C175.572 81.6902 177.65 79.9076 178.315 77.8433C179.005 75.6876 178.182 73.8803 177.384 72.189C177.018 71.4096 175.971 69.6023 176.287 68.7318C176.844 67.1647 178.88 68.7648 179.421 69.4033C181.191 71.5008 182.33 75.6047 181.706 79.2775C178.407 79.6672 176.836 81.6238 174.94 83.7545C173.27 85.6282 170.668 87.9331 171.557 90.9261C172.006 92.4515 173.403 92.9159 174.009 94.1345C174.3 94.7232 174.35 95.3533 174.6 95.9089C175.048 96.9037 175.472 97.94 176.628 98.1888C177.417 100.17 179.653 101.704 182.13 100.8C183.552 100.286 184.109 99.0178 185.264 98.0146C185.987 97.3845 187.159 97.1359 187.126 96.1575C187.06 94.2506 184.707 95.5108 183.909 96.1575C183.12 96.796 182.014 98.5784 180.95 98.6862C179.803 98.8023 178.864 97.9649 178.747 97.1691C178.49 95.4031 180.376 93.7532 181.374 93.032C182.862 91.9541 184.583 91.2245 186.536 91.4235C190.833 91.8629 189.096 97.0943 187.725 99.4406C186.569 101.406 185.09 102.815 184.591 104.755C183.926 107.375 185.156 110.26 185.863 112.349C188.83 121.171 192.828 128.508 195.422 137.586C196.486 141.301 197.55 145.247 197.541 149.401C197.525 155.03 195.056 158.188 190.517 159.615C186.095 161.008 180.268 161.066 174.691 160.71C163.769 160.013 154.018 158.272 143.803 156.995C143.221 155.295 142.406 153.828 141.683 152.269C145.889 145.687 148.815 137.835 148.366 126.61C154.725 128.011 160.859 129.627 166.811 131.418C166.811 132.819 166.819 135.083 166.811 136.733C166.803 138.341 166.404 141.077 168 141.035C169.288 141.002 169.188 139.145 169.188 137.238C169.188 135.381 169.155 133.383 169.105 132.338C168.64 122.431 168.166 113.013 165.639 105.667C164.816 103.288 163.577 100.999 162.68 98.6613C161.732 96.2073 161.042 93.7035 160.651 90.6441C160.036 85.9019 160.635 81.0269 162.264 77.7272C162.763 76.7074 163.586 75.157 165.14 76.3758C165.157 78.7553 163.793 80.2725 164.018 82.7347ZM174.001 88.7207C174.583 87.3776 175.747 86.2253 177.043 84.8406C178.307 83.4975 179.919 81.4 181.864 81.715C182.87 81.8808 183.876 82.9255 184.233 83.7379C181.898 84.1028 180.135 85.4957 178.564 86.6895C176.935 87.9331 175.447 89.4171 174.417 91.2494C173.835 90.6359 173.569 89.7157 174.001 88.7207ZM176.37 92.6921C176.836 90.3706 181.931 86.7475 184.067 86.1092C185.813 85.5868 186.752 87.9082 187.118 89.2347C181.889 88.7704 178.573 91.6059 176.711 95.0548C176.561 94.5076 176.171 93.6703 176.37 92.6921ZM95.7162 127.381C97.9439 125.092 98.8249 121.138 99.6063 117.34C100.421 113.394 100.97 109.017 101.127 104.929C104.668 107.06 108.517 108.867 113.903 109.149C113.272 112.797 112.025 117.971 112.041 122.489C112.05 123.782 112.208 125.175 112.806 126.12C114.46 128.757 118.99 126.817 121.434 126.12C122.058 128.442 122.723 130.581 122.706 133.383C122.681 136.666 121.559 139.087 119.664 140.646C114.809 144.6 104.885 144.501 98.5091 142.08C92.6323 139.85 88.3681 135.638 84.8853 131.194C84.6941 130.954 84.2453 130.73 84.3783 130.349C89.1495 130.034 93.289 129.876 95.7162 127.381ZM75.0687 105.941C80.3633 110.335 88.2102 112.192 98.1683 111.935C97.7859 114.447 97.4286 116.959 96.8133 119.28C96.2232 121.494 95.5749 123.882 94.2782 125.44C91.8925 128.301 85.2593 127.82 80.3971 128.226C75.7088 128.616 71.9093 129.594 68.5513 130.755C70.7218 122.481 72.7996 114.115 75.0687 105.941ZM145.989 126.12C146.554 136.243 144.019 143.954 140.32 150.089C138.641 147.817 136.105 145.148 133.72 143C133.046 142.395 131.966 141.035 130.927 141.143C130.353 141.201 129.896 141.84 129.913 142.329C129.938 143.05 131.276 144.012 131.858 144.526C134.235 146.64 136.205 148.547 137.951 151.026C140.162 154.168 142.414 158.047 142.689 163.096C143.146 171.28 136.829 173.784 133.462 178.46C131.617 181.022 131.002 184.371 129.996 187.24C128.907 190.333 127.818 192.919 126.355 195.937C123.845 195.995 121.069 196.235 118.658 196.103C119.822 195.564 121.276 194.487 122.216 193.151C123.005 192.024 124.036 190.117 123.147 188.931C124.111 188.218 125.366 187.547 125.349 186.062C125.324 184.014 122.523 183.6 120.528 183.617C116.139 183.642 113.139 185.623 108.683 186.486C104.12 187.364 99.7808 185.988 96.4975 184.462C96.8716 182.646 98.0519 181.76 99.3736 180.665C100.487 179.736 102.358 178.733 102.333 176.868C102.316 175.143 100.604 173.776 98.692 173.742C96.7219 173.709 94.8766 174.862 93.3638 175.848C89.5652 178.343 86.2485 181.303 83.1231 184.205C82.4837 184.803 81.8186 185.773 80.6708 185.3C76.5726 181.006 72.7407 176.437 70.1803 170.608C70.8793 170.045 71.4105 169.447 72.2095 168.752C72.7996 168.238 74.0548 167.624 73.9886 166.637C73.9548 166.206 73.5059 165.659 72.8908 165.625C71.7857 165.559 70.3304 167.35 69.4239 168.154C68.1687 169.256 67.2711 170.185 66.2072 170.94C60.3313 164.589 54.0391 158.654 42.8496 157.6C51.5036 144.509 61.2039 131.733 81.9422 130.423C82.0099 130.688 82.0673 131.236 82.1997 131.518C82.6986 132.645 84.3617 134.37 85.5004 135.572C89.0996 139.377 93.5134 142.868 98.7834 144.6C109.473 148.133 124.26 146.01 125.017 134.726C125.266 131.078 124.526 128.5 123.745 125.523C130.52 123.807 139.53 124.802 145.989 126.12ZM93.4387 202.42C89.6649 202.412 85.8245 202.18 82.3498 202.42C78.7755 202.669 75.4425 203.142 72.1918 203.771C66.0158 204.966 59.7236 206.375 53.0664 207.568C47.039 208.647 39.1428 209.724 32.078 209.168C24.9617 208.622 19.6009 206.168 19.127 199.12C18.7606 193.682 21.0224 189.222 22.9339 185.78C27.7134 177.209 33.9395 169.772 39.6917 161.812C40.0905 161.256 40.8468 159.881 41.3869 159.79C41.7606 159.722 42.0608 159.856 42.2345 159.872C52.6249 160.833 59.0423 166.388 64.4958 172.532C61.5615 175.209 58.6347 178.12 55.8667 180.89C54.9367 181.817 54.0391 182.803 52.9913 183.509C51.7111 183.824 47.9205 182.456 47.9955 184.603C48.0455 186.038 50.4897 185.73 51.8024 185.789C61.6189 186.22 70.9366 186.859 80.2382 187.563C82.4411 187.729 85.542 188.425 84.5528 185.955C88.0024 183.178 91.2774 179.613 95.3006 177.258C96.4477 176.586 98.5839 175.309 99.9555 176.752C99.0577 178.32 97.4867 179.015 96.1483 180.383C95.3421 181.204 93.3888 183.741 94.1203 185.614C94.4278 186.402 96.0155 186.875 96.9131 187.215C100.022 188.409 104.236 189.429 108.168 188.906C113.214 188.227 117.353 185.15 122.64 186.203C121.858 187.356 120.304 187.995 118.833 188.649C115.799 190.009 112.457 190.888 108.426 191.269C106.722 191.426 103.289 191.029 103.43 192.787C103.546 194.262 106.364 193.732 107.744 193.632C113.089 193.242 117.419 192.09 121.027 190.258C119.414 194.851 113.247 195.978 107.146 196.169C105.408 196.218 103.355 195.646 103.164 197.014C102.898 198.972 106.24 198.499 108.077 198.449C110.171 198.391 111.975 198.05 113.496 197.943C107.42 200.538 101.734 202.445 93.4387 202.42ZM59.1585 180.815C62.0928 177.888 65.3183 174.895 68.385 172.292C70.3966 176.52 73.0733 180.458 76.0002 183.683C76.4063 184.13 77.1126 184.596 77.0141 185.034C70.2553 184.512 63.4568 184.039 56.4494 183.766C57.1881 182.688 58.2109 181.76 59.1585 180.815Z" fill="#001A49"/>
<path fill-rule="evenodd" clip-rule="evenodd" d="M110.703 75.8112C108.725 75.3468 105.965 76.5408 104.859 77.9253C104.219 78.7295 101.95 83.3144 104.436 83.2397C105.308 83.2149 105.483 82.2862 105.707 81.5484C106.314 79.5586 107.27 78.3398 109.431 78.0912C110.404 77.9833 111.592 78.1741 111.717 77.0796C111.8 76.2838 111.418 75.9771 110.703 75.8112Z" fill="#001A49"/>
<path fill-rule="evenodd" clip-rule="evenodd" d="M111.036 80.7034C110.313 80.5873 109.698 80.7862 109.764 81.8889C109.814 82.7512 111.759 84.6747 112.474 84.7576C113.247 84.8571 113.787 84.5172 113.829 83.746C113.871 82.9337 111.851 80.836 111.036 80.7034Z" fill="#001A49"/>
<path fill-rule="evenodd" clip-rule="evenodd" d="M118.824 92.857C120.271 93.1389 126.522 93.313 126.522 91.1657C126.522 89.1676 122.648 90.7097 121.102 90.6599C119.888 90.6185 118.708 90.2123 118.226 90.0714C116.963 89.7065 114.768 89.2091 114.585 90.834C114.435 92.144 116.056 93.6363 117.212 94.5484C118.517 95.5847 119.797 96.3225 121.526 96.4884C123.754 96.7039 125.89 96.3971 125.923 95.1369C125.973 93.5866 124.211 94.2167 122.623 94.2084C120.886 94.2001 119.73 93.5534 118.824 92.857Z" fill="#001A49"/>
<path fill-rule="evenodd" clip-rule="evenodd" d="M93.0147 96.3223C93.4469 95.8579 93.9208 95.2776 93.3555 94.548C92.8568 93.9097 90.7704 94.034 89.5486 93.9594C88.2601 93.8765 87.4538 94.1003 87.429 94.9708C87.3707 96.8777 91.2692 96.2394 93.0147 96.3223Z" fill="#001A49"/>
<path fill-rule="evenodd" clip-rule="evenodd" d="M218.346 61.7153C215.919 61.7153 213.949 63.6803 213.949 66.1012C213.949 68.5221 215.919 70.487 218.346 70.487C220.774 70.487 222.744 68.5221 222.744 66.1012C222.752 63.6803 220.782 61.7153 218.346 61.7153Z" fill="#001A49"/>
<path fill-rule="evenodd" clip-rule="evenodd" d="M223.226 129.467C219.485 129.467 216.451 132.493 216.451 136.224C216.451 139.955 219.485 142.973 223.226 142.973C226.966 142.973 230 139.947 230 136.224C230 132.493 226.966 129.467 223.226 129.467Z" fill="#001A49"/>
<path fill-rule="evenodd" clip-rule="evenodd" d="M173.601 190.544C170.7 190.544 168.356 192.891 168.356 195.777C168.356 198.67 170.708 201.008 173.601 201.008C176.502 201.008 178.846 198.662 178.846 195.777C178.854 192.891 176.502 190.544 173.601 190.544Z" fill="#001A49"/>
<path fill-rule="evenodd" clip-rule="evenodd" d="M108.725 153.561H64.453C59.7823 153.561 55.9917 157.341 55.9917 162V165.508C55.9917 170.166 59.7823 173.947 64.453 173.947H108.725C113.396 173.947 117.187 170.166 117.187 165.508V162C117.187 157.341 113.396 153.561 108.725 153.561Z" fill="#F6F6F6"/>
<path d="M64.453 175.008H108.724C113.978 175.008 118.242 170.747 118.242 165.508V162.001C118.242 156.762 113.97 152.508 108.724 152.508H64.453C59.1997 152.508 54.9352 156.769 54.9352 162.001V165.508C54.9278 170.747 59.1997 175.008 64.453 175.008ZM108.724 154.614C112.806 154.614 116.131 157.93 116.131 162.001V165.508C116.131 169.579 112.806 172.895 108.724 172.895H64.453C60.3725 172.895 57.0468 169.579 57.0468 165.508V162.001C57.0468 157.93 60.3725 154.614 64.453 154.614H108.724Z" fill="#001A49"/>
<path fill-rule="evenodd" clip-rule="evenodd" d="M74.5535 167.695C74.2209 166.584 74.037 165.373 74.037 164.114V163.3C74.037 157.895 77.3788 153.509 81.5109 153.509L125.64 153.5C127.976 153.575 128.475 156.188 126.164 157.713C126.164 157.713 124.709 158.865 124.709 164.039C124.709 169.212 126.313 169.66 126.313 169.66C127.344 170.049 128.799 172.189 126.239 174.071L72.2844 173.962L74.5535 167.695Z" fill="#F6F6F6"/>
<path d="M126.238 175.116C126.462 175.116 126.687 175.041 126.861 174.909C128.698 173.557 128.798 172.073 128.698 171.31C128.515 169.967 127.559 169.014 126.728 168.683C126.604 168.574 125.764 167.72 125.764 164.031C125.764 160.019 126.678 158.717 126.845 158.517C128.324 157.498 129.014 155.947 128.615 154.529C128.258 153.277 127.135 152.473 125.681 152.432L81.5184 152.441C76.8124 152.441 72.9894 157.308 72.9894 163.293V164.106C72.9894 165.44 73.1807 166.751 73.5471 167.994C73.7134 168.549 74.2946 168.873 74.8597 168.707C75.4174 168.542 75.7411 167.953 75.5748 167.397C75.2585 166.352 75.101 165.25 75.101 164.113V163.302C75.101 158.485 77.9764 154.563 81.5095 154.563L125.639 154.554C125.914 154.563 126.437 154.645 126.579 155.118C126.703 155.558 126.446 156.263 125.581 156.826C125.199 157.124 123.653 158.626 123.653 164.031C123.653 169.578 125.473 170.514 126.03 170.671C126.138 170.721 126.537 171.103 126.604 171.6C126.678 172.157 126.296 172.645 125.872 173.009L72.2919 172.902C71.7092 172.902 71.2353 173.375 71.2353 173.955C71.2353 174.536 71.7092 175.008 72.2919 175.008L126.238 175.116C126.229 175.116 126.229 175.116 126.238 175.116Z" fill="#001A49"/>
<path fill-rule="evenodd" clip-rule="evenodd" d="M83.5449 157.368H125.115C127.949 157.368 124.574 160.526 124.574 164.1C124.574 167.673 127.949 170.301 125.115 170.301H83.5449C80.7105 170.301 78.4164 167.407 78.4164 163.834C78.4164 160.261 80.7105 157.368 83.5449 157.368Z" fill="#F6F6F6"/>
<path d="M83.5459 171.352H125.116C125.465 171.352 126.529 171.352 127.052 170.541C127.601 169.686 127.16 168.732 126.653 167.63C126.196 166.644 125.631 165.417 125.631 164.099C125.631 162.806 126.188 161.486 126.628 160.425C127.16 159.141 127.626 158.039 127.019 157.134C126.662 156.596 126.013 156.321 125.116 156.321H83.5459C80.138 156.321 77.3612 159.696 77.3612 163.842C77.3612 167.978 80.138 171.352 83.5459 171.352ZM125.057 169.239H83.5459C81.302 169.239 79.4817 166.81 79.4817 163.824C79.4817 160.84 81.3094 158.419 83.5459 158.419H125.116C125.032 158.743 124.833 159.223 124.675 159.605C124.16 160.84 123.52 162.382 123.52 164.09C123.52 165.864 124.218 167.389 124.733 168.5C124.833 168.732 124.958 169.007 125.057 169.239Z" fill="#001A49"/>
<path fill-rule="evenodd" clip-rule="evenodd" d="M119.788 174.703H72.5494C68.6925 174.703 65.5669 177.821 65.5669 181.667C65.5669 185.514 68.6925 188.632 72.5494 188.632H119.788C123.645 188.632 126.77 185.514 126.77 181.667C126.77 177.821 123.645 174.703 119.788 174.703Z" fill="url(#paint2_linear_69_4694)"/>
<path d="M72.5494 189.675H119.787C124.218 189.675 127.825 186.076 127.825 181.659C127.825 177.239 124.218 173.64 119.787 173.64H72.5494C68.1186 173.64 64.5104 177.239 64.5104 181.659C64.5104 186.085 68.1186 189.675 72.5494 189.675ZM119.787 175.755C123.054 175.755 125.706 178.408 125.706 181.659C125.706 184.917 123.046 187.56 119.787 187.56H72.5494C69.2826 187.56 66.6221 184.908 66.6221 181.659C66.6221 178.4 69.2826 175.755 72.5494 175.755H119.787Z" fill="#001A49"/>
<path fill-rule="evenodd" clip-rule="evenodd" d="M102.097 183.89C102.288 183.259 102.396 182.595 102.396 181.899V181.343C102.396 177.655 99.4455 174.669 95.8131 174.669L56.9203 174.662C54.8675 174.711 54.426 176.494 56.4626 177.53C56.4626 177.53 57.8679 179.553 57.8679 181.65C57.8679 183.749 56.3302 185.671 56.3302 185.671C55.4237 185.937 54.1347 187.396 56.3964 188.682L105.256 188.614L102.097 183.89Z" fill="url(#paint3_linear_69_4694)"/>
<path d="M56.389 189.741L105.249 189.675C105.83 189.675 106.304 189.203 106.304 188.621C106.304 188.042 105.83 187.569 105.249 187.569L56.6878 187.635C56.264 187.353 56.1815 187.146 56.1889 187.105C56.2066 186.972 56.4391 186.756 56.6215 186.699C56.829 186.64 57.013 186.515 57.1542 186.342C57.2293 186.251 58.9245 184.104 58.9245 181.666C58.9245 179.262 57.3956 177.031 57.3279 176.94C57.2293 176.799 57.0954 176.683 56.9379 176.601C56.3317 176.285 56.1889 175.987 56.1889 175.929C56.2066 175.904 56.4141 175.738 56.9379 175.729L95.8059 175.738C98.8481 175.738 101.334 178.258 101.334 181.359V181.914C101.334 182.486 101.25 183.05 101.084 183.589C100.91 184.145 101.226 184.733 101.791 184.908C102.348 185.081 102.938 184.767 103.112 184.202C103.337 183.465 103.453 182.693 103.453 181.907V181.35C103.453 177.09 100.028 173.624 95.8141 173.624L56.9217 173.615C55.4664 173.649 54.3775 174.379 54.1288 175.465C53.9375 176.31 54.2612 177.487 55.7077 178.333C56.0153 178.839 56.804 180.264 56.804 181.657C56.804 182.993 55.9991 184.311 55.6489 184.808C54.9013 185.165 54.195 185.911 54.0861 186.847C54.0125 187.453 54.1538 188.621 55.8652 189.6C56.0241 189.691 56.2066 189.741 56.389 189.741Z" fill="#001A49"/>
<path fill-rule="evenodd" clip-rule="evenodd" d="M93.7281 177.986H57.3955C54.9189 177.986 57.8693 179.752 57.8693 181.751C57.8693 183.749 54.9189 185.216 57.3955 185.216H93.7281C96.2052 185.216 98.2085 183.599 98.2085 181.601C98.2085 179.604 96.1969 177.986 93.7281 177.986Z" fill="#F6F6F6"/>
<path d="M57.3955 186.276H93.7279C96.7785 186.276 99.2638 184.179 99.2638 181.609C99.2638 179.039 96.7785 176.941 93.7279 176.941H57.3955C57.0041 176.941 55.9564 176.941 55.5164 177.762C55.0764 178.574 55.5914 179.362 56.0402 180.059C56.3816 180.58 56.8128 181.236 56.8128 181.766C56.8128 182.288 56.3816 182.886 56.0314 183.366C55.5914 183.979 55.0837 184.676 55.4914 185.464C55.9078 186.276 56.9467 186.276 57.3955 186.276ZM93.7279 179.039C95.6148 179.039 97.1526 180.191 97.1526 181.6C97.1526 183.01 95.6148 184.163 93.7279 184.163H58.0518C58.4756 183.54 58.9333 182.72 58.9333 181.75C58.9333 180.672 58.3756 179.743 57.9194 179.039H93.7279Z" fill="#001A49"/>
<path fill-rule="evenodd" clip-rule="evenodd" d="M46.849 183.838C46.849 183.838 60.9963 185.172 67.3298 185.445C73.6632 185.72 82.2261 186.458 82.2261 186.458C82.2261 186.458 89.9975 178.449 93.6466 176.583C97.3039 174.709 100.745 174.493 100.671 176.243C100.596 177.992 98.9913 179.087 97.2873 180.969C95.5833 182.85 95.3422 185.445 95.3422 185.445C95.3422 185.445 101.053 188.953 106.348 187.983C111.634 187.004 122.748 183.1 123.779 185.197C124.818 187.295 121.326 188.829 121.326 188.829C121.326 188.829 122.457 190.139 120.986 192.286C119.514 194.441 117.935 195.411 117.935 195.411C117.935 195.411 113.421 200.171 106.514 202.169C99.5982 204.166 84.9769 202.939 79.3492 203.603C73.7133 204.266 48.2455 209.663 35.5933 210.269C22.9426 210.882 32.3442 197.658 32.9666 193.214C33.8319 187.088 46.849 183.838 46.849 183.838Z" fill="white"/>
<path fill-rule="evenodd" clip-rule="evenodd" d="M84.5439 186.018C87.9105 183.175 91.1771 179.642 95.2917 177.238C96.4555 176.558 98.5751 175.29 99.9466 176.733C98.4669 179.012 95.7323 179.833 94.5271 182.727C94.2029 183.514 93.7207 184.957 94.1863 185.77C94.5187 186.349 96.0232 186.881 96.6383 187.12C99.1984 188.133 102.548 189.06 105.865 189.06C112.141 189.06 116.555 185.048 122.622 186.192C122.307 186.806 121.592 187.245 120.927 187.626C117.61 189.526 113.421 190.76 108.483 191.257C106.788 191.423 103.454 191.042 103.405 192.609C103.355 194.284 106.222 193.72 107.635 193.621C112.897 193.257 117.361 192.103 121.01 190.246C119.555 194.956 111.808 196.397 105.69 196.158C104.369 196.108 102.856 195.9 103.155 197.509C103.396 198.827 106.463 198.487 108.151 198.438C110.229 198.372 111.85 198.122 113.479 197.849C107.793 200.51 101.7 202.384 93.5047 202.409C87.395 202.425 81.9259 202.202 76.6637 202.998C61.8425 205.252 47.6452 210.451 30.1237 208.992C30.5813 209.994 31.2215 210.816 31.9852 211.528C40.264 211.951 47.8291 210.965 54.6703 209.672C54.0875 210.301 52.9986 211.28 52.1348 212.035C51.8935 212.242 51.3608 212.423 51.5447 212.705C53.3724 211.894 55.3516 211.753 57.1307 210.766C58.1107 210.219 58.6684 209.158 59.6735 208.742C60.5549 208.378 61.9764 208.245 63.2228 207.981C71.2603 206.313 79.9217 204.325 89.7141 204.689C101.16 205.12 110.553 202.533 117.643 198.446C118.907 198.338 120.145 198.719 121.284 198.446C122.456 198.165 122.913 196.547 123.487 196C121.957 196.108 120.32 196.108 118.749 196.166C119.655 195.477 121.251 194.566 122.215 193.214C123.005 192.112 123.986 190.23 123.146 188.994C124.035 188.158 125.365 187.585 125.349 186.043C125.324 184.052 122.622 183.605 120.694 183.597C115.549 183.573 112.033 186.391 106.729 186.722C102.789 186.963 99.2483 185.661 96.4888 184.525C96.9376 181.16 100.961 180.571 102.075 177.942C103.188 175.315 100.188 173.225 97.3365 173.888C94.1114 174.652 91.4514 176.981 88.8746 179.119C86.1732 181.367 83.6297 183.663 81.6846 185.538C72.3919 184.493 61.7263 184.004 51.3034 183.514C50.1733 183.464 47.9454 183.084 48.0028 184.609C48.0528 186.035 50.547 185.729 51.8935 185.786C61.5276 186.225 70.7953 186.847 80.2381 187.56C82.0922 187.685 85.5497 188.481 84.5439 186.018Z" fill="#001A49"/>
<path fill-rule="evenodd" clip-rule="evenodd" d="M167.543 0.0824794C165.315 -0.613944 166.072 3.15836 166.188 5.06522C166.379 8.1411 166.512 11.2418 166.695 14.5167C166.786 16.1417 166.687 18.1563 168.133 18.0651C169.455 17.9822 169.147 15.8681 169.064 14.1022C168.898 10.6449 168.64 7.90066 168.474 4.55949C168.391 3.01741 168.673 0.438982 167.543 0.0824794Z" fill="url(#paint4_linear_69_4694)"/>
<path fill-rule="evenodd" clip-rule="evenodd" d="M162.721 8.86349C160.742 8.68109 161.864 12.3539 162.13 13.9291C162.388 15.4795 162.563 17.32 163.402 17.5604C163.984 17.7263 164.799 17.3863 164.923 16.6319C165.09 15.6453 164.582 14.3022 164.333 12.7519C164.034 10.9528 164.092 8.98785 162.721 8.86349Z" fill="url(#paint5_linear_69_4694)"/>
<path fill-rule="evenodd" clip-rule="evenodd" d="M137.668 15.785C136.77 15.5528 136.13 15.9509 136.056 16.6307C135.923 17.8826 138.474 19.0848 139.189 19.5822C142.365 21.8207 144.975 23.6613 148.075 25.8251C148.906 26.4055 151.068 27.6822 151.126 25.7422C151.151 24.7722 148.798 23.4706 148.075 22.9565C147.044 22.2269 145.598 21.2403 144.692 20.5936C142.298 18.8857 140.162 17.1861 137.835 15.868C137.776 15.8348 137.768 15.8098 137.668 15.785Z" fill="url(#paint6_linear_69_4694)"/>
<path fill-rule="evenodd" clip-rule="evenodd" d="M185.821 21.6048C185.704 21.5717 185.23 21.4639 184.89 21.6048C184.316 21.837 182.953 23.9927 182.945 24.5564C182.936 25.2777 183.643 26.057 184.64 25.6508C185.023 25.4933 186.577 23.346 186.585 22.6993C186.585 22.1356 186.195 21.7293 185.821 21.6048Z" fill="url(#paint7_linear_69_4694)"/>
<path fill-rule="evenodd" clip-rule="evenodd" d="M209.262 23.8848C207.034 24.0506 205.072 24.8466 203.002 25.4021C199.229 26.4135 194.807 27.5742 190.817 28.6105C189.212 29.025 185.38 29.3981 185.488 30.9734C185.621 32.9964 190.36 31.0977 191.498 30.8076C196.91 29.4065 202.022 28.0634 207.574 26.5876C208.647 26.3058 210.093 26.0072 210.201 25.1533C210.292 24.3905 209.827 24.0174 209.262 23.8848Z" fill="url(#paint8_linear_69_4694)"/>
<path fill-rule="evenodd" clip-rule="evenodd" d="M189.628 24.3084C188.697 24.0846 187.841 24.9551 186.918 25.5768C186.187 26.066 184.965 26.7044 184.807 27.3511C184.616 28.1221 185.197 28.7108 185.655 28.7854C186.735 28.9595 187.824 27.7738 188.448 27.3511C189.104 26.9117 190.542 26.5054 190.476 25.2452C190.443 24.6317 190.052 24.4079 189.628 24.3084Z" fill="url(#paint9_linear_69_4694)"/>
<path fill-rule="evenodd" clip-rule="evenodd" d="M144.351 28.1962C143.603 28.0884 142.755 28.2957 142.913 29.4647C143.038 30.36 144.302 30.6006 145.366 31.0648C146.413 31.5291 148.973 33.0878 149.09 31.0648C149.148 30.0367 147.776 29.614 147.061 29.2907C146.23 28.9176 145.299 28.3289 144.351 28.1962Z" fill="url(#paint10_linear_69_4694)"/>
<path fill-rule="evenodd" clip-rule="evenodd" d="M140.13 40.1763C139.506 40.1514 138.451 40.2011 138.517 41.3618C138.592 42.6138 141.086 42.6304 142.499 42.7962C143.928 42.9619 146.538 43.5257 146.647 42.0334C146.738 40.6488 144.635 40.6488 143.513 40.5163C142.15 40.3504 141.277 40.2177 140.13 40.1763Z" fill="url(#paint11_linear_69_4694)"/>
<path fill-rule="evenodd" clip-rule="evenodd" d="M194.965 48.1098C194.392 47.9192 193.012 48.0685 192.172 48.1098C190.901 48.1678 188.698 47.8694 188.365 48.9555C187.817 50.7131 190.07 50.4644 191.665 50.3898C193.436 50.3152 195.381 50.6468 195.73 49.5441C195.963 48.7897 195.364 48.2425 194.965 48.1098Z" fill="url(#paint12_linear_69_4694)"/>
<path fill-rule="evenodd" clip-rule="evenodd" d="M188.698 52.7541C187.817 52.5882 187.252 52.8618 187.177 53.5998C187.052 54.777 188.931 55.4485 189.97 55.9626C192.505 57.231 194.508 58.1928 196.827 59.4199C197.733 59.9089 201.225 62.1061 201.225 59.7598C201.225 58.74 199.263 58.0684 198.432 57.6455C195.996 56.4269 194.367 55.4983 192.081 54.3542C191.05 53.8402 189.878 52.9697 188.698 52.7541Z" fill="url(#paint13_linear_69_4694)"/>
<path fill-rule="evenodd" clip-rule="evenodd" d="M151.209 53.9388C150.353 53.715 149.222 54.6434 148.499 55.1244C147.086 56.0613 145.515 57.139 143.927 58.167C142.921 58.8137 141.999 59.2117 141.982 60.0242C141.916 62.329 144.567 60.5051 145.448 59.9413C146.944 58.9795 148.441 57.9515 150.02 56.8986C150.71 56.4426 151.982 55.9036 152.048 55.1244C152.115 54.5025 151.807 54.0963 151.209 53.9388Z" fill="url(#paint14_linear_69_4694)"/>
<defs>
<linearGradient id="paint0_linear_69_4694" x1="85.7846" y1="220.949" x2="79.2873" y2="194.426" gradientUnits="userSpaceOnUse">
<stop stop-color="#B80BFF"/>
<stop offset="1" stop-color="#BB0CFF"/>
</linearGradient>
<linearGradient id="paint1_linear_69_4694" x1="88.7284" y1="213.754" x2="45.1799" y2="147.026" gradientUnits="userSpaceOnUse">
<stop stop-color="#CD10FF"/>
<stop offset="1" stop-color="#9F06FF"/>
</linearGradient>
<linearGradient id="paint2_linear_69_4694" x1="92.2598" y1="191.925" x2="88.2853" y2="173.908" gradientUnits="userSpaceOnUse">
<stop stop-color="#CD10FF"/>
<stop offset="1" stop-color="#9F06FF"/>
</linearGradient>
<linearGradient id="paint3_linear_69_4694" x1="76.9939" y1="191.996" x2="72.1909" y2="174.282" gradientUnits="userSpaceOnUse">
<stop stop-color="#CD10FF"/>
<stop offset="1" stop-color="#9F06FF"/>
</linearGradient>
<linearGradient id="paint4_linear_69_4694" x1="167.359" y1="22.3399" x2="163.047" y2="21.5561" gradientUnits="userSpaceOnUse">
<stop stop-color="#CD10FF"/>
<stop offset="1" stop-color="#9F06FF"/>
</linearGradient>
<linearGradient id="paint5_linear_69_4694" x1="163.048" y1="19.6689" x2="158.964" y2="18.0388" gradientUnits="userSpaceOnUse">
<stop stop-color="#CD10FF"/>
<stop offset="1" stop-color="#9F06FF"/>
</linearGradient>
<linearGradient id="paint6_linear_69_4694" x1="142.625" y1="29.3908" x2="135.542" y2="19.4279" gradientUnits="userSpaceOnUse">
<stop stop-color="#CD10FF"/>
<stop offset="1" stop-color="#9F06FF"/>
</linearGradient>
<linearGradient id="paint7_linear_69_4694" x1="184.532" y1="26.762" x2="181.685" y2="24.2323" gradientUnits="userSpaceOnUse">
<stop stop-color="#CD10FF"/>
<stop offset="1" stop-color="#9F06FF"/>
</linearGradient>
<linearGradient id="paint8_linear_69_4694" x1="196.27" y1="33.7876" x2="193.165" y2="23.8984" gradientUnits="userSpaceOnUse">
<stop stop-color="#CD10FF"/>
<stop offset="1" stop-color="#9F06FF"/>
</linearGradient>
<linearGradient id="paint9_linear_69_4694" x1="187.259" y1="29.8737" x2="184.289" y2="26.0131" gradientUnits="userSpaceOnUse">
<stop stop-color="#CD10FF"/>
<stop offset="1" stop-color="#9F06FF"/>
</linearGradient>
<linearGradient id="paint10_linear_69_4694" x1="145.597" y1="32.9994" x2="143.241" y2="29.1418" gradientUnits="userSpaceOnUse">
<stop stop-color="#CD10FF"/>
<stop offset="1" stop-color="#9F06FF"/>
</linearGradient>
<linearGradient id="paint11_linear_69_4694" x1="142.062" y1="43.7166" x2="140.873" y2="40.2343" gradientUnits="userSpaceOnUse">
<stop stop-color="#CD10FF"/>
<stop offset="1" stop-color="#9F06FF"/>
</linearGradient>
<linearGradient id="paint12_linear_69_4694" x1="191.553" y1="51.0201" x2="190.61" y2="48.0194" gradientUnits="userSpaceOnUse">
<stop stop-color="#CD10FF"/>
<stop offset="1" stop-color="#9F06FF"/>
</linearGradient>
<linearGradient id="paint13_linear_69_4694" x1="193.3" y1="62.7418" x2="188.608" y2="54.3597" gradientUnits="userSpaceOnUse">
<stop stop-color="#CD10FF"/>
<stop offset="1" stop-color="#9F06FF"/>
</linearGradient>
<linearGradient id="paint14_linear_69_4694" x1="146.375" y1="62.8751" x2="141.757" y2="56.2574" gradientUnits="userSpaceOnUse">
<stop stop-color="#CD10FF"/>
<stop offset="1" stop-color="#9F06FF"/>
</linearGradient>
</defs>
</svg>
