<svg width="176" height="176" viewBox="0 0 176 176" fill="none" xmlns="http://www.w3.org/2000/svg">
<path d="M168.327 120.641C172.122 112.25 177.741 96.1898 175.48 76.2115C172.58 50.5802 158.231 30.3752 144.274 19.0205C97.9614 -18.6563 13.1898 5.69312 1.9664 41.1875C-0.0697753 47.6266 0.504407 53.8368 1.20785 61.4794C3.45168 85.7843 15.2556 93.0073 23.1969 118.814C30.4242 142.299 23.3007 144.944 30.0576 155.383C44.7134 178.031 87.0177 179.169 116.126 168.308C127.307 164.138 154.438 151.343 168.327 120.641Z" fill="url(#paint0_linear_69_4988)"/>
<path d="M134.528 169.005H54.5022C51.0528 169.005 48.6119 166.219 49.0463 162.78L68.7512 7.11286C69.1856 3.67614 72.3341 0.887784 75.7836 0.887784L151.792 0C160.517 0 161.699 3.67402 161.265 7.11286L141.56 162.78C141.124 166.217 137.975 169.005 134.528 169.005Z" fill="#001A49"/>
<path d="M129.712 169.005H49.686C46.2366 169.005 43.7957 166.21 44.2301 162.761L63.9351 6.6001C64.3694 3.15067 67.518 0.355957 70.9674 0.355957H150.993C154.442 0.355957 156.883 3.15067 156.449 6.6001L136.744 162.761C136.309 166.208 133.161 169.005 129.712 169.005Z" fill="white"/>
<path d="M48.7921 162.975L67.6072 13.8676C67.7068 13.0709 68.4335 12.4268 69.2302 12.4268H149.686C150.482 12.4268 151.046 13.073 150.946 13.8676L132.131 162.975C132.032 163.771 131.305 164.416 130.508 164.416H50.0507C49.254 164.418 48.6904 163.771 48.7921 162.975Z" fill="url(#paint1_linear_69_4988)" fill-opacity="0.05"/>
<path d="M111.764 7.55117C112.767 6.6092 112.907 5.12845 112.076 4.24382C111.246 3.35918 109.759 3.40567 108.756 4.34764C107.753 5.2896 107.613 6.77036 108.443 7.65499C109.274 8.53962 110.761 8.49314 111.764 7.55117Z" fill="#001A49"/>
<path d="M141.91 27.3476H72.4082C70.5351 27.3476 69.0181 25.8305 69.0181 23.9575C69.0181 22.0845 70.5351 20.5674 72.4082 20.5674H141.91C143.783 20.5674 145.3 22.0845 145.3 23.9575C145.3 25.8305 143.78 27.3476 141.91 27.3476Z" fill="#001A49" fill-opacity="0.25"/>
<path d="M137.142 65.6957H67.641C65.7679 65.6957 64.2509 64.1787 64.2509 62.3056C64.2509 60.4326 65.7679 58.9155 67.641 58.9155H137.142C139.015 58.9155 140.532 60.4326 140.532 62.3056C140.532 64.1787 139.013 65.6957 137.142 65.6957Z" fill="#001A49" fill-opacity="0.25"/>
<path d="M123.158 41.0136H69.8635C67.9905 41.0136 66.4734 39.4965 66.4734 37.6235C66.4734 35.7505 67.9905 34.2334 69.8635 34.2334H123.158C125.031 34.2334 126.548 35.7505 126.548 37.6235C126.548 39.4944 125.031 41.0136 123.158 41.0136Z" fill="#001A49" fill-opacity="0.25"/>
<path d="M138.413 53.1948H68.5943C66.7213 53.1948 65.2042 51.6777 65.2042 49.8047C65.2042 47.9316 66.7213 46.4146 68.5943 46.4146H138.413C140.287 46.4146 141.804 47.9316 141.804 49.8047C141.804 51.6777 140.284 53.1948 138.413 53.1948Z" fill="#001A49" fill-opacity="0.25"/>
<path d="M129.197 115.698H62.5558C60.6827 115.698 59.1656 114.181 59.1656 112.308C59.1656 110.435 60.6827 108.918 62.5558 108.918H129.197C131.07 108.918 132.587 110.435 132.587 112.308C132.587 114.181 131.07 115.698 129.197 115.698Z" fill="#001A49" fill-opacity="0.25"/>
<path d="M129.301 127.561H62.6682C60.7951 127.561 59.2781 126.044 59.2781 124.171C59.2781 122.298 60.7951 120.781 62.6682 120.781H129.301C131.174 120.781 132.691 122.298 132.691 124.171C132.691 126.044 131.174 127.561 129.301 127.561Z" fill="#001A49" fill-opacity="0.25"/>
<path d="M103.771 102.879H64.1428C62.2698 102.879 60.7527 101.362 60.7527 99.4887C60.7527 97.6157 62.2698 96.0986 64.1428 96.0986H103.771C105.644 96.0986 107.161 97.6157 107.161 99.4887C107.161 101.362 105.644 102.879 103.771 102.879Z" fill="#001A49" fill-opacity="0.25"/>
<path d="M120.616 77.8793H68.283C66.41 77.8793 64.8929 76.3623 64.8929 74.4892C64.8929 72.6162 66.41 71.0991 68.283 71.0991H120.616C122.489 71.0991 124.006 72.6162 124.006 74.4892C124.006 76.3601 122.489 77.8793 120.616 77.8793Z" fill="#001A49" fill-opacity="0.25"/>
<path d="M133.646 90.3783H65.0982C63.2252 90.3783 61.7081 88.8613 61.7081 86.9882C61.7081 85.1152 63.2252 83.5981 65.0982 83.5981H133.646C135.519 83.5981 137.036 85.1152 137.036 86.9882C137.036 88.8613 135.517 90.3783 133.646 90.3783Z" fill="#001A49" fill-opacity="0.25"/>
<path d="M117.437 153.199H57.7865C55.9134 153.199 54.3964 151.682 54.3964 149.809C54.3964 147.936 55.9134 146.419 57.7865 146.419H117.437C119.31 146.419 120.828 147.936 120.828 149.809C120.828 151.68 119.31 153.199 117.437 153.199Z" fill="#001A49" fill-opacity="0.25"/>
<path d="M128.561 140.698H58.7419C56.8689 140.698 55.3518 139.181 55.3518 137.308C55.3518 135.435 56.8689 133.917 58.7419 133.917H128.561C130.434 133.917 131.951 135.435 131.951 137.308C131.951 139.181 130.434 140.698 128.561 140.698Z" fill="#001A49" fill-opacity="0.25"/>
<path d="M94.658 169.323H49.6862C47.936 169.323 46.3702 168.641 45.279 167.404C44.1751 166.154 43.692 164.49 43.9145 162.721L57.4982 55.0684C57.5194 54.8947 57.6805 54.7739 57.8542 54.793C58.0279 54.8142 58.1508 54.9731 58.1296 55.149L44.5459 162.802C44.3468 164.387 44.7747 165.872 45.7558 166.984C46.7241 168.084 48.1204 168.688 49.6862 168.688H94.658C94.8339 168.688 94.9758 168.83 94.9758 169.006C94.9758 169.179 94.8339 169.323 94.658 169.323Z" fill="#001A49"/>
<path d="M141.037 129.063C141.024 129.063 141.009 129.063 140.996 129.061C140.823 129.04 140.7 128.881 140.721 128.705L156.133 6.55768C156.332 4.9728 155.904 3.48751 154.923 2.37514C153.955 1.27547 152.559 0.671612 150.993 0.671612H70.9674C68.8762 0.671612 66.7701 1.79246 65.4691 3.59769C65.3674 3.73965 65.1682 3.77355 65.0263 3.66973C64.8843 3.56803 64.8526 3.36886 64.9543 3.2269C66.3717 1.25852 68.677 0.0380859 70.9696 0.0380859H150.995C152.745 0.0380859 154.311 0.720343 155.402 1.95773C156.504 3.20783 156.989 4.8711 156.767 6.64031L141.354 128.788C141.331 128.947 141.193 129.063 141.037 129.063Z" fill="#001A49"/>
<path d="M5.94546 174.932H68.6157C71.1604 174.932 73.2242 172.869 73.2242 170.324V124.939C73.2242 122.394 71.1604 120.331 68.6157 120.331H5.94546C3.40076 120.331 1.33704 122.394 1.33704 124.939V170.324C1.33704 172.869 3.40076 174.932 5.94546 174.932Z" fill="#001A49"/>
<path d="M1.76711 129.405H72.7495C73.5482 129.405 74.1966 128.757 74.1966 127.958V121.767C74.1966 120.968 73.5482 120.32 72.7495 120.32H1.76711C0.96832 120.32 0.319946 120.968 0.319946 121.767V127.958C0.319946 128.757 0.96832 129.405 1.76711 129.405Z" fill="#001A49"/>
<path d="M72.4634 129.723H2.051C0.919551 129.723 0 128.744 0 127.542V122.182C0 120.978 0.919551 120.001 2.051 120.001H45.3723C45.5481 120.001 45.6901 120.143 45.6901 120.319C45.6901 120.495 45.5481 120.637 45.3723 120.637H2.051C1.27127 120.637 0.635644 121.33 0.635644 122.182V127.542C0.635644 128.394 1.27127 129.087 2.051 129.087H72.4634C72.6393 129.087 72.7812 129.229 72.7812 129.405C72.7812 129.579 72.6393 129.723 72.4634 129.723Z" fill="white"/>
<path d="M26.947 173.705C26.9449 173.705 26.9428 173.705 26.9428 173.705C26.7669 173.703 26.6271 173.557 26.6292 173.383L27.3051 131.037C27.3072 130.863 27.4491 130.723 27.6229 130.723C27.625 130.723 27.6271 130.723 27.6271 130.723C27.803 130.725 27.9428 130.871 27.9407 131.045L27.2648 173.392C27.2606 173.566 27.1186 173.705 26.947 173.705Z" fill="white"/>
<path d="M62.4498 145.651C61.6002 142.848 61.7443 141.076 62.5155 139.233L63.8122 136.65L59.9094 135.084L58.7122 138.023C58.3266 138.97 57.7694 139.837 57.0681 140.581L56.424 141.265L62.4498 145.651Z" fill="white"/>
<path d="M62.4499 145.969C62.3842 145.969 62.3185 145.948 62.2634 145.908L56.2375 141.524C56.1633 141.471 56.1168 141.388 56.1083 141.297C56.0998 141.206 56.1316 141.117 56.193 141.049L56.8371 140.365C57.513 139.647 58.047 138.82 58.4178 137.905L59.6149 134.966C59.6806 134.803 59.8649 134.727 60.0281 134.79L63.9309 136.356C64.0136 136.39 64.0793 136.456 64.1089 136.538C64.1407 136.621 64.1365 136.714 64.0962 136.793L62.8037 139.365C62.1342 140.971 61.8693 142.641 62.7529 145.556C62.7931 145.687 62.7444 145.827 62.6321 145.908C62.5791 145.95 62.5134 145.969 62.4499 145.969ZM56.9028 141.223L61.899 144.859C61.3438 142.628 61.4477 140.956 62.221 139.111C62.2232 139.104 62.2274 139.098 62.2295 139.092L63.3716 136.818L60.0832 135.498L59.0068 138.144C58.6042 139.132 58.03 140.026 57.299 140.801L56.9028 141.223Z" fill="black"/>
<path d="M58.1912 139.833C58.0937 139.528 57.6933 139.454 57.475 139.687C56.8585 140.344 55.7778 141.443 54.9557 142.009C54.1909 142.537 53.9514 143.558 54.3858 144.374C55.6105 146.681 58.7103 151.69 61.9775 155.512C62.2021 155.775 62.7572 156.125 63.556 155.764C66.2427 154.557 63.6895 149.097 62.2318 143.412C62.1746 143.189 61.9945 143.018 61.7678 142.975L60.9562 142.825C59.4561 142.528 58.8268 141.823 58.1912 139.833Z" fill="white"/>
<path d="M62.8928 156.237C62.3758 156.237 61.9689 155.995 61.7337 155.722C58.4665 151.899 55.3815 146.931 54.1039 144.524C53.5932 143.56 53.8814 142.367 54.7735 141.748C55.5786 141.191 56.6655 140.081 57.2419 139.468C57.4241 139.276 57.6974 139.191 57.958 139.25C58.2144 139.307 58.4136 139.49 58.492 139.735C59.1022 141.644 59.6446 142.242 61.0176 142.515L61.8249 142.664C62.1702 142.727 62.452 142.99 62.5389 143.333C62.8694 144.621 63.253 145.893 63.6259 147.121C64.9077 151.353 66.0159 155.008 63.6852 156.057C63.4013 156.184 63.1364 156.237 62.8928 156.237ZM57.7906 139.869C57.7673 139.869 57.7334 139.875 57.7059 139.905C56.9812 140.676 55.9473 141.712 55.1358 142.272C54.5065 142.706 54.3052 143.547 54.6654 144.225C55.9282 146.607 58.9835 151.522 62.2168 155.306C62.291 155.391 62.6915 155.802 63.4246 155.474C65.2446 154.656 64.2127 151.249 63.0177 147.304C62.6427 146.068 62.2571 144.791 61.9223 143.49C61.8948 143.386 61.8121 143.308 61.7083 143.289L60.8968 143.138C59.2907 142.818 58.5619 142.038 57.886 139.928C57.8754 139.896 57.8521 139.877 57.8182 139.869C57.8139 139.869 57.8034 139.869 57.7906 139.869Z" fill="black"/>
<path d="M55.1401 141.884C55.1401 141.884 55.0151 141.969 54.9557 142.009C54.1909 142.536 53.9514 143.558 54.3858 144.373C55.6105 146.681 58.7103 151.69 61.9775 155.512C62.2021 155.775 62.7572 156.124 63.556 155.764C63.8018 155.654 64.1705 155.353 64.1705 155.353L63.9501 155.073C60.8207 151.09 57.9899 146.88 55.4791 142.479L55.1401 141.884Z" fill="white"/>
<path d="M62.8928 156.236C62.3758 156.236 61.9689 155.995 61.7337 155.721C58.4665 151.899 55.3815 146.93 54.1039 144.523C53.5932 143.559 53.8814 142.366 54.7735 141.748L54.9599 141.621C55.0319 141.572 55.1231 141.555 55.2099 141.574C55.2968 141.593 55.371 141.648 55.4133 141.727L55.7544 142.322C58.2483 146.693 61.0896 150.918 64.2001 154.878L64.4204 155.158C64.5285 155.293 64.5052 155.49 64.3717 155.601C64.3314 155.635 63.9606 155.931 63.6873 156.056C63.4013 156.183 63.1364 156.236 62.8928 156.236ZM55.0362 142.345C54.4874 142.797 54.3243 143.583 54.6654 144.225C55.9282 146.606 58.9835 151.522 62.2168 155.306C62.291 155.391 62.6915 155.802 63.4246 155.473C63.5072 155.437 63.6174 155.365 63.7191 155.293L63.7 155.268C60.5705 151.285 57.7123 147.034 55.2036 142.636L55.0362 142.345Z" fill="black"/>
<path d="M63.344 147.982C63.3271 147.982 63.308 147.98 63.2911 147.978L60.6002 147.526C60.4264 147.497 60.3099 147.333 60.3396 147.16C60.3692 146.986 60.5345 146.869 60.7061 146.899L63.397 147.35C63.5707 147.38 63.6873 147.543 63.6576 147.717C63.6301 147.872 63.4966 147.982 63.344 147.982Z" fill="black"/>
<path d="M63.7783 149.514C63.7635 149.514 63.7466 149.514 63.7317 149.51L61.5324 149.183C61.3586 149.158 61.2378 148.997 61.2654 148.823C61.2908 148.649 61.4518 148.529 61.6256 148.556L63.8249 148.882C63.9987 148.908 64.1195 149.069 64.0919 149.243C64.0707 149.402 63.9351 149.514 63.7783 149.514Z" fill="black"/>
<path d="M75.3075 104.574L75.3081 104.575C76.3371 105.16 77.305 106.414 77.5038 107.489C77.8488 109.355 77.5303 112.547 75.4343 117.534C73.3618 122.464 69.5904 129.058 63.1775 137.705L59.5206 136.319L64.9708 117.244C65.3116 116.051 64.3247 114.898 63.0953 115.049L63.0949 115.049L38.6733 118.049L41.3005 105.787C41.4537 105.755 41.6332 105.718 41.8373 105.677C42.5883 105.525 43.6719 105.312 44.9986 105.072C47.6533 104.591 51.275 103.999 55.1493 103.554C59.0282 103.108 63.1358 102.811 66.7694 102.914C70.4465 103.018 73.4723 103.528 75.3075 104.574Z" fill="white" stroke="black" stroke-width="2"/>
<path d="M48.4594 155.954L48.9912 158.476C49.701 162.148 47.0186 164.025 47.0186 164.025L54.9514 164.991C54.9514 164.991 53.2204 163.938 53.5721 158.838L54.0255 154.571L48.4594 155.954Z" fill="white"/>
<path d="M54.9493 165.308C54.9366 165.308 54.9238 165.308 54.9111 165.306L46.9783 164.34C46.8469 164.323 46.741 164.23 46.7092 164.101C46.6774 163.974 46.7283 163.838 46.8342 163.764C46.9359 163.692 49.3387 161.95 48.6776 158.535L48.1479 156.017C48.1119 155.85 48.2157 155.685 48.383 155.645L53.947 154.263C54.0488 154.238 54.1547 154.263 54.2331 154.333C54.3115 154.401 54.3518 154.502 54.3412 154.606L53.8878 158.874C53.5594 163.641 55.1039 164.713 55.1209 164.724C55.2438 164.804 55.2989 164.961 55.248 165.101C55.1993 165.226 55.0807 165.308 54.9493 165.308ZM47.758 163.796L54.1653 164.575C53.6462 163.76 53.0275 162.077 53.2521 158.816L53.6589 154.99L48.8323 156.189L49.3005 158.412C49.8387 161.194 48.5504 162.99 47.758 163.796Z" fill="black"/>
<path d="M48.2942 160.631C47.6395 161.383 46.4551 162.799 45.5462 164.165C44.9741 165.023 45.3173 166.013 45.9297 166.837C47.1777 168.515 48.8918 169.808 50.9068 171.136C52.6654 172.297 54.6338 173.522 56.9984 174.603C57.6404 174.897 59.0896 175.3 60.0579 174.817C62.9819 173.359 58.1065 168.789 54.2714 163.526C54.121 163.32 53.8668 163.218 53.6146 163.267L52.7162 163.445C51.8179 163.623 50.9025 163.246 50.394 162.485L49.1863 160.682C48.9786 160.377 48.5379 160.349 48.2942 160.631Z" fill="white"/>
<path d="M58.9664 175.357C58.14 175.357 57.3094 175.097 56.8645 174.893C54.4384 173.783 52.4022 172.505 50.7305 171.401C48.6053 169.999 46.9336 168.719 45.675 167.026C44.8529 165.922 44.7131 164.844 45.283 163.99C46.2068 162.6 47.4167 161.159 48.0566 160.424C48.2388 160.214 48.5015 160.102 48.777 160.121C49.0524 160.138 49.2961 160.28 49.4507 160.508L50.6585 162.312C51.0971 162.966 51.881 163.29 52.6544 163.136L53.5528 162.958C53.9236 162.884 54.3049 163.034 54.5274 163.339C55.4088 164.549 56.3347 165.708 57.2331 166.831C59.6634 169.874 61.5809 172.276 61.225 173.889C61.1106 174.41 60.7652 174.819 60.1995 175.101C59.8244 175.285 59.3965 175.357 58.9664 175.357ZM48.5333 160.839C47.904 161.564 46.7132 162.981 45.8085 164.341C45.2852 165.13 45.7216 166.03 46.1814 166.647C47.3849 168.265 49.0101 169.505 51.078 170.869C52.7286 171.959 54.7393 173.221 57.1272 174.313C57.8031 174.622 59.1019 174.933 59.9113 174.531C60.3012 174.336 60.5279 174.082 60.5999 173.751C60.8902 172.435 58.871 169.905 56.731 167.227C55.8305 166.1 54.8982 164.933 54.0083 163.712C53.9299 163.606 53.7964 163.553 53.6714 163.579L52.7731 163.757C51.7454 163.962 50.7072 163.532 50.1245 162.663L48.9168 160.86C48.8596 160.775 48.777 160.756 48.7325 160.754C48.6583 160.75 48.5842 160.78 48.5333 160.839Z" fill="black"/>
<path d="M46.0164 163.53C46.0164 163.53 45.5906 164.1 45.5461 164.166C45.4041 164.38 45.3194 164.632 45.2727 164.888C45.1223 165.715 45.4105 166.562 45.9911 167.168C46.1309 167.314 46.3216 167.503 46.544 167.713C48.8451 169.904 51.4321 171.77 54.2205 173.294C55.6359 174.067 58.7738 175.654 60.0578 174.815C60.454 174.557 60.6956 173.766 60.6956 173.766C60.6956 173.766 59.9455 174.215 57.689 173.095C53.8773 171.2 51.2944 169.073 48.148 166.531C47.5293 166.03 47.1013 165.571 46.6606 165.026C46.311 164.598 46.0864 164.079 46.0164 163.53Z" fill="white"/>
<path d="M59.0959 175.37C57.9391 175.37 56.2546 174.77 54.0659 173.573C51.2161 172.016 48.6099 170.122 46.3216 167.944C46.0843 167.717 45.8936 167.53 45.758 167.388C45.0927 166.691 44.7939 165.736 44.9571 164.831C45.0164 164.505 45.1245 164.223 45.2792 163.99C45.3258 163.92 45.6584 163.475 45.7601 163.339C45.8385 163.236 45.972 163.189 46.0949 163.223C46.2199 163.257 46.3131 163.361 46.3301 163.49C46.3936 163.979 46.5928 164.443 46.9043 164.829C47.3895 165.431 47.8069 165.852 48.3451 166.287L48.6502 166.532C51.6123 168.927 54.1718 170.995 57.8289 172.813C59.8057 173.796 60.524 173.499 60.5304 173.497C60.6427 173.429 60.7867 173.438 60.8906 173.52C60.9944 173.601 61.0368 173.739 60.9986 173.864C60.9711 173.955 60.7084 174.772 60.2295 175.084C59.935 175.275 59.5578 175.37 59.0959 175.37ZM45.8682 164.261C45.8385 164.303 45.8173 164.331 45.811 164.342C45.705 164.5 45.6287 164.704 45.5864 164.943C45.4592 165.649 45.6965 166.399 46.222 166.948C46.3513 167.083 46.5335 167.263 46.7644 167.482C49.0125 169.622 51.5741 171.482 54.3752 173.014C58.1001 175.05 59.4265 174.849 59.8862 174.548C59.9901 174.48 60.0939 174.334 60.1787 174.177C59.6638 174.175 58.8289 174.016 57.5492 173.38C53.8285 171.531 51.2457 169.444 48.254 167.026L47.9489 166.78C47.3747 166.316 46.9297 165.867 46.4149 165.227C46.1754 164.937 45.9932 164.609 45.8682 164.261Z" fill="black"/>
<path d="M53.551 167.507C53.4048 167.507 53.2734 167.405 53.2417 167.257C53.2056 167.085 53.3137 166.916 53.4853 166.88L56.4453 166.24C56.6169 166.202 56.7864 166.312 56.8224 166.484C56.8585 166.655 56.7504 166.825 56.5788 166.861L53.6188 167.501C53.5976 167.505 53.5743 167.507 53.551 167.507Z" fill="black"/>
<path d="M55.189 168.836C55.0449 168.836 54.9135 168.738 54.8796 168.59C54.8394 168.418 54.9453 168.249 55.1169 168.209L57.5175 167.643C57.6913 167.603 57.8587 167.708 57.8989 167.88C57.9392 168.052 57.8332 168.221 57.6616 168.262L55.261 168.827C55.2377 168.834 55.2144 168.836 55.189 168.836Z" fill="black"/>
<path d="M25.2119 106.733C25.3681 106.736 25.5572 106.741 25.7768 106.747C26.4799 106.765 27.495 106.8 28.7384 106.862C31.2265 106.987 34.6227 107.223 38.2602 107.668C41.9016 108.113 45.7623 108.765 49.1871 109.716C52.6379 110.674 55.5324 111.905 57.3358 113.447C58.0422 114.051 58.4489 115.136 58.648 116.307L25.2119 106.733ZM25.2119 106.733C25.1745 106.793 25.1339 106.86 25.0908 106.935C24.8497 107.352 24.5312 107.997 24.2533 108.87C23.6996 110.61 23.2972 113.286 24.0207 116.92L25.2119 106.733ZM48.2889 157.623L48.2892 157.624C48.2996 157.676 48.3405 157.726 48.4078 157.745C49.362 158.003 51.2089 158.414 53.1904 158.388H53.1906C53.3458 158.386 53.4887 158.265 53.511 158.097L53.5112 158.096L58.6789 119.51L58.679 119.51C58.8241 118.433 58.8242 117.353 58.648 116.307L48.2889 157.623ZM48.2889 157.623C46.1611 147.147 46.4115 131.689 46.7021 124.149L48.2889 157.623ZM28.1167 120.876C25.9673 120.876 24.4672 119.159 24.0208 116.92L46.7021 124.148C46.7684 122.444 45.4129 121.024 43.7078 121.008L43.7069 121.008L28.1251 120.876L28.1251 120.876H28.1167Z" fill="white" stroke="black" stroke-width="2"/>
<path d="M60.1 117.505C59.9284 117.505 59.7886 117.37 59.7822 117.196C59.6127 111.304 51.8685 109.59 51.7901 109.573C51.6184 109.537 51.5083 109.367 51.5443 109.195C51.5803 109.024 51.7519 108.914 51.9215 108.95C52.0041 108.967 60.2335 110.791 60.4157 117.177C60.42 117.353 60.2823 117.499 60.1064 117.503C60.1064 117.505 60.1043 117.505 60.1 117.505Z" fill="#CADDFF"/>
<path d="M42.0289 107.251C42.0289 107.251 42.2959 107.793 35.2487 108.81C30.1699 109.543 25.5594 109.219 23.3792 108.982C22.6694 108.903 22.1905 108.221 22.3642 107.528C22.9363 105.242 23.3537 103.121 25.553 97.3176C27.0807 93.2897 24.8814 85.0391 28.7164 81.3545C35.2424 75.0849 54.1676 86.1896 54.1676 86.1896L52.0192 88.7088C48.04 93.3724 44.9148 98.7012 42.7875 104.452L42.0289 107.251Z" fill="#001A49"/>
<path d="M69.6035 89.7473C69.5527 88.8553 69.2709 87.906 69.7307 87.1835L70.6566 85.9546C71.3325 84.9058 71.2604 83.5222 70.8367 82.3865L69.6226 79.4477C69.5061 79.1193 69.0357 79.8609 68.9404 80.1978L65.6244 91.9678C65.0714 93.6713 63.1856 93.8197 62.1241 93.095L57.7572 90.1117L52.5916 97.2924C52.5916 97.2924 57.6132 100.841 64.0544 101.977C65.5142 102.236 70.3176 102.092 69.6035 89.7473Z" fill="white"/>
<path d="M64.6816 102.348C64.3977 102.348 64.1625 102.319 64.0015 102.291C57.5624 101.155 52.4603 97.5873 52.4094 97.5513C52.3395 97.5026 52.2929 97.4284 52.2802 97.3437C52.2653 97.261 52.2865 97.1742 52.3353 97.1064L57.501 89.9257C57.6027 89.7859 57.7954 89.752 57.9374 89.8494L62.3043 92.8327C62.8298 93.1929 63.5629 93.2883 64.1731 93.0806C64.5608 92.9471 65.0757 92.6293 65.3236 91.8687L68.6353 80.1114C68.6735 79.9736 69.0421 79.0626 69.521 79.0477C69.6629 79.0414 69.843 79.1176 69.9235 79.3422L71.1312 82.2641C71.6567 83.671 71.5762 85.1118 70.9236 86.1246C70.9194 86.1309 70.9152 86.1373 70.9109 86.1436L69.9914 87.3619C69.7095 87.8175 69.7794 88.4235 69.8557 89.0676C69.8811 89.2837 69.9066 89.5062 69.9193 89.7287C70.2604 95.6168 69.4065 99.5133 67.3852 101.312C66.4296 102.164 65.3999 102.348 64.6816 102.348ZM53.043 97.2123C54.1575 97.9412 58.643 100.7 64.1116 101.666C64.7113 101.772 65.8766 101.804 66.9636 100.838C68.2497 99.6934 69.6968 96.8458 69.2858 89.7668C69.2731 89.5634 69.2497 89.3494 69.2243 89.1439C69.1396 88.415 69.0506 87.6607 69.4616 87.0145C69.4659 87.0081 69.4701 86.9996 69.4765 86.9933L70.396 85.775C70.9363 84.9296 70.9893 83.707 70.5401 82.5014L69.4532 79.8741C69.3663 80.0075 69.2794 80.1728 69.2455 80.2893L65.9317 92.0572C65.6711 92.8581 65.1223 93.4323 64.3786 93.6866C63.5862 93.9578 62.6306 93.8286 61.9462 93.3603L57.8357 90.5529L53.043 97.2123ZM69.3303 79.5711C69.3303 79.5711 69.3303 79.5732 69.3324 79.5753L69.3303 79.5711Z" fill="black"/>
<path d="M59.4921 89.6134L59.2569 89.4376C58.0005 88.4905 56.6868 87.59 55.3223 86.8081L51.8051 84.9097L46.9784 94.5143L53.8349 98.5527L59.4921 89.6134Z" fill="#001A49"/>
<path d="M66.9334 87.6157L64.0073 87.5182C63.5666 87.5034 63.2679 87.0669 63.4119 86.6516L66.3719 78.1679C66.4651 77.8988 66.7236 77.7208 67.0097 77.7314L69.9358 77.8289C70.3765 77.8437 70.6752 78.2802 70.5311 78.6955L67.5711 87.1792C67.4758 87.4483 67.2173 87.6263 66.9334 87.6157Z" fill="url(#paint2_linear_69_4988)"/>
<path d="M66.9546 87.9356C66.944 87.9356 66.9335 87.9356 66.9208 87.9356L63.9947 87.8381C63.6832 87.8275 63.4035 87.6749 63.2276 87.4165C63.0518 87.1601 63.0094 86.8423 63.1111 86.5477L66.0711 78.064C66.2109 77.6614 66.5923 77.4008 67.0182 77.4135L69.9443 77.511C70.2557 77.5216 70.5354 77.6741 70.7134 77.9326C70.8893 78.189 70.9317 78.5068 70.83 78.8014L67.87 87.2851C67.7344 87.6771 67.3678 87.9356 66.9546 87.9356ZM66.9885 78.0492C66.8466 78.0492 66.7194 78.1382 66.6728 78.2738L63.7128 86.7575C63.6768 86.8592 63.6916 86.9694 63.7531 87.0563C63.8145 87.1452 63.9099 87.1982 64.0179 87.2003L66.944 87.2978C67.0966 87.2999 67.2216 87.213 67.2703 87.0732L70.2303 78.5895C70.2663 78.4878 70.2515 78.3797 70.1901 78.2907C70.1286 78.2017 70.0333 78.1488 69.9252 78.1445L66.9991 78.0471C66.9949 78.0492 66.9928 78.0492 66.9885 78.0492Z" fill="black"/>
<path d="M46.4889 92.9301L49.5082 95.7121C49.718 95.907 49.968 96.0596 50.2498 96.1189C50.824 96.2376 51.4385 96.0342 51.8241 95.549L57.7483 86.7389C58.1891 86.0821 58.9116 85.671 59.7019 85.6265L63.4734 85.3193C63.9713 85.2791 64.2679 85.8787 63.9204 86.2368C63.556 86.6097 63.0178 86.9784 62.2466 87.1182C61.7741 87.2051 61.4075 87.5695 61.3355 88.0441C61.0261 90.0718 58.7018 90.9723 58.7018 90.9723C58.7018 90.9723 56.4368 104.55 50.0062 102.901C41.4758 100.715 36.5898 94.7459 36.5898 94.7459L46.4889 92.9301Z" fill="white"/>
<path d="M51.0679 103.358C50.6928 103.358 50.3135 103.309 49.9258 103.21C41.3933 101.023 36.3929 95.008 36.3421 94.9486C36.2701 94.8618 36.251 94.7431 36.2891 94.6372C36.3273 94.5312 36.4205 94.455 36.5306 94.4338L46.4319 92.6158C46.5293 92.5968 46.631 92.6264 46.7052 92.6942L49.7245 95.4762C49.911 95.65 50.1144 95.7644 50.3157 95.8046C50.786 95.9021 51.267 95.7326 51.57 95.3576L57.4857 86.5581C57.9794 85.8229 58.8015 85.3568 59.6851 85.3059L63.4481 84.9987C63.8146 84.9712 64.1494 85.164 64.3062 85.4987C64.4588 85.825 64.3973 86.2001 64.1473 86.4564C63.6472 86.9692 63.0264 87.2955 62.3039 87.429C61.9586 87.4925 61.7022 87.751 61.6492 88.09C61.3632 89.9673 59.5558 90.9335 58.9837 91.1941C58.7506 92.4823 57.2145 100.174 53.4684 102.612C52.7099 103.11 51.9048 103.358 51.0679 103.358ZM37.2023 94.9571C38.4821 96.3343 43.0566 100.792 50.0847 102.593C51.1589 102.869 52.1802 102.697 53.1231 102.083C56.8967 99.6249 58.3735 91.0076 58.3884 90.9208C58.4074 90.8106 58.4816 90.7174 58.5875 90.6771C58.6087 90.6686 60.7445 89.8148 61.022 87.9968C61.1131 87.3951 61.5835 86.9162 62.1895 86.806C62.7807 86.698 63.2849 86.4331 63.6917 86.0157C63.7849 85.9204 63.749 85.8144 63.7299 85.7721C63.7129 85.736 63.6494 85.6216 63.4989 85.6364L59.7274 85.9437C59.0346 85.9818 58.3947 86.3463 58.0133 86.9162L52.0891 95.7262C52.0849 95.7326 52.0785 95.7411 52.0743 95.7474C51.623 96.3174 50.8983 96.578 50.1864 96.4297C49.8707 96.364 49.5613 96.1966 49.2923 95.9445L46.3916 93.2705L37.2023 94.9571Z" fill="black"/>
<path d="M46.4403 91.9015C46.3385 91.9015 46.2411 91.8527 46.1775 91.7637L44.813 89.7848C44.7134 89.6407 44.7494 89.4415 44.8935 89.3419C45.0376 89.2424 45.2368 89.2784 45.3364 89.4224L46.7009 91.4014C46.8004 91.5455 46.7645 91.7447 46.6204 91.8443C46.5653 91.8845 46.5017 91.9015 46.4403 91.9015Z" fill="#CADDFF"/>
<path d="M35.2825 95.4148C35.2084 95.4148 35.1342 95.3894 35.0749 95.3364C30.4072 91.2704 28.9854 87.8973 28.3773 86.4586L28.2989 86.2764C28.229 86.1154 28.3053 85.9289 28.4663 85.859C28.6273 85.7891 28.8138 85.8654 28.8837 86.0264L28.9621 86.2107C29.5533 87.6091 30.9347 90.8869 35.4902 94.8576C35.6237 94.972 35.6364 95.1733 35.5219 95.3068C35.4584 95.3788 35.3715 95.4148 35.2825 95.4148Z" fill="#CADDFF"/>
<path d="M35.7127 80.38L33.6192 80.9415C33.1192 81.075 33.1425 81.7339 33.6256 81.914C39.0879 83.965 41.8 83.1641 43.4908 82.9501C43.9909 82.8865 44.1031 82.2128 43.6455 81.9966L43.6328 81.9903C43.0331 81.7064 42.7577 81.0071 43.0035 80.3927L44.4718 76.7123L41.319 70.5317L38.0221 78.5006C37.556 79.4265 36.7149 80.1109 35.7127 80.38Z" fill="white"/>
<path d="M40.2131 83.6046C38.5816 83.6046 36.4415 83.3101 33.5155 82.2126C33.151 82.077 32.9201 81.7337 32.937 81.3608C32.954 81.0133 33.1892 80.7273 33.5367 80.6341L35.63 80.0726C36.5411 79.8289 37.3082 79.2081 37.7341 78.3669L41.0266 70.4087C41.0733 70.2942 41.1835 70.218 41.3085 70.2116C41.4377 70.2074 41.5479 70.2752 41.6051 70.3854L44.7579 76.5659C44.8003 76.6464 44.8045 76.7439 44.7706 76.8287L43.3023 80.5091C43.12 80.9667 43.3256 81.4922 43.7727 81.7019C44.118 81.8651 44.3024 82.2147 44.2452 82.577C44.188 82.9414 43.9019 83.2169 43.5332 83.2635C43.3404 83.2868 43.1349 83.3207 42.9145 83.3546C42.1899 83.469 41.3191 83.6046 40.2131 83.6046ZM35.7953 80.687L33.7019 81.2485C33.6193 81.2697 33.5748 81.3184 33.5727 81.3926C33.5684 81.4668 33.6108 81.5685 33.7379 81.6172C38.4926 83.4012 41.0924 82.9965 42.8128 82.7296C43.0417 82.6935 43.2536 82.6618 43.4506 82.6363C43.5777 82.6194 43.6074 82.5219 43.6138 82.4795C43.6201 82.4393 43.6222 82.3376 43.5099 82.2846C42.7471 81.9244 42.4018 81.0451 42.709 80.276L44.1244 76.7291L41.3508 71.2901L38.3167 78.6212C38.3146 78.6297 38.3104 78.636 38.3061 78.6424C37.7997 79.6488 36.8844 80.3946 35.7953 80.687Z" fill="black"/>
<path d="M48.3173 67.9468C51.4319 70.2542 50.1712 72.356 50.1712 72.356C49.9466 72.9684 49.4212 74.3986 49.4848 74.6931C49.5653 75.0554 49.9487 75.7334 49.9212 75.9305C49.8915 76.1296 49.4763 76.4305 48.8321 76.3945C48.8321 76.3945 47.7198 79.3672 46.7833 79.6363C45.8467 79.9054 43.0775 78.0641 43.0775 78.0641L42.624 77.7082C41.1663 76.5619 40.5603 74.8817 40.5772 73.0256C40.5772 73.0256 41.1769 62.6582 48.3173 67.9468Z" fill="white"/>
<path d="M46.5842 79.9798C45.4464 79.9798 43.3424 78.6237 42.9017 78.3292C42.8953 78.3249 42.8868 78.3207 42.8805 78.3144L42.4271 77.9584C42.2131 77.791 42.0118 77.6067 41.8274 77.4139C41.7067 77.2867 41.7109 77.0854 41.8402 76.9647C41.9673 76.8439 42.1686 76.8481 42.2894 76.9774C42.4525 77.149 42.6305 77.3122 42.8211 77.4605L43.264 77.808C44.3658 78.539 46.1519 79.4903 46.6965 79.3335C47.2368 79.1788 48.097 77.4584 48.5356 76.2866C48.5844 76.1553 48.7136 76.0684 48.8513 76.0811C49.2709 76.1023 49.5251 75.9582 49.5993 75.8798C49.5717 75.7781 49.4827 75.5705 49.4213 75.4285C49.3217 75.1976 49.2179 74.9582 49.1755 74.7653C49.112 74.4793 49.2941 73.8204 49.8726 72.2503C49.8789 72.2312 49.8874 72.2143 49.898 72.1973C49.9404 72.1232 50.9532 70.301 48.1267 68.2076C46.349 66.8918 44.8637 66.4744 43.709 66.9681C41.7321 67.8156 41.1219 71.0871 40.9524 72.4537C40.9312 72.6275 40.7723 72.7525 40.5985 72.7292C40.4248 72.708 40.2998 72.5491 40.3231 72.3753C40.5074 70.8985 41.1812 67.3601 43.461 66.3833C44.8383 65.7943 46.5354 66.235 48.5059 67.6949C51.5952 69.9832 50.6163 72.1867 50.4637 72.4876C49.898 74.0301 49.79 74.509 49.7984 74.6403C49.826 74.7611 49.9213 74.9815 50.004 75.1764C50.1713 75.562 50.2625 75.7909 50.2349 75.9794C50.1841 76.329 49.7264 76.6829 49.0505 76.7168C48.7348 77.5177 47.8089 79.6768 46.8702 79.9458C46.7855 79.967 46.688 79.9798 46.5842 79.9798Z" fill="black"/>
<path d="M47.6458 65.9676C48.4975 66.4591 49.2286 67.2982 49.6884 67.4868C50.4299 67.7919 50.9914 67.1223 51.8538 67.7622C52.6123 68.3237 53.1547 69.0314 53.0382 69.8874C53.0191 70.0294 52.9831 70.1755 52.9238 70.3281C52.1419 72.3516 50.7245 72.1736 50.1736 72.1164C50.1736 72.1164 47.1077 71.2667 46.4741 71.2392C45.8809 71.2138 44.8913 71.7604 44.2748 72.9173C44.1964 73.0656 44.0248 73.1419 43.8595 73.108C43.6646 73.0677 43.5332 72.8855 43.5544 72.6885C43.6243 72.0676 43.6921 70.8048 43.1052 70.5972C42.4208 70.3556 41.1326 71.4807 41.7915 72.6143C41.9949 72.9639 41.7597 73.4216 41.3593 73.464C41.0266 73.4979 40.6516 73.3961 40.3422 72.9512C40.3422 72.9512 39.4672 69.2623 41.1008 66.8384C42.7323 64.4081 46.5122 65.3129 47.6458 65.9676Z" fill="black"/>
<path d="M49.9764 76.4562C49.862 76.4562 49.7518 76.3947 49.6946 76.2867C49.612 76.132 49.6713 75.9392 49.8259 75.8566C50.0251 75.7506 50.3069 75.4053 50.4934 74.8692C50.6099 74.5323 50.6629 74.1848 50.6353 73.9179C50.6142 73.7017 50.5485 73.6085 50.5209 73.6C50.4298 73.5682 50.0293 73.8564 49.7687 74.5789C49.7094 74.7442 49.5272 74.8289 49.3619 74.7696C49.1967 74.7103 49.1119 74.5281 49.1713 74.3628C49.5251 73.3818 50.1798 72.8076 50.7307 72.9983C50.9065 73.0597 51.2074 73.2504 51.2689 73.8543C51.3049 74.2145 51.2434 74.651 51.0951 75.079C50.8748 75.7125 50.5125 76.2125 50.1247 76.4181C50.0781 76.4435 50.0272 76.4562 49.9764 76.4562Z" fill="black"/>
<path d="M47.8194 75.5853C47.7177 75.5853 47.616 75.5683 47.5206 75.5344C46.8532 75.3035 46.5968 74.3564 46.9358 73.3796C47.0884 72.9389 47.3426 72.5596 47.6498 72.3075C47.9952 72.0257 48.3893 71.9303 48.7305 72.049C49.0716 72.1676 49.3216 72.4855 49.4191 72.9219C49.5059 73.3097 49.4678 73.7652 49.3153 74.2059C49.1627 74.6466 48.9084 75.0259 48.6012 75.278C48.3533 75.4815 48.08 75.5853 47.8194 75.5853ZM47.5375 73.5893C47.3108 74.2441 47.4528 74.8394 47.7304 74.9369C47.8575 74.9814 48.0291 74.9263 48.2008 74.7865C48.4148 74.6106 48.6033 74.3246 48.7156 73.9983C48.8279 73.672 48.8597 73.3309 48.7983 73.0618C48.7495 72.8456 48.65 72.6973 48.5228 72.6528C48.3957 72.6083 48.2241 72.6634 48.0525 72.8033C47.8385 72.977 47.6498 73.2631 47.5375 73.5893Z" fill="black"/>
<path d="M47.5314 73.1884C47.4933 73.1884 47.453 73.1821 47.4149 73.1672L44.171 71.8981C44.0078 71.8345 43.9273 71.6502 43.9909 71.487C44.0544 71.3239 44.2388 71.2433 44.4019 71.3069L47.6458 72.5761C47.809 72.6396 47.8895 72.824 47.8259 72.9871C47.7793 73.1121 47.6586 73.1884 47.5314 73.1884Z" fill="black"/>
<path d="M167.691 109.909C167.674 109.909 167.657 109.907 167.641 109.905L165.003 109.486C164.895 109.469 164.801 109.397 164.759 109.295C164.717 109.193 164.729 109.077 164.793 108.988C165.511 107.973 166.323 107.013 166.331 107.005C166.401 106.922 166.509 106.882 166.615 106.894C166.723 106.909 166.814 106.977 166.861 107.075L167.977 109.456C168.028 109.562 168.013 109.687 167.944 109.782C167.886 109.865 167.791 109.909 167.691 109.909ZM165.615 108.941L167.149 109.185L166.501 107.801C166.274 108.083 165.948 108.492 165.615 108.941Z" fill="#001A49"/>
<path d="M169.005 105.635C168.98 105.635 168.954 105.633 168.927 105.627C168.757 105.584 168.653 105.411 168.696 105.241C171.548 93.8759 171.681 82.4428 169.092 71.2576C168.736 69.7193 168.323 68.1747 167.867 66.6682C167.816 66.5008 167.912 66.3228 168.079 66.272C168.246 66.2211 168.424 66.3165 168.475 66.4839C168.935 68.0031 169.35 69.5625 169.711 71.1156C172.323 82.4004 172.187 93.9352 169.312 105.398C169.276 105.538 169.147 105.635 169.005 105.635Z" fill="#001A49"/>
<path d="M167.117 93.3614C167.111 93.3614 167.102 93.3614 167.096 93.3614C166.92 93.3508 166.789 93.1982 166.799 93.0224C167.543 81.782 165.662 70.5227 161.208 59.5599C161.142 59.3968 161.22 59.2124 161.384 59.1467C161.547 59.0811 161.731 59.1595 161.797 59.3226C166.287 70.3743 168.183 81.7291 167.433 93.0668C167.422 93.2321 167.282 93.3614 167.117 93.3614Z" fill="#001A49"/>
<path d="M166.56 62.0576C166.371 62.0576 166.183 62.0322 165.996 61.9792C165.469 61.8288 165.032 61.4834 164.768 61.0066C164.501 60.5278 164.437 59.9748 164.585 59.4493C164.736 58.9239 165.081 58.4853 165.558 58.2204C166.035 57.9534 166.59 57.8899 167.115 58.0382C167.643 58.1886 168.079 58.534 168.344 59.0107C168.611 59.4896 168.675 60.0426 168.526 60.5681C168.376 61.0935 168.031 61.5321 167.554 61.797C167.244 61.9707 166.903 62.0576 166.56 62.0576ZM166.554 58.5933C166.316 58.5933 166.081 58.6548 165.867 58.7734C165.537 58.9578 165.299 59.2586 165.196 59.6209C165.092 59.9833 165.136 60.3668 165.321 60.6952C165.505 61.0257 165.806 61.263 166.168 61.3668C166.533 61.4707 166.914 61.4262 167.242 61.2418C167.573 61.0575 167.81 60.7566 167.914 60.3943C168.018 60.032 167.973 59.6485 167.789 59.3201C167.605 58.9895 167.304 58.7522 166.941 58.6484C166.814 58.6124 166.685 58.5933 166.554 58.5933Z" fill="#001A49"/>
<path d="M8.06637 81.8883C7.93924 81.8883 7.82056 81.8121 7.76971 81.687C4.68683 73.8665 3.03842 65.7642 2.86679 57.6088C2.86256 57.433 3.00239 57.2889 3.17825 57.2847C3.34564 57.2847 3.4982 57.4203 3.50244 57.5961C3.67194 65.6773 5.30553 73.7055 8.36086 81.4561C8.42443 81.6192 8.34601 81.8036 8.18074 81.8693C8.14472 81.882 8.10663 81.8883 8.06637 81.8883Z" fill="#001A49"/>
<path d="M11.0136 88.4181C10.8971 88.4181 10.7869 88.3546 10.7297 88.2444C10.2191 87.2422 9.7254 86.2167 9.26138 85.1976C9.18934 85.0387 9.25926 84.8501 9.41817 84.7759C9.57709 84.7039 9.76566 84.7738 9.83982 84.9327C10.2996 85.9434 10.7891 86.9604 11.2976 87.9541C11.3781 88.1109 11.3145 88.3016 11.1598 88.3821C11.1111 88.4076 11.0624 88.4181 11.0136 88.4181Z" fill="#001A49"/>
<path d="M17.7535 91.0609C17.6476 91.0609 17.5459 91.0079 17.4844 90.9125C11.9013 82.1279 8.51974 72.6632 7.4349 62.7789C7.41584 62.6052 7.54081 62.4484 7.71667 62.4272C7.89041 62.4081 8.04724 62.5332 8.06843 62.709C9.14479 72.4937 12.4925 81.8695 18.0226 90.5714C18.1158 90.7197 18.0734 90.9168 17.9251 91.01C17.87 91.0439 17.8107 91.0609 17.7535 91.0609Z" fill="#001A49"/>
<defs>
<linearGradient id="paint0_linear_69_4988" x1="99.4837" y1="216.324" x2="218.039" y2="93.6437" gradientUnits="userSpaceOnUse">
<stop stop-color="#CD10FF"/>
<stop offset="1" stop-color="#9F06FF"/>
</linearGradient>
<linearGradient id="paint1_linear_69_4988" x1="106.395" y1="200.346" x2="202.939" y2="133.388" gradientUnits="userSpaceOnUse">
<stop stop-color="#CD10FF"/>
<stop offset="1" stop-color="#9F06FF"/>
</linearGradient>
<linearGradient id="paint2_linear_69_4988" x1="67.4309" y1="89.953" x2="73.8684" y2="85.1209" gradientUnits="userSpaceOnUse">
<stop stop-color="#CD10FF"/>
<stop offset="1" stop-color="#9F06FF"/>
</linearGradient>
</defs>
</svg>
