<svg width="81" height="81" viewBox="0 0 81 81" fill="none" xmlns="http://www.w3.org/2000/svg">
<circle cx="40.5" cy="40.5" r="40.5" fill="url(#paint0_linear_112_9595)"/>
<path d="M40.8096 13.8135C33.4775 13.8135 32.5549 13.8442 29.6775 13.9761C27.4388 14.0216 25.224 14.4466 23.1273 15.2329C21.3253 15.9069 19.6935 16.9691 18.3476 18.3442C16.9742 19.6933 15.9099 21.3246 15.2285 23.1255C14.4421 25.2241 14.0187 27.4413 13.9765 29.6821C13.8491 32.5605 13.814 33.479 13.814 40.8135C13.814 48.1479 13.8447 49.062 13.9765 51.9448C14.022 54.1842 14.4468 56.3997 15.2329 58.4971C15.91 60.298 16.9714 61.9296 18.3433 63.2783C19.6907 64.6537 21.3219 65.7185 23.1229 66.3984C25.2214 67.183 27.4376 67.6065 29.6775 67.6509C32.5549 67.7827 33.4731 67.8135 40.8052 67.8135C48.1373 67.8135 49.051 67.7827 51.9329 67.6509C54.1727 67.6065 56.3889 67.183 58.4874 66.3984C60.2826 65.7019 61.9129 64.6388 63.2744 63.2768C64.6359 61.9149 65.6987 60.284 66.395 58.4883C67.1769 56.3898 67.6016 54.175 67.6514 51.936C67.7788 49.0576 67.814 48.1392 67.814 40.8047C67.814 33.4702 67.7788 32.5518 67.6514 29.6733C67.6016 27.4329 67.1769 25.2167 66.395 23.1167C65.7169 21.3152 64.6539 19.6835 63.2803 18.3354C61.9352 16.9593 60.3032 15.8969 58.5006 15.2241C56.3964 14.4388 54.174 14.0168 51.9285 13.9761C49.0466 13.8442 48.1329 13.8135 40.8008 13.8135H40.8096ZM38.3846 18.6782H40.8096C48.0143 18.6782 48.8665 18.7046 51.7132 18.8364C53.4249 18.8559 55.1204 19.1696 56.7258 19.7637C57.8978 20.1968 58.9577 20.8876 59.8273 21.7852C60.7227 22.6565 61.413 23.7163 61.8481 24.8877C62.442 26.4936 62.7556 28.1897 62.7751 29.9019C62.9069 32.7451 62.9332 33.602 62.9332 40.8091C62.9332 48.0161 62.9069 48.8686 62.7751 51.7163C62.7561 53.4271 62.4425 55.1218 61.8481 56.7261C61.3985 57.8896 60.7105 58.9462 59.8283 59.8279C58.9461 60.7096 57.8893 61.3969 56.7258 61.8457C55.1215 62.4444 53.4254 62.7596 51.7132 62.7773C48.8709 62.9092 48.0143 62.9355 40.8096 62.9355C33.6049 62.9355 32.7482 62.9092 29.9015 62.7773C28.1896 62.7564 26.4941 62.4413 24.889 61.8457C23.7157 61.4144 22.6543 60.7251 21.7831 59.8286C20.8874 58.9583 20.1983 57.8981 19.7666 56.7261C19.1712 55.1204 18.8562 53.4243 18.8353 51.7119C18.7079 48.8643 18.6815 48.0117 18.6815 40.8003C18.6815 33.5889 18.7079 32.7407 18.8353 29.8931C18.8535 28.1804 19.1686 26.4838 19.7666 24.8789C20.1983 23.7069 20.8874 22.6467 21.7831 21.7764C22.655 20.8797 23.7161 20.189 24.889 19.7549C26.4946 19.1611 28.1898 18.846 29.9015 18.8232C32.3924 18.7134 33.3545 18.6782 38.3846 18.6738V18.6782ZM55.2145 23.1606C54.5731 23.1606 53.9461 23.351 53.4129 23.7075C52.8796 24.0641 52.4641 24.5709 52.2188 25.1637C51.9736 25.7566 51.9096 26.4089 52.0351 27.0381C52.1605 27.6674 52.4697 28.2452 52.9236 28.6986C53.3774 29.152 53.9555 29.4605 54.5847 29.5852C55.2139 29.7098 55.866 29.645 56.4583 29.3988C57.0506 29.1527 57.5567 28.7363 57.9124 28.2024C58.2681 27.6685 58.4575 27.041 58.4567 26.3994C58.4567 25.9737 58.3728 25.5522 58.2098 25.159C58.0468 24.7657 57.8079 24.4085 57.5068 24.1077C57.2057 23.8069 56.8482 23.5684 56.4549 23.4059C56.0616 23.2434 55.6401 23.1601 55.2145 23.1606ZM40.8096 26.9487C38.0683 26.9487 35.3885 27.7619 33.1092 29.2854C30.8299 30.8088 29.0534 32.9742 28.0044 35.5077C26.9553 38.0411 26.6809 40.8289 27.2157 43.5184C27.7505 46.2079 29.0705 48.6783 31.0089 50.6173C32.9473 52.5564 35.417 53.8768 38.1056 54.4118C40.7942 54.9468 43.581 54.6722 46.1137 53.6228C48.6463 52.5734 50.811 50.7964 52.3339 48.5163C53.8569 46.2363 54.6698 43.5557 54.6698 40.8135C54.6686 37.1367 53.208 33.6108 50.609 31.0109C48.0099 28.411 44.4852 26.9499 40.8096 26.9487ZM40.8096 31.8135C42.5896 31.8109 44.3304 32.3365 45.8117 33.3238C47.293 34.3112 48.4482 35.7159 49.1312 37.3602C49.8142 39.0045 49.9942 40.8145 49.6486 42.5612C49.3029 44.3079 48.447 45.9128 47.1893 47.1728C45.9316 48.4328 44.3285 49.2912 42.5828 49.6396C40.8372 49.9879 39.0275 49.8104 37.3828 49.1296C35.738 48.4488 34.3321 47.2953 33.3429 45.815C32.3537 44.3346 31.8257 42.5941 31.8257 40.8135C31.8303 38.4319 32.7785 36.1492 34.4624 34.4655C36.1463 32.7819 38.4287 31.8345 40.8096 31.8311V31.8135Z" fill="white"/>
<defs>
<linearGradient id="paint0_linear_112_9595" x1="45.673" y1="100.148" x2="100.582" y2="43.5021" gradientUnits="userSpaceOnUse">
<stop stop-color="#CD10FF"/>
<stop offset="1" stop-color="#9F06FF"/>
</linearGradient>
</defs>
</svg>
