<svg width="175" height="175" viewBox="0 0 175 175" fill="none" xmlns="http://www.w3.org/2000/svg">
<path d="M8.84602 32.8975C22.3254 10.0057 47.9826 4.40993 57.66 2.29864C90.5931 -4.88477 139.321 3.74752 162.833 42.7621C183.469 77.0053 171.978 113.578 170.313 118.592C167.52 127.001 160.528 147.17 140.707 160.832C109.847 182.101 62.8099 177.329 46.7146 155.375C39.1547 145.063 45.272 140.308 36.4673 122.076C24.6743 97.6576 10.0404 98.2443 3.22083 78.6939C-4.47779 56.6222 7.59901 35.013 8.84602 32.8975Z" fill="url(#paint0_linear_69_5084)"/>
<path d="M84.9005 149.025H16.2838C14.0526 149.025 12.0255 147.217 11.7563 144.986L0.352404 50.5603C0.0832361 48.3291 1.30291 45.4692 4.8862 45.4692L72.523 46.5228L84.9005 149.025Z" fill="black"/>
<path d="M84.9005 149.342H16.2838C13.9012 149.342 11.7311 147.405 11.443 145.024L0.0390818 50.5991C-0.13756 49.1418 0.291428 47.6698 1.18725 46.6604C2.05994 45.6763 3.33849 45.1548 4.88621 45.1548L72.5272 46.2083C72.6849 46.2104 72.8174 46.3303 72.8363 46.4859L85.216 148.99C85.2265 149.081 85.1991 149.169 85.1381 149.236C85.0772 149.302 84.9909 149.342 84.9005 149.342ZM4.882 45.7835C3.52565 45.7835 2.41112 46.2315 1.6604 47.0768C0.884438 47.9537 0.512231 49.2407 0.66574 50.5213L12.0696 144.947C12.3199 147.02 14.2103 148.709 16.2838 148.709H84.5451L72.2412 46.8308L4.882 45.7835Z" fill="black"/>
<path d="M149.589 149.026H84.9635L72.5839 46.5215H137.211C139.443 46.5215 141.47 48.33 141.739 50.5611L153.143 144.986C153.41 147.218 151.82 149.026 149.589 149.026Z" fill="black"/>
<path d="M149.589 149.341H84.9636C84.8038 149.341 84.6692 149.221 84.6502 149.063L72.2706 46.5587C72.2601 46.4683 72.2875 46.38 72.3484 46.3127C72.4073 46.2454 72.4935 46.2075 72.584 46.2075H137.212C139.594 46.2075 141.764 48.1443 142.052 50.5247L153.456 144.95C153.597 146.126 153.269 147.232 152.531 148.064C151.799 148.887 150.754 149.341 149.589 149.341ZM85.2433 148.71H149.591C150.573 148.71 151.45 148.331 152.06 147.644C152.676 146.948 152.949 146.018 152.83 145.024L141.426 50.5983C141.175 48.5249 139.285 46.8363 137.212 46.8363H72.9393L85.2433 148.71Z" fill="black"/>
<path d="M85.8825 147.972H17.2658C15.0346 147.972 13.0074 146.164 12.7383 143.933L1.3344 49.5074C1.06523 47.2762 2.655 45.4678 4.88615 45.4678H73.5029L85.8825 147.972Z" fill="#001A49"/>
<path d="M85.8827 148.288H17.2659C14.8834 148.288 12.7132 146.351 12.4251 143.971L1.02121 49.5452C0.880316 48.3697 1.20837 47.2636 1.94647 46.4309C2.67827 45.6066 3.7213 45.1523 4.88629 45.1523H73.503C73.6628 45.1523 73.7974 45.2722 73.8164 45.4299L86.196 147.934C86.2065 148.025 86.1792 148.113 86.1182 148.181C86.0593 148.25 85.9731 148.288 85.8827 148.288ZM4.88629 45.7832C3.90425 45.7832 3.02735 46.1617 2.41752 46.8494C1.80137 47.5454 1.528 48.4749 1.64787 49.4695L13.0517 143.895C13.302 145.968 15.1925 147.657 17.2659 147.657H85.5273L73.2234 45.7832H4.88629Z" fill="black"/>
<path d="M150.571 147.972H85.9436L73.564 45.4678H138.192C140.423 45.4678 142.45 47.2762 142.719 49.5074L154.123 143.933C154.392 146.164 152.802 147.972 150.571 147.972Z" fill="#001A49"/>
<path d="M85.5924 145.382H16.9462C16.7738 145.382 16.635 145.245 16.6308 145.073L16.4058 133.572C16.4037 133.446 16.4773 133.328 16.593 133.277L24.1065 129.936C24.1507 129.917 24.1991 129.909 24.2453 129.909L75.793 131.774C75.8877 131.778 75.976 131.822 76.0328 131.898L85.8427 144.875C85.9142 144.969 85.9268 145.098 85.8742 145.205C85.8216 145.314 85.7123 145.382 85.5924 145.382ZM17.2554 144.751H84.9595L75.6227 132.401L24.2979 130.544L17.0409 133.77L17.2554 144.751Z" fill="white"/>
<path d="M5.93339 34.6108L4.60437 42.8793L16.9461 145.066L18.313 137.117L5.93339 34.6108Z" fill="#001A49"/>
<path d="M16.9462 145.382C16.9441 145.382 16.9399 145.382 16.9378 145.382C16.7822 145.378 16.6518 145.26 16.6329 145.104L4.29111 42.9172C4.2869 42.8877 4.28901 42.8583 4.29322 42.8289L5.62223 34.5604C5.64747 34.4048 5.78205 34.3017 5.93976 34.2954C6.09748 34.2975 6.22786 34.4174 6.24679 34.573L18.6264 137.078C18.6306 137.107 18.6285 137.139 18.6243 137.168L17.2553 145.117C17.2301 145.27 17.0976 145.382 16.9462 145.382ZM4.92197 42.8856L16.9988 142.888L17.9934 137.109L5.88929 36.8756L4.92197 42.8856Z" fill="white"/>
<path d="M85.5628 145.066C80.6169 140.019 73.9445 137.117 67.291 137.117H18.313L5.93335 34.6108H54.9114C61.5649 34.6108 68.2373 37.5128 73.1832 42.5597L85.5628 145.066Z" fill="white"/>
<path d="M78.2891 133.595C74.5396 132.05 70.5589 131.227 66.5782 131.227H23.4903L12.5322 40.499H55.6222C59.8784 40.499 64.1346 42.093 67.5812 44.9319L78.2891 133.595Z" fill="#001A49" fill-opacity="0.15"/>
<path d="M85.2748 143.011C85.1171 143.011 84.9804 142.893 84.9615 142.734L72.8826 42.7042C67.9976 37.7603 61.4535 34.9256 54.9115 34.9256H6.29094L18.5948 136.799H25.3009C25.4754 136.799 25.6163 136.94 25.6163 137.115C25.6163 137.289 25.4754 137.43 25.3009 137.43H18.3131C18.1532 137.43 18.0187 137.31 17.9997 137.153L5.62012 34.6481C5.60961 34.5576 5.63694 34.4693 5.69793 34.402C5.75681 34.3347 5.84302 34.2969 5.93345 34.2969H54.9115C61.6554 34.2969 68.3972 37.2283 73.4083 42.3404C73.4567 42.3908 73.4882 42.4539 73.4966 42.5233L85.5903 142.658C85.6113 142.83 85.4872 142.988 85.3148 143.009C85.3001 143.009 85.2875 143.011 85.2748 143.011Z" fill="black"/>
<path d="M149.553 145.381H85.5923C85.4872 145.381 85.3904 145.329 85.3315 145.245C85.2726 145.159 85.26 145.049 85.2979 144.952L119.32 57.719C119.367 57.597 119.484 57.5192 119.613 57.5171C119.743 57.5171 119.859 57.597 119.907 57.7169L151.217 136.999C151.238 137.054 151.244 137.111 151.233 137.17L149.864 145.119C149.839 145.27 149.707 145.381 149.553 145.381ZM86.0549 144.751H149.288L150.596 137.151L119.615 58.6968L86.0549 144.751Z" fill="white"/>
<path d="M85.5924 145.066C89.3187 140.019 95.2908 137.117 101.944 137.117H150.922L138.543 34.6123H89.5668C82.9133 34.6123 76.9411 37.5143 73.2148 42.5612L85.5924 145.066Z" fill="white"/>
<path d="M79.3889 44.9319C82.15 42.0951 86.0214 40.499 90.2776 40.499H133.368L144.324 131.23H101.234C97.2528 131.23 93.4719 132.052 90.0946 133.597L79.3889 44.9319Z" fill="#001A49" fill-opacity="0.15"/>
<path d="M84.4716 136.089C84.3138 136.089 84.1772 135.971 84.1582 135.812L72.9016 42.5975C72.891 42.5176 72.9142 42.4377 72.9604 42.3725C76.7519 37.2394 82.804 34.2954 89.5668 34.2954H138.545C138.705 34.2954 138.839 34.4153 138.858 34.573L149.959 126.487C149.98 126.66 149.856 126.818 149.684 126.839C149.511 126.86 149.354 126.736 149.333 126.563L138.265 34.9263H89.5668C83.0521 34.9263 77.2187 37.7378 73.5429 42.648L84.7849 135.736C84.8059 135.908 84.6819 136.066 84.5094 136.087C84.4968 136.089 84.4842 136.089 84.4716 136.089Z" fill="black"/>
<path d="M59.5777 74.1471H23.8288C23.0192 74.1471 22.3568 73.4847 22.3568 72.6751C22.3568 71.8655 23.0192 71.2031 23.8288 71.2031H59.5777C60.3873 71.2031 61.0497 71.8655 61.0497 72.6751C61.0497 73.4847 60.3873 74.1471 59.5777 74.1471Z" fill="#001A49" fill-opacity="0.15"/>
<path d="M66.9378 67.4177H31.1889C30.3793 67.4177 29.7169 66.7552 29.7169 65.9456C29.7169 65.136 30.3793 64.4736 31.1889 64.4736H66.9378C67.7474 64.4736 68.4098 65.136 68.4098 65.9456C68.4098 66.7552 67.7474 67.4177 66.9378 67.4177Z" fill="#001A49" fill-opacity="0.15"/>
<path d="M68.1995 80.6657H32.4506C31.641 80.6657 30.9786 80.0033 30.9786 79.1937C30.9786 78.3841 31.641 77.7217 32.4506 77.7217H68.1995C69.0091 77.7217 69.6715 78.3841 69.6715 79.1937C69.6715 80.0033 69.0091 80.6657 68.1995 80.6657Z" fill="#001A49" fill-opacity="0.15"/>
<path d="M61.0497 86.9743H25.3009C24.4913 86.9743 23.8289 86.3119 23.8289 85.5023C23.8289 84.6927 24.4913 84.0303 25.3009 84.0303H61.0497C61.8593 84.0303 62.5217 84.6927 62.5217 85.5023C62.5217 86.3119 61.8593 86.9743 61.0497 86.9743Z" fill="#001A49" fill-opacity="0.15"/>
<path d="M123.921 57.1135H91.1903C90.3807 57.1135 89.7183 56.4511 89.7183 55.6414C89.7183 54.8318 90.3807 54.1694 91.1903 54.1694H123.921C124.731 54.1694 125.393 54.8318 125.393 55.6414C125.393 56.4511 124.731 57.1135 123.921 57.1135Z" fill="#001A49" fill-opacity="0.15"/>
<path d="M128.903 63.6325H96.7944C95.9848 63.6325 95.3224 62.9701 95.3224 62.1605C95.3224 61.3509 95.9848 60.6885 96.7944 60.6885H128.901C129.711 60.6885 130.373 61.3509 130.373 62.1605C130.375 62.9701 129.713 63.6325 128.903 63.6325Z" fill="#001A49" fill-opacity="0.15"/>
<path d="M132.268 69.9411H92.7337C91.9241 69.9411 91.2617 69.2787 91.2617 68.4691C91.2617 67.6595 91.9241 66.9971 92.7337 66.9971H132.268C133.077 66.9971 133.74 67.6595 133.74 68.4691C133.74 69.2787 133.077 69.9411 132.268 69.9411Z" fill="#001A49" fill-opacity="0.15"/>
<path d="M77.4607 149.153L73.3727 173.691H71.1289L75.3767 149.069L77.4607 149.153Z" fill="#001A49"/>
<path d="M73.3726 174.007H71.1289C71.0363 174.007 70.948 173.965 70.887 173.896C70.8282 173.824 70.8008 173.729 70.8176 173.639L75.0654 149.014C75.0928 148.859 75.2295 148.743 75.3893 148.754L77.4732 148.84C77.5637 148.844 77.6478 148.886 77.7046 148.955C77.7613 149.025 77.7866 149.117 77.7718 149.206L73.6839 173.744C73.6586 173.896 73.5261 174.007 73.3726 174.007ZM71.5032 173.376H73.1056L77.0905 149.454L75.6395 149.395L71.5032 173.376Z" fill="black"/>
<path d="M97.3516 149.31H73.2822C72.4915 149.31 71.8501 148.668 71.8501 147.878V147.375C71.8501 146.584 72.4915 145.943 73.2822 145.943H97.3516C98.1423 145.943 98.7837 146.584 98.7837 147.375V147.878C98.7837 148.668 98.1423 149.31 97.3516 149.31Z" fill="#001A49"/>
<path d="M97.3517 149.625H73.2801C72.317 149.625 71.5326 148.84 71.5326 147.877V147.374C71.5326 146.411 72.317 145.627 73.2801 145.627H97.3496C98.3127 145.627 99.0971 146.411 99.0971 147.374V147.877C99.0992 148.84 98.3148 149.625 97.3517 149.625ZM73.2801 146.258C72.6639 146.258 72.1635 146.758 72.1635 147.374V147.877C72.1635 148.493 72.6639 148.994 73.2801 148.994H97.3496C97.9657 148.994 98.4662 148.493 98.4662 147.877V147.374C98.4662 146.758 97.9657 146.258 97.3496 146.258H73.2801Z" fill="black"/>
<path d="M96.4221 167.41C96.4221 167.41 95.2656 168.441 94.9733 169.648C94.681 170.855 94.1826 173.393 95.0153 173.685C95.6315 173.902 101.982 173.797 105.233 173.729C106.257 173.708 106.815 172.501 106.146 171.725C105.639 171.136 104.871 170.508 103.715 169.982C100.51 168.525 99.8015 167.652 99.8015 167.652L96.4221 167.41Z" fill="white"/>
<path d="M98.6028 174.13C96.4284 174.13 95.1919 174.082 94.9101 173.983C94.109 173.703 94.0269 172.219 94.6662 169.573C94.9774 168.284 96.1614 167.22 96.2118 167.174C96.2749 167.117 96.359 167.088 96.4431 167.094L99.8225 167.332C99.9108 167.338 99.9907 167.38 100.045 167.447C100.05 167.454 100.79 168.301 103.843 169.689C104.899 170.168 105.753 170.783 106.383 171.514C106.768 171.962 106.859 172.578 106.615 173.123C106.369 173.676 105.841 174.027 105.237 174.04C102.483 174.101 100.268 174.13 98.6028 174.13ZM96.5378 167.735C96.2686 168 95.4969 168.818 95.2803 169.721C94.6725 172.238 94.8513 173.293 95.1204 173.386C95.4401 173.495 98.2642 173.558 105.227 173.411C105.654 173.403 105.927 173.125 106.041 172.869C106.186 172.545 106.135 172.194 105.906 171.929C105.336 171.266 104.556 170.707 103.584 170.265C100.943 169.064 99.9507 168.238 99.6584 167.954L96.5378 167.735Z" fill="black"/>
<path d="M86.5135 167.41C86.5135 167.41 85.3569 168.441 85.0646 169.648C84.7723 170.855 84.2739 173.393 85.1066 173.685C85.7228 173.902 92.0734 173.797 95.3245 173.729C96.3486 173.708 96.9059 172.501 96.2371 171.725C95.7303 171.136 94.9628 170.508 93.8062 169.982C90.6014 168.525 89.8928 167.652 89.8928 167.652L86.5135 167.41Z" fill="white"/>
<path d="M88.6962 174.13C86.5218 174.13 85.2853 174.08 85.0035 173.983C84.2023 173.703 84.1203 172.219 84.7596 169.573C85.0708 168.284 86.2547 167.22 86.3052 167.174C86.3683 167.117 86.4524 167.088 86.5365 167.094L89.9158 167.332C90.0042 167.338 90.0841 167.38 90.1388 167.447C90.143 167.454 90.8832 168.301 93.9365 169.689C94.9922 170.168 95.8459 170.783 96.4768 171.514C96.8616 171.962 96.9521 172.578 96.7081 173.121C96.4621 173.674 95.9343 174.025 95.3307 174.038C92.576 174.101 90.3616 174.13 88.6962 174.13ZM86.6312 167.735C86.362 168 85.5902 168.818 85.3736 169.721C84.7659 172.24 84.9446 173.293 85.2138 173.386C85.5334 173.495 88.3576 173.558 95.3202 173.411C95.7471 173.403 96.0205 173.125 96.134 172.866C96.2791 172.543 96.2287 172.191 95.9995 171.927C95.4296 171.264 94.6494 170.705 93.6779 170.263C91.0367 169.062 90.0441 168.236 89.7518 167.952L86.6312 167.735Z" fill="black"/>
<path d="M96.4009 166.372L96.3378 167.411C96.2811 168.321 97.0066 169.093 97.9192 169.093H98.9727C99.8286 169.093 100.529 168.414 100.556 167.56L100.617 165.653L96.4009 166.372Z" fill="white"/>
<path d="M98.975 169.407H97.9214C97.3915 169.407 96.8994 169.194 96.5377 168.81C96.1739 168.425 95.9931 167.92 96.0246 167.392L96.0877 166.353C96.0961 166.206 96.2055 166.086 96.3485 166.061L100.567 165.34C100.659 165.323 100.756 165.35 100.828 165.413C100.899 165.477 100.939 165.567 100.935 165.662L100.874 167.569C100.84 168.599 100.005 169.407 98.975 169.407ZM96.7018 166.642L96.6534 167.43C96.6324 167.783 96.7543 168.12 96.9962 168.376C97.238 168.635 97.5661 168.776 97.9214 168.776H98.975C99.6647 168.776 100.222 168.235 100.243 167.548L100.291 166.027L96.7018 166.642Z" fill="black"/>
<path d="M86.5788 166.372L86.5157 167.411C86.4589 168.321 87.1844 169.093 88.0971 169.093H89.1506C90.0065 169.093 90.7067 168.414 90.7341 167.56L90.795 165.653L86.5788 166.372Z" fill="white"/>
<path d="M89.1504 169.407H88.0969C87.5669 169.407 87.0749 169.194 86.7132 168.81C86.3494 168.425 86.1685 167.92 86.2001 167.392L86.2632 166.353C86.2716 166.206 86.3809 166.086 86.5239 166.061L90.7423 165.34C90.8348 165.323 90.9315 165.35 91.003 165.413C91.0745 165.477 91.1145 165.567 91.1103 165.662L91.0493 167.569C91.0156 168.599 90.1829 169.407 89.1504 169.407ZM86.8772 166.642L86.8288 167.43C86.8078 167.783 86.9298 168.12 87.1716 168.376C87.4134 168.635 87.7415 168.776 88.0969 168.776H89.1504C89.8401 168.776 90.3974 168.235 90.4184 167.548L90.4668 166.027L86.8772 166.642Z" fill="black"/>
<path d="M86.3108 165.558C86.4762 165.643 86.7137 165.739 87.0333 165.81C87.8054 165.984 89.1252 166.03 91.1457 165.324C91.1554 165.275 91.1658 165.222 91.1767 165.167C91.2653 164.716 91.3909 164.068 91.5386 163.28C91.8341 161.701 92.2173 159.563 92.5691 157.318C92.9214 155.069 93.2398 152.728 93.4085 150.741C93.4928 149.747 93.5384 148.855 93.5339 148.116C93.5294 147.356 93.4715 146.831 93.3853 146.53L93.3852 146.529C93.0183 145.246 91.7703 143.787 90.1037 142.42C88.4744 141.083 86.6085 139.967 85.2635 139.335L85.263 139.334C84.7105 139.074 83.8009 138.874 82.6523 138.744C81.5293 138.616 80.2718 138.565 79.0832 138.554C77.8975 138.544 76.7963 138.575 75.9907 138.608C75.7877 138.616 75.6038 138.625 75.4423 138.633C75.4238 138.733 75.4045 138.841 75.3848 138.957C75.2745 139.606 75.1561 140.473 75.1168 141.365C75.0771 142.269 75.122 143.136 75.3025 143.813C75.4866 144.504 75.7558 144.807 76.0174 144.922L86.3108 165.558ZM86.3108 165.558C86.3129 165.482 86.3152 165.399 86.3175 165.309C86.3308 164.807 86.3486 164.09 86.3665 163.227C86.4023 161.501 86.4387 159.189 86.4412 156.849C86.4437 154.513 86.4125 152.133 86.3113 150.279C86.2608 149.355 86.1919 148.537 86.0963 147.91C86.0489 147.6 85.9905 147.306 85.9142 147.059C85.876 146.936 85.826 146.8 85.758 146.669C85.6962 146.55 85.5823 146.363 85.3839 146.21C85.0786 145.976 84.7092 145.858 84.4039 145.787C84.0796 145.712 83.7149 145.667 83.3426 145.637C82.7183 145.586 81.9765 145.57 81.2257 145.554C81.0876 145.551 80.9492 145.549 80.8112 145.545C79.9016 145.525 78.9799 145.494 78.1283 145.4C77.2673 145.306 76.5468 145.153 76.0176 144.922L86.3108 165.558Z" fill="white" stroke="black" stroke-width="2"/>
<path d="M100.509 165.821C100.5 165.85 100.492 165.878 100.484 165.905C100.461 165.907 100.438 165.91 100.413 165.912C99.9821 165.954 99.4025 165.992 98.7958 165.983C98.1816 165.973 97.5823 165.914 97.0944 165.781C96.7844 165.697 96.5735 165.597 96.4344 165.502C96.4351 165.427 96.4359 165.343 96.4366 165.249C96.4397 164.825 96.442 164.216 96.4387 163.479C96.4322 162.005 96.4035 160.011 96.3143 157.939C96.2253 155.871 96.0753 153.704 95.823 151.89C95.697 150.985 95.5425 150.145 95.3505 149.441C95.1667 148.766 94.9189 148.099 94.5474 147.63C94.0056 146.948 92.9406 145.94 91.7198 144.859C90.4773 143.758 89.0071 142.524 87.6033 141.371C86.4853 140.452 85.4058 139.582 84.5114 138.867C85.377 138.864 86.3647 138.852 87.3717 138.824C88.8542 138.782 90.3992 138.703 91.6633 138.558C92.2932 138.486 92.8786 138.394 93.362 138.275C93.6038 138.215 93.8394 138.144 94.0513 138.057C94.0673 138.05 94.0836 138.043 94.1001 138.036C94.3523 138.137 94.7043 138.283 95.1269 138.469C96.0219 138.865 97.2245 139.441 98.4627 140.166C99.7053 140.893 100.956 141.754 101.966 142.713C102.984 143.68 103.688 144.681 103.954 145.679C104.231 146.722 104.198 148.509 103.917 150.747C103.642 152.94 103.15 155.422 102.613 157.768C102.076 160.112 101.497 162.303 101.052 163.909C100.83 164.711 100.642 165.367 100.509 165.821Z" fill="white" stroke="black" stroke-width="2"/>
<path d="M104.39 96.7555C104.39 96.7555 105.153 94.6084 106.501 94.1353C107.847 93.6621 108.831 94.3182 109.958 93.7357C111.086 93.1532 110.831 92.8631 112.215 92.3899C113.599 91.9168 112.797 94.4276 111.304 95.2288C109.811 96.03 107.811 97.7039 107.811 97.7039L104.39 96.7555Z" fill="white"/>
<path d="M107.809 98.0172C107.782 98.0172 107.753 98.013 107.725 98.0067L104.304 97.0604C104.22 97.0372 104.148 96.9805 104.108 96.9027C104.068 96.8248 104.062 96.7344 104.091 96.6503C104.125 96.5578 104.924 94.3561 106.394 93.8388C107.101 93.5906 107.717 93.6264 108.261 93.6579C108.819 93.6895 109.302 93.7189 109.811 93.4561C110.255 93.2268 110.465 93.0502 110.669 92.8778C110.97 92.6233 111.256 92.3836 112.11 92.0913C112.846 91.8389 113.104 92.2826 113.165 92.4256C113.485 93.1574 112.68 94.8482 111.449 95.5064C110.003 96.2823 108.028 97.9289 108.009 97.9457C107.954 97.9919 107.883 98.0172 107.809 98.0172ZM104.815 96.5452L107.738 97.3527C108.209 96.9678 109.853 95.6472 111.157 94.947C112.188 94.3939 112.741 93.0144 112.591 92.6738C112.562 92.6044 112.358 92.6717 112.318 92.6843C111.573 92.9387 111.357 93.1238 111.079 93.3572C110.861 93.5423 110.612 93.7526 110.104 94.0133C109.439 94.3561 108.823 94.3203 108.226 94.2846C107.717 94.2551 107.191 94.2236 106.604 94.4297C105.767 94.7262 105.116 95.8659 104.815 96.5452Z" fill="black"/>
<path d="M73.7844 137.965C74.1622 138.011 74.6544 138.066 75.238 138.121C76.6742 138.259 78.6574 138.399 80.8474 138.415C85.0586 138.444 89.8149 138.004 92.9853 136.356L92.4289 124.977L92.4286 124.97L93.4277 124.928C92.4286 124.97 92.4286 124.97 92.4286 124.97L92.4286 124.97L92.4285 124.968L92.4284 124.965L92.4279 124.951L92.4259 124.901C92.4244 124.858 92.4222 124.794 92.4197 124.714C92.4148 124.552 92.4089 124.322 92.4047 124.04C92.3963 123.477 92.3946 122.706 92.4217 121.88C92.4487 121.057 92.5048 120.16 92.6152 119.352C92.7211 118.577 92.8915 117.758 93.2071 117.17L93.2071 117.17C93.6239 116.395 94.4848 115.666 95.376 115.05C96.3072 114.406 97.4254 113.781 98.5256 113.247L98.5257 113.247C100.421 112.326 101.923 110.749 102.769 108.811L102.769 108.81L107.384 98.2624L104.319 97.2906L100.038 104.674C100.038 104.674 100.038 104.674 100.038 104.674C98.671 107.034 96.2676 108.595 93.5636 108.907L73.7844 137.965ZM73.7844 137.965L73.7628 125.269L73.7611 124.254L72.7463 124.271L67.6489 124.355L67.6096 124.356L67.5732 124.359L67.5724 124.359L67.5723 124.359L67.5715 124.359L67.571 124.359L67.5604 124.36C67.5479 124.361 67.5267 124.362 67.4978 124.364C67.4399 124.367 67.3521 124.37 67.2426 124.37C67.0208 124.37 66.7239 124.357 66.4124 124.306C65.7333 124.194 65.2774 123.956 65.09 123.63C65.0867 123.617 65.0746 123.564 65.0818 123.449C65.0923 123.279 65.1415 123.035 65.2533 122.712C65.4771 122.064 65.9055 121.229 66.5317 120.257C67.779 118.321 69.7206 115.982 72.0502 113.735C74.2948 111.57 76.4993 110.545 78.2072 110.047C79.5789 109.647 80.5835 109.588 81.1871 109.552C81.3088 109.545 81.4142 109.539 81.5031 109.531C81.5441 109.532 81.6028 109.534 81.6785 109.536C81.8357 109.539 82.0662 109.543 82.3635 109.545C82.9581 109.55 83.8205 109.548 84.8993 109.52C87.0559 109.465 90.0812 109.31 93.5631 108.907L73.7844 137.965ZM104.535 96.9174C104.534 96.9193 104.533 96.9211 104.532 96.9229L104.535 96.9174Z" fill="white" stroke="black" stroke-width="2"/>
<path d="M75.6353 120.89C75.2336 120.89 74.7941 120.882 74.363 120.859C73.8499 120.829 73.3999 120.541 73.1581 120.087C72.9163 119.631 72.931 119.094 73.1959 118.653C73.2086 118.632 73.2233 118.613 73.2401 118.594L74.7016 117.097C74.8236 116.973 75.0233 116.97 75.1474 117.09C75.2715 117.212 75.2736 117.412 75.1537 117.536L73.7195 119.004C73.585 119.25 73.5829 119.54 73.7153 119.79C73.852 120.047 74.1065 120.211 74.3967 120.228C75.7551 120.303 77.2398 120.217 77.2545 120.215C77.4248 120.205 77.5783 120.337 77.5888 120.512C77.5994 120.686 77.4669 120.836 77.2923 120.846C77.2503 120.848 76.5353 120.89 75.6353 120.89Z" fill="black"/>
<path d="M78.0852 120.995V124.488H83.58C84.1352 124.488 84.4716 123.864 84.1541 123.407C83.3992 122.32 81.6958 120.825 78.0852 120.995Z" fill="white"/>
<path d="M83.5799 124.803H78.0851C77.9105 124.803 77.7697 124.662 77.7697 124.488V120.995C77.7697 120.827 77.9021 120.688 78.0704 120.68C81.9249 120.497 83.6976 122.198 84.4147 123.228C84.6271 123.533 84.6502 123.929 84.4778 124.261C84.3012 124.595 83.9584 124.803 83.5799 124.803ZM78.4005 124.173H83.5799C83.7229 124.173 83.8491 124.097 83.9163 123.969C83.9479 123.91 84.0089 123.752 83.8932 123.588C83.1341 122.494 81.5674 121.224 78.3984 121.3V124.173H78.4005Z" fill="black"/>
<path d="M88.2441 100.526C88.2441 100.526 89.5942 99.4602 89.3545 97.9987C89.1168 96.5372 89.3208 94.8696 87.8572 94.1904C86.3957 93.5111 83.5274 93.5111 82.7788 93.9191C82.0302 94.3271 82.1542 95.4269 81.1007 95.7675C80.0471 96.1082 78.6866 96.7201 78.4469 97.944C78.2092 99.1679 77.7319 103.113 79.8747 104.135C82.0196 105.153 88.2441 100.526 88.2441 100.526Z" fill="black"/>
<path d="M80.7389 103.44V108.937C80.7389 109.757 81.4055 110.424 82.2256 110.424H83.9689C84.789 110.424 85.4556 109.76 85.4556 108.937V106.389L80.7389 103.44Z" fill="white"/>
<path d="M83.9689 110.739H82.2256C81.231 110.739 80.4235 109.932 80.4235 108.937V103.44C80.4235 103.325 80.4866 103.219 80.5854 103.165C80.6863 103.11 80.8083 103.112 80.905 103.173L85.6218 106.121C85.7143 106.178 85.7711 106.279 85.7711 106.388V108.937C85.7711 109.93 84.9615 110.739 83.9689 110.739ZM81.0543 104.008V108.935C81.0543 109.581 81.58 110.106 82.2256 110.106H83.9689C84.6145 110.106 85.1402 109.581 85.1402 108.935V106.561L81.0543 104.008Z" fill="black"/>
<path d="M86.2969 98.1752C87.5039 98.5179 88.3472 99.6093 88.4061 100.863C88.5091 103.003 88.3766 106.408 86.4525 107.112C83.7314 108.109 81.6916 105.571 81.2836 105.073C80.8757 104.574 80.4677 102.987 80.4677 102.987C80.4677 102.987 79.6055 102.94 79.4247 102.215C79.2438 101.489 78.9705 100.219 80.6948 100.265C80.6948 100.265 80.9661 97.8618 83.9143 97.8618C84.8669 97.8618 85.6597 97.9964 86.2969 98.1752Z" fill="white"/>
<path d="M85.197 107.657C83.7608 107.657 82.3266 106.847 81.0523 105.287C80.6801 104.833 80.3478 103.735 80.2174 103.266C79.881 103.193 79.288 102.97 79.1197 102.293C79.0083 101.849 78.8022 101.022 79.2543 100.459C79.5003 100.152 79.8999 99.9815 80.4403 99.9521C80.6254 99.2665 81.3446 97.5464 83.9143 97.5464C84.7912 97.5464 85.6218 97.6557 86.383 97.8702C87.7142 98.2467 88.6542 99.4432 88.7215 100.846C88.8455 103.432 88.5721 106.671 86.5618 107.407C86.1097 107.575 85.6534 107.657 85.197 107.657ZM80.6044 100.581C80.1796 100.581 79.8915 100.673 79.7443 100.854C79.4877 101.174 79.6454 101.803 79.7296 102.139C79.8536 102.633 80.4761 102.671 80.4824 102.671C80.6191 102.677 80.7368 102.774 80.7705 102.907C80.8798 103.329 81.2268 104.507 81.5254 104.871C82.5958 106.181 84.2907 107.567 86.3431 106.816C88.0822 106.179 88.1831 102.82 88.0906 100.877C88.0359 99.746 87.281 98.7808 86.2106 98.478C85.5041 98.2782 84.7323 98.1772 83.9143 98.1772C81.2962 98.1772 81.0186 100.215 81.0081 100.301C80.9892 100.463 80.8483 100.591 80.6864 100.579C80.6569 100.581 80.6296 100.581 80.6044 100.581Z" fill="black"/>
<path d="M67.9808 127.272L59.3275 173.815H56.457L65.2323 127.11L67.9808 127.272Z" fill="#001A49"/>
<path d="M59.3275 174.131H56.455C56.3603 174.131 56.272 174.089 56.2131 174.017C56.1521 173.946 56.129 173.849 56.1458 173.756L64.9232 127.051C64.9527 126.896 65.0936 126.782 65.2513 126.795L67.9997 126.957C68.0902 126.963 68.1743 127.005 68.2289 127.077C68.2857 127.148 68.3067 127.241 68.2899 127.329L59.6387 173.872C59.6114 174.021 59.481 174.131 59.3275 174.131ZM56.8356 173.5H59.0646L67.6044 127.567L65.491 127.443L56.8356 173.5Z" fill="black"/>
<path d="M162.053 126.957L170.706 173.5H173.579L164.801 126.795L162.053 126.957Z" fill="#001A49"/>
<path d="M173.579 173.815H170.706C170.555 173.815 170.424 173.706 170.397 173.557L161.744 127.014C161.727 126.925 161.75 126.833 161.805 126.761C161.861 126.69 161.943 126.646 162.034 126.642L164.782 126.48C164.94 126.469 165.081 126.581 165.11 126.736L173.888 173.441C173.905 173.534 173.881 173.628 173.82 173.702C173.762 173.773 173.671 173.815 173.579 173.815ZM170.967 173.184H173.196L164.54 127.127L162.427 127.251L170.967 173.184Z" fill="black"/>
<path d="M169.827 124.219H60.1856C59.3907 124.219 58.7472 124.972 58.7472 125.901C58.7472 126.831 59.3907 127.585 60.1856 127.585H169.827C170.622 127.585 171.266 126.833 171.266 125.901C171.268 124.972 170.622 124.219 169.827 124.219Z" fill="#001A49"/>
<path d="M169.827 127.901H60.1854C59.2181 127.901 58.4316 127.005 58.4316 125.903C58.4316 124.802 59.2181 123.906 60.1854 123.906H169.827C170.794 123.906 171.581 124.802 171.581 125.903C171.583 127.003 170.794 127.901 169.827 127.901ZM60.1854 124.535C59.5651 124.535 59.0625 125.149 59.0625 125.901C59.0625 126.656 59.5672 127.268 60.1854 127.268H169.827C170.447 127.268 170.95 126.654 170.95 125.901C170.95 125.146 170.445 124.535 169.827 124.535H60.1854Z" fill="black"/>
<path d="M124.525 124.814H65.6234C65.4489 124.814 65.308 124.674 65.308 124.499C65.308 124.324 65.4489 124.184 65.6234 124.184H124.523C124.697 124.184 124.838 124.324 124.838 124.499C124.84 124.674 124.699 124.814 124.525 124.814Z" fill="black"/>
<path d="M124.268 149.153L120.18 173.691H117.937L122.184 149.069L124.268 149.153Z" fill="#001A49"/>
<path d="M120.18 174.006H117.937C117.844 174.006 117.756 173.964 117.695 173.895C117.636 173.823 117.609 173.728 117.625 173.638L121.873 149.013C121.901 148.858 122.037 148.742 122.197 148.753L124.281 148.839C124.371 148.843 124.456 148.885 124.512 148.954C124.569 149.024 124.594 149.116 124.58 149.205L120.492 173.743C120.466 173.895 120.334 174.006 120.18 174.006ZM118.311 173.375H119.913L123.898 149.453L122.447 149.394L118.311 173.375Z" fill="black"/>
<path d="M139.979 149.153L144.067 173.691H146.313L142.063 149.069L139.979 149.153Z" fill="#001A49"/>
<path d="M146.313 174.007H144.069C143.915 174.007 143.783 173.895 143.758 173.744L139.67 149.205C139.655 149.117 139.678 149.024 139.737 148.955C139.794 148.886 139.878 148.842 139.968 148.839L142.052 148.753C142.208 148.747 142.349 148.858 142.376 149.014L146.624 173.639C146.641 173.731 146.613 173.824 146.555 173.895C146.494 173.967 146.405 174.007 146.313 174.007ZM144.336 173.376H145.938L141.8 149.395L140.349 149.453L144.336 173.376Z" fill="black"/>
<path d="M120.09 149.308H144.159C144.95 149.308 145.591 148.667 145.591 147.876V147.373C145.591 146.583 144.95 145.941 144.159 145.941H120.09C119.299 145.941 118.658 146.583 118.658 147.373V147.876C118.658 148.667 119.299 149.308 120.09 149.308Z" fill="#001A49"/>
<path d="M144.159 149.624H120.09C119.127 149.624 118.342 148.839 118.342 147.876V147.373C118.342 146.41 119.127 145.626 120.09 145.626H144.159C145.122 145.626 145.907 146.41 145.907 147.373V147.876C145.907 148.839 145.122 149.624 144.159 149.624ZM120.09 146.257C119.474 146.257 118.973 146.757 118.973 147.373V147.876C118.973 148.492 119.474 148.993 120.09 148.993H144.159C144.776 148.993 145.276 148.492 145.276 147.876V147.373C145.276 146.757 144.776 146.257 144.159 146.257H120.09Z" fill="black"/>
<path d="M124.007 135.953L124.007 135.952L124.007 135.952L124.007 135.952L124.007 135.952L124.065 135.831L124.071 135.798C124.11 135.771 124.186 135.727 124.323 135.673C124.684 135.531 125.247 135.413 126.003 135.336C127.501 135.183 129.496 135.212 131.527 135.326C133.546 135.44 135.556 135.636 137.064 135.804C137.817 135.887 138.443 135.964 138.88 136.019C138.986 136.033 139.081 136.045 139.164 136.056C140.315 137.616 140.722 139.623 140.697 141.479C140.684 142.458 140.55 143.361 140.363 144.082C140.166 144.838 139.939 145.281 139.812 145.434L139.812 145.434C139.772 145.482 139.591 145.631 139.133 145.819C138.705 145.994 138.136 146.163 137.449 146.313C136.078 146.611 134.331 146.812 132.51 146.864C130.688 146.916 128.829 146.818 127.23 146.532C125.596 146.24 124.375 145.778 123.7 145.204L123.7 145.204C123.055 144.657 122.699 143.883 122.562 142.93C122.424 141.966 122.521 140.878 122.736 139.82C122.949 138.769 123.268 137.797 123.537 137.083C123.671 136.728 123.79 136.441 123.876 136.244C123.918 136.146 123.952 136.07 123.975 136.021C123.986 135.996 123.995 135.978 124 135.966L124.006 135.954L124.007 135.953ZM124.035 135.828C124.035 135.828 124.036 135.826 124.04 135.822C124.037 135.826 124.035 135.828 124.035 135.828Z" fill="white" stroke="black" stroke-width="2"/>
<path d="M137.481 166.498C137.765 166.501 138.045 166.52 138.287 166.542C138.343 166.72 138.406 166.895 138.466 167.056C138.648 167.535 138.882 168.069 139.108 168.558C139.168 168.688 139.229 168.816 139.288 168.94H138.54L140.174 170.634C140.185 170.645 140.198 170.66 140.214 170.676C140.255 170.719 140.308 170.775 140.353 170.819C140.512 170.979 140.729 171.222 140.903 171.487C141.091 171.772 141.158 171.975 141.164 172.076C141.164 172.082 141.164 172.086 141.164 172.09C141.154 172.101 141.132 172.121 141.09 172.147C140.895 172.27 140.411 172.442 139.381 172.48L139.381 172.48C137.616 172.544 136.976 172.065 136.713 171.713C136.4 171.294 136.339 170.706 136.354 170.056L136.356 170.004L136.352 169.952C136.314 169.481 136.356 168.565 136.419 167.699C136.449 167.281 136.483 166.896 136.508 166.616C136.509 166.602 136.511 166.589 136.512 166.576C136.516 166.575 136.519 166.574 136.523 166.574C136.759 166.517 137.096 166.493 137.481 166.498ZM141.172 172.08C141.172 172.08 141.171 172.081 141.17 172.083C141.171 172.081 141.172 172.08 141.172 172.08ZM136.344 166.634C136.344 166.634 136.346 166.632 136.352 166.629C136.347 166.632 136.344 166.634 136.344 166.634Z" fill="white" stroke="black" stroke-width="2"/>
<path d="M138.566 168.401C138.528 168.401 138.488 168.394 138.45 168.378C138.128 168.249 137.784 168.169 137.428 168.14C137.14 168.115 136.81 168.186 136.524 168.335C136.368 168.415 136.179 168.354 136.099 168.201C136.019 168.045 136.08 167.856 136.234 167.776C136.629 167.572 137.073 167.478 137.483 167.513C137.901 167.549 138.305 167.644 138.684 167.793C138.845 167.858 138.925 168.041 138.86 168.203C138.812 168.325 138.692 168.401 138.566 168.401Z" fill="black"/>
<path d="M139.533 165.303C139.269 165.26 138.975 165.219 138.659 165.187C137.797 165.097 136.711 165.062 135.641 165.253L134.6 150.268L138.975 150.433L139.533 165.303Z" fill="white" stroke="black" stroke-width="2"/>
<path d="M128.264 166.498C128.548 166.501 128.828 166.52 129.07 166.542C129.126 166.72 129.189 166.895 129.249 167.056C129.431 167.535 129.665 168.069 129.891 168.558C129.951 168.688 130.012 168.816 130.071 168.94H129.323L130.957 170.634C130.968 170.645 130.982 170.66 130.997 170.676C131.038 170.719 131.091 170.775 131.136 170.819C131.295 170.979 131.512 171.222 131.686 171.487C131.874 171.772 131.941 171.975 131.947 172.076C131.947 172.082 131.947 172.086 131.947 172.09C131.937 172.101 131.915 172.121 131.874 172.147C131.678 172.27 131.194 172.442 130.164 172.48L130.164 172.48C128.399 172.544 127.759 172.065 127.496 171.713C127.183 171.294 127.122 170.706 127.138 170.056L127.139 170.004L127.135 169.952C127.097 169.481 127.139 168.565 127.202 167.699C127.233 167.281 127.266 166.896 127.291 166.616C127.293 166.602 127.294 166.589 127.295 166.576C127.299 166.575 127.302 166.574 127.306 166.574C127.542 166.517 127.879 166.493 128.264 166.498ZM131.955 172.08C131.955 172.08 131.954 172.081 131.953 172.083C131.954 172.081 131.955 172.08 131.955 172.08ZM127.127 166.634C127.127 166.634 127.129 166.632 127.135 166.629C127.13 166.632 127.127 166.634 127.127 166.634Z" fill="white" stroke="black" stroke-width="2"/>
<path d="M127.221 168.339C127.103 168.339 126.99 168.274 126.937 168.161C126.861 168.003 126.929 167.816 127.086 167.74C127.463 167.559 127.881 167.477 128.266 167.511C128.596 167.538 128.918 167.603 129.225 167.704C129.391 167.759 129.481 167.936 129.427 168.102C129.372 168.268 129.195 168.358 129.029 168.304C128.769 168.219 128.495 168.163 128.213 168.14C127.942 168.116 127.637 168.177 127.36 168.31C127.311 168.329 127.265 168.339 127.221 168.339Z" fill="black"/>
<path d="M130.636 165.303C130.372 165.26 130.077 165.219 129.762 165.187C128.9 165.097 127.813 165.062 126.744 165.253L125.703 150.268L130.077 150.433L130.636 165.303Z" fill="white" stroke="black" stroke-width="2"/>
<path d="M140.5 113.397L148.92 117.493C149.185 117.622 149.503 117.512 149.631 117.25L154.093 108.125C154.569 107.152 155.435 106.422 156.478 106.132C157.622 105.812 159.102 105.585 160.139 106.104C162.063 107.065 157.494 108.67 156.852 109.551C156.211 110.432 155.57 119.731 152.684 121.655C149.799 123.579 140.341 121.174 140.341 121.174L140.5 113.397Z" fill="white"/>
<path d="M148.946 122.712C145.179 122.712 140.536 121.547 140.261 121.478C140.118 121.442 140.021 121.312 140.023 121.165L140.183 113.388C140.185 113.281 140.242 113.182 140.334 113.125C140.427 113.069 140.54 113.064 140.637 113.111L149.057 117.207C149.164 117.26 149.295 117.216 149.347 117.106L153.81 107.982C154.327 106.924 155.269 106.135 156.392 105.822C157.534 105.503 159.134 105.244 160.278 105.816C160.694 106.024 160.911 106.295 160.921 106.621C160.945 107.378 159.788 108.045 158.564 108.749C157.961 109.096 157.277 109.49 157.105 109.729C156.953 109.94 156.73 111.13 156.514 112.28C155.902 115.552 154.979 120.496 152.855 121.911C151.978 122.502 150.54 122.712 148.946 122.712ZM140.66 120.925C142.147 121.28 150.022 123.047 152.51 121.39C154.411 120.122 155.343 115.142 155.898 112.169C156.211 110.493 156.371 109.675 156.598 109.363C156.85 109.016 157.5 108.642 158.253 108.207C159.02 107.765 160.305 107.025 160.293 106.644C160.291 106.573 160.177 106.474 159.998 106.384C159.033 105.9 157.597 106.144 156.562 106.434C155.612 106.699 154.815 107.366 154.375 108.264L149.913 117.388C149.707 117.806 149.2 117.983 148.779 117.777L140.803 113.897L140.66 120.925Z" fill="black"/>
<path d="M123.185 113.637L116.854 118.127C116.854 118.127 118.778 110.752 118.778 108.988C118.778 107.223 116.99 103.783 115.615 104.088C113.556 104.546 115.371 106.719 115.523 108.798C115.596 109.81 109.479 121.251 113.809 124.78C118.139 128.309 125.192 117.807 125.192 117.807L123.185 113.637Z" fill="white"/>
<path d="M115.815 125.819C114.997 125.819 114.257 125.552 113.609 125.024C110.068 122.139 113.087 114.421 114.54 110.712C114.868 109.873 115.209 109.002 115.209 108.817C115.161 108.173 114.942 107.511 114.728 106.87C114.408 105.911 114.135 105.084 114.49 104.458C114.683 104.117 115.028 103.896 115.548 103.781C115.954 103.688 116.385 103.825 116.828 104.18C117.972 105.097 119.095 107.479 119.095 108.987C119.095 110.43 117.88 115.376 117.375 117.371L123.007 113.38C123.082 113.325 123.177 113.309 123.267 113.332C123.358 113.355 123.433 113.416 123.473 113.5L125.477 117.668C125.526 117.769 125.517 117.887 125.454 117.981C125.259 118.274 120.595 125.15 116.414 125.772C116.208 125.804 116.008 125.819 115.815 125.819ZM115.787 104.384C115.752 104.384 115.716 104.388 115.682 104.395C115.348 104.468 115.138 104.59 115.037 104.767C114.82 105.15 115.064 105.888 115.325 106.67C115.539 107.315 115.783 108.047 115.836 108.773C115.857 109.059 115.647 109.61 115.125 110.941C113.729 114.509 110.82 121.939 114.004 124.534C114.675 125.081 115.43 125.28 116.315 125.148C119.901 124.614 124.119 118.782 124.824 117.775L123.061 114.108L117.034 118.381C116.927 118.459 116.782 118.459 116.673 118.383C116.563 118.307 116.513 118.173 116.547 118.044C116.566 117.971 118.46 110.688 118.46 108.985C118.46 107.679 117.417 105.463 116.429 104.67C116.261 104.535 116.019 104.384 115.787 104.384Z" fill="black"/>
<path d="M135.851 111.952C135.851 111.952 140.099 111.872 143.386 114.116L141.699 119.337C141.169 120.982 140.822 122.679 140.667 124.399L139.697 135.117C139.697 135.117 133.925 138.886 123.103 135.519L122.677 125.33C122.588 123.209 122.21 121.108 121.551 119.089L120.218 114.999C120.218 114.999 122.944 112.513 125.909 112.274C128.878 112.032 135.851 111.952 135.851 111.952Z" fill="#001A49"/>
<path d="M131.704 137.246C129.315 137.246 126.413 136.88 123.013 135.822C122.885 135.782 122.796 135.666 122.792 135.534L122.365 125.346C122.277 123.253 121.905 121.182 121.255 119.188L119.922 115.098C119.884 114.981 119.918 114.85 120.01 114.768C120.126 114.663 122.851 112.207 125.888 111.961C128.823 111.723 135.742 111.641 135.849 111.639C136.049 111.637 140.244 111.589 143.566 113.858C143.682 113.937 143.733 114.083 143.688 114.215L142.002 119.437C141.478 121.056 141.136 122.736 140.984 124.429L140.015 135.147C140.006 135.244 139.954 135.33 139.874 135.383C139.706 135.492 136.932 137.246 131.704 137.246ZM123.413 135.284C132.953 138.186 138.507 135.431 139.401 134.93L140.355 124.374C140.513 122.633 140.864 120.906 141.403 119.243L143.016 114.249C139.876 112.217 135.899 112.27 135.859 112.27H135.857C135.788 112.27 128.861 112.352 125.94 112.59C123.501 112.787 121.192 114.596 120.588 115.102L121.856 118.995C122.523 121.041 122.908 123.169 122.996 125.32L123.413 135.284Z" fill="black"/>
<path d="M137.416 101.251C137.416 101.251 138.698 106.622 137.857 107.905C137.016 109.188 134.932 108.906 134.932 108.906H131.485V101.333L137.416 101.251Z" fill="white"/>
<path d="M135.42 109.25C135.163 109.25 134.976 109.231 134.911 109.223H131.483C131.309 109.223 131.168 109.082 131.168 108.907V101.333C131.168 101.16 131.307 101.02 131.479 101.017L137.411 100.938C137.414 100.938 137.414 100.938 137.416 100.938C137.561 100.938 137.689 101.038 137.723 101.179C137.857 101.743 139.012 106.723 138.12 108.079C137.453 109.095 136.152 109.25 135.42 109.25ZM131.799 108.592H134.93C134.945 108.592 134.957 108.592 134.972 108.594C134.991 108.596 136.871 108.83 137.592 107.732C138.128 106.914 137.634 103.623 137.165 101.57L131.799 101.642V108.592Z" fill="black"/>
<path d="M136.691 100.687L136.691 100.688C135.737 103.714 135.253 106.867 135.253 110.039V119.246C135.25 119.269 135.246 119.303 135.239 119.347C135.223 119.449 135.194 119.601 135.145 119.788C135.046 120.164 134.87 120.658 134.565 121.144C133.983 122.068 132.887 123.055 130.642 123.055C128.456 123.055 127.386 121.983 126.805 120.908C126.502 120.347 126.332 119.776 126.239 119.338C126.192 119.121 126.166 118.942 126.152 118.822C126.144 118.762 126.14 118.717 126.138 118.689L126.137 118.677V118.677V118.672V118.667V118.661V118.655V118.649V118.642V118.635V118.628V118.62V118.612V118.604V118.595V118.586V118.577V118.567V118.558V118.547V118.537V118.526V118.515V118.503V118.492V118.479V118.467V118.454V118.441V118.428V118.414V118.401V118.386V118.372V118.357V118.342V118.327V118.311V118.295V118.279V118.262V118.245V118.228V118.211V118.193V118.175V118.157V118.138V118.12V118.1V118.081V118.061V118.042V118.021V118.001V117.98V117.959V117.938V117.916V117.895V117.873V117.85V117.828V117.805V117.782V117.758V117.735V117.711V117.687V117.663V117.638V117.613V117.588V117.563V117.537V117.511V117.485V117.459V117.432V117.406V117.378V117.351V117.324V117.296V117.268V117.24V117.211V117.183V117.154V117.125V117.095V117.066V117.036V117.006V116.976V116.946V116.915V116.884V116.853V116.822V116.79V116.759V116.727V116.695V116.662V116.63V116.597V116.564V116.531V116.498V116.464V116.43V116.396V116.362V116.328V116.294V116.259V116.224V116.189V116.154V116.118V116.083V116.047V116.011V115.975V115.938V115.902V115.865V115.828V115.791V115.754V115.717V115.679V115.641V115.604V115.566V115.527V115.489V115.45V115.412V115.373V115.334V115.295V115.255V115.216V115.176V115.136V115.097V115.056V115.016V114.976V114.935V114.895V114.854V114.813V114.772V114.731V114.689V114.648V114.606V114.564V114.523V114.481V114.438V114.396V114.354V114.311V114.269V114.226V114.183V114.14V114.097V114.053V114.01V113.967V113.923V113.879V113.835V113.792V113.748V113.703V113.659V113.615V113.57V113.526V113.481V113.436V113.391V113.347V113.301V113.256V113.211V113.166V113.12V113.075V113.029V112.984V112.938V112.892V112.846V112.8V112.754V112.708V112.662V112.615V112.569V112.522V112.476V112.429V112.383V112.336V112.289V112.242V112.195V112.148V112.101V112.054V112.007V111.96V111.912V111.865V111.817V111.77V111.722V111.675V111.627V111.58V111.532V111.484V111.436V111.389V111.341V111.293V111.245V111.197V111.149V111.101V111.053V111.005V110.956V110.908V110.86V110.812V110.763V110.715V110.667V110.619V110.57V110.522V110.473V110.425V110.377V110.328V110.28V110.231V110.183V110.134V110.086V110.037V109.989V109.94V109.892V109.843V109.795V109.746V109.698V109.649V109.601V109.552V109.504V109.456V109.407V109.359V109.31V109.262V109.213V109.165V109.117V109.068V109.02V108.972V108.924V108.875V108.827V108.779V108.731V108.683V108.635V108.586V108.538V108.49V108.443V108.395V108.347V108.299V108.251V108.203V108.156V108.108V108.06V108.013V107.965V107.918V107.87V107.823V107.776V107.729V107.681V107.634V107.587V107.54V107.493V107.446V107.4V107.353V107.306V107.26V107.213V107.167V107.12V107.074V107.028V106.982V106.935V106.889V106.844V106.798V106.752V106.706V106.661V106.615V106.57V106.524V106.479V106.434V106.389V106.344V106.299V106.255V106.21V106.165V106.121V106.077V106.032V105.988V105.944V105.9V105.856V105.813V105.769V105.726V105.682V105.639V105.596V105.553V105.51V105.467V105.425V105.382V105.34V105.298V105.255V105.213V105.172V105.13V105.088V105.047V105.005V104.964V104.923V104.882V104.841V104.801V104.76V104.72V104.68V104.64V104.6V104.56V104.52V104.481V104.442V104.403V104.364V104.325V104.286V104.248V104.209V104.171V104.133V104.095V104.057V104.02V103.983V103.945V103.908V103.871V103.835V103.798V103.762V103.726V103.69V103.654V103.619V103.583V103.548V103.513V103.478V103.443V103.409V103.375V103.341V103.307V103.273V103.239V103.206V103.173V103.14V103.107V103.075V103.043V103.011V102.979V102.947V102.916V102.884V102.853V102.822V102.792V102.761V102.731V102.701V102.672V102.642V102.613V102.584V102.555V102.526V102.498V102.47V102.442V102.414V102.387V102.359V102.332V102.306V102.279V102.253V102.227V102.201V102.175V102.15V102.125V102.1V102.076V102.051V102.027V102.003V101.98V101.957V101.933V101.911V101.888V101.866V101.844V101.822V101.801V101.779V101.758V101.738V101.717V101.697V101.677V101.658V101.638V101.619V101.601V101.582V101.564V101.546V101.528V101.511V101.494V101.477V101.461V101.444V101.428V101.413V101.397V101.382V101.368V101.353V101.339V101.325V101.311V101.298V101.285V101.273V101.26V101.248V101.236C126.137 99.7874 127.685 96.7989 131.848 96.8928C133.943 96.94 135.044 97.7085 135.69 98.4885C136.237 99.15 136.484 99.82 136.695 100.395C136.711 100.438 136.727 100.481 136.743 100.524L136.691 100.687Z" fill="url(#paint1_linear_69_5084)" stroke="black" stroke-width="2"/>
<path d="M171.245 99.2935C171.23 99.2935 171.215 99.2935 171.2 99.2914C171.028 99.2682 170.908 99.1084 170.931 98.936C173.915 77.4215 168.509 56.2918 156.1 40.964C155.99 40.8294 156.011 40.6296 156.146 40.5203C156.281 40.4109 156.48 40.432 156.59 40.5665C162.934 48.4018 167.449 57.5472 170.014 67.7462C172.529 77.7495 173.047 88.2723 171.556 99.0222C171.535 99.1799 171.4 99.2935 171.245 99.2935Z" fill="#001A49"/>
<path d="M167.461 91.6583C167.455 91.6583 167.447 91.6583 167.44 91.6583C167.266 91.6478 167.135 91.4964 167.146 91.324C167.947 79.1147 165.849 67.1599 161.081 56.7528C161.008 56.595 161.079 56.4079 161.237 56.3343C161.395 56.2628 161.582 56.3322 161.655 56.4899C166.467 66.9916 168.582 79.0516 167.775 91.3639C167.766 91.5301 167.628 91.6583 167.461 91.6583Z" fill="#001A49"/>
<path d="M166.513 96.9023C165.659 96.9023 164.913 96.2735 164.791 95.405C164.726 94.9445 164.843 94.4861 165.123 94.1139C165.403 93.7417 165.811 93.5019 166.271 93.4368C167.224 93.3022 168.105 93.9667 168.24 94.9172C168.374 95.8677 167.71 96.7509 166.759 96.8855C166.675 96.896 166.593 96.9023 166.513 96.9023ZM166.515 94.0508C166.463 94.0508 166.412 94.055 166.36 94.0613C166.065 94.1034 165.807 94.2569 165.628 94.4924C165.449 94.73 165.373 95.0223 165.415 95.3146C165.502 95.9202 166.063 96.3429 166.671 96.2588C167.276 96.1726 167.701 95.6111 167.615 95.0034C167.535 94.4524 167.06 94.0508 166.515 94.0508Z" fill="#001A49"/>
<path d="M165.504 101.224C165.437 101.224 165.371 101.203 165.317 101.163C165.23 101.1 165.182 100.997 165.188 100.89L165.373 98.0531C165.382 97.9374 165.453 97.8344 165.559 97.786C165.666 97.7376 165.79 97.7523 165.882 97.8238L168.16 99.5966C168.246 99.6639 168.292 99.7711 168.28 99.8784C168.269 99.9877 168.202 100.082 168.103 100.129C166.894 100.713 165.628 101.197 165.615 101.201C165.58 101.218 165.542 101.224 165.504 101.224ZM165.966 98.6881L165.853 100.434C166.225 100.282 166.784 100.051 167.369 99.7816L165.966 98.6881Z" fill="#001A49"/>
<path d="M93.6905 5.50091C93.6695 5.50091 93.6484 5.49881 93.6274 5.4946C92.3972 5.24647 91.146 5.01935 89.9095 4.82379C89.735 4.79645 89.6172 4.63242 89.6446 4.45789C89.6719 4.28335 89.8359 4.16349 90.0105 4.19293C91.2554 4.3906 92.515 4.61771 93.7536 4.86795C93.926 4.9037 94.0375 5.07193 94.0038 5.24436C93.9702 5.39787 93.8377 5.50091 93.6905 5.50091Z" fill="#001A49"/>
<path d="M40.9484 12.0707C40.8349 12.0707 40.7234 12.0097 40.6687 11.9003C40.5888 11.7447 40.6498 11.5555 40.8033 11.4756C48.0267 7.73246 55.9524 5.20901 64.3618 3.97462C72.7165 2.74865 81.3446 2.82435 90.0084 4.19963C90.1809 4.22697 90.2986 4.38889 90.2713 4.56132C90.244 4.73376 90.0841 4.84942 89.9096 4.82418C72.685 2.09045 55.3489 4.65175 41.0935 12.0391C41.0472 12.0602 40.9968 12.0707 40.9484 12.0707Z" fill="#001A49"/>
<path d="M48.6386 14.4617C48.5166 14.4617 48.401 14.3902 48.3484 14.2724C48.279 14.1126 48.3526 13.9275 48.5124 13.8581C59.4116 9.10986 71.8627 7.19204 84.5199 8.31918C84.6945 8.3339 84.8206 8.48741 84.8059 8.66195C84.7912 8.83649 84.6356 8.96266 84.4631 8.94794C71.9111 7.83341 59.5651 9.7302 48.7648 14.4385C48.7248 14.4533 48.6807 14.4617 48.6386 14.4617Z" fill="#001A49"/>
<path d="M89.6468 11.1667C89.2893 11.1667 88.9402 11.0573 88.6437 10.845C88.2652 10.5758 88.0128 10.1762 87.935 9.71782C87.8572 9.25939 87.9624 8.79886 88.2315 8.41824C88.5007 8.03972 88.9024 7.78738 89.3608 7.70957C89.8192 7.63177 90.2797 7.73691 90.6604 8.00608C91.0389 8.27525 91.2912 8.67479 91.369 9.13322C91.4468 9.59165 91.3417 10.0543 91.0725 10.4328C90.8034 10.8113 90.4017 11.0637 89.9433 11.1415C89.8445 11.1583 89.7456 11.1667 89.6468 11.1667ZM89.6531 8.3152C89.59 8.3152 89.5269 8.32151 89.4638 8.33202C89.1715 8.38249 88.9171 8.54231 88.7446 8.78414C88.5722 9.02597 88.507 9.32037 88.5554 9.61267C88.6059 9.90497 88.7657 10.1615 89.0075 10.3319C89.2493 10.5022 89.5437 10.5716 89.836 10.5211C90.1283 10.4706 90.3828 10.3108 90.5552 10.069C90.7277 9.82717 90.7929 9.53276 90.7445 9.24046C90.694 8.94816 90.5342 8.69161 90.2924 8.52128C90.1031 8.3846 89.8802 8.3152 89.6531 8.3152Z" fill="#001A49"/>
<path d="M44.1762 17.5528C44.1005 17.5528 44.0248 17.5255 43.966 17.4729C43.8839 17.4014 43.8461 17.29 43.865 17.1827C44.0942 15.86 44.4391 14.5478 44.4412 14.5352C44.4685 14.4322 44.5464 14.348 44.6494 14.3165C44.7524 14.2829 44.8639 14.3039 44.9459 14.3733L47.1434 16.1754C47.2338 16.249 47.2759 16.3668 47.2528 16.4825C47.2296 16.596 47.1455 16.6885 47.0341 16.7222L44.2667 17.5402C44.2372 17.5486 44.2057 17.5528 44.1762 17.5528ZM44.9333 15.1766C44.8386 15.5677 44.702 16.1565 44.58 16.7895L46.2854 16.2848L44.9333 15.1766Z" fill="#001A49"/>
<path d="M29.8368 18.6503C29.8263 18.3475 29.8641 18.0763 29.9398 17.7945C30.0156 17.5169 30.1333 17.2414 30.3184 17.0017C30.4109 16.8818 30.5139 16.7704 30.6317 16.6715C30.6948 16.6253 30.7431 16.5769 30.8231 16.5306L30.9429 16.4655L31.0607 16.4213C31.374 16.3162 31.6516 16.314 31.9208 16.3014C32.1878 16.293 32.4423 16.2888 32.6841 16.2657C32.9238 16.2425 33.153 16.1963 33.3318 16.1038C33.6598 15.965 33.8596 15.4876 34.0678 15.0145C34.1729 14.7747 34.2823 14.5245 34.4295 14.2764C34.5767 14.0324 34.7723 13.7717 35.073 13.6013C35.2475 13.5109 35.4368 13.4752 35.5945 13.4773C35.7564 13.4773 35.9015 13.4962 36.0403 13.5214C36.3179 13.574 36.5702 13.6476 36.8183 13.7065C37.0602 13.7633 37.3083 13.8158 37.4976 13.7969C37.5943 13.7906 37.6469 13.7633 37.7268 13.7149C37.8004 13.6665 37.8677 13.5866 37.9329 13.5004C38.059 13.3175 38.1621 13.0924 38.263 12.8527C38.3135 12.735 38.364 12.6109 38.4249 12.4826C38.488 12.3564 38.549 12.224 38.6878 12.0831C38.7803 11.9905 38.9296 11.9905 39.0222 12.0831C39.1126 12.1735 39.1147 12.3207 39.0243 12.4153L39.0159 12.4258C38.9717 12.4721 38.9149 12.5793 38.8686 12.6887C38.8203 12.8001 38.7761 12.92 38.7299 13.042C38.6373 13.288 38.5364 13.5467 38.3745 13.8011C38.2883 13.9273 38.1915 14.0535 38.0527 14.1586C37.9203 14.2595 37.7268 14.3437 37.5607 14.3563C37.2263 14.392 36.955 14.3247 36.6901 14.2722C36.4272 14.2154 36.177 14.1502 35.9393 14.1102C35.7017 14.0661 35.4767 14.0745 35.3716 14.1334C35.216 14.2238 35.0772 14.3899 34.9594 14.5918C34.8416 14.7937 34.7407 15.025 34.6398 15.2626C34.5367 15.5023 34.4337 15.7526 34.2886 16.0049C34.2129 16.1311 34.1309 16.2594 34.0152 16.3771L33.929 16.4655L33.8239 16.5454C33.7524 16.6042 33.6809 16.6316 33.6094 16.6715C33.3192 16.8103 33.0227 16.8587 32.7451 16.8839C32.4654 16.9092 32.1983 16.9071 31.9418 16.9134C31.6894 16.9218 31.435 16.9281 31.2499 16.9849L31.1826 17.0059L31.1301 17.0332C31.0943 17.0501 31.046 17.0921 31.0018 17.1215C30.9156 17.1888 30.8399 17.2645 30.7684 17.3508C30.4908 17.6893 30.3415 18.1835 30.3142 18.6398L30.3121 18.6587C30.3036 18.7891 30.1922 18.888 30.0618 18.8817C29.9378 18.869 29.841 18.7702 29.8368 18.6503Z" fill="#001A49"/>
<path d="M39.306 153.822L38.9106 158.013C38.898 158.131 38.9758 158.24 39.081 158.247L41.1628 158.375C41.2532 158.381 41.3289 158.308 41.3416 158.207L41.7285 154.398L39.306 153.822Z" fill="white"/>
<path d="M41.1734 158.691C41.1629 158.691 41.1524 158.691 41.144 158.691L39.0621 158.562C38.9296 158.554 38.8077 158.493 38.7193 158.388C38.6247 158.276 38.5806 158.127 38.5974 157.98L38.9927 153.795C39.0011 153.705 39.0495 153.621 39.1231 153.568C39.1967 153.516 39.2913 153.497 39.3796 153.518L41.8022 154.094C41.9557 154.13 42.0587 154.275 42.044 154.432L41.6571 158.241C41.6234 158.504 41.4173 158.691 41.1734 158.691ZM39.2346 157.94L41.0409 158.051L41.3879 154.641L39.5857 154.214L39.2346 157.94Z" fill="black"/>
<path d="M38.5826 156.928C38.4438 157.423 38.1536 158.819 38.0316 159.658C37.9559 160.184 38.2881 160.682 38.797 160.821C40.2375 161.21 43.6799 161.193 46.5461 161.319C46.7417 161.328 47.1034 161.233 47.2653 160.756C47.81 159.143 44.7986 158.642 41.821 157.004C41.7621 156.973 41.6906 156.975 41.6359 157.015C41.6023 157.04 41.5581 157.069 41.5077 157.101C40.9903 157.431 40.1282 157.431 39.6024 157.116L39.0094 156.758C38.8454 156.659 38.633 156.743 38.5826 156.928Z" fill="white"/>
<path d="M46.5692 161.635C46.5566 161.635 46.544 161.635 46.5292 161.635C45.7974 161.603 45.0173 161.58 44.2602 161.557C41.9765 161.49 39.819 161.424 38.7108 161.126C38.0441 160.945 37.6152 160.295 37.7161 159.614C37.8381 158.771 38.1304 157.364 38.2755 156.844C38.3259 156.661 38.4584 156.514 38.6351 156.445C38.8117 156.375 39.0052 156.39 39.1671 156.489L39.7622 156.846C40.1891 157.103 40.923 157.099 41.3351 156.836C41.3814 156.806 41.4193 156.781 41.4508 156.758C41.6022 156.651 41.8062 156.638 41.9702 156.729C42.8597 157.219 43.764 157.61 44.5609 157.955C46.5019 158.796 48.0328 159.458 47.5596 160.857C47.3683 161.435 46.9162 161.635 46.5692 161.635ZM38.8769 157.046C38.736 157.57 38.4563 158.92 38.3428 159.702C38.2902 160.068 38.5194 160.417 38.879 160.516C39.9136 160.796 42.1342 160.863 44.2813 160.926C45.0383 160.949 45.8227 160.972 46.5587 161.004C46.626 161.008 46.851 160.991 46.9645 160.655C47.2379 159.845 46.1886 159.347 44.3128 158.533C43.5242 158.192 42.6347 157.805 41.7431 157.322C41.7221 157.336 41.6989 157.351 41.6758 157.366C41.0576 157.759 40.0755 157.767 39.4384 157.385L38.8769 157.046Z" fill="black"/>
<path d="M37.9454 160.038C37.9433 160.053 37.9412 160.064 37.9391 160.068C37.8634 160.593 38.3617 160.917 38.8412 161.142C40.2606 161.809 45.9889 161.426 46.2118 161.412C46.216 161.412 46.2202 161.412 46.2244 161.412C46.2959 161.414 47.0235 161.414 47.2317 160.959C47.2569 160.903 47.2737 160.825 47.2842 160.751C47.3011 160.629 47.2926 160.507 47.2653 160.387C47.2443 160.291 47.1475 160.23 47.0529 160.255C45.9889 160.526 43.5054 160.617 41.024 160.343C39.3753 160.162 38.6582 159.803 38.2755 159.574C38.1704 159.511 38.0379 159.571 38.0148 159.691C37.9937 159.79 37.9685 159.912 37.9454 160.038Z" fill="white"/>
<path d="M42.6307 161.849C41.0577 161.849 39.4154 161.759 38.7067 161.427C38.4102 161.288 37.5039 160.863 37.6258 160.022C37.6258 160.018 37.63 160.001 37.6343 159.98V159.978L37.7015 159.631C37.7331 159.473 37.8382 159.341 37.9854 159.275C38.1305 159.21 38.2988 159.221 38.4354 159.303C38.8203 159.534 39.5121 159.86 41.0556 160.03C43.598 160.31 46.0016 160.196 46.971 159.95C47.0993 159.917 47.2339 159.938 47.3474 160.007C47.461 160.077 47.5409 160.19 47.5703 160.32C47.6061 160.482 47.6145 160.64 47.5935 160.794C47.5766 160.918 47.5514 161.014 47.5157 161.094C47.2297 161.71 46.3822 161.727 46.2161 161.727C45.907 161.748 44.3067 161.849 42.6307 161.849ZM38.2546 160.098L38.2504 160.117C38.2252 160.289 38.284 160.533 38.9738 160.857C40.0484 161.361 44.1616 161.233 46.1887 161.096C46.2014 161.096 46.2245 161.096 46.2371 161.096C46.4705 161.096 46.8512 161.025 46.9437 160.827C46.9437 160.827 46.9584 160.796 46.9689 160.71C46.9731 160.674 46.9752 160.636 46.9731 160.596C45.8502 160.838 43.5076 160.935 40.9862 160.657C39.5205 160.495 38.7446 160.19 38.2819 159.942L38.2546 160.098Z" fill="black"/>
<path d="M42.0249 158.623C41.9303 158.623 41.8357 158.581 41.7747 158.499C41.6695 158.361 41.6969 158.163 41.8336 158.058L42.7021 157.395C42.8408 157.29 43.0385 157.315 43.1437 157.454C43.2488 157.593 43.2215 157.791 43.0848 157.896L42.2163 158.558C42.1574 158.602 42.0901 158.623 42.0249 158.623Z" fill="black"/>
<path d="M43.1793 159.096C43.0826 159.096 42.988 159.052 42.927 158.97C42.8218 158.831 42.8513 158.634 42.9901 158.529L43.7513 157.959C43.8901 157.854 44.0878 157.883 44.1929 158.022C44.298 158.161 44.2686 158.358 44.1298 158.463L43.3686 159.033C43.3118 159.075 43.2445 159.096 43.1793 159.096Z" fill="black"/>
<path d="M26.3855 150.396L26.3861 150.396L26.3855 150.396ZM26.3855 150.396L26.3854 150.396" fill="white" stroke="black" stroke-width="2"/>
<path d="M36.2958 117.715C36.2984 117.688 36.3009 117.661 36.3034 117.635L44.0599 118.206C45.6634 123.911 45.2928 132.139 44.3763 139.467C43.4986 146.484 42.1447 152.504 41.701 154.335C41.0472 154.397 40.2079 154.334 39.5374 154.255C39.8178 151.46 39.6844 146.013 39.288 140.72C39.0782 137.919 38.7924 135.129 38.4471 132.75C38.106 130.4 37.6954 128.365 37.2112 127.129L37.2112 127.129C36.3689 124.981 36.1554 122.398 36.1683 120.295C36.1746 119.255 36.2361 118.354 36.2958 117.715ZM41.6138 154.689C41.6142 154.687 41.6147 154.685 41.6152 154.683L41.6138 154.689Z" fill="white" stroke="black" stroke-width="2"/>
<path d="M37.4122 131.232C37.2461 131.232 37.1073 131.104 37.0968 130.936C37.0947 130.915 36.9517 128.715 35.9066 126.267C35.5722 125.483 35.3304 124.551 35.1874 123.498C35.1643 123.325 35.2862 123.166 35.4587 123.142C35.6311 123.117 35.7909 123.241 35.814 123.414C35.9486 124.41 36.1736 125.285 36.487 126.019C37.5784 128.572 37.7214 130.803 37.7277 130.898C37.7382 131.072 37.6057 131.222 37.4312 131.232C37.4248 131.232 37.4185 131.232 37.4122 131.232Z" fill="black"/>
<path d="M39.7877 126.523C39.3987 126.523 39.0118 126.403 38.6879 126.167L37.5713 125.36C37.1486 125.055 36.89 124.58 36.8626 124.06L36.6713 120.509C36.6586 120.292 36.7449 120.084 36.9047 119.937C37.0645 119.789 37.2811 119.724 37.4956 119.756C38.4503 119.895 40.3555 120.094 42.3806 119.88C42.5803 119.857 42.7822 119.922 42.9315 120.054C43.0829 120.185 43.1733 120.376 43.1796 120.576L43.2869 123.968C43.31 124.668 42.9105 125.305 42.2712 125.591L40.5469 126.363C40.3092 126.47 40.0485 126.523 39.7877 126.523ZM37.3925 120.38C37.3631 120.38 37.3421 120.395 37.3316 120.406C37.3189 120.416 37.3 120.441 37.3021 120.477L37.4935 124.029C37.5103 124.359 37.6743 124.658 37.9414 124.851L39.058 125.659C39.4176 125.919 39.8908 125.968 40.2966 125.787L42.021 125.015C42.4247 124.834 42.6771 124.431 42.6644 123.989L42.5572 120.597C42.5551 120.563 42.5404 120.544 42.5257 120.532C42.5151 120.521 42.4899 120.507 42.4542 120.509C40.3576 120.732 38.3956 120.525 37.4115 120.382C37.4031 120.38 37.3989 120.38 37.3925 120.38Z" fill="black"/>
<path d="M31.4667 125.722C31.3174 125.722 31.1702 125.676 31.0419 125.587L30.5982 125.289C30.4531 125.192 30.4152 124.994 30.5141 124.851C30.6108 124.706 30.8085 124.668 30.9515 124.767L31.3994 125.07C31.4351 125.095 31.4772 125.1 31.5108 125.081L33.4076 124.115C33.4392 124.099 33.4602 124.069 33.4623 124.036L33.8913 120.084C33.8976 120.03 33.8597 119.981 33.8051 119.973L32.0113 119.689C31.8389 119.662 31.7211 119.5 31.7484 119.329C31.7758 119.157 31.9377 119.039 32.1101 119.066L33.9039 119.35C34.2908 119.409 34.5621 119.762 34.52 120.154L34.091 124.105C34.0637 124.353 33.9165 124.568 33.6936 124.679L31.7968 125.644C31.6938 125.697 31.5802 125.722 31.4667 125.722Z" fill="black"/>
<path d="M25.223 153.928C25.4753 152.662 25.5868 152.404 26.1924 151.428C26.6445 150.702 25.5468 149.611 24.9895 149.527C24.058 149.335 24.2073 149.63 23.1411 150.995L22.3063 152.021C22.3063 152.021 25.0022 155.034 25.223 153.928Z" fill="white"/>
<path d="M24.9791 154.485C24.2073 154.485 22.8447 153.097 22.0708 152.233C21.9678 152.117 21.9636 151.943 22.0624 151.823L22.8552 150.858C23.1622 150.465 23.3536 150.147 23.4797 149.935C23.5702 149.785 23.7636 149.737 23.9129 149.827C24.0622 149.918 24.1106 150.111 24.0223 150.261C23.852 150.547 23.6585 150.858 23.3494 151.253L22.7248 152.014C23.627 152.99 24.588 153.8 24.9181 153.856C25.1431 152.729 25.2314 152.366 25.7172 151.556C25.8076 151.407 26.0011 151.358 26.1504 151.447C26.2997 151.537 26.3481 151.73 26.2597 151.88C25.8245 152.607 25.7551 152.895 25.5364 153.993C25.4691 154.33 25.2504 154.437 25.1263 154.47C25.0779 154.479 25.0296 154.485 24.9791 154.485Z" fill="black"/>
<path d="M25.3702 153.453L24.2914 151.825C23.7888 151.066 22.7184 150.953 22.0666 151.59L20.8322 152.627C20.8322 152.627 20.5967 153.339 20.6703 153.798C20.767 154.397 20.9604 155.249 21.3327 156.094C21.9067 157.394 23.4923 160.008 24.0559 160.927C24.1736 161.118 24.4701 161.309 24.6762 161.217C24.9202 161.107 25.1746 160.91 25.4206 160.681C25.7992 160.325 25.673 158.662 25.5363 157.505C25.4501 156.763 25.5132 154.868 25.5468 154.088C25.5552 153.863 25.4942 153.642 25.3702 153.453Z" fill="white"/>
<path d="M24.5627 161.557C24.243 161.557 23.9297 161.319 23.7888 161.092C23.1537 160.062 21.6186 157.521 21.0446 156.222C20.6534 155.334 20.4558 154.443 20.359 153.85C20.2749 153.328 20.5041 152.609 20.5315 152.527L20.5588 152.443L21.8521 151.358C22.2285 150.994 22.7437 150.815 23.2652 150.872C23.7909 150.927 24.2599 151.213 24.5522 151.652L25.6309 153.28C25.7929 153.524 25.8728 153.81 25.8601 154.102C25.8286 154.874 25.7634 156.75 25.8496 157.469C26.1524 160.058 25.8959 160.669 25.6351 160.911C25.3302 161.197 25.0568 161.393 24.8045 161.506C24.7267 161.542 24.6447 161.557 24.5627 161.557ZM21.1055 152.809C21.0404 153.034 20.9373 153.476 20.9815 153.749C21.0719 154.306 21.257 155.143 21.6207 155.97C22.1927 157.269 23.8351 159.967 24.325 160.764C24.3797 160.855 24.5101 160.926 24.5606 160.928C24.733 160.848 24.9559 160.688 25.2061 160.453C25.2188 160.44 25.5258 160.114 25.2251 157.545C25.1347 156.779 25.1998 154.866 25.2335 154.077C25.2398 153.917 25.1977 153.764 25.1073 153.629L24.0285 152.001C23.8414 151.718 23.5386 151.535 23.2021 151.499C22.8635 151.463 22.5313 151.579 22.2874 151.816L22.2684 151.833L21.1055 152.809Z" fill="black"/>
<path d="M25.4985 155.626C25.4711 155.626 25.4417 155.621 25.4143 155.615L24.2536 155.295C24.0853 155.249 23.9865 155.077 24.0328 154.908C24.079 154.74 24.2536 154.641 24.4197 154.688L25.5805 155.007C25.7487 155.054 25.8475 155.226 25.8013 155.394C25.7634 155.533 25.6372 155.626 25.4985 155.626Z" fill="black"/>
<path d="M25.4123 156.662C25.3849 156.662 25.3555 156.657 25.3282 156.651L24.1674 156.332C23.9991 156.285 23.9003 156.113 23.9466 155.945C23.9928 155.776 24.1674 155.678 24.3335 155.724L25.4943 156.043C25.6625 156.09 25.7614 156.262 25.7151 156.43C25.6772 156.569 25.5511 156.662 25.4123 156.662Z" fill="black"/>
<path d="M24.2285 161.302C24.3463 161.302 24.4598 161.283 24.5608 161.248C24.9077 161.128 25.7741 160.869 25.6774 159.626C25.5765 158.337 24.5965 157.681 23.8815 156.836C23.3348 156.19 23.3895 153.492 23.2191 152.964C22.9121 152.018 21.5284 151.875 20.8324 152.626C20.3929 153.099 20.3403 154.129 20.3845 154.884C20.4644 156.302 21.2971 159.122 22.3506 160.484C22.8637 161.151 23.6565 161.302 24.2285 161.302Z" fill="white"/>
<path d="M24.2284 161.618C23.7048 161.618 22.7333 161.496 22.1003 160.678C20.9774 159.225 20.1468 156.288 20.069 154.904C20.0227 154.08 20.0774 152.978 20.601 152.412C21.0342 151.943 21.7302 151.733 22.3737 151.876C22.9373 152 23.3536 152.362 23.5177 152.868C23.585 153.074 23.6144 153.44 23.6607 154.069C23.7216 154.898 23.8268 156.288 24.1212 156.635C24.2789 156.822 24.4492 156.998 24.6301 157.183C25.2567 157.831 25.9044 158.5 25.9906 159.604C26.1042 161.055 25.0401 161.419 24.6911 161.536L24.6616 161.547C24.527 161.595 24.3798 161.618 24.2284 161.618ZM21.9657 152.462C21.623 152.462 21.2886 152.599 21.0636 152.841C20.7797 153.146 20.6451 153.903 20.6998 154.868C20.7818 156.317 21.6482 159.061 22.6008 160.294C23.0676 160.899 23.8226 160.988 24.2284 160.988C24.3104 160.988 24.3883 160.975 24.4576 160.95L24.4892 160.939C24.8446 160.817 25.4376 160.615 25.3619 159.652C25.2946 158.775 24.7521 158.216 24.178 157.623C23.9971 157.438 23.8121 157.244 23.6396 157.043C23.2443 156.576 23.1349 155.489 23.0319 154.117C22.9983 153.672 22.9646 153.209 22.9162 153.066C22.8216 152.776 22.5735 152.568 22.2349 152.494C22.1487 152.473 22.0583 152.462 21.9657 152.462Z" fill="black"/>
<path d="M24.2284 161.618C24.0791 161.618 23.9319 161.61 23.7889 161.591C23.6165 161.568 23.4945 161.41 23.5155 161.238C23.5387 161.065 23.6964 160.943 23.8688 160.966C23.9845 160.981 24.1065 160.99 24.2284 160.99C24.4156 160.99 24.5796 160.924 24.6784 160.809C24.7583 160.718 24.7899 160.603 24.771 160.47C24.6069 159.286 23.995 158.7 23.219 157.955C22.5566 157.32 22.3737 155.634 22.2538 154.105C22.237 153.88 22.216 153.623 22.2034 153.564C22.1508 153.369 21.808 153.11 21.4463 153.07C21.1414 153.037 20.9143 153.159 20.7692 153.434C20.6872 153.588 20.4979 153.646 20.3423 153.566C20.1888 153.484 20.1299 153.295 20.2098 153.14C20.4769 152.635 20.95 152.38 21.5136 152.444C22.1108 152.509 22.6807 152.929 22.809 153.4C22.8363 153.499 22.851 153.674 22.8805 154.056C22.9478 154.931 23.1076 156.979 23.6522 157.501C24.4471 158.264 25.1978 158.983 25.3913 160.384C25.4355 160.697 25.3493 160.996 25.1495 161.223C24.935 161.475 24.5964 161.618 24.2284 161.618Z" fill="black"/>
<path d="M26.0327 118.461C26.0327 118.461 24.5376 118.072 24.1507 118.407C24.0497 118.493 24.3757 120.44 24.2684 120.539C23.7595 121.006 22.9625 121.609 22.7943 122.047C22.5314 122.724 22.8448 124.684 23.0046 125.563C23.0866 126.017 23.7175 126.093 23.892 125.666C23.9404 125.548 23.9635 125.394 23.9509 125.191C23.9025 124.48 23.9698 123.967 24.0182 123.712C24.0392 123.601 24.1002 123.5 24.1927 123.433C24.6217 123.115 25.9423 122.082 26.1379 121.315C26.1631 121.216 26.1042 120.981 26.0475 120.793C25.9928 120.613 25.9675 120.423 25.9739 120.234L26.0327 118.461Z" fill="white"/>
<path d="M23.4757 126.263C23.4463 126.263 23.4189 126.261 23.3895 126.259C23.0362 126.223 22.7586 125.964 22.6955 125.62C22.4579 124.322 22.2329 122.627 22.5 121.933C22.6577 121.523 23.1771 121.075 23.6776 120.64C23.7806 120.55 23.8816 120.463 23.9762 120.379C23.9741 120.196 23.9278 119.769 23.8963 119.475C23.789 118.485 23.7764 118.314 23.9446 118.169C24.4073 117.77 25.6143 118.028 26.1127 118.156C26.2557 118.194 26.3545 118.325 26.3482 118.472L26.2893 120.245C26.2851 120.398 26.3041 120.554 26.3503 120.703C26.4786 121.13 26.4702 121.29 26.445 121.393C26.2389 122.211 25.0634 123.182 24.382 123.687C24.3547 123.708 24.3358 123.737 24.3295 123.773C24.2874 124.002 24.2201 124.49 24.2664 125.172C24.2832 125.409 24.2559 125.615 24.1865 125.786C24.0624 126.082 23.789 126.263 23.4757 126.263ZM24.4472 118.606C24.4556 118.798 24.4935 119.153 24.5208 119.406C24.6344 120.461 24.6407 120.623 24.4788 120.77C24.3589 120.88 24.2264 120.995 24.0876 121.115C23.686 121.462 23.1876 121.895 23.0846 122.158C22.9247 122.575 23.011 123.855 23.3117 125.504C23.3306 125.607 23.4147 125.626 23.4505 125.63C23.4904 125.634 23.5619 125.628 23.5956 125.546C23.6271 125.466 23.6397 125.35 23.6313 125.212C23.5808 124.461 23.6544 123.914 23.7028 123.653C23.7386 123.462 23.8437 123.294 23.9993 123.178C24.75 122.621 25.6732 121.784 25.8225 121.25C25.8225 121.225 25.812 121.126 25.7405 120.882C25.6753 120.667 25.6459 120.444 25.6543 120.221L25.7047 118.705C25.1853 118.596 24.6701 118.554 24.4472 118.606Z" fill="black"/>
<path d="M56.3645 94.941L57.0711 94.2618C57.5968 93.8181 57.7924 92.8487 57.7924 92.8487C57.8849 92.4807 58.0973 92.1547 58.3959 91.9234L61.3567 89.6207C61.5502 89.4693 61.8383 89.5766 61.8803 89.8184C61.9224 90.0581 61.8635 90.3736 61.4955 90.7037L60.709 91.3535C60.5702 91.4692 60.5345 91.6668 60.6249 91.8246C60.791 92.1127 60.995 92.611 60.8478 93.1662C60.5177 94.4006 59.0457 94.8233 58.6777 94.9116C58.6251 94.9242 57.6641 96.3689 57.6641 96.3689L56.3645 94.941Z" fill="white"/>
<path d="M57.6641 96.6841C57.5758 96.6841 57.4916 96.6462 57.4306 96.581L56.129 95.1553C56.0133 95.0291 56.0196 94.8335 56.1437 94.7158L56.8503 94.0365C57.2288 93.7169 57.4328 93.0272 57.4811 92.7874C57.5926 92.3395 57.847 91.9505 58.2003 91.675L61.1612 89.3724C61.342 89.2315 61.5775 89.1978 61.7899 89.2798C62.0002 89.3618 62.1495 89.5427 62.1873 89.7656C62.2378 90.0579 62.1937 90.4995 61.7016 90.939L60.9067 91.5972C60.8857 91.614 60.8815 91.6435 60.8941 91.6666C61.0665 91.9652 61.3294 92.5687 61.1485 93.248C60.7994 94.5475 59.4074 95.0438 58.848 95.1931C58.7008 95.3887 58.2886 95.9964 57.9227 96.5432C57.8681 96.6231 57.7818 96.6756 57.6851 96.682C57.6809 96.682 57.6725 96.6841 57.6641 96.6841ZM56.804 94.9555L57.6262 95.8576C58.4379 94.6443 58.4695 94.6359 58.6062 94.6043C58.8795 94.5391 60.2569 94.1606 60.545 93.0839C60.6628 92.6486 60.5051 92.2428 60.3536 91.982C60.1854 91.6897 60.2506 91.3238 60.5093 91.1093L61.2957 90.4596C61.5081 90.2682 61.6048 90.0684 61.5712 89.8707L58.5914 92.1713C58.3496 92.3605 58.1751 92.6276 58.0994 92.9262C58.0931 92.9557 57.8786 93.9945 57.275 94.5034L56.804 94.9555Z" fill="black"/>
<path d="M58.4653 95.5614L56.8335 93.9254C56.6779 93.8371 56.4907 93.8791 56.3624 94.0032C52.6509 97.5844 49.8204 97.1974 46.8511 96.4509C46.8511 96.4509 43.802 95.738 42.9545 95.6581C42.3174 95.5993 40.6224 95.1682 36.6543 95.614C35.1108 95.7864 33.6157 96.2575 32.253 96.9977L32.049 97.1091C32.049 97.1091 20.826 104.147 23.5681 119.345C23.5997 119.513 23.7469 119.65 23.9193 119.65H26.1736C26.3607 119.65 26.5164 119.492 26.529 119.305C26.6299 117.73 27.244 110.927 30.4025 107.155C30.7516 106.738 31.4224 106.86 31.5864 107.377C31.8387 108.181 31.9018 109.888 31.2394 113.488C31.2184 113.598 30.3836 117.843 30.3836 117.843C30.3836 117.843 39.1693 119.349 42.229 118.8C44.6494 118.365 45.3791 117.77 45.5789 117.539C45.6252 117.486 45.6441 117.417 45.6357 117.347L45.2803 114.252C45.1541 113.131 44.8429 111.034 45.2109 108.362C45.7177 104.688 47.9194 104.759 47.9194 104.759C50.7162 104.581 55.7421 105.167 58.6462 95.9988C58.6987 95.8327 58.6209 95.6497 58.4653 95.5614Z" fill="#001A49"/>
<path d="M42.0565 95.2356L42.3046 93.2084C42.4729 93.1958 42.5885 93.1895 42.6222 93.1895C43.6042 93.179 43.9218 92.8594 44.0059 92.054C44.0584 91.5493 44.0774 90.8007 43.8313 89.8649C43.8061 89.7639 43.8103 89.6588 43.8524 89.5642L44.0206 89.1709C44.0563 89.0427 44.0101 88.9039 43.907 88.8176L43.8187 88.744C43.4991 88.4812 43.232 88.1594 43.0196 87.802C42.8241 87.4718 42.4897 86.8557 42.2605 86.7463C41.6149 86.4393 39.001 85.0703 37.5395 87.4613C36.3998 89.3244 38.2629 91.892 38.94 92.7311C39.1041 92.9351 37.836 95.4291 37.836 95.4291L36.1958 96.2156C36.1958 96.2156 37.4617 98.0724 41.3058 97.1429C44.0437 96.4805 43.6084 95.4627 43.6084 95.4627L42.0565 95.2356Z" fill="white"/>
<path d="M39.287 97.7234C36.8708 97.7234 35.9771 96.4617 35.9329 96.3965C35.8804 96.3208 35.8656 96.2262 35.8888 96.1379C35.9119 96.0496 35.975 95.976 36.057 95.936L37.6005 95.1958C38.0673 94.2684 38.5594 93.1833 38.6288 92.8532C37.773 91.7702 36.0864 89.2341 37.2704 87.2995C38.3071 85.6025 40.0104 85.3123 42.3299 86.431L42.3993 86.4647C42.6642 86.5908 42.8998 86.9714 43.2068 87.4972L43.293 87.6444C43.497 87.985 43.7409 88.2752 44.0206 88.5044L44.111 88.578C44.3108 88.7421 44.3949 89.007 44.3276 89.2573C44.3234 89.272 44.3192 89.2846 44.3129 89.2993L44.1447 89.6926C44.132 89.722 44.1299 89.7557 44.1404 89.7893C44.3444 90.5674 44.4033 91.3202 44.3234 92.0919C44.2183 93.0866 43.7283 93.4967 42.6285 93.5093C42.6201 93.5093 42.6053 93.5093 42.5885 93.5114L42.4098 94.9729L43.6547 95.1558C43.764 95.1726 43.8566 95.2442 43.8986 95.3451C43.9133 95.3787 44.0353 95.6879 43.8355 96.0853C43.5411 96.672 42.7147 97.1325 41.3794 97.4564C40.5782 97.6456 39.8863 97.7234 39.287 97.7234ZM36.7194 96.3145C37.2367 96.7498 38.5615 97.4837 41.228 96.8381C42.7315 96.4743 43.1521 96.0306 43.2678 95.7972C43.2783 95.7762 43.2867 95.7551 43.293 95.7362L42.0102 95.547C41.8399 95.5217 41.7221 95.3661 41.7432 95.1958L41.9913 93.1686C42.0102 93.0193 42.1322 92.9036 42.2836 92.8931C42.4603 92.8805 42.5843 92.8742 42.6201 92.8742C43.4633 92.8637 43.6273 92.6534 43.6946 92.0226C43.7682 91.3286 43.7136 90.6494 43.5285 89.947C43.4844 89.7767 43.497 89.5979 43.5643 89.4423L43.7178 89.0827C43.7178 89.0764 43.7136 89.0701 43.7094 89.0659L43.6189 88.9923C43.2825 88.7168 42.9902 88.372 42.7483 87.9661L42.6579 87.8126C42.536 87.6023 42.2458 87.106 42.1196 87.0303L42.0523 86.9988C41.3142 86.6434 39.0704 85.5583 37.8066 87.6275C36.8035 89.2699 38.4354 91.6062 39.1819 92.5357C39.3123 92.6976 39.4742 92.8973 38.1115 95.5743C38.08 95.6353 38.0295 95.6858 37.9664 95.7152L36.7194 96.3145Z" fill="black"/>
<path d="M38.3429 84.4224C39.0515 84.2689 39.8654 84.3783 40.2102 84.2521C40.7654 84.0481 40.7801 83.3836 41.5477 83.1964C42.4771 82.9693 42.864 83.3668 43.2278 83.9198C43.2888 84.0124 43.3414 84.1154 43.3856 84.2311C43.9702 85.7977 43.232 86.561 42.904 86.8113C42.904 86.8113 40.8137 87.8922 40.4563 88.1992C40.1219 88.4873 39.735 89.1707 39.9789 90.1527C40.0104 90.2789 39.9558 90.4114 39.8485 90.4766C39.7224 90.5523 39.5604 90.5165 39.4742 90.3904C39.2029 89.9971 38.6078 89.2338 38.1852 89.4146C37.6552 89.6417 37.8193 91.2315 38.9906 91.4166C39.3501 91.4734 39.6424 91.8414 39.6067 92.2178C39.5836 92.4638 39.3522 92.7624 39.0074 92.8402C38.7971 92.8886 38.591 92.8045 38.406 92.6846C37.6426 92.1967 35.4872 90.1275 35.218 88.2728C34.8942 86.0395 37.4008 84.6243 38.3429 84.4224Z" fill="black"/>
<path d="M42.5676 93.4672C42.5634 93.4672 42.5613 93.4672 42.5571 93.4672C42.5192 93.4651 41.6339 93.4272 40.9925 92.8826C40.8685 92.7774 40.8537 92.5924 40.9589 92.4704C41.064 92.3464 41.2491 92.3316 41.371 92.4368C41.8547 92.8489 42.5718 92.8826 42.5802 92.8826C42.7421 92.8889 42.8683 93.0256 42.862 93.1875C42.8536 93.3431 42.7253 93.4672 42.5676 93.4672Z" fill="black"/>
<defs>
<linearGradient id="paint0_linear_69_5084" x1="98.9693" y1="215.798" x2="217.29" y2="93.8791" gradientUnits="userSpaceOnUse">
<stop stop-color="#CD10FF"/>
<stop offset="1" stop-color="#9F06FF"/>
</linearGradient>
<linearGradient id="paint1_linear_69_5084" x1="132.279" y1="130.713" x2="146.863" y2="123.946" gradientUnits="userSpaceOnUse">
<stop stop-color="#CD10FF"/>
<stop offset="1" stop-color="#9F06FF"/>
</linearGradient>
</defs>
</svg>
