<svg width="386" height="142" viewBox="0 0 386 142" fill="none" xmlns="http://www.w3.org/2000/svg">
<path d="M130.074 129.726L128.146 129.662L128.849 132.898L128.637 134.149V134.71L130.152 134.813L130.519 134.601L131.216 134.62L131.403 134.871L134.916 135.013L134.923 134.633L132.363 133.853L130.99 132.885L130.074 129.726Z" fill="#141F42"/>
<path d="M126.173 97.0367L128.469 115.999L131.177 132.241L128.469 132.357L124.71 116.515L117.172 96.6821L126.173 97.0367Z" fill="url(#paint0_linear_94_7226)"/>
<path d="M118.43 131.596L116.425 131.177L116.212 133.704L115.748 134.858L115.645 135.445L117.218 135.832L117.637 135.677L118.359 135.825L118.507 136.122L122.041 136.045L122.111 135.645L119.7 135.239L118.443 133.969L118.43 131.596Z" fill="#141F42"/>
<path d="M122.55 99.6094L119.758 118.636L118.823 133.543L116.038 133.221L116.16 118.643L114.961 98.6616L122.55 99.6094Z" fill="url(#paint1_linear_94_7226)"/>
<path d="M114.981 106.669L115.322 106.456L114.626 105.399L114.671 105.367L115.574 106.76L115.915 106.553L115.013 105.161L115.058 105.135L116.089 106.734L116.425 106.521L115.393 104.922L115.445 104.896L116.367 106.308L116.702 106.102L115.419 104.129L116.193 104.361L116.347 104.097L114.839 103.465L114.413 102.917L113.788 101.737L112.53 102.459L113.362 103.935L113.781 104.683L113.71 104.722L114.981 106.669Z" fill="#FFC590"/>
<path d="M113.497 84.766L113.697 84.9658C115.374 86.0233 114.884 87.906 113.73 89.5179L110.158 94.5212L114.703 102.523L112.956 103.632L110.989 100.524L108.262 96.2427C107.553 95.1273 107.482 93.7153 108.081 92.5289L111.318 85.6235C111.653 84.8756 112.724 84.4371 113.497 84.766Z" fill="url(#paint2_linear_94_7226)"/>
<path d="M122.021 79.3826V79.3311L121.995 79.2795L121.68 79.2988L121.505 78.9893L121.718 78.6863L121.576 78.3768L121.828 78.048L121.202 77.4999L120.429 75.772L116.824 77.3516L118.656 80.9688L118.088 84.689L120.641 84.6052L120.39 80.6077L121.918 80.1628C122.131 80.1048 122.247 79.8791 122.176 79.6728L122.021 79.3826Z" fill="#FFC590"/>
<path d="M126.399 98.6358L115.122 100.654L111.228 86.5013C111.073 85.6567 111.634 84.8507 112.479 84.7024L125 81.5431C125.568 81.44 126.09 81.8719 126.096 82.4522L126.399 98.6358Z" fill="url(#paint3_linear_94_7226)"/>
<path d="M118.701 76.7588C118.701 76.7588 118.875 76.2236 119.275 76.5396C119.855 76.9974 120.267 76.7975 120.867 76.4686C121.75 75.9786 120.564 74.8567 119.719 74.9148C119.719 74.9148 119.539 74.9212 118.971 75.2436C118.404 75.566 118.108 75.7594 117.946 76.0366C117.785 76.3139 116.857 76.7072 116.721 76.8168C116.592 76.9264 116.502 77.8742 116.683 78.2546C116.799 78.5061 118.024 79.7827 118.024 79.7827L118.417 79.4732L118.069 78.2353L118.32 78.0161L118.733 78.39L118.926 78.2482L118.714 77.7582L118.939 77.5003L118.952 77.1328L118.668 76.9651L118.701 76.7588Z" fill="#1A2958"/>
<path d="M119.816 82.729L119.429 82.7741L119.152 83.2384L119.539 83.6252L119.919 83.5801L120.177 83.0901L119.816 82.729Z" fill="white"/>
<path d="M113.143 98.7907C121.409 93.8002 119.926 83.4712 119.881 83.0327L119.423 83.1617C119.436 83.2584 119.958 93.0975 112.44 97.6301L112.266 98.5973L113.143 98.7907Z" fill="white"/>
<path d="M118.178 83.3287L118.404 82.6581L119.552 82.6001L118.527 84.2958L118.178 83.3287Z" fill="#008DEF"/>
<path d="M120.796 82.6133L120.487 82.1426L119.687 82.5681L120.558 83.7545L120.796 82.6133Z" fill="#008DEF"/>
<path d="M132.918 78.0295L132.873 78.0037L133.344 77.288L133.06 76.9914L132.544 77.778L132.499 77.7458L133.028 76.9463L132.744 76.6497L132.177 77.5201L132.125 77.4879L133.053 76.0694L132.725 75.8438L131.435 77.8167L130.861 77.9328L129.849 77.1268L129.269 77.2235L130.094 78.1713L130.874 79.1772L131.777 81.4338L132.97 80.6666L132.254 79.377L132.602 79.0933L133.073 78.5131L133.66 77.6168L133.376 77.3203L132.918 78.0295Z" fill="#FFC590"/>
<path d="M130.345 76.5008L132.183 78.7511C132.338 78.9445 132.615 78.9832 132.821 78.8478L133.447 78.4416C133.698 78.2739 133.743 77.9258 133.537 77.7066L131.48 75.5015L130.345 76.5008Z" fill="white"/>
<path d="M128.914 75.0625C128.914 75.0625 128.353 75.3849 128.443 75.5654C128.533 75.7459 129.681 77.1451 129.933 77.2353C130.184 77.3256 130.5 76.8098 130.5 76.8098L128.914 75.0625Z" fill="url(#paint4_linear_94_7226)"/>
<path d="M131.409 73.5542C131.409 73.5542 134.388 71.1428 135.619 66.5005C135.665 66.32 135.903 66.2813 136 66.4425L139.978 73.2512C140.133 73.4898 139.933 73.8057 139.656 73.7605C138.269 73.5478 135.22 73.3801 132.776 75.3015L131.409 73.5542Z" fill="#001A49"/>
<path d="M131.493 73.2061C131.809 73.2384 133.234 75.2823 133.176 75.5144C133.118 75.7465 130.558 77.2294 130.371 77.2359C130.178 77.2488 128.656 75.0888 128.753 74.818C128.849 74.5537 131.183 73.1739 131.493 73.2061Z" fill="url(#paint5_linear_94_7226)"/>
<path d="M133.008 77.6288L133.376 77.3193L133.66 77.6159L133.228 77.9577L133.008 77.6288Z" fill="#FFD1A6"/>
<path d="M132.254 77.4742L132.015 77.1518L132.744 76.6489L133.028 76.9455L132.254 77.4742Z" fill="#FFD1A6"/>
<path d="M132.654 77.8093L132.435 77.4547L133.054 76.9775L133.344 77.287L132.654 77.8093Z" fill="#FFD1A6"/>
<path d="M131.151 80.3376L133.795 86.3016L127.134 82.0784C126.128 81.4659 124.671 81.2015 124.072 82.0913C123.369 82.9488 124.271 85.8245 126.045 86.0953L134.504 89.5448C135.232 90.0348 137.895 89.0354 136.954 87.2107L133.137 80.1699L131.151 80.3376Z" fill="url(#paint6_linear_94_7226)"/>
<path d="M136.084 66.5973C135.968 66.4748 135.787 66.5071 135.794 66.8037C135.8 67.1389 137.328 69.9566 137.676 70.5691C138.289 71.6394 140.042 73.7155 139.901 73.2642C139.765 72.8129 136.2 66.7198 136.084 66.5973Z" fill="url(#paint7_linear_94_7226)"/>
<path opacity="0.1" d="M48.4733 141.042C75.2443 141.042 96.9465 139.587 96.9465 137.792C96.9465 135.997 75.2443 134.542 48.4733 134.542C21.7022 134.542 0 135.997 0 137.792C0 139.587 21.7022 141.042 48.4733 141.042Z" fill="#005386"/>
<path d="M90.8986 136.986H14.7457C10.4903 136.986 7.04083 133.537 7.04083 129.281L5.66748 7.70491C5.66748 3.44948 9.11696 0 13.3724 0H91.8271C96.0825 0 99.532 3.44948 99.532 7.70491L98.5971 129.281C98.6036 133.537 95.1541 136.986 90.8986 136.986Z" fill="#001A49" fill-opacity="0.15"/>
<path d="M91.8335 0.00537109H13.3787C10.1872 0.00537109 7.44693 1.9461 6.27991 4.71858C7.62746 3.5967 9.36832 2.91325 11.2768 2.91325H89.738C93.9934 2.91325 97.4429 6.29181 97.4429 10.457L96.508 129.454C96.508 133.62 93.0585 136.998 88.8031 136.998H90.8985C95.154 136.998 98.6035 133.549 98.6035 129.293L99.5384 7.71673C99.5384 3.45485 96.0889 0.00537109 91.8335 0.00537109Z" fill="#001A49"/>
<path d="M89.9057 117.315H12.8501L11.567 18.4854H90.7761L89.9057 117.315Z" fill="url(#paint8_linear_94_7226)" fill-opacity="0.3"/>
<path opacity="0.1" d="M79.6733 37.4165L81.3754 107.405C81.3883 107.96 81.1175 108.476 80.6533 108.779L78.229 110.352L79.6733 37.4165Z" fill="#1A2958"/>
<path d="M77.2554 111.377L24.0045 111.706C23.2308 111.706 22.6054 111.08 22.6054 110.307L22.399 46.3654L79.4476 45.5981L78.6675 109.978C78.661 110.751 78.0356 111.377 77.2554 111.377Z" fill="white"/>
<path d="M79.4217 46.3591L22.399 47.1264L21.9799 38.8605C21.9799 38.1706 22.5408 37.6097 23.2307 37.6097L78.4288 36.8037C79.1187 36.8037 79.6797 37.3647 79.6797 38.0546L79.4217 46.3591Z" fill="#001A49"/>
<path d="M72.7483 43.3341H41.2839L41.0195 41.0259H72.7483V43.3341Z" fill="white"/>
<path d="M29.7041 43.0376H27.9116V41.271L29.6202 41.329L29.7041 43.0376Z" fill="white"/>
<path d="M33.4888 43.0374H31.7802L31.6835 41.2256L33.4114 41.3288L33.4888 43.0374Z" fill="#FFC008"/>
<path d="M36.9188 43.0372H35.3005L35.2102 41.3286H36.9188V43.0372Z" fill="#FF7201"/>
<path opacity="0.4" d="M27.2218 58.5952H40.0074L40.4781 69.2854L27.7118 68.8018L27.2218 58.5952Z" fill="#ADE5FA"/>
<path d="M28.911 60.4396L28.8853 59.9238H29.4075V60.1301H29.1045L29.1174 60.4332L28.911 60.4396Z" fill="#009AEF"/>
<path d="M37.1704 60.1301H36.3967V59.9238H37.1704V60.1301ZM35.6165 60.1301H34.8428V59.9238H35.6165V60.1301ZM34.0626 60.1301H33.2889V59.9238H34.0626V60.1301ZM32.5087 60.1301H31.735V59.9238H32.5087V60.1301ZM30.9549 60.1301H30.1812V59.9238H30.9549V60.1301Z" fill="#009AEF"/>
<path d="M38.273 60.4396L38.2602 60.1301H37.9442V59.9238H38.4536L38.4794 60.4332L38.273 60.4396Z" fill="#009AEF"/>
<path d="M38.5503 66.6745L38.5181 65.8944L38.7244 65.8879L38.7567 66.6681L38.5503 66.6745ZM38.4794 65.1142L38.4472 64.334L38.6535 64.3276L38.6857 65.1077L38.4794 65.1142ZM38.4085 63.5539L38.3762 62.7737L38.5826 62.7673L38.6148 63.5474L38.4085 63.5539ZM38.344 62L38.3118 61.2198L38.5181 61.2134L38.5503 61.9935L38.344 62Z" fill="#009AEF"/>
<path d="M38.8082 67.9642L38.2859 67.9448L38.2923 67.7385L38.5954 67.7514L38.5825 67.4483L38.7888 67.4419L38.8082 67.9642Z" fill="#009AEF"/>
<path d="M37.5122 67.9122L36.7385 67.8799L36.745 67.6736L37.5187 67.7059L37.5122 67.9122ZM35.9648 67.8542L35.1911 67.8219L35.1975 67.6156L35.9713 67.6478L35.9648 67.8542ZM34.4109 67.7961L33.6372 67.7639L33.6437 67.5576L34.4174 67.5898L34.4109 67.7961ZM32.8635 67.7381L32.0898 67.7059L32.0962 67.4995L32.87 67.5318L32.8635 67.7381ZM31.3161 67.6736L30.5424 67.6414L30.5488 67.4351L31.3225 67.4673L31.3161 67.6736Z" fill="#009AEF"/>
<path d="M29.7622 67.6162L29.2593 67.5969L29.2335 67.094L29.4398 67.0811L29.4527 67.4034L29.7687 67.4099L29.7622 67.6162Z" fill="#009AEF"/>
<path d="M29.1948 66.3524L29.1561 65.6109L29.3625 65.598L29.4011 66.3395L29.1948 66.3524ZM29.1239 64.8758L29.0852 64.1344L29.2915 64.1215L29.3302 64.863L29.1239 64.8758ZM29.053 63.3993L29.0207 62.6579L29.2271 62.645L29.2657 63.3864L29.053 63.3993ZM28.982 61.9228L28.9434 61.1814L29.1497 61.1685L29.1884 61.9099L28.982 61.9228Z" fill="#009AEF"/>
<path d="M44.7722 58.5957H56.8293V68.4864L45.8038 69.2859L44.7722 58.5957Z" fill="url(#paint9_linear_94_7226)"/>
<path opacity="0.7" d="M61.0266 58.5955L72.5034 58.2603V67.9639L61.723 68.2992L61.0266 58.5955Z" fill="#ADE5FA"/>
<path opacity="0.7" d="M27.2218 89.7246H40.0074L40.4781 100.415L27.7118 99.9312L27.2218 89.7246Z" fill="#ADE5FA"/>
<path d="M44.7722 89.7246H56.8293V99.6153L45.8038 100.415L44.7722 89.7246Z" fill="#ADE5FA"/>
<path opacity="0.3" d="M61.0266 89.7244L72.5034 89.3892V99.0928L61.723 99.4346L61.0266 89.7244Z" fill="#ADE5FA"/>
<path d="M72.5035 83.2898H59.7179L59.2472 72.5996L72.007 73.0896L72.5035 83.2898Z" fill="#ADE5FA"/>
<path opacity="0.7" d="M54.9466 83.2898H42.896V73.4056L53.9214 72.5996L54.9466 83.2898Z" fill="#ADE5FA"/>
<path d="M38.6986 83.2901L27.2218 83.6254V73.9281L37.9958 73.5864L38.6986 83.2901Z" fill="url(#paint10_linear_94_7226)"/>
<path d="M46.7195 63.0892L48.6925 61.7932H49.4855C49.4855 61.7932 49.7628 62.3155 50.9427 62.3155C52.1226 62.3155 51.9356 61.6191 51.9356 61.6191H52.7416L54.5469 62.3542L54.231 63.6824L52.9028 63.4309L53.1091 66.4097L49.1954 66.687L49.06 63.4245L48.1831 64.1531L46.7195 63.0892Z" fill="white"/>
<path d="M70.653 79.6341H61.3814L61.2395 77.5322H70.8013L70.653 79.6341Z" fill="#2D489C"/>
<path d="M62.2132 78.5835C62.2132 78.6802 62.1358 78.7641 62.0326 78.7641C61.9293 78.7641 61.8519 78.6802 61.8519 78.5835C61.8519 78.4867 61.9293 78.4028 62.0326 78.4028C62.1358 78.4028 62.2132 78.4867 62.2132 78.5835Z" fill="white"/>
<path d="M62.916 78.583C62.916 78.6797 62.8321 78.7636 62.7353 78.7636C62.6386 78.7636 62.5547 78.6797 62.5547 78.583C62.5547 78.4862 62.6321 78.4023 62.7353 78.4023C62.8385 78.4023 62.916 78.4862 62.916 78.583Z" fill="white"/>
<path d="M69.2604 78.5835C69.2604 78.6802 69.183 78.7641 69.0798 78.7641C68.9766 78.7641 68.8992 78.6802 68.8992 78.5835C68.8992 78.4867 68.9766 78.4028 69.0798 78.4028C69.183 78.4028 69.2604 78.4867 69.2604 78.5835Z" fill="white"/>
<path d="M69.9695 78.583C69.9695 78.6797 69.8921 78.7636 69.7889 78.7636C69.6921 78.7636 69.6083 78.6797 69.6083 78.583C69.6083 78.4862 69.6857 78.4023 69.7889 78.4023C69.8857 78.4023 69.9695 78.4862 69.9695 78.583Z" fill="white"/>
<path d="M68.5124 78.5833C68.5124 79.8986 67.4485 80.9624 66.1332 80.9624C64.8179 80.9624 63.7476 79.8986 63.7476 78.5833C63.7476 77.268 64.8114 76.2041 66.1332 76.2041C67.4549 76.2041 68.5124 77.268 68.5124 78.5833Z" fill="#FFCB08"/>
<path d="M68.0159 78.5834C68.0159 79.6215 67.1713 80.4661 66.1332 80.4661C65.0951 80.4661 64.2505 79.6215 64.2505 78.5834C64.2505 77.5453 65.0951 76.7007 66.1332 76.7007C67.1713 76.7007 68.0159 77.5453 68.0159 78.5834Z" fill="white"/>
<path d="M67.326 78.4738C67.1712 78.3577 66.6103 78.4093 66.3137 78.448C66.3008 78.4286 66.2815 78.4157 66.2621 78.3964C66.3008 78.1772 66.3524 77.7452 66.2363 77.6291C66.1976 77.5904 66.0558 77.5904 66.0171 77.6291C65.9011 77.7452 65.9591 78.1836 65.9913 78.3964C65.9333 78.4415 65.8817 78.4995 65.8817 78.5834C65.8817 78.7188 65.9913 78.8219 66.1203 78.8219C66.1977 78.8219 66.2621 78.7768 66.3073 78.7188C66.6039 78.7574 67.1648 78.809 67.3195 78.693C67.3776 78.6543 67.3776 78.5124 67.326 78.4738Z" fill="#44339C"/>
<path d="M54.1341 92.5356L52.4319 93.0965L52.3739 92.2261L47.0546 92.7999L47.6477 96.9844L52.6705 96.5524L52.6124 95.6691L54.1405 95.8239V92.5356H54.1341ZM53.5538 95.0695H52.5673L52.4706 93.6832L53.6376 93.1997L53.5538 95.0695Z" fill="#208AEE"/>
<path d="M63.0384 91.8405L63.019 91.4536H63.4059V91.6083H63.1802L63.1931 91.834L63.0384 91.8405Z" fill="#009AEF"/>
<path d="M69.2412 91.6069H68.6609V91.4521H69.2412V91.6069ZM68.0741 91.6069H67.4939V91.4521H68.0741V91.6069ZM66.9071 91.6069H66.3268V91.4521H66.9071V91.6069ZM65.7401 91.6069H65.1598V91.4521H65.7401V91.6069ZM64.5731 91.6069H63.9928V91.4521H64.5731V91.6069Z" fill="#009AEF"/>
<path d="M70.0729 91.839L70.06 91.6069H69.8279V91.4521H70.2083L70.2276 91.8326L70.0729 91.839Z" fill="#009AEF"/>
<path d="M70.279 96.5261L70.2532 95.9393L70.408 95.9329L70.4338 96.5196L70.279 96.5261ZM70.2275 95.3526L70.2017 94.7659L70.3564 94.7594L70.3822 95.3462L70.2275 95.3526ZM70.1759 94.1856L70.1501 93.5989L70.3048 93.5924L70.3306 94.1791L70.1759 94.1856ZM70.1243 93.0121L70.0985 92.4254L70.2532 92.4189L70.279 93.0057L70.1243 93.0121Z" fill="#009AEF"/>
<path d="M70.4789 97.5002L70.0856 97.4809L70.092 97.3262L70.3177 97.339L70.3048 97.1134L70.4595 97.1069L70.4789 97.5002Z" fill="#009AEF"/>
<path d="M69.499 97.4607L68.9187 97.4413L68.9252 97.2866L69.5055 97.3059L69.499 97.4607ZM68.3384 97.4156L67.7582 97.3962L67.7646 97.2415L68.3449 97.2608L68.3384 97.4156ZM67.1714 97.3704L66.5911 97.3511L66.5976 97.1963L67.1779 97.2157L67.1714 97.3704ZM66.0044 97.3253L65.4241 97.3059L65.4306 97.1512L66.0109 97.177L66.0044 97.3253ZM64.8438 97.2801L64.2635 97.2544L64.27 97.0996L64.8503 97.119L64.8438 97.2801Z" fill="#009AEF"/>
<path d="M63.6767 97.2362L63.2963 97.2233L63.277 96.8429L63.4317 96.8364L63.4446 97.075L63.6832 97.0814L63.6767 97.2362Z" fill="#009AEF"/>
<path d="M63.2513 96.2879L63.2255 95.7334L63.3803 95.727L63.4061 96.2815L63.2513 96.2879ZM63.1997 95.1725L63.1739 94.618L63.3287 94.6115L63.3545 95.166L63.1997 95.1725ZM63.1417 94.0635L63.1159 93.509L63.2706 93.5025L63.2964 94.057L63.1417 94.0635ZM63.0901 92.9545L63.0643 92.4L63.2191 92.3936L63.2449 92.948L63.0901 92.9545Z" fill="#009AEF"/>
<path d="M10.9867 14.791L88.8289 12.3345L90.7761 22.8119L10.2904 24.0949L10.9867 14.791Z" fill="#2D489C"/>
<path d="M10.2904 24.0946V29.5042L89.435 28.7949L90.7761 22.8115L10.2904 24.0946Z" fill="#223675"/>
<path d="M19.7425 14.5202L19.1558 23.9531L26.7769 23.8306L26.9251 14.2881L19.7425 14.5202Z" fill="#001A49"/>
<path d="M35.0233 14.0369L35.2425 23.6955L44.2047 23.5536L43.4568 13.7661L35.0233 14.0369Z" fill="#001A49"/>
<path d="M53.167 13.462L53.7408 23.3978L62.7417 23.256L62.3742 13.1719L53.167 13.462Z" fill="#001A49"/>
<path d="M82.6262 12.5342L72.5356 12.8501L73.29 23.0889L83.329 22.9277L82.6262 12.5342Z" fill="#001A49"/>
<path d="M19.1556 23.9536L26.7767 23.8311V29.3567L18.7494 29.4276L19.1556 23.9536Z" fill="#001A49"/>
<path d="M35.2424 23.696L35.2876 29.2797L44.3723 29.1959L44.2046 23.5542L35.2424 23.696Z" fill="#001A49"/>
<path d="M53.7407 23.3992L54.1405 29.1118L63.2832 29.028L62.7416 23.2573L53.7407 23.3992Z" fill="#001A49"/>
<path d="M73.2901 23.0899L73.0515 28.9443L83.5353 28.8476L83.329 22.9287L73.2901 23.0899Z" fill="#001A49"/>
<path d="M10.2903 29.5041C10.2903 29.5041 14.3458 33.1341 18.7496 29.4268L10.2903 29.5041Z" fill="#1A2958"/>
<path d="M18.7495 29.4274C18.7495 29.4274 22.3666 33.0574 26.7768 29.3564L18.7495 29.4274Z" fill="#02215A"/>
<path d="M26.7769 29.3567C26.7769 29.3567 30.884 32.9802 35.2942 29.2793L26.7769 29.3567Z" fill="#1A2958"/>
<path d="M35.2877 29.2662C35.2877 29.2662 39.9622 32.8962 44.3724 29.1953L35.2877 29.2662Z" fill="#02215A"/>
<path d="M44.3724 29.2016C44.3724 29.2016 49.7369 32.8123 54.1406 29.1113L44.3724 29.2016Z" fill="#1A2958"/>
<path d="M54.1406 29.1052C54.1406 29.1052 58.8732 32.7288 63.2769 29.0278L54.1406 29.1052Z" fill="#02215A"/>
<path d="M63.2833 29.0278C63.2833 29.0278 68.6478 32.6449 73.0515 28.9375L63.2833 29.0278Z" fill="#1A2958"/>
<path d="M73.045 28.9245C73.045 28.9245 79.1316 32.5481 83.5353 28.8472L73.045 28.9245Z" fill="#02215A"/>
<path d="M83.5354 28.8212C83.5354 28.8212 86.5593 30.9489 89.435 28.7954L83.5354 28.8212Z" fill="#1A2958"/>
<path opacity="0.2" d="M242.774 135.342C251.207 135.342 258.042 135.022 258.042 134.626C258.042 134.231 251.207 133.911 242.774 133.911C234.342 133.911 227.506 134.231 227.506 134.626C227.506 135.022 234.342 135.342 242.774 135.342Z" fill="#005386"/>
<path d="M230.239 134.583H254.334V117.567H230.239V134.583Z" fill="#FAFDFD"/>
<path d="M230.247 117.566L254.335 134.581V117.566H230.247Z" fill="#BBE8FB"/>
<path opacity="0.2" d="M309.378 138.005C309.378 138.399 304.201 138.721 297.818 138.721C291.428 138.721 286.257 138.405 286.257 138.005C286.257 137.612 291.435 137.29 297.818 137.29C304.201 137.29 309.378 137.612 309.378 138.005Z" fill="#005386"/>
<path opacity="0.2" d="M339.585 138.198C339.585 138.591 334.408 138.914 328.025 138.914C321.635 138.914 316.464 138.598 316.464 138.198C316.464 137.805 321.642 137.482 328.025 137.482C334.408 137.482 339.585 137.805 339.585 138.198Z" fill="#005386"/>
<path opacity="0.2" d="M344.099 137.341C350.483 137.341 355.659 137.02 355.659 136.625C355.659 136.23 350.483 135.909 344.099 135.909C337.714 135.909 332.538 136.23 332.538 136.625C332.538 137.02 337.714 137.341 344.099 137.341Z" fill="#005386"/>
<path opacity="0.2" d="M379.889 138.721C379.889 139.114 374.712 139.436 368.329 139.436C361.939 139.436 356.768 139.12 356.768 138.721C356.768 138.321 361.946 138.005 368.329 138.005C374.712 138.005 379.889 138.321 379.889 138.721Z" fill="#005386"/>
<path d="M305.561 136.922L304.736 135.993L304.581 132.86L302.467 133.027L302.692 136.039L302.363 137.07L302.325 137.754L306.529 137.999L306.554 137.592L305.561 136.922ZM303.015 137.792L303.15 137.554L303.389 137.567L303.524 137.818L303.015 137.792Z" fill="#141F42"/>
<path d="M292.221 133.421L294.349 133.15L293.91 135.458L294.162 136.799L294.181 137.405L292.55 137.547L292.15 137.328L291.402 137.367L291.209 137.644L287.688 137.715L287.682 137.309L290.151 136.574L291.609 135.497L292.221 133.421Z" fill="#141F42"/>
<path d="M295.213 100.319L294.181 119.526L291.615 134.685L294.491 134.349L297.65 119.443L302.821 99.3711L295.213 100.319Z" fill="url(#paint11_linear_94_7226)"/>
<path d="M306.831 100.319L304.755 120.184L304.916 135.433L302.299 135.104L301.306 119.63L299.223 99.3711L306.831 100.319Z" fill="url(#paint12_linear_94_7226)"/>
<path d="M302.318 77.3912L300.126 77.2945C299.552 77.2687 299.081 77.7458 299.113 78.3196L299.339 82.0528C299.333 82.2333 299.436 82.401 299.61 82.4848L300.274 82.9232L299.655 86.4243L302.118 86.3985L301.97 82.8523L302.859 82.4203C303.046 82.3494 303.175 82.1882 303.182 82.0077L303.446 78.6613C303.498 77.9972 302.988 77.417 302.318 77.3912Z" fill="#FFC590"/>
<path d="M295.206 100.706L306.973 100.687L309.326 87.785C309.681 86.2311 308.553 85.1027 307.682 85.0641L294.594 84.3935C294.007 84.3677 293.536 84.8771 293.53 86.0054L295.206 100.706Z" fill="url(#paint13_linear_94_7226)"/>
<path d="M299.649 84.6057L299.971 84.1479L300.835 84.6444L299.894 85.7921L299.649 84.6057Z" fill="url(#paint14_linear_94_7226)"/>
<path d="M302.344 84.7288L302.054 84.2388L301.209 84.6579L302.073 85.8894L302.344 84.7288Z" fill="url(#paint15_linear_94_7226)"/>
<path d="M301.222 84.6897L300.822 84.6768L300.461 85.0958L300.79 85.5472L301.183 85.5665L301.525 85.1152L301.222 84.6897Z" fill="#EDEDEE"/>
<path d="M300.796 85.5083L299.185 97.6879L299.939 98.7324L300.958 97.8104L301.183 85.5212L300.796 85.5083Z" fill="#EDEDEE"/>
<path d="M302.55 76.927C302.55 76.927 302.344 76.8303 301.518 76.8818C300.693 76.9334 300.487 77.2945 300.068 77.0043C299.59 76.6691 298.314 78.036 298.746 78.8032L299.017 79.4158C299.126 79.9316 299.216 80.1959 299.255 80.1508C299.545 79.8284 299.41 79.0676 299.681 79.0611L300.184 78.9644C300.184 78.9644 300.867 77.9392 301.144 78.526C301.544 79.3706 302.356 79.7897 303.22 79.7446C304.484 79.6737 304.387 77.5846 302.55 76.927Z" fill="#141F42"/>
<path d="M307.328 100.88L306.251 102.221L305.729 102.737L305 102.827H304.994L303.917 103.317L304.491 103.452L304.994 103.259L305.097 103.233L305.226 103.201L305.123 103.311C305.142 103.375 305.162 103.44 305.187 103.504C305.22 103.594 305.252 103.685 305.291 103.788C305.342 103.91 305.407 104.046 305.471 104.175C305.516 104.265 305.555 104.355 305.607 104.452C305.607 104.458 305.613 104.465 305.619 104.471L305.639 104.445L305.671 104.478L305.645 104.51C305.723 104.645 305.819 104.794 305.91 104.935L305.948 104.89L306.09 104.716L306.625 103.775L306.832 103.517L307.012 103.401L308.231 101.628L307.328 100.88Z" fill="#FFC590"/>
<path d="M305.297 103.788C305.349 103.911 305.413 104.046 305.478 104.175C305.413 104.046 305.349 103.911 305.297 103.788Z" fill="#FEE3A1"/>
<path d="M305.652 104.516C305.703 104.6 305.826 104.897 305.877 104.987L305.916 104.942C305.826 104.793 305.729 104.652 305.652 104.516Z" fill="#FEE3A1"/>
<path d="M305.626 104.472C305.626 104.465 305.619 104.458 305.613 104.452C305.619 104.465 305.626 104.472 305.626 104.472Z" fill="#FEE3A1"/>
<path d="M305.194 103.511C305.168 103.446 305.149 103.382 305.129 103.317L305.123 103.323C305.142 103.375 305.168 103.446 305.194 103.511Z" fill="#FEE3A1"/>
<path d="M309.146 96.2372L306.348 101.808L307.521 102.956L310.796 97.9522C311.325 97.0625 311.699 96.6821 311.59 96.0889L310.21 88.2937C309.997 86.0564 309.346 84.8442 307.637 85.0957L307.334 85.1344C306.709 85.3149 306.251 86.2176 306.361 87.1396L309.146 96.2372Z" fill="url(#paint16_linear_94_7226)"/>
<path opacity="0.4" d="M306.432 87.3657L308.289 93.4458L308.108 94.4259L306.432 87.3657Z" fill="#1A2958"/>
<path opacity="0.4" d="M295.941 87.1919L294.252 92.3629L294.368 93.3816L295.941 87.1919Z" fill="#1A2958"/>
<path opacity="0.4" d="M294.839 97.5142L297.759 96.85L297.779 96.6308L298.772 96.4761L299.339 96.489L297.817 97.0177V97.1789L294.897 98.0042L294.839 97.5142Z" fill="#1A2958"/>
<path d="M302.047 96.7469L300.151 96.6759C299.945 96.6695 299.777 96.4889 299.79 96.2826L299.919 91.9756C299.926 91.7628 300.1 91.6016 300.313 91.6081L302.208 91.679C302.414 91.6855 302.582 91.866 302.569 92.0723L302.44 96.3793C302.434 96.5857 302.26 96.7533 302.047 96.7469Z" fill="#091018"/>
<path d="M302.047 92.2594L301.441 92.2336C301.364 92.2271 301.299 92.1627 301.299 92.0789C301.306 91.995 301.37 91.937 301.448 91.937L302.06 91.9628C302.138 91.9692 302.202 92.0337 302.202 92.1175C302.196 92.2014 302.131 92.2594 302.047 92.2594Z" fill="#939598"/>
<path d="M298.436 94.9735L298.836 94.7479L299.339 94.3997L299.848 94.2256L299.842 94.5415L299.629 94.664L299.584 94.793L301.415 94.361L302.331 93.9097L302.292 94.2965L301.428 94.7156L300.409 95.0896V95.1476L301.589 94.9026L302.563 94.3868L302.505 94.7994L301.679 95.1927L300.429 95.5603V95.6118L301.634 95.3475L302.434 94.9284L302.402 95.2572L301.621 95.7021L300.448 96.0245V96.0761L301.131 95.9407L301.744 95.7279L301.615 96.018L301.035 96.2759L299.603 96.45L299.371 96.4758L298.791 96.4694L296.199 96.882L295.599 95.4829L298.436 94.9735Z" fill="#FFC590"/>
<path d="M297.818 94.9998L293.343 95.1352L295.941 87.1852C296.315 86.2245 295.909 84.6836 294.91 84.4386C294.026 84.2193 293.13 84.7351 292.872 85.6056L290.158 97.1017C290.132 97.7078 290.551 98.2429 291.144 98.359L297.766 96.8502L297.818 94.9998Z" fill="url(#paint17_linear_94_7226)"/>
<path d="M341.301 132.491L339.753 132.639L339.134 134.374L337.38 135.431L337.619 135.908L340.83 135.857L340.914 134.877L340.856 134.309L341.301 132.491Z" fill="#FFC590"/>
<path d="M340.978 134.871L340.939 134.561C340.939 134.393 340.54 134.722 340.424 134.748C339.921 134.877 338.934 135.296 338.199 135.315C338.09 135.315 338.283 135.019 338.393 134.871L338.289 134.832L337.522 135.174L335.059 135.831V136.25H341.017L341.023 135.625L340.978 134.871Z" fill="#141F42"/>
<path d="M335.059 136.25L335.066 136.043L341.023 135.663V135.869V136.25H335.059Z" fill="#58595B"/>
<path d="M344.408 98.6675L343.473 102.368L342.177 118.816L338.825 133.349L341.301 133.143L345.492 118.449L350.508 99.7571L344.408 98.6675Z" fill="url(#paint18_linear_94_7226)"/>
<path d="M351.455 132.563L350.147 132.698L349.805 134.536L347.812 135.606L348.051 136.077L351.262 136.025L351.346 135.045L351.288 134.484L351.455 132.563Z" fill="#FFC590"/>
<path d="M351.41 135.039L351.371 134.729C351.371 134.561 350.972 134.89 350.856 134.916C350.353 135.045 349.366 135.464 348.631 135.483C348.522 135.483 348.715 135.187 348.825 135.039L348.721 135L347.954 135.342L345.491 135.999V136.418H351.449L351.455 135.793L351.41 135.039Z" fill="#141F42"/>
<path d="M345.491 136.419L345.498 136.212L351.455 135.832V136.038V136.419H345.491Z" fill="#58595B"/>
<path d="M348.677 99.7439L349.85 119.338L349.624 133.504L351.642 133.181L353.054 119.37L354.976 104.947L353.789 97.4292L348.677 99.7439Z" fill="url(#paint19_linear_94_7226)"/>
<path d="M348.876 76.3586C348.631 76.3973 348.412 76.6101 348.18 76.5585C347.548 76.4166 346.336 78.1962 346.459 79.4599L346.723 82.2646L352.945 81.3426L352.062 78.3767C351.642 77.0034 350.288 76.1394 348.876 76.3586Z" fill="#1A2958"/>
<path d="M337.915 87.6094L337.438 86.7518L335.872 85.4365L335.788 85.8363L336.213 86.3908L334.298 85.7331L334.234 86.0619L335.801 86.6745L335.781 86.7325L335.111 86.5004L335.13 86.8937L335.659 87.1194L335.646 87.1709L335.13 86.9968L335.156 87.3966L335.523 87.5513L335.504 87.6029L335.156 87.4869L335.169 87.7641L336.175 88.1058L336.955 88.6023L338.154 90.053L339.218 89.2406L337.915 87.6094Z" fill="#FFC590"/>
<path d="M351.63 82.1617L350.979 77.7192L347.129 78.2866L347.781 82.7161C347.806 82.8902 347.929 83.0321 348.103 83.0837L349.199 83.3996L348.774 85.7272L351.108 86.0818L350.998 82.9096L351.456 82.5937C351.585 82.5034 351.656 82.3357 351.63 82.1617Z" fill="#FFC590"/>
<path d="M354.834 101.588L342.971 100.711L344.267 95.8046L343.886 86.9456C343.183 84.7985 344.415 83.8958 345.247 83.9861L356.066 85.0758C356.627 85.1338 356.994 85.6883 356.846 86.2299L353.622 95.7853L354.834 101.588Z" fill="url(#paint20_linear_94_7226)"/>
<path d="M351.017 84.5729L349.225 90.1308L349.025 84.373L351.017 84.5729Z" fill="white"/>
<path d="M351.017 84.5728L351.784 86.0299L350.856 85.9268L351.262 87.8675L349.225 90.1306L351.017 84.5728Z" fill="#94C7F7"/>
<path d="M349.025 84.3604L348.096 85.7015L349.025 85.7982L348.077 87.5261L349.225 90.131L349.025 84.3604Z" fill="#94C7F7"/>
<path d="M350.263 94.9474L351.694 94.9861C351.849 94.9925 351.984 94.8636 351.991 94.7024L352.1 91.4463C352.107 91.2852 351.978 91.1562 351.823 91.1498L350.392 91.1111C350.231 91.1046 350.102 91.2336 350.095 91.3947L349.986 94.6508C349.979 94.8056 350.102 94.9409 350.263 94.9474Z" fill="#091018"/>
<path d="M350.476 91.5626L350.934 91.5755C350.992 91.5755 351.043 91.5304 351.043 91.4659C351.043 91.4078 350.998 91.3563 350.934 91.3498L350.476 91.3369C350.418 91.3369 350.366 91.3821 350.366 91.4465C350.373 91.511 350.418 91.5561 350.476 91.5626Z" fill="#939598"/>
<path d="M353.074 93.7805L352.784 93.5935L352.416 93.3098L352.049 93.0648L352.036 93.3033L352.21 93.4323V93.4839L350.914 93.0454L350.36 92.7295L350.372 93.0261L350.882 93.3807L351.578 93.774L351.572 93.8191L350.695 93.5741L349.986 93.2131L350.011 93.4581L350.617 93.7933L351.539 94.1286V94.1738L350.643 93.9094L350.063 93.5548L350.069 93.8063L350.637 94.1802L351.507 94.4768L351.501 94.5219L350.991 94.3865L350.54 94.1931L350.624 94.4188L351.049 94.638L352.12 94.8379L352.294 94.8701L352.739 94.8959L354.538 95.3021L355.247 94.2189L353.074 93.7805Z" fill="#FFC590"/>
<path d="M353.313 93.7736L356.162 94.2056L354.48 87.2486C354.202 86.4426 354.596 85.1789 355.434 85.0113C356.169 84.863 356.897 85.3207 357.078 86.0493L358.458 95.2952C358.658 95.8562 358 97.0877 357.142 96.6621L353.293 95.2952L353.313 93.7736Z" fill="url(#paint21_linear_94_7226)"/>
<path d="M338.489 87.9639L341.816 91.9292L343.615 85.2624C343.938 84.4758 344.795 83.6762 345.53 84.1018L345.801 84.205C346.452 84.5789 346.852 85.5783 346.297 86.4681L343.428 93.6056C342.925 95.3594 341.475 95.7333 340.591 94.3793L337.426 89.1761L338.489 87.9639Z" fill="url(#paint22_linear_94_7226)"/>
<path d="M335.833 87.533L335.704 87.7716L335.169 87.7651L335.156 87.4814L335.833 87.533Z" fill="#FFD1A6"/>
<path d="M336.033 87.571L335.156 87.3969L335.137 86.9907L336.207 87.3324L336.033 87.571Z" fill="#FFD1A6"/>
<path d="M336.278 87.3322L335.13 86.8938L335.111 86.5005L336.407 87.0937L336.278 87.3322Z" fill="#FFD1A6"/>
<path opacity="0.2" d="M343.886 86.9521L344.099 91.9555L343.77 92.7872L343.886 86.9521Z" fill="#1A2958"/>
<path d="M349.128 77.8091C349.128 77.8091 350.121 79.911 351.617 79.7756L351.211 77.2417L349.128 77.8091Z" fill="#1A2958"/>
<path d="M348.103 78.0547C348.103 78.0547 348.032 79.6021 347.078 79.9052L346.672 78.2417L348.103 78.0547Z" fill="#1A2958"/>
<path opacity="0.2" d="M354.479 87.2549L355.331 90.7817L355.118 91.3362L354.479 87.2549Z" fill="#1A2958"/>
<path d="M333.267 133.936L331.146 133.672L331.417 135.948L331.165 137.289L331.146 137.889L332.771 138.03L333.17 137.811L333.912 137.85L334.112 138.121L337.613 138.198L337.626 137.792L335.163 137.057L333.712 135.987L333.267 133.936Z" fill="#141F42"/>
<path d="M328.728 100.757L331.533 120.164L333.641 134.929L331.036 135.065L328.276 119.984L321.358 99.6865L328.728 100.757Z" fill="url(#paint23_linear_94_7226)"/>
<path d="M322.396 134.046L320.339 133.789L320.236 136.013L319.991 137.309L319.972 137.896L321.552 138.031L321.932 137.818L322.654 137.857L322.848 138.121L326.239 138.192L326.252 137.799L323.866 137.09L322.461 136.052L322.396 134.046Z" fill="#141F42"/>
<path d="M324.646 100.422L323.002 120.951L322.68 135.284L320.043 134.568L319.566 120.403L317.051 99.6865L324.646 100.422Z" fill="url(#paint24_linear_94_7226)"/>
<path d="M329.766 79.4476L325.646 78.3579L324.73 82.8068H324.737L323.866 86.4884L326.317 86.6044L326.368 83.4773L328.077 84.1737C328.296 84.2639 328.547 84.1543 328.625 83.9287L328.876 82.9551L329.308 82.8455L329.263 81.4334L329.766 79.4476Z" fill="#FFC590"/>
<path d="M328.683 100.925L317.064 99.8091L316.658 86.6624C316.535 85.0763 317.812 84.1349 318.676 84.2252L331.681 85.4825C332.268 85.5405 332.654 86.1143 332.5 86.6817L328.683 100.925Z" fill="url(#paint25_linear_94_7226)"/>
<path d="M327.632 79.1122C327.632 79.1122 328.141 78.7705 328.264 79.3121C328.444 80.0922 328.934 80.2018 329.663 80.3243C330.746 80.4984 330.495 78.7511 329.734 78.2353C329.734 78.2353 329.579 78.1128 328.876 78.0096C328.173 77.9065 327.799 77.8678 327.471 77.9967C327.142 78.1193 326.091 77.8291 325.904 77.8356C325.717 77.842 325.008 78.5835 324.904 79.0348C324.834 79.325 325.008 81.2399 325.008 81.2399H325.556L326.091 79.9568L326.458 79.9375L326.555 80.5307L326.813 80.5436L326.961 79.9826L327.329 79.9181L327.587 79.6216L327.458 79.2863L327.632 79.1122Z" fill="#141F42"/>
<path d="M326.658 84.9481L326.406 84.4517L325.484 84.8127L326.239 86.0894L326.658 84.9481Z" fill="url(#paint26_linear_94_7226)"/>
<path d="M323.982 84.6767L324.337 84.2383L325.104 84.7734L324.079 85.8631L323.982 84.6767Z" fill="url(#paint27_linear_94_7226)"/>
<path d="M325.091 84.8057L325.491 84.8443L325.781 85.315L325.388 85.7148L325.001 85.6761L324.73 85.1732L325.091 84.8057Z" fill="white"/>
<path d="M325.394 85.6691L325.201 97.9131L324.298 98.8351L323.428 97.7777L325.008 85.6304L325.394 85.6691Z" fill="white"/>
<path d="M337.98 97.4102L340.127 97.307L340.508 97.1394L341.855 95.6758L341.952 95.9337L341.404 97.1007L344.467 97.2748L344.273 97.623L341.958 97.5198L341.952 97.5714L344.267 97.6874L344.093 98.0356L341.907 97.9325L341.9 97.9776L344.06 98.0743L343.88 98.4225L341.862 98.3387L341.855 98.3838L343.764 98.4612L343.577 98.79L340.862 98.6546L340.869 98.5837L340.359 98.4934L338.225 98.6546L337.98 97.4102Z" fill="#FFC590"/>
<path d="M340.372 99.132L342.855 99.074C342.996 99.0675 343.17 98.945 343.254 98.8032L345.434 94.7927C345.511 94.6509 345.459 94.5348 345.318 94.5413L342.835 94.5993C342.693 94.6057 342.519 94.7283 342.435 94.8701L340.256 98.8805C340.179 99.0224 340.23 99.1384 340.372 99.132Z" fill="#141F42"/>
<path d="M340.733 98.4362L343.248 98.3717L344.918 95.3091L342.403 95.3671L340.733 98.4362Z" fill="white"/>
<path d="M344.273 97.6229L344.467 97.2748L344.338 96.5591L344.118 96.9073L344.273 97.6229Z" fill="#FFD1A6"/>
<path d="M344.092 98.0355L344.267 97.6873L344.034 97.0684L343.847 97.3972L344.092 98.0355Z" fill="#FFD1A6"/>
<path d="M343.88 98.4233L344.06 98.0751L343.848 97.4819L343.68 97.7656L343.88 98.4233Z" fill="#FFD1A6"/>
<path d="M343.583 98.79L343.764 98.4612L343.641 97.9712L343.461 98.2098L343.583 98.79Z" fill="#FFD1A6"/>
<path d="M338.992 98.9771L332.286 99.4736C331.687 99.4414 331.197 98.9771 331.132 98.3775L330.939 91.6462L331.571 85.4952C332.796 85.3727 333.886 86.2624 334.008 87.4875L333.886 96.5593L339.83 97.2556L338.992 98.9771Z" fill="url(#paint28_linear_94_7226)"/>
<path d="M328.592 95.6628L330.939 95.392L331.707 95.334L332.925 95.9981L332.841 96.3011L332.087 95.9336L333.867 97.481L333.602 97.7776L332.319 96.6686L332.28 96.7073L332.796 97.1587L332.416 97.3585L332.01 97.0039L331.977 97.0426L332.364 97.3843L331.984 97.5778L331.707 97.3392L331.668 97.3779L331.932 97.6035L331.584 97.7841L330.772 97.0297L330.656 96.9201L330.249 96.5203L328.019 96.9394L328.592 95.6628Z" fill="#FFC590"/>
<path d="M321.1 95.3082L329.656 95.3598L329.592 96.9008L320.327 98.5771C319.727 98.6158 319.185 98.2096 319.05 97.6229L316.574 89.7697C315.968 87.8547 316.136 85.6174 317.754 84.4246C318.257 84.0764 318.953 84.3859 319.031 84.992L321.1 95.3082Z" fill="url(#paint29_linear_94_7226)"/>
<path opacity="0.4" d="M316.768 90.3501L318.695 98.0034C318.695 98.0034 319.108 99.1511 320.842 98.8352C322.577 98.5257 329.566 97.4103 329.566 97.4103L329.592 96.8945L320.398 98.5579C320.398 98.5579 319.289 98.3516 319.057 97.6166C318.831 96.888 316.768 90.3501 316.768 90.3501Z" fill="#1A2958"/>
<path d="M358.677 96.753L356.814 96.205L356.84 95.3926L358.903 95.6569L358.677 96.753Z" fill="#FFC590"/>
<path d="M370.522 134.71L372.707 134.587L372.398 136.934L372.566 138.314L372.54 138.933L370.87 138.959L370.483 138.714L369.722 138.701L369.503 138.965L365.931 138.791L365.944 138.379L368.504 137.805L370.064 136.812L370.522 134.71Z" fill="#141F42"/>
<path d="M373.391 130.023L374.377 128.301L376.357 130.532L377.569 131.029L378.065 131.332L377.33 132.718L376.943 132.924L376.589 133.543L376.705 133.84L374.081 136.574L373.745 136.374L375.17 134.104L375.19 132.402L373.391 130.023Z" fill="#141F42"/>
<path d="M373.075 100.84L371.708 120.86L369.928 136.625L372.662 136.083L375.119 121.421L380.87 100.408L373.075 100.84Z" fill="url(#paint30_linear_94_7226)"/>
<path d="M368.929 100.525L365.002 119.597L374.712 132.35L376.086 130.01L368.542 119.274L376.473 100.105L368.929 100.525Z" fill="url(#paint31_linear_94_7226)"/>
<path d="M376.37 78.9641L372.024 78.6675L371.863 80.7565L371.353 82.1041L371.74 82.3491L371.663 83.3742C371.669 83.6193 371.869 83.8062 372.114 83.7934L374.126 83.6708L373.616 86.9075L376.105 87.217L375.854 83.097L376.37 78.9641Z" fill="#FFC590"/>
<path d="M368.742 100.905L380.618 101.717L383.32 88.6543C383.719 87.0811 382.598 85.9076 381.714 85.8496L368.413 84.8502C367.813 84.8116 367.323 85.3145 367.381 85.9141L368.742 100.905Z" fill="url(#paint32_linear_94_7226)"/>
<path d="M374.196 79.0473C374.196 79.0473 373.816 78.5509 373.519 79.0344C373.087 79.7308 372.578 79.6792 371.83 79.5503C370.728 79.3697 371.54 77.7578 372.443 77.5064C372.443 77.5064 372.636 77.4419 373.345 77.5708C374.055 77.6998 374.435 77.79 374.712 78.0157C374.989 78.2414 376.098 78.3059 376.279 78.3703C376.46 78.4348 376.898 79.3891 376.853 79.8597C376.821 80.1628 376.028 81.9552 376.028 81.9552L375.499 81.7747L375.402 80.3562L375.054 80.2208L374.764 80.7624L374.512 80.685L374.551 80.0919L374.216 79.9113L374.067 79.5374L374.3 79.2537L374.196 79.0473Z" fill="#091018"/>
<path d="M373.564 85.1858L373.9 84.728L374.764 85.2503L373.784 86.398L373.564 85.1858Z" fill="#8D8F90"/>
<path d="M376.298 85.3725L376.021 84.8696L375.151 85.2823L375.995 86.5525L376.298 85.3725Z" fill="#8D8F90"/>
<path d="M375.157 85.3145L374.751 85.2822L374.383 85.7013L374.706 86.172L375.099 86.1978L375.46 85.7465L375.157 85.3145Z" fill="white"/>
<path d="M357.478 96.469L363.609 98.2485C364.222 98.3195 364.796 97.9391 364.957 97.3459L367.742 89.8666L368.458 84.902C367.246 84.5667 365.995 85.2695 365.66 86.4816L363.003 95.8887L357.316 95.2311L357.478 96.469Z" fill="url(#paint33_linear_94_7226)"/>
<path d="M374.706 86.1274L372.771 98.4811L373.513 99.5643L374.577 98.6487L375.099 86.1597L374.706 86.1274Z" fill="white"/>
<path d="M365.466 100.002L370.173 99.3574L356.394 92.6841L354.002 94.4507L365.466 100.002Z" fill="#7C79FF"/>
<path d="M365.363 93.9542L353.893 88.4028L354.002 94.4507L365.466 100.002L365.363 93.9542Z" fill="#001A49"/>
<path d="M356.878 94.0833L356.485 94.0575L356.446 95.3148H356.394L356.452 93.6706L356.059 93.6448L356.001 95.289H355.943L356.02 93.3998L355.627 93.374L355.55 95.2632L355.492 95.2567L355.556 93.5804L355.163 93.561L355.092 95.3277L356.813 96.2045L356.878 94.0833Z" fill="#FFD1A6"/>
<path d="M371.811 96.0181L369.741 95.4055L369.058 95.2314L367.859 95.6441L367.884 95.9278L368.619 95.715L366.775 96.8369L366.969 97.1399L368.297 96.3404L368.323 96.3856L367.788 96.708L368.104 96.9465L368.523 96.695L368.548 96.7338L368.142 96.9787L368.458 97.2173L368.742 97.0432L368.768 97.0819L368.497 97.2431L368.781 97.4623L369.638 96.9078L369.754 96.8305L370.18 96.5339L372.127 97.256L371.811 96.0181Z" fill="#FFC590"/>
<path opacity="0.2" d="M371.624 97.5525L377.865 100.003L378.703 99.7447L379.29 99.1193L382.52 92.5298L379.587 99.835C379.587 99.835 379.026 101.047 377.652 100.402C376.382 99.8027 371.624 97.5525 371.624 97.5525Z" fill="#1A2958"/>
<path d="M377.62 97.8815L370.547 95.4313L370.341 96.9917L377.943 100.299C378.542 100.448 379.155 100.132 379.387 99.5643L382.856 91.7949C383.797 89.9767 384.016 87.6942 382.604 86.2113C382.16 85.7728 381.405 85.9662 381.225 86.5659L377.62 97.8815Z" fill="url(#paint34_linear_94_7226)"/>
<path opacity="0.2" d="M370.515 95.6372L370.251 96.5528L370.386 96.6044L370.515 95.6372Z" fill="#1A2958"/>
<path d="M251.479 133.362L249.59 133.511L249.712 136.928L249.487 137.959L249.441 138.688L253.484 138.946L253.51 138.514L252.465 137.805L251.763 136.928L251.479 133.362Z" fill="#141F42"/>
<path d="M249.983 138.721L250.118 138.476L250.37 138.489L250.511 138.753L249.983 138.721Z" fill="#606060"/>
<path d="M261.015 94.0262L260.589 93.9037L260.228 95.2706L260.17 95.2577L260.647 93.4652L260.222 93.3427L259.744 95.1352L259.686 95.1158L260.241 93.059L259.815 92.9365L259.261 94.9933L259.196 94.974L259.686 93.1493L259.261 93.0203L258.577 95.5671L258.197 94.7483L257.855 94.8192L258.468 96.5407L258.326 97.308L257.817 98.7136L259.358 99.2165L259.957 97.4176L260.273 96.5149L260.357 96.5343L261.015 94.0262Z" fill="#FFC590"/>
<path d="M254.896 109.519C255.689 109.525 256.34 108.983 256.824 107.9L256.863 107.81L260.048 98.1707L257.855 97.397L255.089 105.34L251.872 97.6871C251.202 95.9721 249.441 96.2622 248.139 96.2816L248.216 96.417L250.834 102.755L252.826 107.565C253.046 108.094 253.626 109.493 254.883 109.512C254.89 109.519 254.89 109.519 254.896 109.519Z" fill="url(#paint35_linear_94_7226)"/>
<path d="M248.229 112.272H236.321L234.515 99.0484C234.225 97.4558 235.424 96.3597 236.308 96.3597L249.648 96.2759C250.247 96.2759 250.705 96.8175 250.602 97.4042L248.229 112.272Z" fill="#9F06FF"/>
<path d="M237.229 134.594L239.286 134.581L239.783 136.922L239.97 138.263L239.963 138.862L238.59 138.92L238.203 138.688H237.461L237.255 138.953L233.503 139.011L233.509 138.604L236.256 137.844L237.474 136.844L237.229 134.594Z" fill="#141F42"/>
<path d="M252.001 115.264L248.3 114.097L248.229 112.272H236.32L235.914 114.213L233.122 115.696C232.123 116.135 231.955 116.876 231.962 117.295L236.817 135.774L239.873 135.729L237.017 118.617L239.37 117.863H245.83C245.927 117.863 246.017 117.843 246.108 117.837L247.733 118.082L249.228 135.71L251.801 135.755L252.497 116.206C252.497 115.786 252.394 115.599 252.001 115.264Z" fill="url(#paint36_linear_94_7226)"/>
<path d="M247.075 93.3293L246.662 91.9495L246.643 89.854H242.291L242.523 94.0127L241.988 98.107L244.489 97.9651L244.206 94.7026L246.205 94.967C246.443 94.9992 246.662 94.8251 246.682 94.5801L246.675 93.5549L247.075 93.3293Z" fill="#FFC590"/>
<path d="M244.451 90.0866C244.451 90.0866 244.863 89.6224 245.128 90.1189C245.508 90.841 246.024 90.8217 246.778 90.7507C247.894 90.6411 247.191 88.9777 246.308 88.6682C246.308 88.6682 246.121 88.5908 245.398 88.6682C244.676 88.7455 244.296 88.81 244.006 89.0164C243.716 89.2227 242.6 89.2098 242.42 89.2613C242.239 89.3129 241.73 90.235 241.743 90.7056C241.749 91.0087 242.42 92.8527 242.42 92.8527L242.961 92.7108L243.155 91.2988L243.509 91.1892L243.761 91.7501L244.019 91.6921V91.0989L244.367 90.9377L244.541 90.5767L244.328 90.2801L244.451 90.0866Z" fill="#141F42"/>
<path d="M244.663 96.2565L244.36 95.7729L243.458 96.2436L244.36 97.4558L244.663 96.2565Z" fill="url(#paint37_linear_94_7226)"/>
<path d="M241.917 96.2565L242.233 95.7729L243.071 96.2436L242.143 97.4558L241.917 96.2565Z" fill="url(#paint38_linear_94_7226)"/>
<path d="M243.065 96.2695H243.471L243.813 96.7144L243.458 97.1657H243.065L242.729 96.6886L243.065 96.2695Z" fill="white"/>
<path d="M243.458 97.1211L244.541 109.578L243.729 110.61L242.729 109.623L243.065 97.1211H243.458Z" fill="white"/>
<path d="M236.836 111.48L238.603 112.86L239.286 113.034L240.15 113.962L239.995 114.201L239.441 113.666L240.401 115.303L240.008 115.349L239.434 114.369L239.389 114.394L239.705 114.936L239.318 114.994L239.067 114.575L239.028 114.594L239.267 115.007L238.88 115.065L238.706 114.775L238.667 114.801L238.828 115.071L238.474 115.129L237.984 114.24L237.913 114.111L237.681 113.646L235.972 112.421L236.836 111.48Z" fill="white"/>
<path d="M233.651 108.417L237.507 98.6424C237.868 97.7978 237.494 96.8177 236.662 96.4309C235.798 96.0311 234.773 96.4115 234.393 97.2819C233.329 99.7127 232.291 102.788 232.271 102.891L230.273 108.855C230.079 109.442 230.343 110.08 230.891 110.358L237.281 113.588L238.139 112.273L233.651 108.417Z" fill="url(#paint39_linear_94_7226)"/>
<path d="M242.388 116.231L243.935 114.612L231.511 114.651L229.776 116.231H242.388Z" fill="#CACBCC"/>
<path d="M240.737 110.416H228.125L229.776 116.231H242.387L240.737 110.416Z" fill="#F1F2F2"/>
<path opacity="0.2" d="M258.042 136.792C258.042 137.36 262.988 137.824 269.087 137.824C275.186 137.824 280.132 137.366 280.132 136.792C280.132 136.225 275.186 135.761 269.087 135.761C262.988 135.767 258.042 136.225 258.042 136.792Z" fill="#005386"/>
<path d="M268.919 81.5813C268.919 82.2325 269.448 82.7612 270.099 82.7612C270.75 82.7612 271.279 82.2325 271.279 81.5813C271.279 80.9301 270.75 80.4014 270.099 80.4014C269.448 80.4014 268.919 80.9301 268.919 81.5813Z" fill="#1A2958"/>
<path d="M275.374 132.815L274.019 132.957L273.884 134.852L271.834 135.955L272.079 136.445L275.393 136.387L275.477 135.375L275.419 134.794L275.374 132.815Z" fill="#FFC590"/>
<path d="M275.547 135.369L275.509 135.053C275.509 134.879 275.096 135.22 274.973 135.246C274.451 135.381 273.439 135.813 272.678 135.833C272.568 135.833 272.762 135.523 272.878 135.369L272.775 135.33L271.982 135.678L269.441 136.355V136.787H275.586L275.592 136.142L275.547 135.369Z" fill="#141F42"/>
<path d="M269.441 136.793V136.58L275.592 136.187V136.406L275.586 136.793H269.441Z" fill="#58595B"/>
<path d="M266.946 132.815L265.592 132.957L265.457 134.852L263.406 135.955L263.651 136.445L266.965 136.387L267.049 135.375L266.991 134.794L266.946 132.815Z" fill="#FFC590"/>
<path d="M267.12 135.369L267.081 135.053C267.081 134.879 266.668 135.22 266.546 135.246C266.024 135.381 265.011 135.813 264.251 135.833C264.141 135.833 264.334 135.523 264.451 135.369L264.347 135.33L263.554 135.678L261.014 136.355V136.787H267.158L267.165 136.142L267.12 135.369Z" fill="#141F42"/>
<path d="M261.014 136.793V136.58L267.165 136.187V136.406L267.158 136.793H261.014Z" fill="#58595B"/>
<path d="M266.617 98.7584L265.321 119.481L265.308 134.072L267.61 133.666L268.726 118.933L273.11 98.5972L266.617 98.7584Z" fill="#2D489C"/>
<path d="M270.563 98.4034L272.653 119.442L273.652 134.149L275.689 134.072L275.947 119.191L276.753 98.3647L270.563 98.4034Z" fill="#2D489C"/>
<path d="M274.361 78.3574H270.344V83.2705L271.66 83.8701L271.428 86.533L273.858 86.6684L273.472 83.709L274.361 83.2705V78.3574Z" fill="#FFC590"/>
<path d="M276.721 99.1126H266.572L264.999 87.5843C264.715 86.0368 265.876 84.973 266.74 84.973L277.952 84.8892C278.533 84.8892 278.977 85.4114 278.881 85.9853L276.721 99.1126Z" fill="url(#paint40_linear_94_7226)"/>
<path d="M267.823 92.994L269.364 91.9817L269.944 91.8076L270.989 92.1171L270.976 92.3621L270.331 92.2074L271.956 93.1036L271.801 93.3744L270.634 92.7296L270.615 92.7683L271.085 93.0327L270.821 93.2454L270.454 93.0391L270.434 93.0778L270.789 93.2777L270.531 93.4904L270.273 93.3486L270.254 93.3873L270.492 93.5162L270.26 93.7097L269.506 93.2648L269.403 93.2068L269.08 93.4453L268.042 94.2642L267.823 92.994Z" fill="#FFC590"/>
<path d="M273.633 84.9219L272.414 90.8214L271.569 84.9348L273.633 84.9219Z" fill="white"/>
<path d="M270.099 81.1753C270.637 81.1753 271.073 80.6817 271.073 80.0728C271.073 79.4638 270.637 78.9702 270.099 78.9702C269.562 78.9702 269.126 79.4638 269.126 80.0728C269.126 80.6817 269.562 81.1753 270.099 81.1753Z" fill="#1A2958"/>
<path d="M275.999 81.1431C276.07 80.8723 276.108 80.5757 276.108 80.2598C276.108 79.1959 275.663 78.3126 275.064 78.0869C274.967 77.7323 274.245 77.3261 273.316 77.1456C272.265 76.9392 271.356 77.0811 271.279 77.4615C271.279 77.4679 271.279 77.4808 271.279 77.4873C271.15 77.5002 271.105 77.5131 271.105 77.5131C270.247 77.8161 269.564 79.428 270.647 79.5312C271.382 79.6021 271.872 79.6214 272.246 78.9186C272.504 78.4286 272.904 78.8864 272.904 78.8864L272.917 78.9122C272.923 78.9896 272.942 79.0669 272.981 79.1314C272.904 79.1959 272.846 79.2668 272.813 79.3635L272.807 79.37V79.3764C272.794 79.428 272.775 79.4796 272.775 79.5312C272.775 79.6472 272.82 79.7504 272.884 79.8407C272.833 79.9503 272.801 80.0728 272.801 80.2017C272.801 80.5048 272.962 80.7691 273.2 80.9174C273.181 81.0012 273.168 81.0851 273.168 81.1753C273.168 81.6976 273.503 82.1296 273.974 82.2843C274.142 82.7292 274.567 83.0451 275.07 83.0451C275.721 83.0451 276.25 82.5164 276.25 81.8652C276.263 81.5944 276.16 81.343 275.999 81.1431Z" fill="#1A2958"/>
<path d="M273.632 84.9219L274.58 86.3275H273.613L274.251 88.2746L272.414 90.8214L273.632 84.9219Z" fill="#94C7F7"/>
<path d="M271.569 84.9219L270.763 86.3984H271.724L270.95 88.2746L272.414 90.8214L271.569 84.9219Z" fill="#94C7F7"/>
<path d="M272.079 95.1855L273.555 95.2242C273.716 95.2307 273.852 95.1017 273.858 94.9341L273.974 91.5749C273.981 91.4072 273.852 91.2718 273.691 91.2718L272.214 91.2331C272.053 91.2267 271.918 91.3557 271.911 91.5233L271.795 94.8825C271.782 95.0437 271.911 95.1855 272.079 95.1855Z" fill="#1A2958"/>
<path d="M272.299 91.6988L272.776 91.7117C272.841 91.7117 272.892 91.6601 272.892 91.6021C272.892 91.5376 272.841 91.486 272.783 91.486L272.306 91.4731C272.241 91.4731 272.189 91.5247 272.189 91.5827C272.189 91.6408 272.241 91.6988 272.299 91.6988Z" fill="#D1D4DE"/>
<path d="M274.974 93.986L274.677 93.7926L274.303 93.5025L273.917 93.251L273.904 93.4895L274.084 93.6314L274.091 93.683L272.75 93.2252L272.182 92.9028L272.189 93.2059L272.717 93.5669L273.433 93.9796V94.0247L272.524 93.7732L271.789 93.3993L271.821 93.6507L272.44 93.9989L273.394 94.3471V94.3858L272.466 94.1214L271.866 93.7539L271.879 94.0118L272.459 94.3987L273.362 94.7082L273.356 94.7468L272.833 94.6114L272.369 94.4116L272.453 94.6437L272.891 94.8694L273.994 95.0757L274.174 95.1144L274.626 95.1337L276.489 95.5593L277.218 94.4374L274.974 93.986Z" fill="#FFC590"/>
<path d="M275.154 93.8507L278.965 94.1408L277.05 87.2612C276.766 86.4295 277.172 85.127 278.036 84.953C278.797 84.7982 279.545 85.2753 279.732 86.0233L281.615 95.9333C281.615 96.4491 281.234 96.8875 280.725 96.9649L275.135 95.4239L275.154 93.8507Z" fill="url(#paint41_linear_94_7226)"/>
<path d="M268.681 92.2267L265.328 94.5414L267.965 87.0428C268.113 86.1724 267.797 85.0118 266.92 84.986L266.624 84.928C265.85 84.9022 264.954 85.5534 264.954 86.6366L263.007 96.0244C263.007 96.7014 264.251 98.0618 265.328 97.3461L268.945 93.8644L268.681 92.2267Z" fill="url(#paint42_linear_94_7226)"/>
<path opacity="0.25" d="M267.056 89.6348L265.779 93.2712L265.818 93.6001L267.056 89.6348Z" fill="#1A2958"/>
<path opacity="0.25" d="M268.945 93.8643L266.218 96.4884L266.256 96.8044L268.945 93.8643Z" fill="#1A2958"/>
<path opacity="0.25" d="M277.282 88.0933L278.068 90.9173L277.875 92.0714L277.282 88.0933Z" fill="#1A2958"/>
<path opacity="0.25" d="M275.128 95.4243L277.185 96.3077L277.23 96.0046L275.128 95.4243Z" fill="#1A2958"/>
<path d="M193.889 87.906L192.509 86.307L192.232 86.0555L191.284 84.521L191.148 84.9014L191.477 85.6429L191.464 85.7912L188.376 85.14L188.273 85.501L190.8 86.0362L190.794 86.0878L188.827 85.6558L188.879 86.0426L190.736 86.4488L190.723 86.5004L188.905 86.1522L188.963 86.5327L190.665 86.8615L190.658 86.9066L188.969 86.5907L188.995 86.9324L191.548 87.4611L191.561 87.3837L192.083 87.4482L193.025 88.9828L193.889 87.906Z" fill="#FFC590"/>
<path opacity="0.2" d="M225.966 133.221C225.966 133.788 219.131 134.252 210.698 134.252C202.264 134.252 195.43 133.794 195.43 133.221C195.43 132.653 202.264 132.189 210.698 132.189C219.131 132.189 225.966 132.653 225.966 133.221Z" fill="#005386"/>
<path d="M209.428 84.1671C209.428 84.7603 208.944 85.2438 208.351 85.2438C207.758 85.2438 207.274 84.7603 207.274 84.1671C207.274 83.5739 207.758 83.0903 208.351 83.0903C208.95 83.0968 209.428 83.5739 209.428 84.1671Z" fill="#141F42"/>
<path d="M204.186 129.01L202.754 129.158L202.612 131.163L200.439 132.33L200.697 132.846L204.205 132.788L204.295 131.718L204.231 131.105L204.186 129.01Z" fill="#FFC590"/>
<path d="M204.366 131.711L204.321 131.376C204.321 131.195 203.883 131.55 203.754 131.582C203.206 131.724 202.129 132.182 201.329 132.201C201.213 132.201 201.42 131.872 201.542 131.711L201.433 131.672L200.594 132.046L197.912 132.762V133.22H204.418L204.424 132.536L204.366 131.711Z" fill="#141F42"/>
<path d="M197.912 133.22V132.994L204.418 132.582V132.807L204.411 133.22H197.912Z" fill="#58595B"/>
<path d="M221.774 124.168L221.046 125.406L222.574 126.715L222.226 129.152L222.8 129.256L224.837 126.399L224.025 125.69L223.49 125.374L221.774 124.168Z" fill="#FFC590"/>
<path d="M224.063 125.626L223.767 125.458C223.618 125.355 223.644 125.916 223.599 126.038C223.386 126.567 223.116 127.702 222.658 128.359C222.593 128.456 222.445 128.095 222.393 127.902L222.297 127.966L222.097 128.862L221.078 131.448L221.446 131.725L225.308 126.496L224.76 126.09L224.063 125.626Z" fill="#141F42"/>
<path d="M221.439 131.718L221.259 131.583L224.792 126.103L224.972 126.238L225.301 126.489L221.439 131.718Z" fill="#58595B"/>
<path d="M203.56 98.126L202.38 117.024L202.367 130.332L204.463 129.964L205.488 116.528L209.64 97.2749L203.56 98.126Z" fill="#223675"/>
<path d="M206.997 97.275L209.305 117.675L221.987 126.734L222.742 124.568L212.206 116.463L212.857 96.4175L206.997 97.275Z" fill="#223675"/>
<path d="M210.64 82.8709L210.272 81.6523L210.259 79.7954H206.41L206.616 83.4706L206.146 87.0941L208.364 86.9716L208.112 84.0831L209.879 84.3152C210.092 84.341 210.285 84.1863 210.298 83.9735L210.291 83.0644L210.64 82.8709Z" fill="#FFC590"/>
<path d="M203.592 98.4482H212.787L214.224 87.9321C214.482 86.5201 213.425 85.553 212.638 85.553L202.412 85.4756C201.884 85.4756 201.478 85.9527 201.568 86.475L203.592 98.4482Z" fill="url(#paint43_linear_94_7226)"/>
<path d="M192.264 88.0288L196.958 96.4172C197.377 96.7654 197.989 96.7589 198.396 96.3979L203.096 89.8019C203.096 89.8019 204.037 88.4093 203.889 87.6807C203.837 87.4357 203.579 86.5652 203.386 86.2364C202.812 85.2822 202.109 85.237 201.458 86.0623L197.667 93.1805L193.412 86.965L192.264 88.0288Z" fill="url(#paint44_linear_94_7226)"/>
<path d="M191.632 88.1968L189.446 89.0544C189.362 89.0672 189.285 89.0157 189.272 88.9318L188.273 83.1806C188.26 83.0967 188.312 83.0194 188.395 83.0065L190.581 82.1489C190.665 82.136 190.742 82.1876 190.755 82.2714L191.755 88.0227C191.767 88.1065 191.716 88.1839 191.632 88.1968Z" fill="#141F42"/>
<path d="M191.452 87.4295L189.356 88.2419L188.55 83.6254L190.652 82.813L191.452 87.4295Z" fill="white"/>
<path d="M206.346 85.5083L207.455 90.8856L208.228 85.5212L206.346 85.5083Z" fill="white"/>
<path d="M209.956 78.7509C209.956 78.7509 209.917 78.7316 209.801 78.7251C209.801 78.7187 209.808 78.7058 209.801 78.6993C209.73 78.3447 208.899 78.2158 207.944 78.4092C207.093 78.5768 206.436 78.9443 206.352 79.2732C205.83 79.473 205.443 80.221 205.41 81.1365C204.875 81.1688 204.45 81.5879 204.405 82.1166C204.179 82.3164 204.031 82.6001 204.031 82.929C204.031 83.0902 204.069 83.2449 204.134 83.3803C203.921 83.5737 203.779 83.8574 203.779 84.1734C203.779 84.7665 204.263 85.2501 204.856 85.2501C204.985 85.2501 205.101 85.2243 205.217 85.1856C205.41 85.3597 205.655 85.4629 205.933 85.4629C206.526 85.4629 207.009 84.9793 207.009 84.3861C207.009 84.341 207.003 84.3023 206.997 84.2572C207.371 84.0895 207.628 83.7156 207.628 83.2836C207.628 83.2062 207.622 83.1353 207.609 83.0644C207.977 82.8967 208.234 82.5228 208.234 82.0908C208.234 81.9747 208.209 81.8651 208.176 81.7619C208.325 81.6201 208.421 81.4267 208.421 81.201C208.421 81.085 208.389 80.9753 208.344 80.8722C208.402 80.7884 208.447 80.6981 208.447 80.5885C208.447 80.5369 208.434 80.4918 208.421 80.4466V80.4402L208.415 80.4337C208.383 80.3435 208.331 80.2661 208.254 80.2081L208.228 80.1758L208.338 80.0017C208.338 80.0017 208.699 79.5891 208.937 80.034C209.273 80.6723 209.73 80.6594 210.394 80.5949C211.362 80.4982 210.736 79.0282 209.956 78.7509Z" fill="#141F42"/>
<path d="M206.346 85.5083L205.482 86.7849H206.358L205.785 88.5645L207.455 90.8856L206.346 85.5083Z" fill="#94C7F7"/>
<path d="M208.228 85.5083L208.963 86.8559H208.086L208.796 88.5645L207.454 90.8856L208.228 85.5083Z" fill="#94C7F7"/>
<path d="M224.096 92.671L225.327 92.0262L225.953 91.8457L227.075 92.1745L227.062 92.4389L226.372 92.2712L228.126 93.2384L227.951 93.5285L226.694 92.8386L226.668 92.8773L227.178 93.161L226.901 93.3931L226.501 93.1739L226.481 93.2126L226.862 93.4254L226.578 93.651L226.307 93.5027L226.288 93.5414L226.546 93.6833L226.288 93.896L225.482 93.4125L225.366 93.348L224.915 93.2448L223.806 93.9928L224.096 92.671Z" fill="#FFC590"/>
<path d="M224.521 92.3422L217.532 94.2958L214.308 86.9584C213.87 85.7914 212.999 85.282 211.059 85.5464L210.362 85.5399C210.44 85.714 213.477 91.9295 213.567 92.0907L215.901 96.6105C216.127 97.107 216.681 97.3584 217.21 97.2101L224.76 93.7091L224.521 92.3422Z" fill="url(#paint45_linear_94_7226)"/>
<path d="M225.828 85.7593L225.474 85.6626L225.499 86.043L225.79 86.0817L225.828 85.7593Z" fill="#FFC590"/>
<path d="M225.977 86.2496L225.551 86.1465L225.616 86.5333L225.938 86.572L225.977 86.2496Z" fill="#FFC590"/>
<path d="M225.828 86.6687L225.615 86.5913L225.648 86.9332H225.828V86.6687Z" fill="#FFC590"/>
<path opacity="0.5" d="M207.545 102.111L207.906 105.315L207.725 106.115L207.545 102.111Z" fill="#141F42"/>
<path opacity="0.2" d="M255.263 138.753C255.263 139.146 250.086 139.468 243.703 139.468C237.313 139.468 232.142 139.153 232.142 138.753C232.142 138.359 237.32 138.037 243.703 138.037C250.086 138.044 255.263 138.359 255.263 138.753Z" fill="#005386"/>
<path d="M219.724 54.9275L221.446 69.0736C221.536 69.7957 222.161 70.3309 222.89 70.3051L242.542 69.5571L247.256 75.0376C247.462 75.2826 247.862 75.1085 247.829 74.7926L247.268 69.0865L251.756 68.9124C252.401 68.8866 252.949 68.4224 253.078 67.7905L255.031 58.19C255.199 57.3776 254.619 56.5974 253.793 56.5136L221.246 53.3672C220.356 53.2769 219.615 54.0377 219.724 54.9275Z" fill="#001A49"/>
<path d="M284.678 46.1912L286.399 60.3372C286.49 61.0594 287.115 61.5945 287.844 61.5687L307.496 60.8208L312.209 66.3013C312.415 66.5463 312.815 66.3722 312.783 66.0563L312.222 60.3501L316.71 60.1761C317.354 60.1503 317.902 59.686 318.031 59.0542L319.985 49.4536C320.153 48.6412 319.572 47.8611 318.747 47.7773L286.199 44.6308C285.31 44.5406 284.568 45.3014 284.678 46.1912Z" fill="#001A49"/>
<path d="M385.989 53.9607L384.268 68.1068C384.177 68.8289 383.552 69.3641 382.823 69.3383L363.171 68.5903L358.458 74.0708C358.252 74.3158 357.852 74.1418 357.884 73.8258L358.445 68.1197L353.957 67.9456C353.313 67.9198 352.765 67.4556 352.636 66.8237L350.682 57.2232C350.514 56.4108 351.095 55.6306 351.92 55.5468L384.468 52.4004C385.357 52.3101 386.099 53.0709 385.989 53.9607Z" fill="#001A49"/>
<path d="M343.938 60.2596L329.147 62.8322C328.863 62.858 328.65 63.0966 328.65 63.3738V67.8098C328.65 68.0935 328.87 68.3321 329.16 68.3578L331.642 68.5384L331.075 71.6719C331.113 71.7944 331.287 71.7815 331.313 71.659L333.48 68.9833L343.744 69.3056C344.112 69.3508 344.421 69.0219 344.35 68.6609L344.524 60.7045C344.473 60.4273 344.221 60.2338 343.938 60.2596Z" fill="#001A49"/>
<path d="M158.031 81.9043C157.902 81.9043 157.78 81.9043 157.651 81.8978C152.473 81.6592 149.308 76.6108 149.172 76.398C148.83 75.8435 148.676 75.2052 148.527 74.5862C148.224 73.3225 147.967 72.2393 146.239 71.9298C143.421 71.4333 141.377 69.3701 141.293 69.2798L140.616 68.5835L141.538 68.893C143.202 69.4539 144.633 69.3765 145.794 68.6737C147.986 67.3391 148.502 64.1797 148.508 64.1475C148.734 63.2964 148.547 61.9424 148.321 60.3756C147.78 56.5522 146.967 50.7687 151.229 45.7653C152.938 43.7601 154.898 42.7027 157.058 42.6318C160.243 42.5415 162.97 44.579 164.034 45.5139C163.679 41.742 164.892 38.2796 167.425 35.9327C170.785 32.8185 176.175 31.8836 182.603 33.2956C187.02 34.2628 189.921 36.1261 191.23 38.8277C192.745 41.9548 191.656 45.2044 191.237 46.2166C192.191 46.3134 194.886 46.784 196.691 49.0923C198.393 51.2651 198.793 54.4245 197.884 58.4865C197.039 62.2648 195.402 64.7407 193.01 65.8497C190.36 67.0812 187.523 66.301 186.156 65.7723C191.153 72.884 186.639 77.4554 186.594 77.5005C182.577 81.0403 178.851 82.4265 175.511 81.6399C171.281 80.6405 169.031 76.5011 168.425 75.2245C165.02 79.654 161.526 81.9043 158.031 81.9043ZM142.389 69.6022C143.215 70.2405 144.633 71.1625 146.322 71.4591C148.353 71.8137 148.676 73.1613 148.985 74.4637C149.127 75.044 149.269 75.6436 149.572 76.1401C149.604 76.1917 152.738 81.195 157.67 81.4207C161.203 81.5948 164.788 79.293 168.302 74.612L168.554 74.2832L168.709 74.67C168.728 74.7216 170.959 80.0796 175.633 81.1757C178.818 81.9236 182.397 80.5696 186.285 77.1524C186.465 76.9783 190.83 72.5165 185.272 65.3403L184.615 64.4892L185.569 64.9857C185.608 65.005 189.457 66.978 192.829 65.4112C195.079 64.3667 196.633 62.0004 197.439 58.3769C198.316 54.4632 197.942 51.4392 196.337 49.3824C194.299 46.7776 190.927 46.6615 190.895 46.6615L190.527 46.6551L190.688 46.3263C190.708 46.2876 192.5 42.5093 190.817 39.034C189.573 36.4678 186.781 34.6947 182.519 33.7598C176.246 32.3865 171.004 33.2827 167.761 36.2873C165.201 38.66 164.047 42.2385 164.588 46.1006L164.692 46.8098L164.189 46.294C164.157 46.2618 161.042 43.1025 157.303 43.1025C157.232 43.1025 157.154 43.1024 157.083 43.1089C155.059 43.1734 153.215 44.1728 151.597 46.0748C147.47 50.9234 148.237 56.3523 148.798 60.3176C149.037 62.0069 149.224 63.3351 148.979 64.2507C148.959 64.3667 148.424 67.6357 146.045 69.0799C145.001 69.6989 143.776 69.8794 142.389 69.6022Z" fill="url(#paint46_linear_94_7226)"/>
<path opacity="0.2" d="M142.692 135.574C142.692 136.141 135.858 136.606 127.424 136.606C118.991 136.606 112.156 136.148 112.156 135.574C112.156 135 118.991 134.542 127.424 134.542C135.858 134.542 142.692 135.007 142.692 135.574Z" fill="#005386"/>
<defs>
<linearGradient id="paint0_linear_94_7226" x1="125.069" y1="140.79" x2="141.905" y2="133.972" gradientUnits="userSpaceOnUse">
<stop stop-color="#CD10FF"/>
<stop offset="1" stop-color="#9F06FF"/>
</linearGradient>
<linearGradient id="paint1_linear_94_7226" x1="119.24" y1="141.789" x2="129.35" y2="139.52" gradientUnits="userSpaceOnUse">
<stop stop-color="#CD10FF"/>
<stop offset="1" stop-color="#9F06FF"/>
</linearGradient>
<linearGradient id="paint2_linear_94_7226" x1="107.745" y1="94.9324" x2="115.864" y2="93.6855" gradientUnits="userSpaceOnUse">
<stop offset="0.0027027" stop-color="#223675"/>
<stop offset="1" stop-color="#2D489C"/>
</linearGradient>
<linearGradient id="paint3_linear_94_7226" x1="117.069" y1="101.041" x2="121.121" y2="80.7036" gradientUnits="userSpaceOnUse">
<stop offset="0.0027027" stop-color="#223675"/>
<stop offset="1" stop-color="#2D489C"/>
</linearGradient>
<linearGradient id="paint4_linear_94_7226" x1="128.555" y1="76.2951" x2="130.379" y2="76.0148" gradientUnits="userSpaceOnUse">
<stop offset="0.0027027" stop-color="#223675"/>
<stop offset="1" stop-color="#2D489C"/>
</linearGradient>
<linearGradient id="paint5_linear_94_7226" x1="131.246" y1="78.1887" x2="133.958" y2="75.114" gradientUnits="userSpaceOnUse">
<stop stop-color="#CD10FF"/>
<stop offset="1" stop-color="#9F06FF"/>
</linearGradient>
<linearGradient id="paint6_linear_94_7226" x1="131.217" y1="90.2775" x2="129.724" y2="80.5554" gradientUnits="userSpaceOnUse">
<stop offset="0.0027027" stop-color="#223675"/>
<stop offset="1" stop-color="#2D489C"/>
</linearGradient>
<linearGradient id="paint7_linear_94_7226" x1="136.31" y1="70.1752" x2="139.36" y2="69.7067" gradientUnits="userSpaceOnUse">
<stop offset="0.0027027" stop-color="#223675"/>
<stop offset="1" stop-color="#2D489C"/>
</linearGradient>
<linearGradient id="paint8_linear_94_7226" x1="56.2302" y1="140.678" x2="122.064" y2="86.2441" gradientUnits="userSpaceOnUse">
<stop stop-color="#CD10FF"/>
<stop offset="1" stop-color="#9F06FF"/>
</linearGradient>
<linearGradient id="paint9_linear_94_7226" x1="51.5708" y1="71.813" x2="58.7386" y2="63.4729" gradientUnits="userSpaceOnUse">
<stop stop-color="#CD10FF"/>
<stop offset="1" stop-color="#9F06FF"/>
</linearGradient>
<linearGradient id="paint10_linear_94_7226" x1="33.6931" y1="85.9986" x2="40.4101" y2="78.0766" gradientUnits="userSpaceOnUse">
<stop stop-color="#CD10FF"/>
<stop offset="1" stop-color="#9F06FF"/>
</linearGradient>
<linearGradient id="paint11_linear_94_7226" x1="286.419" y1="120.403" x2="307.662" y2="112.671" gradientUnits="userSpaceOnUse">
<stop stop-color="#1868B3"/>
<stop offset="1" stop-color="#208AEE"/>
</linearGradient>
<linearGradient id="paint12_linear_94_7226" x1="313.438" y1="128.282" x2="293.329" y2="104.317" gradientUnits="userSpaceOnUse">
<stop stop-color="#1868B3"/>
<stop offset="1" stop-color="#208AEE"/>
</linearGradient>
<linearGradient id="paint13_linear_94_7226" x1="302.475" y1="104.563" x2="313.539" y2="93.4631" gradientUnits="userSpaceOnUse">
<stop stop-color="#CD10FF"/>
<stop offset="1" stop-color="#9F06FF"/>
</linearGradient>
<linearGradient id="paint14_linear_94_7226" x1="299.647" y1="84.9696" x2="300.832" y2="84.9696" gradientUnits="userSpaceOnUse">
<stop offset="0.5216" stop-color="#208AEE"/>
<stop offset="1" stop-color="#4DA1F1"/>
</linearGradient>
<linearGradient id="paint15_linear_94_7226" x1="301.211" y1="85.0655" x2="302.343" y2="85.0655" gradientUnits="userSpaceOnUse">
<stop offset="0.5216" stop-color="#208AEE"/>
<stop offset="1" stop-color="#4DA1F1"/>
</linearGradient>
<linearGradient id="paint16_linear_94_7226" x1="309.313" y1="107.185" x2="316.058" y2="105.138" gradientUnits="userSpaceOnUse">
<stop stop-color="#CD10FF"/>
<stop offset="1" stop-color="#9F06FF"/>
</linearGradient>
<linearGradient id="paint17_linear_94_7226" x1="294.476" y1="101.662" x2="302.598" y2="97.0674" gradientUnits="userSpaceOnUse">
<stop stop-color="#CD10FF"/>
<stop offset="1" stop-color="#9F06FF"/>
</linearGradient>
<linearGradient id="paint18_linear_94_7226" x1="338.828" y1="116.01" x2="350.51" y2="116.01" gradientUnits="userSpaceOnUse">
<stop offset="0.0027027" stop-color="#223675"/>
<stop offset="1" stop-color="#2D489C"/>
</linearGradient>
<linearGradient id="paint19_linear_94_7226" x1="341.456" y1="123.768" x2="361.663" y2="106.812" gradientUnits="userSpaceOnUse">
<stop offset="0.0027027" stop-color="#223675"/>
<stop offset="1" stop-color="#2D489C"/>
</linearGradient>
<linearGradient id="paint20_linear_94_7226" x1="343.003" y1="100.741" x2="356.209" y2="85.0027" gradientUnits="userSpaceOnUse">
<stop stop-color="#208AEE"/>
<stop offset="0.8126" stop-color="#4DA1F1"/>
</linearGradient>
<linearGradient id="paint21_linear_94_7226" x1="354.695" y1="95.8148" x2="358.322" y2="85.8499" gradientUnits="userSpaceOnUse">
<stop stop-color="#208AEE"/>
<stop offset="1" stop-color="#4DA1F1"/>
</linearGradient>
<linearGradient id="paint22_linear_94_7226" x1="342.002" y1="95.1977" x2="342.002" y2="83.9841" gradientUnits="userSpaceOnUse">
<stop stop-color="#208AEE"/>
<stop offset="1" stop-color="#4DA1F1"/>
</linearGradient>
<linearGradient id="paint23_linear_94_7226" x1="325.77" y1="117.839" x2="333.248" y2="115.553" gradientUnits="userSpaceOnUse">
<stop stop-color="#1868B3"/>
<stop offset="1" stop-color="#208AEE"/>
</linearGradient>
<linearGradient id="paint24_linear_94_7226" x1="311.554" y1="124.457" x2="331.075" y2="108.077" gradientUnits="userSpaceOnUse">
<stop stop-color="#1868B3"/>
<stop offset="1" stop-color="#208AEE"/>
</linearGradient>
<linearGradient id="paint25_linear_94_7226" x1="316.646" y1="92.5731" x2="332.527" y2="92.5731" gradientUnits="userSpaceOnUse">
<stop offset="0.0027027" stop-color="#223675"/>
<stop offset="1" stop-color="#2D489C"/>
</linearGradient>
<linearGradient id="paint26_linear_94_7226" x1="325.483" y1="85.2688" x2="326.657" y2="85.2688" gradientUnits="userSpaceOnUse">
<stop stop-color="#1868B3"/>
<stop offset="1" stop-color="#208AEE"/>
</linearGradient>
<linearGradient id="paint27_linear_94_7226" x1="323.981" y1="85.0501" x2="325.107" y2="85.0501" gradientUnits="userSpaceOnUse">
<stop stop-color="#1868B3"/>
<stop offset="1" stop-color="#208AEE"/>
</linearGradient>
<linearGradient id="paint28_linear_94_7226" x1="339.843" y1="92.476" x2="330.943" y2="92.476" gradientUnits="userSpaceOnUse">
<stop offset="0.0027027" stop-color="#223675"/>
<stop offset="1" stop-color="#2D489C"/>
</linearGradient>
<linearGradient id="paint29_linear_94_7226" x1="317.153" y1="94.4282" x2="326.131" y2="89.2445" gradientUnits="userSpaceOnUse">
<stop offset="0.0027027" stop-color="#223675"/>
<stop offset="0.827" stop-color="#2D489C"/>
</linearGradient>
<linearGradient id="paint30_linear_94_7226" x1="369.927" y1="118.516" x2="380.867" y2="118.516" gradientUnits="userSpaceOnUse">
<stop offset="0.0027027" stop-color="#223675"/>
<stop offset="1" stop-color="#2D489C"/>
</linearGradient>
<linearGradient id="paint31_linear_94_7226" x1="365.005" y1="116.229" x2="376.476" y2="116.229" gradientUnits="userSpaceOnUse">
<stop offset="0.0027027" stop-color="#223675"/>
<stop offset="1" stop-color="#2D489C"/>
</linearGradient>
<linearGradient id="paint32_linear_94_7226" x1="376.413" y1="105.705" x2="387.852" y2="94.494" gradientUnits="userSpaceOnUse">
<stop stop-color="#CD10FF"/>
<stop offset="1" stop-color="#9F06FF"/>
</linearGradient>
<linearGradient id="paint33_linear_94_7226" x1="363.599" y1="101.434" x2="372.603" y2="93.7327" gradientUnits="userSpaceOnUse">
<stop stop-color="#CD10FF"/>
<stop offset="1" stop-color="#9F06FF"/>
</linearGradient>
<linearGradient id="paint34_linear_94_7226" x1="377.824" y1="103.731" x2="387.555" y2="94.456" gradientUnits="userSpaceOnUse">
<stop stop-color="#E997FF"/>
<stop offset="1" stop-color="#D086FF"/>
</linearGradient>
<linearGradient id="paint35_linear_94_7226" x1="254.854" y1="112.655" x2="263.825" y2="104.347" gradientUnits="userSpaceOnUse">
<stop stop-color="#CD10FF"/>
<stop offset="1" stop-color="#9F06FF"/>
</linearGradient>
<linearGradient id="paint36_linear_94_7226" x1="240.129" y1="136.357" x2="244.492" y2="111.613" gradientUnits="userSpaceOnUse">
<stop offset="0.0027027" stop-color="#223675"/>
<stop offset="1" stop-color="#2D489C"/>
</linearGradient>
<linearGradient id="paint37_linear_94_7226" x1="243.459" y1="96.6132" x2="244.666" y2="96.6132" gradientUnits="userSpaceOnUse">
<stop offset="0.0027027" stop-color="#223675"/>
<stop offset="1" stop-color="#2D489C"/>
</linearGradient>
<linearGradient id="paint38_linear_94_7226" x1="241.919" y1="96.6132" x2="243.073" y2="96.6132" gradientUnits="userSpaceOnUse">
<stop offset="0.0027027" stop-color="#223675"/>
<stop offset="1" stop-color="#2D489C"/>
</linearGradient>
<linearGradient id="paint39_linear_94_7226" x1="234.68" y1="117.682" x2="243.752" y2="113.396" gradientUnits="userSpaceOnUse">
<stop stop-color="#CD10FF"/>
<stop offset="1" stop-color="#9F06FF"/>
</linearGradient>
<linearGradient id="paint40_linear_94_7226" x1="271.923" y1="99.1114" x2="271.923" y2="84.8877" gradientUnits="userSpaceOnUse">
<stop stop-color="#208AEE"/>
<stop offset="0.8126" stop-color="#4DA1F1"/>
</linearGradient>
<linearGradient id="paint41_linear_94_7226" x1="281.016" y1="96.8804" x2="275.078" y2="86.5961" gradientUnits="userSpaceOnUse">
<stop stop-color="#208AEE"/>
<stop offset="0.5171" stop-color="#4DA1F1"/>
</linearGradient>
<linearGradient id="paint42_linear_94_7226" x1="261.521" y1="94.6182" x2="269.669" y2="87.7816" gradientUnits="userSpaceOnUse">
<stop stop-color="#208AEE"/>
<stop offset="0.5171" stop-color="#4DA1F1"/>
</linearGradient>
<linearGradient id="paint43_linear_94_7226" x1="204.777" y1="98.8799" x2="210.002" y2="84.5235" gradientUnits="userSpaceOnUse">
<stop stop-color="#208AEE"/>
<stop offset="0.8126" stop-color="#4DA1F1"/>
</linearGradient>
<linearGradient id="paint44_linear_94_7226" x1="192.262" y1="91.0733" x2="203.903" y2="91.0733" gradientUnits="userSpaceOnUse">
<stop stop-color="#208AEE"/>
<stop offset="0.8126" stop-color="#4DA1F1"/>
</linearGradient>
<linearGradient id="paint45_linear_94_7226" x1="218.848" y1="96.928" x2="216.644" y2="84.4278" gradientUnits="userSpaceOnUse">
<stop stop-color="#208AEE"/>
<stop offset="0.8126" stop-color="#4DA1F1"/>
</linearGradient>
<linearGradient id="paint46_linear_94_7226" x1="173.175" y1="93.5471" x2="205.982" y2="53.8666" gradientUnits="userSpaceOnUse">
<stop stop-color="#CD10FF"/>
<stop offset="1" stop-color="#9F06FF"/>
</linearGradient>
</defs>
</svg>
