<svg width="49" height="47" viewBox="0 0 49 47" fill="none" xmlns="http://www.w3.org/2000/svg">
<circle cx="15.5909" cy="23.0157" r="15.5909" fill="url(#paint0_linear_112_9561)"/>
<circle cx="33.4091" cy="23.0157" r="15.5909" fill="url(#paint1_linear_112_9561)"/>
<circle cx="24.5001" cy="15.5909" r="15.5909" fill="url(#paint2_linear_112_9561)"/>
<circle cx="24.5001" cy="30.4396" r="15.5909" fill="url(#paint3_linear_112_9561)"/>
<circle cx="24.5" cy="23.0162" r="20.0455" fill="#001A49"/>
<path d="M19.4534 15.9713C19.122 16.4131 19.2116 17.0399 19.6534 17.3713C20.0952 17.7026 20.722 17.6131 21.0534 17.1713L19.4534 15.9713ZM21.2615 15.2272L22.0615 15.8272H22.0615L21.2615 15.2272ZM27.5019 19.2397L28.3798 19.7185L27.5019 19.2397ZM23.058 25.2985C22.7935 25.7834 22.9721 26.3908 23.457 26.6553C23.9418 26.9197 24.5493 26.7411 24.8137 26.2562L23.058 25.2985ZM25.7019 14.0403L26.0958 13.1211L25.7019 14.0403ZM23.8565 32.2215C23.8565 32.1777 23.892 32.1421 23.9358 32.1421V34.1421C24.9966 34.1421 25.8565 33.2823 25.8565 32.2215H23.8565ZM23.9358 32.1421C23.9797 32.1421 24.0152 32.1777 24.0152 32.2215H22.0152C22.0152 33.2823 22.8751 34.1421 23.9358 34.1421V32.1421ZM24.0152 32.2215C24.0152 32.2654 23.9797 32.3009 23.9358 32.3009V30.3009C22.8751 30.3009 22.0152 31.1608 22.0152 32.2215H24.0152ZM23.9358 32.3009C23.892 32.3009 23.8565 32.2654 23.8565 32.2215H25.8565C25.8565 31.1608 24.9966 30.3009 23.9358 30.3009V32.3009ZM21.0534 17.1713L22.0615 15.8272L20.4615 14.6272L19.4534 15.9713L21.0534 17.1713ZM26.624 18.7608L23.058 25.2985L24.8137 26.2562L28.3798 19.7185L26.624 18.7608ZM25.3079 14.9594C26.7814 15.5909 27.3916 17.3535 26.624 18.7608L28.3798 19.7185C29.712 17.2761 28.653 14.2171 26.0958 13.1211L25.3079 14.9594ZM22.0615 15.8272C22.814 14.8239 24.1552 14.4653 25.3079 14.9594L26.0958 13.1211C24.0951 12.2637 21.7675 12.8859 20.4615 14.6272L22.0615 15.8272Z" fill="white"/>
<defs>
<linearGradient id="paint0_linear_112_9561" x1="17.5823" y1="45.9781" x2="38.7201" y2="24.1714" gradientUnits="userSpaceOnUse">
<stop stop-color="#CD10FF"/>
<stop offset="1" stop-color="#9F06FF"/>
</linearGradient>
<linearGradient id="paint1_linear_112_9561" x1="35.4005" y1="45.9781" x2="56.5382" y2="24.1714" gradientUnits="userSpaceOnUse">
<stop stop-color="#CD10FF"/>
<stop offset="1" stop-color="#9F06FF"/>
</linearGradient>
<linearGradient id="paint2_linear_112_9561" x1="26.4915" y1="38.5533" x2="47.6293" y2="16.7466" gradientUnits="userSpaceOnUse">
<stop stop-color="#CD10FF"/>
<stop offset="1" stop-color="#9F06FF"/>
</linearGradient>
<linearGradient id="paint3_linear_112_9561" x1="26.4915" y1="53.4019" x2="47.6293" y2="31.5953" gradientUnits="userSpaceOnUse">
<stop stop-color="#CD10FF"/>
<stop offset="1" stop-color="#9F06FF"/>
</linearGradient>
</defs>
</svg>
