<svg width="176" height="176" viewBox="0 0 176 176" fill="none" xmlns="http://www.w3.org/2000/svg">
<path d="M43.5647 44.2934C61.8447 25.8296 56.6107 14.2564 69.1178 5.7091C88.3635 -7.44463 124.283 3.87286 145.473 21.9648C171.427 44.1243 184.818 84.5871 169.564 121.191C153.319 160.173 110.576 180.41 72.4353 174.311C38.3751 168.866 4.89383 141.925 1.54042 109.614C1.17698 106.113 -0.428948 87.1798 10.8294 70.8586C20.1374 57.3668 29.0756 58.9305 43.5647 44.2934Z" fill="url(#paint0_linear_69_4886)"/>
<path d="M163.083 147.237H29.8425C26.0939 147.237 23.0532 144.197 23.0532 140.448V45.4201C23.0532 41.6715 26.0939 38.6309 29.8425 38.6309H163.083C166.831 38.6309 169.872 41.6715 169.872 45.4201V140.448C169.872 144.197 166.834 147.237 163.083 147.237Z" fill="white"/>
<path d="M156.716 133.818H35.6302C32.9825 133.818 30.8357 131.671 30.8357 129.023V50.1578C30.8357 47.5101 32.9825 45.3633 35.6302 45.3633H156.714C159.362 45.3633 161.509 47.5101 161.509 50.1578V129.023C161.511 131.673 159.364 133.818 156.716 133.818Z" fill="#001A49" fill-opacity="0.15"/>
<path d="M130.555 147.697L29.0862 147.556C25.5151 147.556 22.6118 144.65 22.6118 141.079V44.7898C22.6118 41.2188 25.5173 38.3154 29.0883 38.3154L55.8987 38.4528C56.0741 38.4528 56.2156 38.5965 56.2135 38.7718C56.2135 38.9472 56.0698 39.0867 55.8966 39.0867C55.8966 39.0867 55.8966 39.0867 55.8945 39.0867L29.0862 38.9493C25.8659 38.9493 23.2457 41.5695 23.2457 44.7898V141.079C23.2457 144.3 25.8659 146.922 29.0883 146.922L130.557 147.064C130.732 147.064 130.874 147.205 130.874 147.38C130.872 147.556 130.73 147.697 130.555 147.697Z" fill="#001A49"/>
<path d="M169.718 99.0952C169.542 99.0952 169.401 98.9536 169.401 98.7804L169.259 72.8596C169.259 72.6842 169.399 72.5426 169.574 72.5405C169.574 72.5405 169.574 72.5405 169.576 72.5405C169.752 72.5405 169.893 72.6821 169.893 72.8554L170.035 98.7761C170.035 98.9515 169.893 99.0931 169.718 99.0952Z" fill="#001A49"/>
<path d="M169.748 69.1603C169.572 69.1603 169.431 69.0187 169.431 68.8433V44.7884C169.431 41.5681 166.811 38.9479 163.588 38.9479H157.179C157.004 38.9479 156.862 38.8063 156.862 38.6309C156.862 38.4555 157.004 38.314 157.179 38.314H163.588C167.159 38.314 170.065 41.2194 170.065 44.7884V68.8433C170.065 69.0166 169.921 69.1603 169.748 69.1603Z" fill="#001A49"/>
<path d="M142.529 38.9479H105.042C104.866 38.9479 104.725 38.8063 104.725 38.6309C104.725 38.4555 104.866 38.314 105.042 38.314H142.529C142.705 38.314 142.846 38.4555 142.846 38.6309C142.846 38.8063 142.705 38.9479 142.529 38.9479Z" fill="black"/>
<path d="M130.876 45.5723H130.874L93.2233 45.2828C93.0479 45.2807 92.9084 45.1392 92.9084 44.9638C92.9106 44.7905 93.0521 44.6489 93.2254 44.6489H93.2275L130.878 44.9384C131.053 44.9405 131.193 45.0821 131.193 45.2575C131.191 45.4329 131.049 45.5723 130.876 45.5723Z" fill="#001A49"/>
<path d="M30.8355 69.2306C30.6601 69.2306 30.5186 69.089 30.5186 68.9136V49.6067C30.5186 47.033 32.6126 44.9411 35.1842 44.9411L50.5397 44.9326C50.7151 44.9326 50.8567 45.0742 50.8567 45.2496C50.8567 45.425 50.7151 45.5665 50.5397 45.5665L35.1842 45.575C32.9612 45.575 31.1525 47.3838 31.1525 49.6067V68.9136C31.1525 69.089 31.0109 69.2306 30.8355 69.2306Z" fill="#001A49"/>
<path d="M52.9888 134.028H35.1842C32.6105 134.028 30.5186 131.934 30.5186 129.363L30.5017 74.4088C30.5017 74.2334 30.6433 74.0918 30.8187 74.0918C30.994 74.0918 31.1356 74.2334 31.1356 74.4088L31.1525 129.363C31.1525 131.586 32.9613 133.395 35.1842 133.395H52.9888C53.1642 133.395 53.3057 133.536 53.3057 133.711C53.3057 133.887 53.1642 134.028 52.9888 134.028Z" fill="#001A49"/>
<path d="M161.688 106.984C161.513 106.984 161.371 106.842 161.371 106.667L161.194 49.6062C161.194 47.3812 159.385 45.5724 157.162 45.5724H154.546C154.371 45.5724 154.229 45.4308 154.229 45.2554C154.229 45.0801 154.371 44.9385 154.546 44.9385H157.162C159.736 44.9385 161.828 47.0325 161.828 49.6041L162.005 106.665C162.005 106.84 161.864 106.984 161.688 106.984Z" fill="#001A49"/>
<path d="M89.2487 57.2063C91.2286 62.434 93.2085 79.0531 85.5847 89.3563C77.9713 99.649 59.6745 105.132 47.5561 97.0351C32.9423 87.2686 35.0447 62.9115 43.9428 52.7351C48.9254 47.0362 53.6797 48.4857 60.5556 40.3103C67.4146 32.1582 66.0707 26.6917 72.0717 23.3975C79.2899 19.4376 89.8234 22.5586 91.6935 26.8418C93.3649 30.6727 88.0252 33.7937 87.0046 42.7488C86.8123 44.4287 86.8313 45.8085 86.9729 47.0256C87.6005 52.3991 88.8916 56.2639 89.2487 57.2063Z" fill="#001A49"/>
<path d="M68.7795 19.3385C69.9078 21.0014 70.8059 26.3728 68.3061 28.0675C65.8064 29.7621 60.8513 27.1377 59.725 25.4747C58.5967 23.8118 59.7103 21.0881 62.2121 19.3934C64.7118 17.7008 67.6532 17.6755 68.7795 19.3385Z" fill="#001A49"/>
<path d="M62.4659 74.9903C62.4659 74.9903 57.0543 61.3886 60.2429 58.5191C60.4099 58.3691 62.5631 58.1493 64.7691 60.1673C66.8504 62.0732 68.9973 66.219 68.9973 66.219L69.7052 75.6094L62.4659 74.9903Z" fill="#99B9FF"/>
<path d="M103.628 50.3005C103.628 50.3005 105.737 50.7548 107.396 53.3158C110.705 58.4231 115.816 67.7141 123.998 69.1024C136.279 71.1859 143.719 56.2445 142.663 52.8974C142.663 52.8974 140.9 50.5541 138.001 49.8483C138.001 49.8483 137.972 47.5134 140.49 48.6185C143.009 49.7236 144.019 49.0496 145.143 48.7854C147.123 48.3206 151.33 43.5662 152.898 42.9598C154.466 42.3554 153.976 43.6613 153.976 43.6613C153.976 43.6613 155.512 41.9328 156.569 42.7992L154.312 45.7807C154.312 45.7807 156.138 43.3697 157.194 44.5805L152.474 50.104L155.933 47.3866C155.933 47.3866 156.414 47.917 155.51 48.8573C154.606 49.7976 150.927 54.926 147.404 54.926C147.404 54.926 149.302 83.2197 128.114 84.3692C109.913 85.356 102.5 70.6724 102.5 70.6724L103.628 50.3005Z" fill="white"/>
<path d="M126.4 84.7372C117.826 84.7372 111.852 81.2063 108.277 78.1361C104.148 74.5883 102.297 70.9728 102.219 70.8207C102.193 70.7721 102.183 70.715 102.185 70.6601L103.311 50.284C103.315 50.191 103.362 50.1065 103.436 50.0494C103.51 49.9924 103.603 49.9712 103.696 49.9924C103.787 50.0114 105.952 50.5037 107.662 53.145C107.975 53.6268 108.302 54.1466 108.649 54.6939C111.888 59.8159 116.78 67.5582 124.051 68.7922C130.762 69.9311 135.554 65.7494 137.813 63.1567C141.3 59.1546 142.804 54.6157 142.375 53.0478C142.121 52.733 140.463 50.7763 137.925 50.1572C137.785 50.1234 137.684 49.9987 137.684 49.8529C137.684 49.8085 137.678 48.7499 138.432 48.2491C138.962 47.8983 139.696 47.9237 140.617 48.3294C142.61 49.2042 143.567 48.9168 144.492 48.6379C144.68 48.5809 144.875 48.5238 145.071 48.4773C146.105 48.2343 147.915 46.6221 149.515 45.2021C150.872 43.9955 152.044 42.9517 152.784 42.6664C153.023 42.5735 153.747 42.2945 154.151 42.6939C154.221 42.7636 154.272 42.8439 154.303 42.9263C154.92 42.434 155.932 41.8698 156.769 42.5566C156.9 42.6643 156.923 42.8566 156.822 42.994L156.068 43.9892C156.19 43.9533 156.315 43.9321 156.44 43.9279C156.82 43.9131 157.166 44.0695 157.433 44.3759C157.536 44.4942 157.536 44.6717 157.435 44.79L154.787 47.8878L155.736 47.1419C155.867 47.0383 156.055 47.0552 156.167 47.1778C156.194 47.2074 156.835 47.9406 155.738 49.0816C155.607 49.2169 155.408 49.4535 155.157 49.7536C153.712 51.4736 150.758 54.9876 147.738 55.2327C147.825 57.481 148.025 70.8292 141.029 78.7277C137.779 82.396 133.441 84.4013 128.133 84.6908C127.544 84.7224 126.967 84.7372 126.4 84.7372ZM102.823 70.6073C103.108 71.1398 104.985 74.4784 108.71 77.6733C112.431 80.864 118.815 84.5619 128.099 84.059C133.23 83.78 137.42 81.8466 140.554 78.3115C147.996 69.91 147.1 55.1017 147.089 54.9538C147.083 54.8651 147.115 54.7805 147.174 54.715C147.233 54.6516 147.317 54.6136 147.406 54.6136C150.244 54.6136 153.348 50.9221 154.673 49.3458C154.933 49.0373 155.138 48.7922 155.284 48.6421C155.56 48.3548 155.679 48.1287 155.723 47.9596L152.67 50.3558C152.541 50.4572 152.357 50.4424 152.245 50.3262C152.133 50.2079 152.127 50.0241 152.232 49.9015L156.746 44.621C156.659 44.5766 156.564 44.5576 156.461 44.5597C155.763 44.5851 154.855 45.5888 154.563 45.9733C154.457 46.1128 154.259 46.1403 154.119 46.0346C153.98 45.929 153.952 45.7303 154.058 45.5909L156.091 42.9031C155.29 42.6918 154.221 43.8582 154.21 43.873C154.109 43.9871 153.94 44.0124 153.809 43.9343C153.678 43.8561 153.623 43.6955 153.676 43.5518C153.733 43.3975 153.745 43.1862 153.703 43.144C153.673 43.1144 153.483 43.0742 153.01 43.2581C152.376 43.5032 151.191 44.5576 149.933 45.6754C148.199 47.22 146.405 48.8154 145.213 49.0943C145.035 49.1366 144.858 49.1894 144.672 49.2443C143.685 49.5402 142.565 49.8783 140.359 48.9084C139.871 48.695 139.201 48.4984 138.781 48.7774C138.483 48.976 138.375 49.3606 138.337 49.6099C141.154 50.4023 142.84 52.6104 142.914 52.7076C142.935 52.7372 142.952 52.7689 142.962 52.8027C143.554 54.6791 141.781 59.5645 138.288 63.5708C136.216 65.9501 132.08 69.6163 126.307 69.6163C125.547 69.6163 124.759 69.5529 123.941 69.4134C116.393 68.1329 111.408 60.247 108.11 55.0299C107.765 54.4847 107.438 53.967 107.127 53.4874C105.967 51.6955 104.568 50.9792 103.92 50.7277L102.823 70.6073Z" fill="black"/>
<path d="M150.015 48.0146C149.935 48.0146 149.855 47.9851 149.794 47.9238C149.669 47.8012 149.667 47.6005 149.789 47.4758L153.747 43.442C153.87 43.3173 154.07 43.3152 154.195 43.4378C154.32 43.5603 154.322 43.7611 154.199 43.8857L150.242 47.9196C150.18 47.983 150.098 48.0146 150.015 48.0146Z" fill="black"/>
<path d="M151.628 48.8321C151.547 48.8321 151.467 48.8026 151.406 48.7413C151.281 48.6187 151.279 48.418 151.402 48.2933L154.085 45.5611C154.208 45.4365 154.409 45.4344 154.533 45.5569C154.658 45.6795 154.66 45.8802 154.537 46.0049L151.854 48.7371C151.79 48.8005 151.708 48.8321 151.628 48.8321Z" fill="black"/>
<path d="M144.566 53.2251C144.522 53.2251 144.477 53.2166 144.435 53.1976C144.277 53.1258 144.205 52.9377 144.277 52.7792C144.327 52.6672 145.542 50.0301 147.554 50.4443C149.219 50.7866 150.411 50.3598 150.424 50.3555C150.588 50.2964 150.77 50.3788 150.831 50.5436C150.893 50.7084 150.808 50.8902 150.645 50.9493C150.59 50.9704 149.28 51.4459 147.427 51.0655C145.904 50.7507 144.864 53.018 144.854 53.0412C144.803 53.1553 144.687 53.2251 144.566 53.2251Z" fill="black"/>
<path d="M106.7 67.0387L106.716 67.1411L106.752 67.2381L111.736 80.675C111.736 80.675 111.736 80.675 111.736 80.675C113.041 84.1934 112.299 88.1543 109.779 90.9129C106.818 94.1513 101.889 97.5926 94.1104 97.9421L94.1102 97.9421C90.146 98.1207 86.6943 98.4988 83.7473 98.8539C83.2222 98.9172 82.7149 98.9794 82.2249 99.0396C79.9444 99.3195 78.0366 99.5537 76.4386 99.6295C74.4714 99.7227 73.1967 99.5575 72.3815 99.1025C71.6674 98.7039 71.1498 97.9884 70.9664 96.4596C70.5535 93.0174 70.0992 87.1436 69.7471 82.1098C69.5714 79.5973 69.4216 77.3013 69.3158 75.6333C69.2629 74.7994 69.221 74.1226 69.1923 73.6544L69.1595 73.1149L69.151 72.9746L69.1489 72.939L69.1484 72.93L69.1482 72.9278L69.1482 72.9272C69.1482 72.9271 69.1482 72.9271 68.15 72.9865L69.1482 72.9271L69.1391 72.7748L69.0851 72.6321C67.8316 69.3244 66.4242 65.7109 65.0291 62.8956C64.3333 61.4916 63.6191 60.2415 62.9045 59.3164C62.7967 59.1769 62.6868 59.042 62.5747 58.913C63.5697 58.6415 64.8868 58.2852 66.4422 57.8719C70.0497 56.9133 74.9364 55.6486 80.0565 54.4236C85.1791 53.198 90.5229 52.015 95.0482 51.2173C97.3115 50.8183 99.357 50.5181 101.061 50.3562C102.348 50.2339 103.396 50.1952 104.18 50.2392L106.7 67.0387Z" fill="white" stroke="black" stroke-width="2"/>
<path d="M85.5212 46.5592C86.8672 46.7748 88.1709 46.5529 88.8323 45.957C89.648 45.2217 89.5803 44.1673 89.6712 42.8677C89.7092 42.3247 89.7135 41.6992 90.1213 41.059C90.3368 40.7188 90.6115 40.4631 90.8841 40.2708C91.2201 40.0341 91.3215 39.5798 91.1292 39.2164L90.9771 39.0093C89.7811 37.378 89.2211 34.4705 89.4134 31.4446L88.5766 29.8999C86.2565 29.5576 84.4097 29.6696 84.1984 30.0732C84.1202 30.2232 83.9829 30.3416 84.1308 30.9375C84.8471 33.8175 82.1804 34.1324 79.8814 34.1134C77.5824 34.0944 79.2961 37.9443 79.2961 37.9443C79.2961 37.9443 77.536 36.5201 76.3928 38.3859C75.5729 39.7235 78.0832 41.0061 79.5729 41.6253C79.5729 41.6253 79.592 50.984 77.6966 52.2328L72.4351 55.5819C72.4351 55.5819 83.9491 58.3881 91.8793 51.6601C91.8793 51.6601 88.3527 51.8482 86.8017 50.648C85.2549 49.4499 85.6796 46.8635 85.5212 46.5592Z" fill="white"/>
<path d="M78.1236 56.4627C74.7956 56.4627 72.4163 55.9027 72.3635 55.89C72.2409 55.8604 72.1459 55.759 72.1247 55.6343C72.1036 55.5097 72.1606 55.3829 72.2663 55.3153L77.5278 51.9661C78.9224 51.0469 79.2457 44.5345 79.2584 41.8361C77.9081 41.2572 76.3233 40.376 75.9874 39.3385C75.8648 38.9582 75.9113 38.5715 76.1268 38.2207C76.5072 37.5995 76.9953 37.2339 77.5743 37.1346C77.9863 37.0649 78.3793 37.1409 78.7005 37.2593C78.4258 36.4162 78.1448 35.1357 78.6371 34.3855C78.8146 34.1151 79.1781 33.8002 79.8859 33.7981C81.158 33.8065 82.9245 33.722 83.6134 32.8472C83.9557 32.414 84.0233 31.8139 83.8247 31.0152C83.6747 30.4151 83.7718 30.1784 83.8944 29.9693C83.9029 29.9566 83.9092 29.9418 83.9176 29.9291C84.4015 28.9951 88.1923 29.5234 88.6234 29.5868C88.7227 29.6016 88.8093 29.6607 88.8558 29.7495L89.6926 31.2941C89.7201 31.347 89.7349 31.4061 89.7306 31.4653C89.5384 34.4764 90.1152 37.2952 91.233 38.8208L91.3852 39.0279C91.3936 39.0406 91.4021 39.0532 91.4105 39.0659C91.6789 39.5731 91.5331 40.2006 91.0682 40.5282C90.7872 40.7268 90.559 40.9613 90.3899 41.2276C90.0624 41.741 90.0307 42.2482 89.999 42.7384L89.9884 42.8905C89.9757 43.0723 89.9652 43.2477 89.9567 43.4188C89.8954 44.5218 89.8426 45.4748 89.0439 46.1932C88.3846 46.787 87.1971 47.0575 85.8807 46.9265C85.8828 46.9835 85.8828 47.0448 85.8849 47.1145C85.9039 47.9767 85.9398 49.5805 86.9985 50.4003C88.4396 51.516 91.831 51.3491 91.8648 51.347C92.0022 51.3427 92.1268 51.4209 92.1754 51.5456C92.2261 51.6724 92.1902 51.8161 92.0867 51.9048C87.7042 55.6217 82.2018 56.4627 78.1236 56.4627ZM73.2763 55.4252C75.8606 55.8774 84.4839 56.9022 90.9731 51.9851C89.7835 51.9576 87.7423 51.7738 86.6139 50.899C85.3144 49.8953 85.2763 48.0929 85.2552 47.1251C85.251 46.9561 85.2467 46.749 85.2341 46.6835C85.1897 46.582 85.2024 46.4616 85.2679 46.3707C85.3376 46.2735 85.4559 46.2228 85.5743 46.244C86.8463 46.4468 88.0444 46.2418 88.6234 45.7199C89.2277 45.1748 89.27 44.4225 89.327 43.3808C89.3355 43.2054 89.3461 43.0258 89.3587 42.842L89.3693 42.694C89.4031 42.1785 89.4433 41.5361 89.8574 40.8853C90.0708 40.5493 90.3561 40.2535 90.7048 40.0084C90.9034 39.8689 90.9689 39.6026 90.8611 39.3808L90.7238 39.1948C89.513 37.5445 88.9065 34.6792 89.0946 31.5139L88.3762 30.189C86.0391 29.8615 84.6762 30.0538 84.4755 30.2313C84.4649 30.2503 84.4565 30.2672 84.4438 30.2862C84.3931 30.3728 84.3424 30.4616 84.4417 30.861C84.6868 31.8499 84.5769 32.6507 84.112 33.2381C83.2605 34.3179 81.4073 34.4426 79.8817 34.4299C79.5457 34.4299 79.3027 34.525 79.1675 34.7321C78.7026 35.4399 79.3133 37.198 79.588 37.815C79.6472 37.9481 79.607 38.1066 79.4908 38.1954C79.3746 38.2841 79.2119 38.282 79.0978 38.1911C79.0914 38.1869 78.3941 37.6354 77.6778 37.7601C77.2869 37.8277 76.9467 38.0939 76.6657 38.5525C76.5452 38.749 76.522 38.9349 76.5875 39.142C76.8009 39.8013 77.9335 40.6 79.6958 41.3332C79.8141 41.3818 79.8902 41.4981 79.8902 41.6248C79.8923 42.6011 79.8521 51.1927 77.8701 52.4986L73.2763 55.4252Z" fill="black"/>
<path d="M85.5214 46.8762C85.5109 46.8762 85.5003 46.8762 85.4897 46.874C82.8252 46.6036 81.0143 43.4657 80.9403 43.3326C80.8537 43.1804 80.9065 42.9882 81.0587 42.9015C81.2108 42.8149 81.4052 42.8677 81.4918 43.0198C81.5087 43.0494 83.2161 46.0056 85.5552 46.2444C85.7285 46.2613 85.8553 46.4176 85.8384 46.5909C85.8215 46.7557 85.682 46.8762 85.5214 46.8762Z" fill="black"/>
<path d="M103.241 75.6509C101.576 74.4042 96.1394 70.774 94.2144 71.9045C92.9339 72.6567 91.6724 73.8232 90.6497 77.1237L68.8832 84.8004L68.9445 78.1781C68.9741 75.0149 68.262 71.8876 66.8652 69.0477L62.7997 60.7793C60.262 62.4549 58.2778 64.8596 57.1727 67.6911C52.7015 79.167 53.9629 99.8263 58.2609 100.91C69.8108 103.822 92.1373 80.6546 92.1373 80.6546C92.1373 80.6546 98.2123 80.6251 99.4041 80.5067C104.338 80.0102 104.355 76.4877 103.241 75.6509Z" fill="white"/>
<path d="M60.4394 101.485C59.6385 101.485 58.8863 101.397 58.1848 101.219C57.4536 101.035 56.7965 100.384 56.2281 99.2835C53.3163 93.6395 53.1092 77.2486 56.8789 67.5772C58.0009 64.6992 59.9872 62.2565 62.6264 60.5154C62.7025 60.4647 62.7954 60.4499 62.8842 60.4731C62.9729 60.4964 63.0448 60.5576 63.0849 60.64L67.1504 68.9084C68.5619 71.7779 69.2909 74.9834 69.2614 78.1826L69.2043 84.3527L90.394 76.8788C91.459 73.5381 92.7796 72.3802 94.0538 71.6321C96.4648 70.2143 103.148 75.1842 103.431 75.3976C104.059 75.8667 104.319 76.9105 104.049 77.8783C103.835 78.6453 102.958 80.4689 99.4378 80.8218C98.3306 80.9338 93.1938 80.9655 92.2746 80.9718C91.5118 81.7536 86.1975 87.1271 79.7252 92.1266C71.6745 98.3474 65.2043 101.485 60.4394 101.485ZM62.6771 61.2465C60.2978 62.901 58.4996 65.162 57.4684 67.8075C55.7484 72.2217 54.7363 78.4974 54.6898 85.0268C54.6475 91.0447 55.4526 96.395 56.7923 98.9919C57.2656 99.9111 57.8002 100.467 58.3411 100.604C69.5847 103.44 91.6914 80.6675 91.9132 80.4372C91.9724 80.3759 92.0548 80.34 92.1394 80.34C92.2006 80.34 98.2123 80.3104 99.3744 80.1921C102.506 79.8773 103.26 78.3495 103.438 77.7093C103.664 76.8957 103.408 76.1731 103.051 75.9047C100.499 73.9924 95.8858 71.2898 94.375 72.1794C93.1938 72.8746 91.9619 73.9649 90.9518 77.219C90.9222 77.3141 90.8483 77.3902 90.7553 77.424L68.9888 85.1007C68.8916 85.1345 68.7838 85.1197 68.6993 85.0606C68.6148 84.9993 68.5662 84.9021 68.5662 84.8007L68.6275 78.1784C68.6549 75.0806 67.9492 71.9723 66.582 69.1916L62.6771 61.2465Z" fill="black"/>
<path d="M103.837 77.4343C103.803 77.4343 103.767 77.4279 103.734 77.4174L96.1499 74.8162C95.985 74.7592 95.8963 74.5795 95.9533 74.4126C96.0104 74.2457 96.19 74.1569 96.3569 74.2161L103.941 76.8173C104.105 76.8743 104.194 77.0539 104.137 77.2209C104.093 77.3519 103.97 77.4343 103.837 77.4343Z" fill="black"/>
<path d="M103.408 78.8564C103.379 78.8564 103.347 78.8521 103.317 78.8437L95.9176 76.644C95.7506 76.5933 95.6534 76.4179 95.7041 76.2489C95.7549 76.0819 95.9302 75.9847 96.0993 76.0354L103.499 78.2351C103.666 78.2858 103.763 78.4612 103.713 78.6303C103.672 78.7676 103.546 78.8564 103.408 78.8564Z" fill="black"/>
<path d="M101.999 80.1111C101.971 80.1111 101.942 80.1069 101.914 80.1005C99.6259 79.4624 95.89 78.4397 95.5604 78.3932C95.3934 78.3847 95.2625 78.2453 95.2625 78.0762C95.2625 77.9009 95.404 77.7593 95.5794 77.7593C95.8182 77.7593 99.2476 78.6996 102.083 79.4899C102.252 79.5364 102.35 79.7117 102.303 79.8808C102.265 80.0202 102.136 80.1111 101.999 80.1111Z" fill="black"/>
<path d="M62.897 88.4733C62.785 88.4733 62.6773 88.4141 62.6202 88.3106C62.5357 88.1585 62.5885 87.9641 62.7428 87.8795L68.729 84.524C68.8812 84.4395 69.0756 84.4923 69.1601 84.6466C69.2446 84.7987 69.1918 84.9931 69.0375 85.0776L63.0513 88.4332C63.0027 88.4606 62.9498 88.4733 62.897 88.4733Z" fill="black"/>
<path d="M107.801 91.2519C107.455 90.4151 106.639 89.8657 105.735 89.8657C97.2933 89.8678 88.7228 91.9788 80.0149 96.3148C79.269 96.6867 78.6541 97.272 78.2505 98.001C76.6551 100.885 72.3931 108.915 70.2103 116.18C69.6102 118.181 67.0915 125.974 65.6673 130.732C65.1792 132.361 66.3963 134.001 68.0973 134.005C76.3086 134.026 113.697 134.21 119.812 133.331C120.607 133.217 121.137 132.448 120.974 131.66C117.828 116.575 109.891 96.2978 107.801 91.2519Z" fill="#001A49"/>
<path d="M160.549 141.084V141.086C160.55 141.604 160.127 142.03 159.603 142.03H32.3005C31.778 142.03 31.3552 141.607 31.3552 141.084V140.687C31.3552 140.164 31.778 139.742 32.3005 139.742H159.603C160.126 139.742 160.549 140.164 160.549 140.687V141.084Z" fill="#001A49" fill-opacity="0.15" stroke="#001A49"/>
<path d="M90.7615 139.739V139.239H159.603C160.402 139.239 161.049 139.886 161.049 140.685V141.082C161.051 141.881 160.402 142.529 159.603 142.529H90.7615V142.029M90.7615 139.739H90.2615V142.029H90.7615M90.7615 139.739V142.029M90.7615 139.739H159.603C160.126 139.739 160.549 140.162 160.549 140.685V141.082V141.083C160.55 141.604 160.126 142.029 159.603 142.029H90.7615" fill="#001A49" fill-opacity="0.15" stroke="#001A49"/>
<mask id="path-33-inside-1_69_4886" fill="white">
<path d="M159.603 142.847H32.3006C31.3286 142.847 30.5383 142.056 30.5383 141.084V140.687C30.5383 139.715 31.3286 138.923 32.3006 138.923H159.603C160.575 138.923 161.366 139.713 161.366 140.687V141.084C161.368 142.054 160.578 142.847 159.603 142.847ZM32.3006 139.557C31.6773 139.557 31.1722 140.064 31.1722 140.687V141.084C31.1722 141.708 31.6794 142.213 32.3006 142.213H159.603C160.227 142.213 160.732 141.706 160.732 141.084V140.687C160.732 140.064 160.225 139.557 159.603 139.557H32.3006Z"/>
</mask>
<path d="M159.603 142.847H32.3006C31.3286 142.847 30.5383 142.056 30.5383 141.084V140.687C30.5383 139.715 31.3286 138.923 32.3006 138.923H159.603C160.575 138.923 161.366 139.713 161.366 140.687V141.084C161.368 142.054 160.578 142.847 159.603 142.847ZM32.3006 139.557C31.6773 139.557 31.1722 140.064 31.1722 140.687V141.084C31.1722 141.708 31.6794 142.213 32.3006 142.213H159.603C160.227 142.213 160.732 141.706 160.732 141.084V140.687C160.732 140.064 160.225 139.557 159.603 139.557H32.3006Z" fill="#5479F7"/>
<path d="M161.366 141.084H160.366V141.087L161.366 141.084ZM159.603 141.847H32.3006V143.847H159.603V141.847ZM32.3006 141.847C31.8809 141.847 31.5383 141.504 31.5383 141.084H29.5383C29.5383 142.609 30.7763 143.847 32.3006 143.847V141.847ZM31.5383 141.084V140.687H29.5383V141.084H31.5383ZM31.5383 140.687C31.5383 140.266 31.8824 139.923 32.3006 139.923V137.923C30.7748 137.923 29.5383 139.165 29.5383 140.687H31.5383ZM32.3006 139.923H159.603V137.923H32.3006V139.923ZM159.603 139.923C160.022 139.923 160.366 140.265 160.366 140.687H162.366C162.366 139.162 161.128 137.923 159.603 137.923V139.923ZM160.366 140.687V141.084H162.366V140.687H160.366ZM160.366 141.087C160.367 141.502 160.026 141.847 159.603 141.847V143.847C161.129 143.847 162.369 142.607 162.366 141.082L160.366 141.087ZM32.3006 138.557C31.1225 138.557 30.1722 139.514 30.1722 140.687H32.1722C32.1722 140.614 32.232 140.557 32.3006 140.557V138.557ZM30.1722 140.687V141.084H32.1722V140.687H30.1722ZM30.1722 141.084C30.1722 142.261 31.1283 143.213 32.3006 143.213V141.213C32.2304 141.213 32.1722 141.154 32.1722 141.084H30.1722ZM32.3006 143.213H159.603V141.213H32.3006V143.213ZM159.603 143.213C160.78 143.213 161.732 142.257 161.732 141.084H159.732C159.732 141.155 159.673 141.213 159.603 141.213V143.213ZM161.732 141.084V140.687H159.732V141.084H161.732ZM161.732 140.687C161.732 139.513 160.778 138.557 159.603 138.557V140.557C159.671 140.557 159.732 140.615 159.732 140.687H161.732ZM159.603 138.557H32.3006V140.557H159.603V138.557Z" fill="#001A49" mask="url(#path-33-inside-1_69_4886)"/>
<path d="M92.4301 140.826C92.4301 141.975 91.4988 142.906 90.3501 142.906C89.2013 142.906 88.27 141.975 88.27 140.826C88.27 139.677 89.2013 138.746 90.3501 138.746C91.4988 138.746 92.4301 139.677 92.4301 140.826Z" fill="white" stroke="#001A49"/>
<mask id="path-36-inside-2_69_4886" fill="white">
<path d="M90.3501 143.723C88.7527 143.723 87.4531 142.424 87.4531 140.826C87.4531 139.229 88.7527 137.929 90.3501 137.929C91.9476 137.929 93.2471 139.229 93.2471 140.826C93.2471 142.424 91.9476 143.723 90.3501 143.723ZM90.3501 138.563C89.1013 138.563 88.087 139.577 88.087 140.826C88.087 142.075 89.1013 143.089 90.3501 143.089C91.5989 143.089 92.6132 142.075 92.6132 140.826C92.6132 139.577 91.5989 138.563 90.3501 138.563Z"/>
</mask>
<path d="M90.3501 143.723C88.7527 143.723 87.4531 142.424 87.4531 140.826C87.4531 139.229 88.7527 137.929 90.3501 137.929C91.9476 137.929 93.2471 139.229 93.2471 140.826C93.2471 142.424 91.9476 143.723 90.3501 143.723ZM90.3501 138.563C89.1013 138.563 88.087 139.577 88.087 140.826C88.087 142.075 89.1013 143.089 90.3501 143.089C91.5989 143.089 92.6132 142.075 92.6132 140.826C92.6132 139.577 91.5989 138.563 90.3501 138.563Z" fill="black"/>
<path d="M90.3501 142.723C89.3049 142.723 88.4531 141.871 88.4531 140.826H86.4531C86.4531 142.976 88.2004 144.723 90.3501 144.723V142.723ZM88.4531 140.826C88.4531 139.781 89.3049 138.929 90.3501 138.929V136.929C88.2004 136.929 86.4531 138.676 86.4531 140.826H88.4531ZM90.3501 138.929C91.3953 138.929 92.2471 139.781 92.2471 140.826H94.2471C94.2471 138.676 92.4999 136.929 90.3501 136.929V138.929ZM92.2471 140.826C92.2471 141.871 91.3953 142.723 90.3501 142.723V144.723C92.4999 144.723 94.2471 142.976 94.2471 140.826H92.2471ZM90.3501 137.563C88.5491 137.563 87.087 139.025 87.087 140.826H89.087C89.087 140.13 89.6536 139.563 90.3501 139.563V137.563ZM87.087 140.826C87.087 142.627 88.549 144.089 90.3501 144.089V142.089C89.6536 142.089 89.087 141.523 89.087 140.826H87.087ZM90.3501 144.089C92.1512 144.089 93.6132 142.627 93.6132 140.826H91.6132C91.6132 141.523 91.0467 142.089 90.3501 142.089V144.089ZM93.6132 140.826C93.6132 139.025 92.1512 137.563 90.3501 137.563V139.563C91.0467 139.563 91.6132 140.13 91.6132 140.826H93.6132Z" fill="#001A49" mask="url(#path-36-inside-2_69_4886)"/>
<path d="M129.12 15.2495H99.4906C97.8129 15.2495 96.5303 16.6145 96.5303 18.2923V26.8671C96.5303 28.5448 97.8129 29.8993 99.4906 29.8993C99.5054 29.8993 99.9576 29.8993 100.562 29.8993V35.6256L104.461 29.8993C110.128 29.8993 129.12 29.8993 129.12 29.8993C130.798 29.8993 132.234 28.5448 132.234 26.8671V18.2923C132.232 16.6145 130.795 15.2495 129.12 15.2495Z" fill="white"/>
<path d="M100.562 35.9407C100.53 35.9407 100.499 35.9365 100.469 35.9259C100.336 35.8858 100.245 35.7611 100.245 35.6238V30.2144H99.4907C97.6523 30.2144 96.2134 28.7437 96.2134 26.8652V18.2904C96.2134 16.4077 97.6523 14.9307 99.4907 14.9307H129.12C130.979 14.9307 132.551 16.469 132.551 18.2904V26.8652C132.551 28.6803 130.979 30.2144 129.12 30.2144H104.63L100.826 35.8013C100.763 35.89 100.666 35.9407 100.562 35.9407ZM99.4907 15.5667C98.0073 15.5667 96.8473 16.7648 96.8473 18.2925V26.8673C96.8473 28.3908 98.0094 29.5826 99.4907 29.5826H100.562C100.737 29.5826 100.879 29.7241 100.879 29.8995V34.5968L104.199 29.722C104.258 29.6354 104.355 29.5826 104.461 29.5826H129.12C130.637 29.5826 131.918 28.338 131.918 26.8673V18.2925C131.918 16.8155 130.637 15.5667 129.12 15.5667H99.4907Z" fill="#001A49"/>
<path d="M116.913 21.3643H126.223C126.764 21.3643 127.203 20.9248 127.203 20.3839V20.2085C127.203 19.6675 126.764 19.228 126.223 19.228H116.913C116.372 19.228 115.932 19.6675 115.932 20.2085V20.3839C115.932 20.9248 116.372 21.3643 116.913 21.3643Z" fill="#001A49" fill-opacity="0.15"/>
<path d="M106.89 21.3643H111.949C112.49 21.3643 112.929 20.9248 112.929 20.3839V20.2085C112.929 19.6675 112.49 19.228 111.949 19.228H106.89C106.349 19.228 105.91 19.6675 105.91 20.2085V20.3839C105.908 20.9248 106.347 21.3643 106.89 21.3643Z" fill="#001A49" fill-opacity="0.15"/>
<path d="M102.54 25.9815H126.223C126.764 25.9815 127.203 25.542 127.203 25.0011V24.8257C127.203 24.2847 126.764 23.8452 126.223 23.8452H102.54C101.999 23.8452 101.559 24.2847 101.559 24.8257V25.0011C101.559 25.542 101.999 25.9815 102.54 25.9815Z" fill="#001A49" fill-opacity="0.15"/>
<path d="M11.083 113.317C4.35713 114.76 1.0988 127.185 0.957226 135.229C0.716339 148.915 9.28264 162.035 21.1052 168.34C36.8136 176.719 60.2325 174.113 67.9451 160.501C72.5474 152.378 71.9156 139.704 65.513 134.614C59.0936 129.511 52.5051 136.501 40.2367 133.369C23.2816 129.044 19.4929 111.514 11.083 113.317Z" fill="#001A49"/>
<path d="M49.5958 173.034C49.5958 173.034 55.6729 175.532 60.0047 175.494C60.7358 175.488 61.207 174.72 60.9006 174.059C60.7231 173.677 60.4548 173.193 60.0512 172.591C58.5488 170.334 52.1103 166.672 52.1103 166.672L51.0728 167.122C50.7094 167.28 50.5615 167.718 50.7537 168.064L51.0158 168.533L49.2915 168.531C48.8985 168.531 48.5836 168.859 48.6048 169.252C48.6449 170.046 48.8414 171.433 49.5958 173.034Z" fill="white"/>
<path d="M59.9051 175.811C55.5712 175.811 49.7244 173.43 49.4751 173.328C49.4011 173.299 49.3419 173.242 49.3081 173.17C48.5495 171.557 48.334 170.159 48.2854 169.267C48.2706 168.99 48.3678 168.728 48.558 168.525C48.7461 168.327 49.0123 168.213 49.287 168.213H50.4703C50.3372 167.97 50.3097 167.68 50.3985 167.418C50.4872 167.154 50.6858 166.938 50.9415 166.828L51.979 166.378C52.0699 166.338 52.1755 166.345 52.2622 166.393C52.5284 166.543 58.783 170.119 60.3108 172.413C60.6848 172.975 60.9785 173.482 61.1835 173.924C61.3758 174.336 61.3441 174.812 61.1011 175.196C60.8602 175.577 60.4502 175.805 60.0023 175.809C59.9727 175.811 59.9389 175.811 59.9051 175.811ZM49.8301 172.787C50.6816 173.125 56.0995 175.207 60.0002 175.177C60.2347 175.175 60.4418 175.059 60.5686 174.86C60.6953 174.659 60.7122 174.41 60.6108 174.195C60.4185 173.783 60.1417 173.301 59.7867 172.768C58.4597 170.778 53.0229 167.57 52.0889 167.027L51.1972 167.414C51.1042 167.454 51.0345 167.53 51.0028 167.625C50.9711 167.72 50.9795 167.822 51.0281 167.91L51.2902 168.377C51.3451 168.475 51.343 168.595 51.2859 168.692C51.2289 168.789 51.1254 168.849 51.0134 168.849L49.2891 168.846C49.1856 168.846 49.0905 168.887 49.0207 168.963C48.951 169.037 48.9151 169.132 48.9214 169.233C48.9637 170.047 49.156 171.317 49.8301 172.787Z" fill="black"/>
<path d="M60.222 174.678C60.2157 174.678 60.2072 174.678 60.2009 174.678C55.4592 174.361 49.8787 172.259 49.8237 172.238C49.661 172.176 49.5786 171.992 49.6399 171.828C49.7012 171.665 49.885 171.583 50.0498 171.644C50.1048 171.665 55.5987 173.736 60.2453 174.044C60.4207 174.057 60.5517 174.207 60.5411 174.382C60.5263 174.549 60.389 174.678 60.222 174.678Z" fill="black"/>
<path d="M56.1208 172.163C56.0658 172.163 56.0109 172.148 55.9602 172.119C55.8102 172.03 55.7594 171.836 55.8482 171.686L56.7779 170.103C56.8667 169.953 57.0611 169.902 57.2111 169.991C57.3611 170.08 57.4118 170.274 57.3231 170.424L56.3933 172.007C56.3342 172.106 56.2285 172.163 56.1208 172.163Z" fill="black"/>
<path d="M54.0307 171.522C53.9758 171.522 53.9208 171.507 53.8701 171.477C53.7201 171.388 53.6694 171.194 53.7581 171.044L54.9266 169.056C55.0154 168.906 55.2098 168.855 55.3598 168.944C55.5098 169.032 55.5605 169.227 55.4718 169.377L54.3033 171.365C54.2441 171.465 54.1385 171.522 54.0307 171.522Z" fill="black"/>
<path d="M49.3992 147.624L28.3493 142.138L31.3459 134.749C31.422 134.713 31.5121 134.672 31.6158 134.624C31.9993 134.45 32.548 134.208 33.2228 133.917C34.5713 133.335 36.4108 132.565 38.4139 131.762C42.448 130.146 47.053 128.438 49.6773 127.849L49.6777 127.849C52.4263 127.23 54.0974 126.978 55.2891 127.174C56.3277 127.344 57.0751 127.872 57.8985 129.255C57.9407 129.326 58.0277 129.626 57.9172 130.342C57.8147 131.007 57.5716 131.852 57.2082 132.835C56.4837 134.796 55.3382 137.157 54.1172 139.454C52.8998 141.744 51.6233 143.942 50.6498 145.57C50.1634 146.383 49.7534 147.052 49.4654 147.517C49.4426 147.554 49.4205 147.59 49.3992 147.624Z" fill="white" stroke="black" stroke-width="2"/>
<path d="M43.4251 140.779C43.3807 140.779 43.3385 140.77 43.2962 140.751C43.1356 140.679 43.0659 140.491 43.1356 140.333C45.7072 134.596 49.9523 130.492 49.9946 130.452C50.1213 130.332 50.3221 130.336 50.4425 130.463C50.563 130.59 50.5588 130.79 50.432 130.911C50.3897 130.951 46.2312 134.972 43.7125 140.593C43.6618 140.709 43.5455 140.779 43.4251 140.779Z" fill="black"/>
<path d="M23.4604 147.169L23.4604 147.169C22.0585 145.784 21.3682 144.363 21.0264 143.303C20.8848 142.864 20.8029 142.486 20.7556 142.198L26.8289 139.174C26.974 139.178 27.1802 139.185 27.4399 139.195C27.9907 139.215 28.7817 139.247 29.74 139.296C31.6576 139.394 34.2394 139.559 36.9034 139.823C39.5731 140.089 42.299 140.452 44.5147 140.944C45.6237 141.19 46.5781 141.463 47.3228 141.76C48.0965 142.068 48.5242 142.357 48.7069 142.572L48.7071 142.572C48.9344 142.839 49.2493 143.428 49.6192 144.382C49.9766 145.305 50.3489 146.47 50.7254 147.802C51.4778 150.464 52.2286 153.727 52.8966 156.905C53.564 160.08 54.1457 163.156 54.5607 165.439C54.7681 166.58 54.9338 167.523 55.0475 168.179C55.0526 168.209 55.0575 168.237 55.0624 168.265L44.7252 170.497C44.5704 170.146 44.4016 169.664 44.2273 169.041C43.9462 168.037 43.6817 166.789 43.43 165.401C43.0546 163.331 42.7173 161.008 42.3964 158.797C42.2862 158.039 42.178 157.293 42.0708 156.576C41.6462 153.734 41.1062 151.759 40.6622 150.478C40.4401 149.837 40.2421 149.37 40.0947 149.055C40.0209 148.898 39.9599 148.778 39.9148 148.694C39.8923 148.652 39.8737 148.619 39.8596 148.594L39.8418 148.564L39.8355 148.553L39.833 148.549L39.8319 148.547L39.8314 148.546C39.8311 148.546 39.8309 148.545 38.9772 149.066L39.8309 148.545L39.4627 147.942L38.7709 148.088L38.7709 148.088L38.7707 148.088L38.7699 148.088L38.7645 148.089L38.7407 148.094C38.7191 148.098 38.6861 148.105 38.6423 148.114C38.5548 148.131 38.4243 148.156 38.2559 148.188C37.919 148.25 37.4311 148.335 36.8328 148.426C35.6341 148.608 34.0019 148.812 32.2581 148.899C30.508 148.986 28.6808 148.954 27.08 148.682C25.4544 148.406 24.204 147.904 23.4604 147.169Z" fill="white" stroke="black" stroke-width="2"/>
<path d="M50.857 145.168C50.726 145.168 50.6034 145.085 50.5569 144.954C50.0625 143.534 49.6166 142.584 49.2278 142.127C47.7973 140.447 38.3456 139.215 29.9779 138.624C29.8025 138.611 29.6715 138.459 29.6842 138.286C29.6969 138.11 29.849 137.977 30.0223 137.992C35.307 138.366 47.8036 139.477 49.7096 141.717C50.1554 142.239 50.6266 143.23 51.1549 144.745C51.2119 144.91 51.1253 145.092 50.9605 145.149C50.9267 145.161 50.8908 145.168 50.857 145.168Z" fill="black"/>
<path d="M34.8948 130.389C34.9539 130.198 41.1029 120.835 41.1029 120.835L42.5863 121.919L36.9677 130.68L34.8948 130.389Z" fill="#001A49"/>
<path d="M13.7241 140.424C13.7241 140.424 11.573 137.417 12.4541 130.681C13.3353 123.944 15.4906 120.447 17.7452 119.648C19.9998 118.85 29.2761 120.308 30.0009 131.625L13.7241 140.424Z" fill="url(#paint1_linear_69_4886)"/>
<path d="M13.7242 140.741C13.6249 140.741 13.5277 140.694 13.4664 140.607C13.3756 140.481 11.252 137.421 12.1395 130.638C12.953 124.413 14.9583 120.299 17.6397 119.348C18.8843 118.906 22.0391 119.12 24.8537 120.977C27.1315 122.48 29.9292 125.546 30.318 131.606C30.3265 131.728 30.261 131.847 30.1532 131.904L13.8764 140.7C13.8257 140.728 13.775 140.741 13.7242 140.741ZM19.1062 119.777C18.5864 119.777 18.1553 119.84 17.851 119.946C15.4379 120.8 13.5383 124.827 12.767 130.72C12.0507 136.195 13.384 139.175 13.8383 140.001L29.6693 131.445C29.2509 125.78 26.6371 122.915 24.5029 121.508C22.58 120.238 20.5177 119.777 19.1062 119.777Z" fill="black"/>
<path d="M20.2049 135.876C20.0401 135.876 19.9006 135.749 19.8901 135.583L19.4442 129.265C19.4315 129.089 19.5625 128.939 19.7379 128.926C19.9112 128.912 20.0633 129.045 20.076 129.22L20.5219 135.538C20.5345 135.714 20.4035 135.864 20.2281 135.876C20.2197 135.876 20.2134 135.876 20.2049 135.876Z" fill="black"/>
<path d="M12.9404 138.691C12.9404 138.691 13.7223 144.347 21.6293 142.454C29.5363 140.561 33.6568 133.212 33.6568 133.212C33.6568 133.212 38.2611 132.227 38.1048 129.241C38.1048 129.241 36.5643 129.653 35.2542 129.241C33.9441 128.829 32.5263 129.25 31.9811 129.761C28.2389 133.269 16.2981 134.319 12.9404 138.691Z" fill="white"/>
<path d="M18.6414 143.162C17.1263 143.162 15.8501 142.811 14.8274 142.112C12.9341 140.819 12.6382 138.82 12.6277 138.735C12.615 138.651 12.6382 138.566 12.6911 138.499C14.5801 136.041 18.9879 134.632 23.2521 133.271C26.7809 132.145 30.1132 131.08 31.7634 129.531C32.4248 128.912 33.9843 128.508 35.3493 128.939C36.5579 129.32 38.0096 128.939 38.0223 128.935C38.1153 128.91 38.2125 128.929 38.2906 128.986C38.3688 129.043 38.4153 129.129 38.4217 129.227C38.5759 132.179 34.6689 133.294 33.8617 133.491C33.27 134.471 29.0862 140.996 21.7032 142.765C20.5938 143.029 19.5732 143.162 18.6414 143.162ZM13.2785 138.776C13.3736 139.207 13.7877 140.641 15.1929 141.596C16.6911 142.615 18.8316 142.801 21.5553 142.148C29.2299 140.31 33.3398 133.129 33.3799 133.058C33.4243 132.977 33.5004 132.922 33.5891 132.903C33.6314 132.895 37.5215 132.031 37.7772 129.637C37.2067 129.738 36.1332 129.852 35.157 129.546C33.9441 129.163 32.6572 129.563 32.1945 129.996C30.4385 131.642 27.0408 132.728 23.4423 133.878C19.3387 135.185 15.0978 136.54 13.2785 138.776Z" fill="black"/>
<path d="M35.2795 130.835C35.1506 130.835 35.0197 130.833 34.8802 130.826C34.7048 130.82 34.5696 130.672 34.5759 130.497C34.5822 130.321 34.7323 130.186 34.9055 130.192C37.0968 130.281 37.8406 129.586 37.8469 129.577C37.9695 129.453 38.1702 129.448 38.2949 129.571C38.4195 129.694 38.4238 129.894 38.3012 130.019C38.2674 130.057 37.4834 130.835 35.2795 130.835Z" fill="black"/>
<path d="M35.0492 131.929C34.9964 131.929 34.9435 131.929 34.8886 131.927C34.7132 131.922 34.5737 131.779 34.578 131.603C34.5822 131.43 34.7217 131.293 34.8949 131.293C34.897 131.293 34.8992 131.293 34.9013 131.293C36.7756 131.329 37.401 130.684 37.4074 130.678C37.5257 130.551 37.7243 130.543 37.8532 130.657C37.9821 130.773 37.9948 130.967 37.8807 131.098C37.8046 131.187 37.0967 131.929 35.0492 131.929Z" fill="black"/>
<path d="M21.4662 115.169C21.4134 115.267 19.1735 119.095 19.1735 119.095L17.6289 120.133C18.1994 120.566 19.2052 121.217 20.6146 121.591C22.0515 121.971 23.2707 121.895 23.985 121.796C23.9237 121.602 23.818 121.346 23.6384 121.082C23.3531 120.663 23.0129 120.414 22.7953 120.281C23.2559 119.489 23.7166 118.696 24.1794 117.906L21.4662 115.169Z" fill="white"/>
<path d="M22.802 122.195C22.0392 122.195 21.2785 122.095 20.5326 121.897C19.4063 121.599 18.3646 121.09 17.4369 120.384C17.3545 120.323 17.3081 120.225 17.3123 120.122C17.3144 120.02 17.3672 119.925 17.4517 119.868L18.9372 118.871C19.5796 117.772 21.1348 115.114 21.1897 115.015C21.2383 114.928 21.3249 114.867 21.4243 114.854C21.5236 114.839 21.6229 114.873 21.6926 114.945L24.4037 117.679C24.5051 117.781 24.5241 117.937 24.4523 118.062L23.2161 120.183C23.4824 120.384 23.7106 120.625 23.8986 120.902C24.0656 121.147 24.1966 121.415 24.2853 121.698C24.3128 121.787 24.3001 121.884 24.2515 121.962C24.2008 122.04 24.1205 122.093 24.0275 122.106C23.6176 122.165 23.2098 122.195 22.802 122.195ZM18.1829 120.141C18.9499 120.661 19.793 121.045 20.6953 121.284C21.6271 121.531 22.5801 121.614 23.5331 121.527C23.4866 121.434 23.4338 121.343 23.3746 121.259C23.1802 120.973 22.9287 120.733 22.6287 120.549C22.4829 120.458 22.4343 120.268 22.5209 120.12L23.7824 117.954L21.5341 115.684C20.9995 116.601 19.6345 118.934 19.4486 119.253C19.4253 119.294 19.3915 119.329 19.3514 119.357L18.1829 120.141Z" fill="black"/>
<path d="M25.4094 109.238C24.0846 109.067 23.5204 110.461 21.9461 110.218C21.2256 110.106 20.9446 109.751 20.243 109.882C19.7782 109.969 19.0534 110.282 18.8231 110.894C18.5294 111.674 19.3598 112.084 19.8394 113.867C20.1775 115.12 20.019 115.856 20.4987 116.069C20.9847 116.285 21.3989 115.647 21.9461 115.843C22.654 116.097 22.4237 117.333 23.0893 117.899C23.5478 118.288 24.7206 118.522 26.7237 117.593C26.6392 117.231 26.5188 116.486 26.3181 115.809C25.6926 113.69 24.9868 113.17 25.2932 112.655C25.7623 111.864 27.2879 112.447 27.5943 111.792C27.9134 111.112 26.7702 109.415 25.4094 109.238Z" fill="black"/>
<path d="M22.3308 112.391L22.8379 112.811C22.8379 112.811 23.1993 114.905 23.4719 115.611C23.7444 116.317 25.9948 115.641 25.9948 115.641L26.1575 115.229L26.7788 115.028C26.7788 115.028 25.6145 113.202 25.3419 111.67C25.3398 111.668 23.7444 111.134 22.3308 112.391Z" fill="white"/>
<path d="M22.6455 112.387C22.8187 112.446 22.9328 112.476 23.0385 112.569L23.047 112.575C23.1019 112.626 23.1378 112.689 23.1484 112.759C23.2266 113.209 23.3132 113.661 23.4083 114.107C23.5034 114.551 23.6027 115.007 23.7358 115.411L23.7612 115.482C23.7654 115.499 23.7696 115.499 23.7696 115.499C23.7696 115.501 23.7717 115.501 23.7696 115.504C23.7759 115.508 23.7781 115.518 23.7992 115.529C23.8351 115.554 23.9112 115.582 23.9999 115.594C24.1796 115.624 24.393 115.618 24.6064 115.597C25.0332 115.552 25.4833 115.455 25.9017 115.334L25.6988 115.523L25.8615 115.111L25.8763 115.072C25.908 114.992 25.9799 114.939 26.0581 114.925L26.7089 114.815L26.5905 115.144C26.4151 114.88 26.2588 114.616 26.1045 114.343C25.9524 114.073 25.8066 113.796 25.6713 113.515C25.403 112.951 25.1663 112.364 25.029 111.723L25.2403 111.968C25.1516 111.941 25.0184 111.916 24.9043 111.899C24.7839 111.884 24.6634 111.873 24.5409 111.873C24.2979 111.869 24.0527 111.894 23.8182 111.954C23.5836 112.011 23.3533 112.093 23.142 112.211C23.0322 112.264 22.9328 112.336 22.8314 112.402C22.7617 112.446 22.7849 112.442 22.7575 112.431C22.7385 112.418 22.7004 112.393 22.6455 112.387ZM22.0137 112.397C22.0644 112.304 22.132 112.197 22.2186 112.099C22.2989 112.006 22.4215 111.909 22.4659 111.884C22.5884 111.804 22.7089 111.717 22.8441 111.654C23.1019 111.51 23.385 111.408 23.6703 111.339C23.9577 111.267 24.2535 111.235 24.5472 111.242C24.6951 111.244 24.8409 111.254 24.9888 111.273C25.1389 111.294 25.272 111.318 25.441 111.37C25.553 111.404 25.6312 111.497 25.6502 111.605L25.6523 111.616C25.7411 112.18 25.9334 112.748 26.1616 113.3C26.2778 113.574 26.4025 113.849 26.5377 114.117C26.6708 114.386 26.8145 114.656 26.9645 114.91C27.0279 115.018 26.992 115.157 26.8842 115.218L26.8716 115.227L26.8483 115.239L26.2567 115.531L26.4532 115.345L26.2905 115.757L26.2884 115.761C26.2524 115.854 26.1743 115.92 26.0855 115.945C25.6164 116.078 25.16 116.18 24.6698 116.23C24.4246 116.254 24.1732 116.266 23.8964 116.222C23.7569 116.197 23.6069 116.161 23.4484 116.059C23.3702 116.011 23.2942 115.932 23.2329 115.844L23.1949 115.772C23.1822 115.747 23.1716 115.721 23.1674 115.708L23.1357 115.618C22.9814 115.144 22.8863 114.696 22.787 114.238C22.6919 113.781 22.6053 113.327 22.5229 112.866L22.6328 113.057C22.4003 112.869 22.1785 112.617 22.0137 112.397Z" fill="black"/>
<path d="M22.6015 114.271C22.6015 114.271 22.0077 112.947 21.4626 113.344C20.9153 113.741 21.6062 115.182 22.6015 114.271Z" fill="white"/>
<path d="M21.9674 114.99C21.8259 114.99 21.7097 114.962 21.6251 114.931C21.2258 114.789 20.9257 114.4 20.8602 113.942C20.8053 113.555 20.9363 113.202 21.2131 113.001C21.4117 112.858 21.6484 112.811 21.8808 112.873C22.4683 113.029 22.8761 113.849 22.9881 114.098C23.062 114.265 23.0219 114.459 22.8888 114.582C22.538 114.901 22.2168 114.99 21.9674 114.99ZM21.6991 113.707C21.6928 113.73 21.6864 113.769 21.6949 113.821C21.716 113.965 21.8069 114.098 21.9083 114.134C21.9527 114.149 21.9991 114.145 22.0477 114.13C21.9252 113.931 21.79 113.764 21.6991 113.707Z" fill="black"/>
<path d="M14.4723 154.549C14.4321 154.549 14.3899 154.54 14.3518 154.526C14.1891 154.458 14.1131 154.274 14.1807 154.111C15.8056 150.185 21.027 149.454 21.2488 149.425C21.4221 149.401 21.5806 149.524 21.6038 149.697C21.6271 149.871 21.5045 150.031 21.3312 150.052C21.2805 150.059 16.2493 150.769 14.766 154.352C14.7153 154.477 14.5969 154.549 14.4723 154.549Z" fill="white"/>
<path d="M21.6758 156.905C21.5152 156.905 21.3778 156.785 21.3609 156.622C20.9595 152.848 23.1211 150.422 23.2141 150.321C23.3324 150.192 23.5332 150.181 23.6621 150.3C23.791 150.418 23.8015 150.617 23.6832 150.748C23.6557 150.777 21.623 153.078 21.9928 156.554C22.0118 156.728 21.885 156.884 21.7117 156.903C21.699 156.905 21.6885 156.905 21.6758 156.905Z" fill="white"/>
<path d="M93.5511 168.551C88.8157 168.551 84.1776 167.891 79.7571 166.56C78.9372 166.313 78.1195 166.04 77.3229 165.751C77.1031 165.67 76.9911 165.427 77.0714 165.21C77.1517 164.99 77.3947 164.878 77.6123 164.958C78.3921 165.244 79.1971 165.51 80.0001 165.753C91.9367 169.349 105.519 167.953 118.246 161.818C118.455 161.717 118.709 161.806 118.81 162.015C118.912 162.226 118.823 162.478 118.614 162.579C110.398 166.539 101.826 168.551 93.5511 168.551Z" fill="#001A49"/>
<path d="M93.5511 172.644C88.2072 172.644 82.9774 171.83 78.035 170.172C75.5542 169.339 73.1686 168.297 70.9393 167.074C70.7344 166.962 70.6604 166.704 70.7724 166.499C70.8844 166.294 71.1422 166.22 71.3472 166.332C73.5321 167.53 75.8733 168.553 78.3054 169.371C94.3984 174.776 113.614 171.042 129.712 159.382C129.902 159.245 130.166 159.287 130.301 159.477C130.439 159.666 130.396 159.93 130.206 160.067C118.821 168.312 105.885 172.644 93.5511 172.644Z" fill="#001A49"/>
<path d="M119.647 161.834C119.508 161.834 119.364 161.83 119.216 161.821C118.984 161.808 118.804 161.608 118.819 161.375C118.832 161.143 119.034 160.965 119.265 160.978C120.298 161.039 121.052 160.87 121.507 160.479C121.748 160.272 121.883 160.021 122.012 159.78C122.198 159.431 122.409 159.038 122.912 158.903C123.398 158.772 123.783 158.985 124.064 159.14C124.157 159.19 124.315 159.273 124.359 159.273C124.427 159.216 124.467 158.867 124.488 158.679C124.545 158.172 124.615 157.538 125.173 157.234C125.663 156.965 126.185 157.153 126.608 157.303C126.846 157.39 127.146 157.496 127.254 157.43C127.337 157.38 127.343 157.118 127.347 156.885C127.356 156.458 127.37 155.873 127.856 155.488C128.285 155.15 128.924 155.087 129.805 155.296C130.031 155.349 130.172 155.577 130.117 155.805C130.062 156.031 129.834 156.171 129.608 156.118C128.814 155.93 128.497 156.059 128.378 156.152C128.216 156.281 128.199 156.522 128.19 156.902C128.182 157.327 128.169 157.853 127.696 158.147C127.242 158.428 126.732 158.244 126.32 158.098C126.033 157.994 125.733 157.889 125.576 157.973C125.405 158.066 125.363 158.44 125.327 158.77C125.274 159.245 125.209 159.839 124.676 160.055C124.273 160.219 123.916 160.023 123.656 159.879C123.428 159.755 123.282 159.679 123.132 159.719C122.994 159.755 122.92 159.875 122.758 160.179C122.608 160.46 122.42 160.811 122.058 161.122C121.503 161.595 120.693 161.834 119.647 161.834Z" fill="#001A49"/>
<defs>
<linearGradient id="paint0_linear_69_4886" x1="99.7861" y1="216.843" x2="218.688" y2="94.6223" gradientUnits="userSpaceOnUse">
<stop stop-color="#CD10FF"/>
<stop offset="1" stop-color="#9F06FF"/>
</linearGradient>
<linearGradient id="paint1_linear_69_4886" x1="22.2557" y1="145.378" x2="36.3418" y2="133.064" gradientUnits="userSpaceOnUse">
<stop stop-color="#CD10FF"/>
<stop offset="1" stop-color="#9F06FF"/>
</linearGradient>
</defs>
</svg>
