<svg width="172" height="173" viewBox="0 0 172 173" fill="none" xmlns="http://www.w3.org/2000/svg">
<path d="M41.6474 129.028C59.6399 147.201 54.4882 158.592 66.7986 167.005C85.7416 179.952 121.097 168.813 141.953 151.005C167.499 129.194 180.679 89.3676 165.665 53.3389C149.675 14.9704 107.605 -4.94809 70.064 1.05428C36.5394 6.41397 3.58461 32.9317 0.283932 64.7342C-0.0737971 68.1805 -1.65447 86.8157 9.42681 102.88C18.5884 116.16 27.3861 114.621 41.6474 129.028Z" fill="url(#paint0_linear_69_5955)"/>
<path d="M90.8476 165.901C86.1868 165.901 81.6216 165.252 77.2706 163.941C76.4636 163.698 75.6587 163.43 74.8746 163.145C74.6583 163.066 74.5481 162.827 74.6271 162.612C74.7062 162.396 74.9454 162.286 75.1596 162.365C75.927 162.646 76.7194 162.908 77.5098 163.147C89.2587 166.687 102.628 165.312 115.154 159.274C115.36 159.174 115.61 159.262 115.71 159.468C115.81 159.676 115.722 159.923 115.516 160.023C107.43 163.921 98.9922 165.901 90.8476 165.901Z" fill="#001A49"/>
<path d="M90.8477 169.929C85.5878 169.929 80.4403 169.128 75.5756 167.496C73.1339 166.676 70.7857 165.651 68.5915 164.447C68.3898 164.337 68.317 164.083 68.4272 163.881C68.5375 163.679 68.7912 163.607 68.9929 163.717C71.1435 164.896 73.4479 165.903 75.8418 166.708C91.6817 172.028 110.596 168.353 126.44 156.876C126.627 156.741 126.887 156.783 127.02 156.97C127.155 157.155 127.114 157.415 126.926 157.55C115.72 165.666 102.988 169.929 90.8477 169.929Z" fill="#001A49"/>
<path d="M116.533 159.289C116.396 159.289 116.255 159.285 116.109 159.276C115.88 159.264 115.703 159.066 115.718 158.837C115.73 158.609 115.93 158.434 116.157 158.446C117.174 158.507 117.916 158.34 118.364 157.956C118.601 157.752 118.734 157.504 118.861 157.267C119.044 156.924 119.252 156.537 119.747 156.404C120.225 156.275 120.603 156.485 120.88 156.637C120.972 156.687 121.128 156.768 121.171 156.768C121.238 156.712 121.277 156.369 121.298 156.184C121.354 155.684 121.423 155.06 121.972 154.761C122.455 154.497 122.968 154.682 123.384 154.83C123.619 154.915 123.915 155.019 124.021 154.954C124.102 154.904 124.108 154.647 124.112 154.418C124.12 153.998 124.135 153.422 124.613 153.043C125.036 152.71 125.664 152.648 126.531 152.854C126.754 152.906 126.893 153.13 126.839 153.355C126.785 153.578 126.56 153.715 126.338 153.663C125.556 153.478 125.244 153.605 125.127 153.696C124.967 153.823 124.95 154.06 124.942 154.434C124.934 154.852 124.921 155.37 124.455 155.659C124.008 155.936 123.507 155.755 123.101 155.612C122.819 155.51 122.523 155.406 122.369 155.489C122.201 155.58 122.159 155.949 122.124 156.273C122.072 156.741 122.007 157.325 121.483 157.537C121.086 157.7 120.735 157.506 120.479 157.365C120.254 157.242 120.111 157.167 119.963 157.207C119.828 157.242 119.755 157.361 119.595 157.66C119.447 157.937 119.262 158.282 118.906 158.588C118.359 159.054 117.563 159.289 116.533 159.289Z" fill="#001A49"/>
<path d="M132.737 172.408H124.703V73.8761L132.657 73.3154L132.737 172.408Z" fill="#D9DDE4"/>
<path d="M132.737 172.574H124.703C124.612 172.574 124.537 172.499 124.537 172.408V73.8764C124.537 73.7885 124.605 73.7171 124.691 73.7105L132.644 73.1498C132.689 73.1465 132.735 73.1631 132.768 73.1946C132.801 73.2261 132.821 73.2693 132.821 73.3157L132.903 172.408C132.903 172.453 132.884 172.494 132.854 172.526C132.823 172.556 132.782 172.574 132.737 172.574ZM124.869 172.242H132.571L132.491 73.4949L124.871 74.0307V172.242H124.869Z" fill="black"/>
<path d="M154.277 172.408H132.737C132.692 172.408 132.656 172.358 132.656 172.295V73.4321C132.656 73.3691 132.694 73.3176 132.739 73.321L154.278 74.4556C154.321 74.4572 154.356 74.507 154.356 74.5667V172.295C154.356 172.358 154.32 172.408 154.277 172.408Z" fill="#D9DDE4"/>
<path d="M154.276 172.574H132.737C132.599 172.574 132.49 172.451 132.49 172.295V73.4319C132.49 73.349 132.521 73.271 132.576 73.2196C132.624 73.1748 132.684 73.1532 132.747 73.1549L154.285 74.2895C154.419 74.2961 154.519 74.4156 154.519 74.5665V172.295C154.522 172.451 154.414 172.574 154.276 172.574ZM132.823 172.242H154.192V74.6163L132.823 73.49V172.242Z" fill="black"/>
<path d="M147.207 120.919C147.115 120.919 147.041 120.844 147.041 120.753V80.7406C147.041 80.6494 147.115 80.5747 147.207 80.5747C147.298 80.5747 147.372 80.6494 147.372 80.7406V120.753C147.372 120.846 147.298 120.919 147.207 120.919Z" fill="black"/>
<path d="M140.392 106.661C140.301 106.661 140.226 106.587 140.226 106.495V94.6913C140.226 94.6 140.301 94.5254 140.392 94.5254C140.483 94.5254 140.558 94.6 140.558 94.6913V106.495C140.558 106.588 140.483 106.661 140.392 106.661Z" fill="black"/>
<path d="M140.392 147.138C140.301 147.138 140.226 147.063 140.226 146.972V126.602C140.226 126.511 140.301 126.436 140.392 126.436C140.483 126.436 140.558 126.511 140.558 126.602V146.972C140.558 147.063 140.483 147.138 140.392 147.138Z" fill="black"/>
<path d="M93.8227 172.419H80.9785V98.8595L93.753 96.353L93.8227 172.419Z" fill="#D9DDE4"/>
<path d="M93.8226 172.585H80.9785C80.8873 172.585 80.8126 172.51 80.8126 172.419V98.8593C80.8126 98.7797 80.869 98.7116 80.947 98.6967L93.7215 96.1903C93.7696 96.1803 93.821 96.1936 93.8591 96.2251C93.8973 96.2566 93.9189 96.3031 93.9205 96.3528L93.9902 172.419C93.9902 172.464 93.9736 172.505 93.9421 172.537C93.9089 172.567 93.8674 172.585 93.8226 172.585ZM81.1444 172.253H93.6568L93.5871 96.5552L81.1444 98.997V172.253Z" fill="black"/>
<path d="M128.482 172.418H93.8824C93.8111 172.418 93.7531 172.38 93.7531 172.332V96.4418C93.7531 96.3937 93.8144 96.3539 93.8874 96.3555L128.487 97.2264C128.556 97.2281 128.611 97.2662 128.611 97.3126V172.332C128.611 172.38 128.553 172.418 128.482 172.418Z" fill="#D9DDE4"/>
<path d="M128.482 172.585H93.8824C93.7166 172.585 93.5872 172.474 93.5872 172.333V96.4421C93.5872 96.3791 93.6137 96.321 93.6601 96.2746C93.7182 96.2182 93.8011 96.1883 93.8924 96.19L128.492 97.0609C128.654 97.0642 128.779 97.1737 128.779 97.313V172.333C128.777 172.474 128.648 172.585 128.482 172.585ZM93.9189 172.251H128.445V97.391L93.9189 96.5218V172.251Z" fill="black"/>
<path d="M111.19 136.089C111.099 136.089 111.025 136.015 111.025 135.924V102.23C111.025 102.139 111.099 102.064 111.19 102.064C111.282 102.064 111.356 102.139 111.356 102.23V135.924C111.356 136.015 111.282 136.089 111.19 136.089Z" fill="black"/>
<path d="M102.055 113.39C101.964 113.39 101.89 113.316 101.89 113.225V107.482C101.89 107.391 101.964 107.316 102.055 107.316C102.147 107.316 102.221 107.391 102.221 107.482V113.225C102.221 113.316 102.147 113.39 102.055 113.39Z" fill="black"/>
<path d="M102.055 151.496C101.964 151.496 101.89 151.422 101.89 151.33V122.723C101.89 122.631 101.964 122.557 102.055 122.557C102.147 122.557 102.221 122.631 102.221 122.723V151.33C102.221 151.422 102.147 151.496 102.055 151.496Z" fill="black"/>
<path d="M120.324 124.714C120.233 124.714 120.158 124.639 120.158 124.548V118.804C120.158 118.712 120.233 118.638 120.324 118.638C120.415 118.638 120.49 118.712 120.49 118.804V124.546C120.49 124.639 120.417 124.714 120.324 124.714Z" fill="black"/>
<path d="M46.7259 172.42H31.0054V130.142L46.7259 128.402V172.42Z" fill="#D9DDE4"/>
<path d="M46.7258 172.585H31.0036C30.9124 172.585 30.8378 172.511 30.8378 172.42V130.142C30.8378 130.057 30.9008 129.986 30.9854 129.977L46.7076 128.237C46.754 128.232 46.8021 128.247 46.837 128.279C46.8718 128.31 46.8917 128.355 46.8917 128.403V172.421C46.8917 172.511 46.8171 172.585 46.7258 172.585ZM31.1712 172.254H46.5616V128.587L31.1712 130.291V172.254Z" fill="black"/>
<path d="M89.6259 172.42H46.7258V128.494C46.7258 128.445 46.8088 128.403 46.9083 128.405L89.6243 129.126V172.42H89.6259Z" fill="#D9DDE4"/>
<path d="M89.626 172.585H46.7259C46.6347 172.585 46.5601 172.511 46.5601 172.419V128.494C46.5601 128.436 46.5849 128.38 46.6297 128.335C46.6944 128.272 46.7973 128.242 46.9117 128.239L89.6277 128.96C89.7189 128.962 89.7902 129.035 89.7902 129.126V172.419C89.7919 172.511 89.7173 172.585 89.626 172.585ZM46.8918 172.254H89.4585V129.29L46.9051 128.571C46.9001 128.571 46.8951 128.571 46.8902 128.571V172.254H46.8918Z" fill="black"/>
<path d="M58.1302 160.051C58.039 160.051 57.9644 159.977 57.9644 159.886V133.661C57.9644 133.57 58.039 133.496 58.1302 133.496C58.2215 133.496 58.2961 133.57 58.2961 133.661V159.886C58.2961 159.977 58.2215 160.051 58.1302 160.051Z" fill="black"/>
<path d="M80.6136 163.118C80.5224 163.118 80.4478 163.044 80.4478 162.952V136.728C80.4478 136.637 80.5224 136.562 80.6136 136.562C80.7049 136.562 80.7795 136.637 80.7795 136.728V162.952C80.7795 163.044 80.7049 163.118 80.6136 163.118Z" fill="black"/>
<path d="M69.3717 152.844C69.2805 152.844 69.2058 152.769 69.2058 152.678V147.31C69.2058 147.219 69.2805 147.144 69.3717 147.144C69.4629 147.144 69.5376 147.219 69.5376 147.31V152.678C69.5376 152.769 69.4629 152.844 69.3717 152.844Z" fill="black"/>
<path d="M23.9919 172.419H17.0448V151.45L23.9255 149.886L23.9919 172.419Z" fill="#D9DDE4"/>
<path d="M23.9902 172.585H17.0431C16.9518 172.585 16.8772 172.511 16.8772 172.419V151.45C16.8772 151.372 16.9303 151.306 17.0066 151.288L23.8873 149.724C23.9371 149.712 23.9885 149.724 24.0267 149.755C24.0665 149.787 24.0897 149.835 24.0897 149.885L24.1544 172.418C24.1544 172.463 24.1378 172.504 24.1063 172.536C24.0781 172.567 24.035 172.585 23.9902 172.585ZM17.2106 172.254H23.8243L23.7596 150.094L17.2106 151.583V172.254Z" fill="black"/>
<path d="M42.6352 172.419H23.9902C23.9537 172.419 23.9255 172.386 23.9255 172.343V149.963C23.9255 149.921 23.9554 149.886 23.9919 149.886L42.6369 150.236C42.6734 150.236 42.7016 150.271 42.7016 150.313V172.343C42.7016 172.385 42.6717 172.419 42.6352 172.419Z" fill="#D9DDE4"/>
<path d="M42.6353 172.586H23.9903C23.8626 172.586 23.7598 172.478 23.7598 172.343V149.963C23.7598 149.896 23.7863 149.832 23.8328 149.787C23.8775 149.744 23.9356 149.722 23.9953 149.722L42.6403 150.072C42.7647 150.074 42.8676 150.183 42.8676 150.314V172.345C42.8676 172.476 42.7631 172.586 42.6353 172.586ZM24.0915 172.254H42.5358V150.402L24.0915 150.056V172.254ZM23.9887 150.054C23.9887 150.054 23.9903 150.054 23.9887 150.054V150.054Z" fill="black"/>
<path d="M37.0268 167.259C36.9356 167.259 36.861 167.184 36.861 167.093V153.751C36.861 153.66 36.9356 153.585 37.0268 153.585C37.1181 153.585 37.1927 153.66 37.1927 153.751V167.093C37.1927 167.186 37.1181 167.259 37.0268 167.259Z" fill="black"/>
<path d="M31.1315 162.504C31.0402 162.504 30.9656 162.43 30.9656 162.339V158.402C30.9656 158.311 31.0402 158.236 31.1315 158.236C31.2227 158.236 31.2973 158.311 31.2973 158.402V162.339C31.2973 162.431 31.2227 162.504 31.1315 162.504Z" fill="black"/>
<path d="M103.072 68.3527C102.115 69.1457 102.677 69.8225 101.451 71.6422C100.552 72.9792 99.7843 73.3026 99.8108 74.1785C99.8357 74.9664 100.483 75.5321 100.911 75.9053C102.853 77.6006 105.53 77.4181 107.173 77.3053C108.501 77.2141 110.324 77.0897 110.573 76.2586C110.819 75.4375 109.246 74.8735 109.107 73.2529C108.994 71.949 109.948 71.5841 109.734 70.4279C109.457 68.9333 107.604 68.1719 107.305 68.0509C106.116 67.5598 104.25 67.3757 103.072 68.3527Z" fill="#001A49"/>
<path d="M104.013 68.5187C104.013 68.5187 103.754 65.9741 101.712 66.5315C99.6699 67.0872 101.48 69.2801 102.979 69.5339C104.48 69.7877 104.013 68.5187 104.013 68.5187Z" fill="#001A49"/>
<path d="M111.456 112.115L109.259 115.758L108.068 114.197L109.991 110.642L111.456 112.115Z" fill="white"/>
<path d="M109.259 115.923C109.208 115.923 109.158 115.9 109.127 115.858L107.937 114.298C107.897 114.246 107.892 114.175 107.924 114.118L109.847 110.564C109.871 110.517 109.916 110.486 109.969 110.479C110.021 110.472 110.074 110.489 110.11 110.527L111.575 112.002C111.628 112.056 111.638 112.139 111.6 112.204L109.404 115.847C109.375 115.893 109.326 115.923 109.271 115.926C109.264 115.923 109.261 115.923 109.259 115.923ZM108.266 114.181L109.243 115.464L111.247 112.141L110.031 110.917L108.266 114.181Z" fill="black"/>
<path d="M110.019 115.202C109.44 116.333 107.974 119.077 106.562 120.392C106.217 120.713 105.635 120.565 105.512 120.122C105.071 118.538 104.775 115.237 106.423 112.636C106.423 112.636 107.206 112.55 108.67 112.81L108.345 114.11L108.524 113.989C108.795 113.807 109.163 113.822 109.415 114.026L109.836 114.369C110.09 114.575 110.165 114.917 110.019 115.202Z" fill="#001A49"/>
<path d="M106.33 120.085C106.263 120.085 106.202 120.046 106.175 119.981C104.883 116.743 106.565 113.067 106.637 112.913C106.675 112.83 106.774 112.793 106.857 112.833C106.94 112.871 106.977 112.971 106.937 113.054C106.92 113.09 105.245 116.756 106.482 119.86C106.516 119.944 106.476 120.041 106.389 120.075C106.371 120.082 106.351 120.085 106.33 120.085Z" fill="white"/>
<path d="M109.166 116.945C109.137 116.945 109.107 116.937 109.08 116.92L107.982 116.245C107.904 116.197 107.879 116.096 107.927 116.016C107.975 115.938 108.078 115.913 108.156 115.962L109.254 116.637C109.332 116.685 109.357 116.786 109.309 116.866C109.278 116.917 109.223 116.945 109.166 116.945Z" fill="white"/>
<path d="M108.617 117.869C108.584 117.869 108.549 117.859 108.519 117.838L107.512 117.106C107.438 117.051 107.421 116.948 107.476 116.874C107.529 116.799 107.633 116.784 107.708 116.837L108.715 117.569C108.79 117.624 108.806 117.726 108.752 117.801C108.72 117.846 108.669 117.869 108.617 117.869Z" fill="white"/>
<path d="M117.686 113.526C117.686 113.613 119.7 117.775 119.7 117.775L117.412 117.949L115.856 114.394L117.686 113.526Z" fill="white"/>
<path d="M117.412 118.115C117.348 118.115 117.286 118.077 117.26 118.015L115.704 114.461C115.667 114.378 115.704 114.283 115.785 114.245L117.615 113.377C117.666 113.352 117.726 113.356 117.774 113.387C117.812 113.41 117.837 113.449 117.847 113.492C117.92 113.699 119.079 116.118 119.847 117.705C119.871 117.755 119.869 117.813 119.842 117.859C119.816 117.908 119.766 117.937 119.711 117.942L117.424 118.117C117.421 118.115 117.416 118.115 117.412 118.115ZM116.072 114.475L117.515 117.775L119.443 117.629C118.189 115.034 117.752 114.101 117.6 113.751L116.072 114.475ZM117.852 113.527H117.854H117.852Z" fill="black"/>
<path d="M117.595 116.909C117.595 116.909 118.053 115.869 119.242 116.388C119.242 116.388 121.425 119.377 122.238 121.845C122.467 122.544 121.71 123.172 121.009 122.872C119.363 122.169 116.784 120.691 115.309 117.95C115.309 117.95 115.767 116.822 116.498 116.303L117.595 116.909Z" fill="#001A49"/>
<path d="M121.569 122.284C120.947 122.284 118.676 121.992 115.724 118.136C115.667 118.063 115.682 117.958 115.755 117.903C115.828 117.847 115.933 117.862 115.987 117.935C119.259 122.208 121.667 121.951 121.69 121.948C121.78 121.936 121.865 121.999 121.876 122.09C121.888 122.182 121.826 122.264 121.735 122.276C121.722 122.276 121.665 122.284 121.569 122.284Z" fill="white"/>
<path d="M119.7 119.936C119.642 119.936 119.585 119.905 119.554 119.85C119.509 119.771 119.539 119.669 119.619 119.625L120.717 119.017C120.796 118.973 120.897 119.003 120.942 119.082C120.987 119.162 120.957 119.263 120.878 119.308L119.779 119.915C119.755 119.93 119.726 119.936 119.7 119.936Z" fill="white"/>
<path d="M119.151 119.155C119.091 119.155 119.033 119.121 119.003 119.063C118.962 118.982 118.993 118.883 119.076 118.841L120.265 118.234C120.347 118.193 120.446 118.224 120.489 118.307C120.531 118.388 120.499 118.488 120.416 118.529L119.227 119.136C119.202 119.15 119.176 119.155 119.151 119.155Z" fill="white"/>
<path d="M106.696 91.2173C106.696 91.2173 112.661 92.2258 116.959 96.4973C118.044 97.5755 118.427 99.1265 117.963 100.55C117.008 103.469 114.929 108.799 111.456 112.81L108.801 110.642C108.801 110.642 109.442 105.612 111.18 102.491C112.919 99.3687 102.762 92.6057 102.762 92.6057L106.696 91.2173Z" fill="#001A49"/>
<path d="M118.418 114.308L115.306 115.175C115.306 115.175 109.632 103.816 107.985 102.169C106.338 100.521 103.135 97.8324 99.7493 96.8786C96.3637 95.9248 96.9625 93.7484 96.9625 93.7484L102.128 91.937C102.128 91.937 110.182 95.2314 112.834 98.9604C115.49 102.688 118.418 114.308 118.418 114.308Z" fill="black"/>
<path d="M108.775 95.4106C110.401 96.4672 111.932 97.6881 112.836 98.9587C115.49 102.688 118.418 114.308 118.418 114.308L115.306 115.175C115.306 115.175 109.632 103.816 107.985 102.169C106.338 100.521 103.135 97.8324 99.7493 96.8786C96.3637 95.9248 96.9625 93.7484 96.9625 93.7484L102.128 91.937C102.13 91.9354 105.63 93.3669 108.775 95.4106Z" fill="#001A49"/>
<path d="M115.886 105.957C115.817 105.957 115.753 105.914 115.729 105.846C114.609 102.59 113.59 100.306 112.701 99.055C111.251 97.018 108.135 95.1004 105.776 93.853C105.694 93.8099 105.665 93.7103 105.706 93.6291C105.748 93.5478 105.849 93.5162 105.93 93.5594C108.32 94.825 111.484 96.7725 112.972 98.8626C113.879 100.138 114.912 102.452 116.042 105.738C116.072 105.825 116.026 105.919 115.939 105.949C115.921 105.954 115.903 105.957 115.886 105.957Z" fill="white"/>
<path d="M113.161 111.154C113.101 111.154 113.043 111.121 113.013 111.065C111.862 108.865 110.86 107.021 110.034 105.584C109.988 105.505 110.016 105.403 110.095 105.357C110.175 105.31 110.276 105.339 110.323 105.418C111.152 106.858 112.156 108.706 113.309 110.911C113.352 110.992 113.32 111.091 113.239 111.135C113.214 111.148 113.187 111.154 113.161 111.154Z" fill="white"/>
<path d="M102.923 75.2458C102.122 74.9472 101.226 75.065 100.523 75.5527C99.3713 76.3506 97.8104 77.8369 97.6362 80.0962C97.3575 83.7207 94.1162 92.6069 97.4786 96.5748C97.7523 96.3558 102.764 91.4922 107.601 91.4756C107.49 89.145 107.763 81.8545 106.856 78.7874C106.249 76.7321 104.23 75.7318 102.923 75.2458Z" fill="white"/>
<path d="M97.4785 96.7397C97.4321 96.7397 97.3839 96.7198 97.3524 96.6817C94.7813 93.6494 95.9806 87.8568 96.8548 83.6269C97.1484 82.2086 97.4022 80.9827 97.4719 80.0836C97.6477 77.7995 99.1771 76.285 100.43 75.4174C101.179 74.8982 102.133 74.7755 102.982 75.0923C105.185 75.9117 106.542 77.1393 107.017 78.7433C107.702 81.059 107.72 85.7866 107.733 88.9135C107.738 89.9718 107.742 90.8858 107.768 91.4697C107.77 91.5145 107.753 91.5593 107.723 91.5924C107.692 91.6256 107.649 91.6439 107.604 91.6439C103.759 91.6555 99.7643 94.7425 97.7257 96.5805C97.6527 96.6468 97.6046 96.69 97.583 96.7066C97.5531 96.7265 97.515 96.7397 97.4785 96.7397ZM102.019 75.2482C101.526 75.2482 101.035 75.3975 100.617 75.6878C99.4243 76.5155 97.9662 77.9537 97.8003 80.1085C97.729 81.0292 97.4735 82.2633 97.1783 83.6949C96.3306 87.7954 95.1728 93.3889 97.4967 96.3366C97.4984 96.335 97.5001 96.3333 97.5017 96.3333C99.5454 94.4904 103.527 91.415 107.428 91.3138C107.406 90.7232 107.403 89.8789 107.4 88.9135C107.388 85.8049 107.368 81.1055 106.698 78.8362C106.255 77.3383 104.966 76.1838 102.866 75.4025C102.591 75.298 102.306 75.2482 102.019 75.2482Z" fill="black"/>
<path d="M110.887 80.1714L111.801 77.7727L112.892 77.7329L115.073 80.5197L115.16 80.8681L112.421 85.9722L109.037 86.3736L109.125 84.0397L110.032 80.1531L110.887 80.1714Z" fill="#001A49"/>
<path d="M111.801 77.7725L113.398 80.0666L110.869 80.118L111.801 77.7725Z" fill="white"/>
<path d="M110.868 80.2842C110.814 80.2842 110.764 80.2577 110.732 80.2129C110.701 80.1664 110.694 80.1084 110.714 80.057L111.645 77.7098C111.668 77.6534 111.719 77.6135 111.779 77.6069C111.839 77.5986 111.9 77.6268 111.935 77.6766L113.532 79.9707C113.567 80.0205 113.572 80.0868 113.544 80.1416C113.516 80.1963 113.461 80.2311 113.4 80.2328L110.87 80.2859C110.872 80.2842 110.87 80.2842 110.868 80.2842ZM111.841 78.1195L111.116 79.9475L113.085 79.906L111.841 78.1195Z" fill="black"/>
<path d="M109.893 80.8074C109.878 80.8074 109.863 80.8057 109.847 80.8008C109.759 80.7759 109.707 80.683 109.732 80.5951L109.872 80.1074C109.891 80.0361 109.956 79.988 110.029 79.988L113.831 79.9531C113.924 79.9598 113.997 80.0261 113.999 80.1173C114 80.2086 113.926 80.2832 113.834 80.2849L110.155 80.3181L110.049 80.6863C110.031 80.761 109.964 80.8074 109.893 80.8074Z" fill="black"/>
<path d="M108.879 86.54C108.797 86.54 108.725 86.477 108.715 86.3924C108.705 86.3011 108.77 86.2199 108.861 86.2083L112.315 85.8168L114.919 80.8437C114.967 80.7524 114.957 80.6396 114.894 80.5567L112.517 77.5012C112.461 77.4282 112.474 77.3253 112.547 77.2689C112.62 77.2125 112.723 77.2258 112.779 77.2971L115.156 80.3527C115.299 80.5368 115.322 80.7906 115.214 80.9963L112.57 86.0474C112.545 86.0955 112.497 86.1286 112.443 86.1353L108.901 86.5367C108.893 86.54 108.886 86.54 108.879 86.54ZM112.421 85.9727H112.423H112.421Z" fill="black"/>
<path d="M110.681 81.1435C110.631 81.1435 110.583 81.122 110.55 81.0805L109.9 80.2561C109.843 80.1848 109.855 80.0802 109.928 80.0238C109.999 79.9674 110.104 79.9791 110.16 80.052L110.81 80.8765C110.867 80.9478 110.855 81.0523 110.782 81.1087C110.754 81.1319 110.717 81.1435 110.681 81.1435Z" fill="black"/>
<path d="M99.1591 84.1151C99.1591 84.1151 100.959 84.6178 102.566 83.7784L102.601 86.4955C102.601 86.4955 106.62 85.2514 107.667 84.5182C108.714 83.7867 107.934 81.2321 109.892 80.6416C109.892 80.6416 109.474 81.826 109.648 81.9653C109.822 82.1047 110.346 82.1743 110.938 81.7912C111.532 81.408 112.612 80.8854 113.345 81.0596C114.078 81.2338 112.942 84.0488 111.182 84.6493C108.948 85.4107 105.006 90.4319 101.808 91.3011C101.024 91.5134 100.207 91.1452 99.8591 90.412C99.67 90.0122 99.5008 89.4665 99.4245 88.7266C99.2287 86.7991 99.1591 84.1151 99.1591 84.1151Z" fill="white"/>
<path d="M101.365 91.5258C100.67 91.5258 100.018 91.1327 99.7097 90.4824C99.4808 89.9997 99.3298 89.4142 99.2601 88.7423C99.0644 86.8297 98.9931 84.1458 98.9914 84.1192C98.9898 84.0662 99.013 84.0164 99.0545 83.9849C99.0959 83.9534 99.1507 83.9418 99.2004 83.955C99.2187 83.96 100.959 84.4278 102.487 83.6316C102.538 83.605 102.599 83.6067 102.649 83.6365C102.699 83.6664 102.729 83.7195 102.73 83.7775L102.762 86.2724C103.603 86.0053 106.693 84.9984 107.569 84.3847C107.946 84.1209 108.062 83.5387 108.185 82.9216C108.377 81.9562 108.594 80.8613 109.842 80.4848C109.901 80.4666 109.966 80.4831 110.009 80.5296C110.052 80.5744 110.067 80.6407 110.046 80.6988C109.868 81.1997 109.747 81.7123 109.769 81.8517C109.898 81.9263 110.318 81.9943 110.845 81.6543C111.102 81.4884 112.428 80.6739 113.382 80.9012C113.506 80.931 113.715 81.0372 113.733 81.4253C113.773 82.278 112.746 84.2934 111.233 84.8093C110.28 85.1344 108.954 86.3039 107.553 87.5447C105.736 89.1504 103.676 90.9685 101.85 91.4644C101.69 91.5043 101.528 91.5258 101.365 91.5258ZM99.3315 84.3249C99.353 84.9984 99.4293 87.1233 99.5919 88.7092C99.6566 89.3428 99.7976 89.8919 100.01 90.3398C100.322 90.995 101.06 91.3317 101.765 91.141C103.517 90.6649 105.545 88.8734 107.335 87.2925C108.763 86.0302 110.114 84.8392 111.129 84.4925C112.481 84.0313 113.44 82.1867 113.405 81.4386C113.4 81.349 113.38 81.2396 113.307 81.2213C112.711 81.0787 111.733 81.4751 111.028 81.9313C110.348 82.3709 109.755 82.2664 109.543 82.0955C109.477 82.0424 109.313 81.9114 109.621 80.9277C108.841 81.3275 108.674 82.1685 108.511 82.9846C108.375 83.6681 108.246 84.315 107.762 84.655C106.707 85.3932 102.815 86.6025 102.649 86.6539C102.599 86.6688 102.545 86.6605 102.503 86.629C102.46 86.5975 102.435 86.5494 102.435 86.4963L102.404 84.038C101.14 84.5986 99.8374 84.4261 99.3315 84.3249Z" fill="black"/>
<path d="M103.369 73.0454L102.321 74.8767C101.805 75.7775 101.863 76.9088 102.5 77.7299C102.608 77.8692 102.729 78.0069 102.863 78.1346C103.207 78.4664 103.779 78.347 103.978 77.9124L105.088 75.4855L103.369 73.0454Z" fill="white"/>
<path d="M103.331 78.4919C103.114 78.4919 102.906 78.409 102.747 78.2547C102.614 78.127 102.487 77.9843 102.369 77.8317C101.694 76.9625 101.619 75.7698 102.178 74.7944L103.226 72.9631C103.255 72.9133 103.306 72.8818 103.362 72.8802C103.421 72.8768 103.474 72.9034 103.505 72.9498L105.222 75.3899C105.255 75.438 105.262 75.5011 105.237 75.5542L104.126 77.981C104.008 78.2381 103.772 78.4222 103.495 78.4753C103.44 78.4869 103.386 78.4919 103.331 78.4919ZM103.384 73.3546L102.465 74.9603C101.974 75.8179 102.039 76.8663 102.631 77.6293C102.74 77.7703 102.857 77.9014 102.978 78.0175C103.099 78.1353 103.266 78.1834 103.435 78.1519C103.608 78.1187 103.754 78.0042 103.827 77.8466L104.899 75.5061L103.384 73.3546Z" fill="black"/>
<path d="M108.897 71.4494C109.185 71.534 107.737 76.1454 106.254 76.2781C104.773 76.4109 102.877 75.0772 103.001 73.4681C103.001 73.4681 102.062 73.1944 102.528 71.9686C102.92 70.9401 103.701 71.8624 103.93 72.1693C103.975 72.229 104.038 72.2721 104.111 72.2937C105.076 72.4513 104.499 70.6797 107.175 70.5337C107.178 70.532 107.817 71.1358 108.897 71.4494Z" fill="white"/>
<path d="M106.048 76.4533C105.224 76.4533 104.308 76.0618 103.656 75.4182C103.109 74.8774 102.818 74.2272 102.832 73.5769C102.696 73.5106 102.48 73.3679 102.347 73.1025C102.186 72.7807 102.196 72.3792 102.375 71.9098C102.508 71.5631 102.701 71.369 102.949 71.3342C103.396 71.2712 103.84 71.7688 104.066 72.069C104.087 72.0972 104.117 72.1188 104.152 72.1304C104.397 72.1669 104.482 72.0508 104.683 71.7207C104.988 71.2181 105.451 70.46 107.169 70.3671C107.214 70.3638 107.259 70.3804 107.292 70.4119C107.299 70.4169 107.919 70.9925 108.944 71.2911C109.127 71.3442 109.104 71.583 109.095 71.6726C109.007 72.5849 107.73 76.3123 106.27 76.4433C106.197 76.45 106.123 76.4533 106.048 76.4533ZM103.026 71.661C103.016 71.661 103.004 71.661 102.994 71.6626C102.845 71.6842 102.744 71.8733 102.684 72.0276C102.54 72.4041 102.526 72.716 102.641 72.9515C102.774 73.2236 103.046 73.3098 103.049 73.3098C103.124 73.3331 103.173 73.4044 103.167 73.4824C103.12 74.0746 103.377 74.6784 103.888 75.1826C104.532 75.818 105.454 76.1846 106.239 76.1132C106.539 76.0867 106.887 75.8113 107.246 75.3187C108.117 74.116 108.765 72.0209 108.768 71.5863C107.876 71.311 107.294 70.8531 107.118 70.7039C105.63 70.8034 105.245 71.4337 104.965 71.8949C104.772 72.2117 104.573 72.5402 104.086 72.4589C104.079 72.4572 104.072 72.4572 104.066 72.4539C103.96 72.4224 103.865 72.3577 103.799 72.2698C103.518 71.8932 103.22 71.661 103.026 71.661Z" fill="black"/>
<path d="M21.9265 144.907C24.8543 141.053 27.6428 136.422 28.4141 131.648L28.5601 130.744L24.9173 128.521L23.5754 135.581C23.086 138.714 19.921 143.619 19.921 143.619L21.9265 144.907Z" fill="#001A49"/>
<path d="M29.6236 146.411L32.0388 146.387L32.6045 141.68C32.7554 139.784 32.9362 137.979 32.8118 136.081L32.4104 129.962L28.124 129.985L29.2022 135.73C29.4925 137.889 29.7065 139.855 29.743 142.113L29.6236 146.411Z" fill="#001A49"/>
<path d="M29.3646 145.681L29.3978 146.134C29.4293 146.557 29.3978 146.975 29.1838 147.342C29.0013 147.655 28.8105 148.1 28.8105 148.596C28.8105 148.596 32.4798 149.447 35.6863 148.641C35.6863 148.641 35.7012 148.263 34.7176 148.047C33.7339 147.831 32.5528 147.684 32.4749 147.349C32.3969 147.015 32.3969 146.129 32.2592 145.953C32.1215 145.776 30.9405 145.482 30.3317 145.953C30.33 145.952 29.7826 145.564 29.3646 145.681Z" fill="white"/>
<path d="M32.601 149.15C30.5059 149.15 28.8007 148.763 28.7758 148.757C28.7012 148.738 28.6481 148.672 28.6481 148.596C28.6481 148.05 28.8637 147.567 29.0429 147.259C29.2087 146.973 29.2701 146.62 29.2353 146.147L29.2021 145.694C29.1955 145.616 29.2469 145.543 29.3232 145.522C29.7047 145.416 30.1377 145.635 30.3318 145.752C31.0102 145.338 32.1913 145.59 32.3937 145.85C32.4998 145.988 32.533 146.288 32.5761 146.768C32.5944 146.975 32.6126 147.191 32.6408 147.308C32.6956 147.471 33.5863 147.647 34.1188 147.751C34.3328 147.793 34.5501 147.836 34.7575 147.882C35.8224 148.116 35.8606 148.559 35.8572 148.645C35.8539 148.718 35.8025 148.781 35.7312 148.8C34.6911 149.06 33.6013 149.15 32.601 149.15ZM28.9831 148.461C29.6516 148.597 32.7055 149.151 35.4459 148.526C35.343 148.431 35.1207 148.302 34.6828 148.206C34.4771 148.161 34.2615 148.118 34.0508 148.076C32.9975 147.869 32.397 147.735 32.314 147.385C32.2809 147.244 32.261 147.026 32.241 146.796C32.2195 146.547 32.183 146.132 32.1266 146.053C32.0155 145.947 30.9671 145.668 30.4313 146.083C30.3732 146.127 30.2936 146.129 30.2339 146.088C30.1194 146.006 29.8043 145.827 29.5405 145.825L29.5621 146.122C29.587 146.464 29.5903 146.972 29.3249 147.426C29.1839 147.672 29.0147 148.043 28.9831 148.461Z" fill="black"/>
<path d="M35.6978 149.407C35.7144 149.246 35.7177 148.999 35.7045 148.798C35.6978 148.712 35.6199 148.65 35.5353 148.663C34.8817 148.766 32.2027 149.12 28.983 148.62C28.8934 148.607 28.8121 148.675 28.8121 148.766V149.385C28.8121 149.558 28.9399 149.704 29.1107 149.727C29.9998 149.845 33.0653 150.122 35.4424 149.684C35.5784 149.66 35.6829 149.546 35.6978 149.407Z" fill="white"/>
<path d="M32.3655 150.088C31.0218 150.088 29.786 149.984 29.0877 149.892C28.8355 149.859 28.6448 149.642 28.6448 149.386V148.768C28.6448 148.676 28.6846 148.59 28.7543 148.53C28.8239 148.471 28.9168 148.444 29.0081 148.459C32.1714 148.949 34.784 148.615 35.5089 148.502C35.5952 148.489 35.6848 148.512 35.7528 148.567C35.8208 148.622 35.8639 148.703 35.8705 148.789C35.8855 148.993 35.8822 149.249 35.8639 149.426C35.8423 149.637 35.6814 149.813 35.4724 149.851C34.5037 150.027 33.4022 150.088 32.3655 150.088ZM28.9765 148.789V149.386C28.9765 149.476 29.0429 149.551 29.1308 149.562C30.3517 149.723 33.2347 149.922 35.4111 149.521C35.4757 149.509 35.5255 149.454 35.5321 149.388C35.5487 149.237 35.5504 149.01 35.5388 148.829C34.7774 148.949 32.1498 149.275 28.9765 148.789Z" fill="black"/>
<path d="M34.2 148.457C34.1801 148.457 34.1619 148.453 34.142 148.447C34.0557 148.415 34.0126 148.319 34.0441 148.233L34.1553 147.936C34.1868 147.85 34.283 147.806 34.3692 147.838C34.4555 147.869 34.4986 147.966 34.4671 148.052L34.356 148.349C34.3311 148.415 34.2681 148.457 34.2 148.457Z" fill="black"/>
<path d="M33.4437 148.441C33.4221 148.441 33.4005 148.438 33.3806 148.428C33.296 148.393 33.2562 148.295 33.291 148.211L33.4685 147.783C33.5034 147.698 33.6012 147.658 33.6858 147.693C33.7704 147.728 33.8102 147.826 33.7754 147.911L33.5979 148.339C33.5714 148.403 33.5083 148.441 33.4437 148.441Z" fill="black"/>
<path d="M32.6474 148.234C32.611 148.234 32.5761 148.223 32.5446 148.2C32.4716 148.143 32.46 148.039 32.5164 147.967L32.8316 147.564C32.888 147.491 32.9925 147.48 33.0638 147.536C33.1368 147.592 33.1484 147.697 33.092 147.768L32.7768 148.171C32.7453 148.213 32.6956 148.234 32.6474 148.234Z" fill="black"/>
<path d="M31.8694 147.71C31.8064 147.71 31.7467 147.674 31.7185 147.612C31.6803 147.529 31.7185 147.43 31.8014 147.393L32.377 147.133C32.4599 147.095 32.5595 147.133 32.596 147.216C32.6341 147.299 32.596 147.398 32.513 147.435L31.9374 147.695C31.9159 147.705 31.8926 147.71 31.8694 147.71Z" fill="black"/>
<path d="M31.6787 146.899C31.5924 146.899 31.5194 146.833 31.5128 146.747C31.5061 146.655 31.5741 146.576 31.6654 146.569L32.3687 146.514C32.46 146.506 32.5396 146.576 32.5462 146.667C32.5528 146.758 32.4848 146.838 32.3936 146.844L31.6903 146.899C31.6869 146.899 31.682 146.899 31.6787 146.899Z" fill="black"/>
<path d="M20.0537 142.922L19.8347 143.318C19.629 143.69 19.3736 144.023 18.9937 144.212C18.6686 144.375 18.2672 144.644 17.9951 145.058C17.9951 145.058 20.6028 147.774 23.728 148.85C23.728 148.85 23.9469 148.542 23.2419 147.824C22.5369 147.105 21.6163 146.332 21.7457 146.014C21.8966 145.641 22.3113 145.17 22.3545 144.869C22.4026 144.528 21.4836 143.612 20.7139 143.673C20.7139 143.677 20.4684 143.051 20.0537 142.922Z" fill="white"/>
<path d="M23.7281 149.019C23.7099 149.019 23.6916 149.015 23.6734 149.01C20.5449 147.934 17.9007 145.203 17.8742 145.177C17.8211 145.12 17.8128 145.036 17.8543 144.971C18.1529 144.515 18.5974 144.228 18.9176 144.067C19.2129 143.919 19.4584 143.657 19.6873 143.241L19.9062 142.844C19.9444 142.775 20.0257 142.742 20.1003 142.767C20.4785 142.884 20.7207 143.306 20.8186 143.511C21.3428 143.525 21.8703 143.89 22.1771 144.216C22.3181 144.367 22.5504 144.656 22.5155 144.898C22.4857 145.104 22.3364 145.339 22.1771 145.588C22.0693 145.757 21.9565 145.933 21.8968 146.081C21.857 146.247 22.5006 146.87 22.8838 147.244C23.043 147.398 23.2056 147.556 23.3566 147.711C24.1213 148.489 23.9089 148.881 23.8592 148.951C23.8326 148.994 23.7812 149.019 23.7281 149.019ZM18.2109 145.042C18.697 145.522 20.9513 147.653 23.5871 148.627C23.5523 148.493 23.4378 148.262 23.1243 147.942C22.9734 147.789 22.8141 147.633 22.6565 147.481C21.8852 146.733 21.4556 146.291 21.5932 145.955C21.6646 145.779 21.784 145.59 21.9018 145.409C22.0345 145.2 22.1722 144.984 22.1921 144.85C22.1971 144.81 22.144 144.659 21.9399 144.442C21.6364 144.12 21.1454 143.808 20.729 143.843C20.6577 143.848 20.588 143.807 20.5615 143.739C20.51 143.608 20.3442 143.286 20.1252 143.14L19.9809 143.4C19.815 143.7 19.5396 144.127 19.0685 144.362C18.8114 144.49 18.4664 144.709 18.2109 145.042Z" fill="black"/>
<path d="M23.3165 149.5C23.4061 149.391 23.5222 149.22 23.6151 149.064C23.6798 148.955 23.635 148.812 23.5189 148.759C22.8238 148.44 20.5048 147.297 18.1825 145.229C18.083 145.141 17.9287 145.159 17.8557 145.27L17.5604 145.722C17.4659 145.866 17.4924 146.058 17.6235 146.169C18.3036 146.753 20.7171 148.659 22.9482 149.592C23.0793 149.648 23.2286 149.61 23.3165 149.5Z" fill="white"/>
<path d="M23.0694 149.784C23.0081 149.784 22.945 149.772 22.8853 149.748C20.8052 148.878 18.4629 147.112 17.5158 146.297C17.3233 146.131 17.2819 145.846 17.4212 145.632L17.7165 145.181C17.7778 145.088 17.8757 145.027 17.9852 145.012C18.0963 144.998 18.2075 145.032 18.2921 145.106C20.6061 147.168 22.9301 148.308 23.587 148.61C23.6849 148.654 23.7612 148.741 23.7927 148.843C23.8242 148.946 23.8126 149.057 23.7578 149.15C23.6616 149.315 23.5405 149.49 23.4443 149.608C23.3531 149.721 23.2121 149.784 23.0694 149.784ZM23.3166 149.5H23.3183H23.3166ZM18.0383 145.34C18.035 145.34 18.0333 145.34 18.0316 145.34C18.0217 145.342 18.0068 145.347 17.9968 145.362L17.7015 145.813C17.6534 145.888 17.6667 145.987 17.7347 146.045C18.6686 146.846 20.9744 148.586 23.0164 149.441C23.0777 149.466 23.1491 149.447 23.1905 149.396C23.2751 149.291 23.3879 149.127 23.4758 148.98C23.4841 148.965 23.4825 148.95 23.4808 148.941C23.4775 148.933 23.4709 148.918 23.4526 148.91C22.7858 148.605 20.4236 147.445 18.0764 145.353C18.0598 145.342 18.0466 145.34 18.0383 145.34Z" fill="black"/>
<path d="M22.6747 147.914C22.6233 147.914 22.5735 147.891 22.5403 147.846C22.4856 147.773 22.5022 147.669 22.5752 147.614L22.8306 147.425C22.9036 147.37 23.0081 147.387 23.0629 147.46C23.1176 147.533 23.101 147.637 23.028 147.692L22.7726 147.881C22.7444 147.904 22.7095 147.914 22.6747 147.914Z" fill="black"/>
<path d="M22.0494 147.489C21.9963 147.489 21.9449 147.464 21.9117 147.416C21.8603 147.34 21.8802 147.237 21.9548 147.185L22.338 146.923C22.4143 146.872 22.5172 146.892 22.5686 146.966C22.62 147.043 22.6001 147.145 22.5254 147.197L22.1423 147.459C22.1141 147.479 22.0825 147.489 22.0494 147.489Z" fill="black"/>
<path d="M21.4954 146.88C21.4257 146.88 21.3627 146.837 21.3378 146.767C21.3079 146.681 21.3544 146.587 21.4406 146.557L21.925 146.391C22.0113 146.361 22.1058 146.407 22.1357 146.494C22.1655 146.58 22.1191 146.675 22.0328 146.704L21.5485 146.87C21.5319 146.879 21.5136 146.88 21.4954 146.88Z" fill="black"/>
<path d="M21.7574 146.113C21.7491 146.113 21.7408 146.113 21.7325 146.111L21.1088 146.015C21.0176 146.002 20.9562 145.917 20.9695 145.826C20.9827 145.734 21.0673 145.673 21.1586 145.686L21.7823 145.783C21.8735 145.796 21.9349 145.88 21.9216 145.972C21.9083 146.055 21.837 146.113 21.7574 146.113Z" fill="black"/>
<path d="M22.0345 145.571C22.0079 145.571 21.9797 145.565 21.9548 145.551L21.3361 145.213C21.2565 145.168 21.2266 145.069 21.2698 144.987C21.3145 144.908 21.4141 144.878 21.4954 144.921L22.1141 145.26C22.1937 145.304 22.2236 145.404 22.1804 145.485C22.1489 145.54 22.0925 145.571 22.0345 145.571Z" fill="black"/>
<path d="M39.9156 119.602C40.4939 118.026 39.3823 116.169 37.4328 115.453C35.4832 114.738 33.4339 115.435 32.8556 117.01C32.2772 118.586 33.3888 120.443 35.3383 121.159C37.2879 121.874 39.3372 121.177 39.9156 119.602Z" fill="white"/>
<path d="M36.8906 121.604C36.3664 121.604 35.819 121.509 35.2799 121.312C34.3012 120.952 33.495 120.303 33.009 119.486C32.5146 118.658 32.4085 117.755 32.7071 116.946C33.3192 115.289 35.4706 114.549 37.5027 115.299C38.4814 115.659 39.2875 116.307 39.7736 117.125C40.2679 117.953 40.3741 118.855 40.0755 119.665C39.6259 120.881 38.3437 121.604 36.8906 121.604ZM35.8887 115.337C34.5716 115.337 33.4203 115.977 33.0189 117.062C32.7552 117.775 32.853 118.577 33.2943 119.316C33.7422 120.068 34.4886 120.667 35.396 121C37.2555 121.685 39.2162 121.035 39.7653 119.549C40.029 118.835 39.9312 118.034 39.4899 117.294C39.042 116.543 38.2956 115.944 37.3882 115.609C36.8856 115.425 36.3747 115.337 35.8887 115.337Z" fill="black"/>
<path d="M41.7526 117.862C41.7536 117.177 41.1981 116.62 40.5119 116.619C39.8257 116.618 39.2687 117.173 39.2677 117.858C39.2668 118.544 39.8223 119.1 40.5084 119.101C41.1946 119.102 41.7517 118.547 41.7526 117.862Z" fill="white"/>
<path d="M33.9064 116.693C34.5926 116.693 35.1488 116.137 35.1488 115.452C35.1488 114.766 34.5926 114.211 33.9064 114.211C33.2202 114.211 32.6639 114.766 32.6639 115.452C32.6639 116.137 33.2202 116.693 33.9064 116.693Z" fill="white"/>
<path d="M40.5101 119.263C40.3708 119.263 40.2298 119.242 40.0888 119.199C39.9279 119.149 39.7786 119.071 39.6459 118.966C39.5729 118.91 39.5596 118.806 39.616 118.734C39.6724 118.661 39.7769 118.648 39.8482 118.704C39.9494 118.782 40.0639 118.842 40.1866 118.882C40.7539 119.059 41.3594 118.744 41.5369 118.177C41.6232 117.903 41.5966 117.611 41.4639 117.357C41.3312 117.102 41.1056 116.914 40.8319 116.83C40.3542 116.681 39.8267 116.885 39.5762 117.318C39.5297 117.397 39.4286 117.424 39.3489 117.379C39.2693 117.333 39.2428 117.231 39.2876 117.152C39.6143 116.586 40.3044 116.319 40.9298 116.513C41.2881 116.626 41.5817 116.871 41.7575 117.205C41.9317 117.538 41.9665 117.92 41.8537 118.278C41.6663 118.879 41.1089 119.263 40.5101 119.263Z" fill="black"/>
<path d="M33.9562 116.842C33.515 116.842 33.0937 116.634 32.8266 116.278C32.601 115.976 32.5064 115.606 32.5612 115.234C32.6143 114.863 32.81 114.533 33.1119 114.309C33.734 113.844 34.6181 113.972 35.0842 114.594C35.2186 114.775 35.3098 114.986 35.3463 115.208C35.3613 115.297 35.2999 115.384 35.2103 115.399C35.1207 115.415 35.0345 115.352 35.0195 115.263C34.9913 115.092 34.9233 114.934 34.8188 114.795C34.4638 114.32 33.7871 114.222 33.311 114.577C33.0804 114.75 32.9311 115 32.8896 115.286C32.8482 115.569 32.9212 115.853 33.0937 116.084C33.3242 116.392 33.7058 116.555 34.089 116.507C34.1802 116.495 34.2631 116.56 34.2731 116.651C34.2847 116.742 34.22 116.825 34.1288 116.835C34.0707 116.838 34.0126 116.842 33.9562 116.842Z" fill="black"/>
<path d="M40.4455 125.104C39.9595 125.361 39.3573 125.176 39.1002 124.69L37.1594 121.024L38.9194 120.095L40.8602 123.761C41.1173 124.245 40.9316 124.847 40.4455 125.104Z" fill="white"/>
<path d="M39.9826 125.384C39.5662 125.384 39.1615 125.16 38.9541 124.767L37.5043 122.029C37.4612 121.947 37.4927 121.848 37.574 121.805C37.6553 121.761 37.7548 121.793 37.7979 121.874L39.2477 124.613C39.4617 125.018 39.9643 125.172 40.3691 124.958C40.5648 124.855 40.7091 124.681 40.7738 124.47C40.8385 124.26 40.8186 124.034 40.7141 123.84L39.0653 120.725C39.0221 120.643 39.0536 120.544 39.1349 120.501C39.2162 120.458 39.3157 120.489 39.3589 120.57L41.0077 123.686C41.152 123.959 41.1819 124.273 41.0907 124.57C40.9994 124.867 40.7987 125.109 40.5234 125.253C40.3508 125.341 40.1651 125.384 39.9826 125.384Z" fill="black"/>
<path d="M19.0187 129.448C18.6819 129.556 18.4646 129.397 18.5094 129.125C18.5542 128.854 18.8644 128.743 19.1829 128.4C19.2492 128.327 18.2457 128.601 17.7862 128.576C17.5987 128.566 17.4345 128.45 17.3516 128.28C17.3516 128.28 17.1243 127.869 17.5075 127.609C18.0698 127.227 19.6407 126.967 20.0455 126.733L20.9147 126.208L21.9083 127.267L20.704 128.362C20.6443 128.416 20.1798 128.79 19.8431 128.982L19.0187 129.448Z" fill="white"/>
<path d="M18.8196 129.649C18.6885 129.649 18.5741 129.61 18.4862 129.536C18.3684 129.433 18.317 129.274 18.3452 129.098C18.3783 128.899 18.5044 128.773 18.6603 128.642C18.3601 128.696 18.0101 128.751 17.7762 128.74C17.5324 128.726 17.3117 128.577 17.2023 128.351C17.1027 128.171 17.0115 127.743 17.4129 127.471C17.7596 127.235 18.4314 127.052 19.0236 126.89C19.4267 126.78 19.8082 126.676 19.9625 126.588L20.8284 126.066C20.8948 126.026 20.981 126.037 21.0358 126.094L22.0294 127.152C22.0592 127.185 22.0758 127.228 22.0742 127.271C22.0725 127.316 22.0526 127.358 22.0194 127.388L20.8151 128.482C20.7554 128.535 20.281 128.922 19.9244 129.124L19.1016 129.592C19.0916 129.597 19.0817 129.602 19.0701 129.605C18.9822 129.635 18.8992 129.649 18.8196 129.649ZM19.1762 128.222C19.2608 128.222 19.2973 128.248 19.3322 128.312C19.367 128.375 19.3554 128.459 19.3056 128.512C19.1779 128.65 19.0551 128.749 18.9473 128.839C18.7798 128.975 18.6919 129.05 18.6753 129.153C18.6686 129.196 18.667 129.252 18.7051 129.285C18.7416 129.317 18.8246 129.335 18.954 129.297L19.7601 128.837C20.0869 128.652 20.5398 128.287 20.5929 128.239L21.6727 127.258L20.8865 126.42L20.1334 126.875C19.9393 126.986 19.5578 127.091 19.1132 127.212C18.5459 127.366 17.9023 127.542 17.602 127.746C17.3515 127.915 17.4826 128.171 17.4992 128.2C17.5606 128.325 17.6734 128.403 17.7978 128.409C18.0433 128.424 18.4928 128.338 18.7914 128.28C18.9805 128.244 19.0983 128.222 19.1762 128.222Z" fill="black"/>
<path d="M37.5724 121.386L35.2882 120.016C34.2349 119.384 33.2861 118.589 32.4799 117.664L29.7926 114.577L27.2331 114.595L27.1004 115.111L26.1366 114.822L24.9506 117.893C24.1228 120.037 23.0562 122.083 21.7739 123.992L20.354 126.105L21.8801 127.743C22.9865 126.844 23.8226 126.034 24.5077 125.239L22.7261 132.197H33.4121V123.302L35.3264 124.455C36.2122 124.989 37.3634 124.72 37.9224 123.851C38.4317 123.056 38.2841 122.008 37.5724 121.386Z" fill="white"/>
<path d="M33.4121 132.362H22.7261C22.6747 132.362 22.6265 132.339 22.595 132.298C22.5635 132.258 22.5519 132.205 22.5652 132.155L24.1792 125.85C23.5505 126.52 22.8273 127.185 21.9846 127.87C21.9166 127.925 21.8187 127.918 21.759 127.855L20.2329 126.218C20.1798 126.162 20.1732 126.077 20.2163 126.012L21.6362 123.899C22.9102 122.003 23.9735 119.963 24.7963 117.833L25.9823 114.762C26.0138 114.681 26.1017 114.638 26.1847 114.663L26.9842 114.902L27.0738 114.553C27.0921 114.48 27.1584 114.429 27.2331 114.429L29.7926 114.411C29.839 114.414 29.8871 114.431 29.9187 114.467L32.6059 117.554C33.4022 118.47 34.3344 119.249 35.3745 119.873L37.6587 121.243C37.667 121.248 37.6753 121.255 37.6819 121.262C38.4615 121.943 38.6208 123.071 38.0617 123.942C37.4496 124.894 36.2105 125.183 35.2401 124.599L33.578 123.597V132.198C33.578 132.288 33.5033 132.362 33.4121 132.362ZM22.9401 132.031H33.2462V123.302C33.2462 123.242 33.2777 123.187 33.3308 123.158C33.3823 123.128 33.4469 123.129 33.4984 123.159L35.4126 124.312C36.2271 124.803 37.2688 124.561 37.7831 123.761C38.2509 123.033 38.1198 122.093 37.4745 121.519L35.2036 120.157C34.1337 119.515 33.1749 118.712 32.3555 117.77L29.7179 114.739L27.3624 114.756L27.2613 115.149C27.2496 115.192 27.2214 115.23 27.1816 115.252C27.1418 115.273 27.0954 115.28 27.0522 115.267L26.2345 115.021L25.1031 117.949C24.2721 120.102 23.1972 122.164 21.9099 124.08L20.563 126.084L21.8933 127.512C22.8787 126.702 23.6932 125.923 24.3799 125.128C24.4297 125.07 24.5143 125.054 24.5823 125.09C24.6503 125.125 24.6851 125.203 24.6669 125.277L22.9401 132.031Z" fill="black"/>
<path d="M35.6949 126.518C36.414 126.518 36.997 125.895 36.997 125.126C36.997 124.357 36.414 123.734 35.6949 123.734C34.9757 123.734 34.3927 124.357 34.3927 125.126C34.3927 125.895 34.9757 126.518 35.6949 126.518Z" fill="white"/>
<path d="M35.6949 126.682C34.8854 126.682 34.2268 125.983 34.2268 125.124C34.2268 124.265 34.8854 123.566 35.6949 123.566C36.5044 123.566 37.1629 124.265 37.1629 125.124C37.1629 125.983 36.5044 126.682 35.6949 126.682ZM35.6949 123.9C35.0678 123.9 34.5586 124.449 34.5586 125.126C34.5586 125.801 35.0678 126.352 35.6949 126.352C36.3219 126.352 36.8311 125.802 36.8311 125.126C36.8311 124.449 36.3202 123.9 35.6949 123.9Z" fill="black"/>
<path d="M33.3892 123.886C33.7923 123.189 33.6031 122.328 32.9678 121.961C32.3325 121.595 31.4915 121.864 31.0884 122.56C30.6853 123.257 30.8744 124.118 31.5097 124.484C32.1451 124.851 32.9877 124.582 33.3892 123.886Z" fill="white"/>
<path d="M32.1266 124.812C31.8861 124.812 31.6456 124.753 31.4283 124.627C31.1032 124.439 30.8676 124.127 30.7664 123.751C30.6536 123.333 30.72 122.867 30.9456 122.475C31.3935 121.7 32.3373 121.405 33.0506 121.817C33.3757 122.004 33.6113 122.316 33.7125 122.692C33.8253 123.11 33.7589 123.577 33.5317 123.968C33.2231 124.505 32.6724 124.812 32.1266 124.812ZM32.3522 121.962C31.921 121.962 31.483 122.21 31.2342 122.641C31.0517 122.958 30.9987 123.331 31.0882 123.664C31.1662 123.956 31.347 124.195 31.5942 124.338C32.1499 124.658 32.8897 124.418 33.2463 123.8C33.4288 123.484 33.4819 123.11 33.3923 122.777C33.3144 122.485 33.1335 122.246 32.8847 122.103C32.7188 122.009 32.5364 121.962 32.3522 121.962ZM33.389 123.885H33.3907H33.389Z" fill="black"/>
<path d="M31.231 108.842C31.4848 108.903 31.6972 109.713 31.7585 110.023C31.9609 111.065 31.8631 112.916 31.2592 113.105C30.6953 113.282 30.5476 113.002 30.1628 113.321C29.836 113.591 29.6751 114.097 29.6237 114.926C29.6203 114.979 30.1445 115.505 30.4531 115.839C30.5343 115.927 29.8078 116.769 28.353 116.688C26.5167 116.587 26.7191 115.364 26.6992 115.273C26.6876 115.22 27.8686 108.022 31.231 108.842Z" fill="white"/>
<path d="M28.5487 116.86C28.4823 116.86 28.4143 116.859 28.343 116.854C27.5136 116.807 26.5266 116.505 26.5332 115.328C26.5332 115.313 26.5332 115.301 26.5332 115.293C26.5067 115.185 27.1802 111.151 28.9518 109.406C29.6485 108.719 30.4281 108.475 31.2675 108.679C31.6523 108.774 31.863 109.706 31.9177 109.99C32.1101 110.975 32.067 113.022 31.3056 113.262C31.0286 113.35 30.8378 113.337 30.6869 113.327C30.516 113.317 30.4298 113.311 30.2655 113.447C29.9885 113.675 29.8409 114.12 29.7895 114.883C29.8625 114.976 30.0914 115.215 30.2639 115.396C30.3734 115.51 30.4812 115.625 30.5724 115.721C30.6006 115.751 30.657 115.834 30.594 115.968C30.4795 116.222 29.7878 116.86 28.5487 116.86ZM26.865 115.273C26.8666 115.289 26.8666 115.308 26.8666 115.331C26.8633 116.067 27.3659 116.469 28.3629 116.524C29.5108 116.585 30.1196 116.062 30.2655 115.88C30.1909 115.802 30.1096 115.716 30.0267 115.63C29.4693 115.046 29.4511 115.016 29.4577 114.918C29.5124 114.024 29.6966 113.493 30.0565 113.196C30.3219 112.975 30.5193 112.989 30.7118 113C30.8494 113.009 30.9921 113.019 31.2111 112.949C31.654 112.81 31.8099 111.149 31.5959 110.056C31.4914 109.515 31.2923 109.047 31.1912 109.003C30.6073 108.86 30.0549 108.974 29.544 109.339C27.633 110.711 26.8998 115.047 26.865 115.273Z" fill="black"/>
<path d="M32.2079 109.075C32.2593 109.41 32.0271 109.722 31.6904 109.762C30.7797 109.868 29.9055 110.085 29.2436 110.853C28.6066 111.593 28.6332 115.365 28.3645 117.754C28.245 118.807 27.1635 119.456 26.1715 119.081C23.6534 118.13 22.056 115.729 23.0828 113.949L26.1052 108.485C26.4618 107.866 27.0125 107.386 27.7258 107.055C28.0592 106.9 28.6382 106.764 29.0048 106.748C31.4731 106.633 32.0702 108.173 32.2079 109.075Z" fill="#001A49"/>
<path d="M29.8427 111.287C29.2073 111.201 29.0713 109.983 29.4479 109.842C29.8244 109.7 30.1081 110.332 30.1081 110.332L29.8427 111.287Z" fill="white"/>
<path d="M29.8442 111.451C29.8375 111.451 29.8292 111.451 29.821 111.45C29.3797 111.39 29.1325 110.924 29.0828 110.487C29.038 110.086 29.1574 109.771 29.3897 109.685C29.8027 109.529 30.1312 109.973 30.2589 110.26C30.297 110.343 30.2589 110.441 30.1759 110.479C30.093 110.517 29.9951 110.479 29.957 110.396C29.9105 110.293 29.6965 109.925 29.5074 109.995C29.451 110.016 29.3847 110.191 29.4129 110.451C29.4461 110.75 29.602 111.086 29.8657 111.121C29.957 111.134 30.02 111.217 30.0084 111.309C29.9968 111.39 29.9255 111.451 29.8442 111.451Z" fill="black"/>
<path d="M64.9278 123.247L65.1152 126.226C65.1252 126.309 65.0688 126.383 64.9958 126.388L63.541 126.478C63.478 126.481 63.4249 126.431 63.4149 126.36L62.9355 123.573L64.9278 123.247Z" fill="white"/>
<path d="M63.5345 126.644C63.3902 126.644 63.2708 126.534 63.2509 126.382L62.7715 123.602C62.7632 123.558 62.7748 123.514 62.7997 123.477C62.8245 123.441 62.8643 123.417 62.9075 123.409L64.8997 123.082C64.9462 123.076 64.9926 123.087 65.0291 123.117C65.0656 123.147 65.0888 123.19 65.0905 123.237L65.2779 126.216C65.2879 126.295 65.2613 126.385 65.2049 126.451C65.1535 126.513 65.0805 126.549 65.0042 126.554L63.5494 126.644C63.5461 126.644 63.5395 126.644 63.5345 126.644ZM63.1281 123.711L63.576 126.31L64.9528 126.226L64.7736 123.441L63.1281 123.711Z" fill="black"/>
<path d="M65.3442 125.468C65.4404 125.813 65.6444 126.788 65.729 127.374C65.7821 127.742 65.5498 128.088 65.1932 128.185C64.1863 128.457 61.7794 128.445 59.7772 128.533C59.6395 128.54 59.3874 128.472 59.2746 128.14C58.893 127.014 60.9997 126.665 63.0799 125.521C63.1213 125.497 63.1711 125.501 63.2093 125.527C63.2325 125.544 63.264 125.565 63.2988 125.589C63.6605 125.819 64.2626 125.819 64.6309 125.599L65.0456 125.35C65.1617 125.28 65.3093 125.34 65.3442 125.468Z" fill="white"/>
<path d="M59.7606 128.701C59.5384 128.701 59.2447 128.57 59.1187 128.195C58.8035 127.266 59.8552 126.811 61.1856 126.236C61.7446 125.994 62.3782 125.72 63.002 125.377C63.0998 125.323 63.2159 125.328 63.3072 125.393C63.3287 125.408 63.3569 125.428 63.3901 125.45C63.6986 125.645 64.2278 125.649 64.548 125.456L64.9627 125.207C65.0622 125.148 65.18 125.138 65.2861 125.181C65.3939 125.224 65.4736 125.312 65.5034 125.423C65.6046 125.785 65.8087 126.763 65.8933 127.351C65.9579 127.8 65.6759 128.228 65.2364 128.346C64.4683 128.553 62.9655 128.598 61.3713 128.646C60.8422 128.661 60.2964 128.678 59.7839 128.701C59.7772 128.701 59.7689 128.701 59.7606 128.701ZM63.138 125.68C62.5076 126.025 61.8756 126.299 61.3166 126.539C59.9746 127.12 59.2265 127.478 59.4322 128.089C59.5267 128.366 59.7308 128.372 59.7706 128.369C60.2848 128.346 60.8339 128.329 61.363 128.314C62.8659 128.27 64.4219 128.223 65.1501 128.026C65.4271 127.951 65.6063 127.681 65.5648 127.397C65.4835 126.838 65.2811 125.861 65.1833 125.513C65.18 125.498 65.17 125.491 65.1617 125.489C65.1551 125.486 65.1435 125.484 65.1302 125.493L64.7155 125.741C64.2942 125.994 63.619 125.989 63.2093 125.73C63.1844 125.712 63.1595 125.695 63.138 125.68Z" fill="black"/>
<path d="M65.7903 127.639C65.792 127.649 65.7937 127.656 65.7937 127.659C65.8467 128.027 65.4967 128.253 65.1633 128.409C64.1713 128.873 60.1653 128.608 60.011 128.596C60.0077 128.596 60.0061 128.596 60.0028 128.596C59.953 128.596 59.4437 128.596 59.2978 128.281C59.2795 128.241 59.2679 128.186 59.2613 128.135C59.2497 128.05 59.2563 127.964 59.2745 127.881C59.2895 127.813 59.3558 127.772 59.4238 127.788C60.167 127.977 61.9037 128.04 63.6372 127.85C64.7901 127.724 65.291 127.471 65.5581 127.312C65.6311 127.269 65.724 127.311 65.7406 127.395C65.7572 127.468 65.7738 127.553 65.7903 127.639Z" fill="white"/>
<path d="M62.5192 128.85C61.3464 128.85 60.2234 128.778 60.0011 128.764C59.8966 128.764 59.3343 128.754 59.1485 128.352C59.1253 128.302 59.1087 128.239 59.0987 128.158C59.0854 128.057 59.0904 127.952 59.1153 127.846C59.1319 127.77 59.18 127.702 59.2463 127.662C59.3127 127.621 59.3907 127.609 59.467 127.629C60.1504 127.803 61.8391 127.883 63.6223 127.687C64.7121 127.568 65.2031 127.335 65.4768 127.171C65.5565 127.123 65.656 127.116 65.7406 127.155C65.8268 127.193 65.8882 127.271 65.9065 127.364L65.9546 127.606L65.9595 127.634C66.0392 128.181 65.4553 128.455 65.2346 128.558C64.7503 128.788 63.614 128.85 62.5192 128.85ZM60.0028 128.432C60.0094 128.432 60.0227 128.432 60.0293 128.433C61.5521 128.536 64.3389 128.614 65.0936 128.261C65.4951 128.073 65.661 127.894 65.6294 127.685L65.7903 127.641L65.6278 127.672L65.5913 127.49C65.2811 127.667 64.7453 127.899 63.6555 128.019C61.8706 128.214 60.167 128.138 59.4288 127.964C59.4205 128.017 59.4205 128.069 59.4255 128.117C59.4338 128.181 59.4454 128.208 59.4471 128.215C59.5516 128.438 59.9945 128.435 59.9994 128.433C60.0011 128.432 60.0028 128.432 60.0028 128.432Z" fill="black"/>
<path d="M62.939 126.598C62.9042 126.598 62.8693 126.586 62.8395 126.565L62.2324 126.102C62.1594 126.047 62.1461 125.943 62.2008 125.87C62.2556 125.797 62.3601 125.782 62.4331 125.838L63.0402 126.301C63.1132 126.356 63.1265 126.46 63.0717 126.533C63.0385 126.576 62.9888 126.598 62.939 126.598Z" fill="black"/>
<path d="M62.1311 126.928C62.0963 126.928 62.0614 126.916 62.0316 126.895L61.5007 126.497C61.4278 126.442 61.4128 126.337 61.4676 126.264C61.5223 126.191 61.6268 126.176 61.6998 126.231L62.2306 126.629C62.3036 126.684 62.3185 126.789 62.2638 126.862C62.2323 126.906 62.1825 126.928 62.1311 126.928Z" fill="black"/>
<path d="M69.1645 96.2329C69.1645 96.2329 70.3191 98.5403 70.7072 100.972C71.0688 103.236 72.3992 112.556 75.6389 120.03C76.0055 120.878 75.5825 121.76 74.6784 121.956C74.3168 122.034 74.1658 121.906 73.8523 121.754C73.6914 121.676 73.4244 121.443 73.4244 121.443C73.4244 121.443 67.6882 116.656 65.3493 104.092C63.8447 96.0123 64.0952 96.6526 64.0952 96.6526L69.1645 96.2329Z" fill="#001A49"/>
<path d="M67.5538 97.2876C67.5538 97.2876 68.2272 101.673 66.9533 104.916C65.7291 108.037 64.9461 120.267 65.4023 123.8C65.4305 124.023 65.2762 124.227 65.054 124.256C64.4966 124.334 63.493 124.441 62.8046 124.313C62.6785 124.29 62.5774 124.197 62.5458 124.072C62.093 122.279 58.3308 106.074 60.9832 97.7703L67.5538 97.2876Z" fill="#001A49"/>
<path d="M66.313 108.702C66.2235 108.702 66.1505 108.631 66.1471 108.541C66.1455 108.47 66.1024 106.769 66.804 105.135C67.0462 104.573 67.0794 104.017 67.0562 103.302C67.0529 103.211 67.1242 103.135 67.2171 103.132C67.31 103.127 67.3846 103.2 67.3879 103.292C67.4128 104.032 67.3747 104.651 67.1093 105.268C66.4374 106.832 66.4773 108.516 66.4789 108.533C66.4822 108.624 66.4092 108.7 66.318 108.704C66.3164 108.702 66.3147 108.702 66.313 108.702Z" fill="white"/>
<path d="M63.6008 104.186C63.4266 104.186 63.2525 104.149 63.0882 104.076L61.8839 103.537C61.4576 103.346 61.1922 102.921 61.2071 102.455L61.2835 100.087C61.2868 99.9622 61.3432 99.8444 61.4377 99.7615C61.5323 99.6785 61.6567 99.6387 61.7827 99.6536C63.206 99.8046 64.5413 99.6636 65.2115 99.5674C65.3459 99.5475 65.4802 99.589 65.5814 99.6802C65.681 99.7714 65.734 99.9008 65.7274 100.037L65.5947 102.517C65.5764 102.863 65.4039 103.18 65.1219 103.383L64.3423 103.947C64.12 104.104 63.8612 104.186 63.6008 104.186ZM61.7313 99.9838C61.7031 99.9838 61.6749 99.9937 61.6534 100.014C61.6285 100.035 61.6135 100.065 61.6135 100.098L61.5372 102.467C61.5273 102.799 61.7164 103.101 62.0183 103.235L63.2226 103.774C63.5228 103.908 63.8762 103.872 64.1416 103.68L64.9212 103.116C65.1219 102.971 65.2447 102.747 65.258 102.5L65.3907 100.02C65.394 99.9721 65.3674 99.9406 65.3525 99.9274C65.3376 99.9141 65.3027 99.8909 65.2546 99.8975C64.5695 99.997 63.201 100.141 61.7429 99.9854C61.7396 99.9837 61.7363 99.9838 61.7313 99.9838Z" fill="white"/>
<path d="M69.682 103.625C69.6107 103.625 69.5393 103.608 69.4746 103.575L68.1476 102.902C68.0083 102.832 67.917 102.698 67.9004 102.543L67.6019 99.7849C67.5753 99.541 67.7445 99.3204 67.9867 99.2839L69.6024 99.0334C69.6936 99.0185 69.7782 99.0815 69.7915 99.1711C69.8048 99.2624 69.7434 99.347 69.6521 99.3602L68.0365 99.6107C67.9701 99.6207 67.9237 99.682 67.9303 99.7484L68.2289 102.507C68.2339 102.55 68.2587 102.587 68.2969 102.605L69.6239 103.278C69.6654 103.3 69.7152 103.297 69.755 103.268L70.5529 102.706C70.6275 102.653 70.732 102.671 70.7835 102.746C70.8365 102.82 70.8183 102.925 70.7436 102.976L69.9458 103.539C69.8661 103.597 69.7749 103.625 69.682 103.625Z" fill="white"/>
<path d="M74.6849 123.374C74.5074 122.492 74.4311 122.309 74.0065 121.629C73.6913 121.123 74.4577 120.36 74.8475 120.302C75.4994 120.168 75.3949 120.374 76.1397 121.327L76.7236 122.044C76.7236 122.042 74.8392 124.146 74.6849 123.374Z" fill="white"/>
<path d="M74.8576 123.707C74.8261 123.707 74.7979 123.704 74.7697 123.696C74.695 123.676 74.564 123.611 74.5225 123.405C74.3682 122.631 74.3185 122.428 74.0099 121.912C73.9635 121.834 73.9884 121.732 74.0663 121.685C74.1443 121.637 74.2471 121.664 74.2936 121.742C74.6303 122.304 74.6867 122.536 74.8476 123.339C74.8543 123.369 74.8609 123.379 74.8609 123.379C75.0318 123.435 75.7865 122.818 76.5048 122.035L76.042 121.471C75.8263 121.194 75.692 120.979 75.5725 120.781C75.5261 120.703 75.551 120.6 75.6289 120.554C75.7069 120.506 75.8097 120.532 75.8562 120.61C75.9458 120.76 76.0801 120.984 76.2991 121.264L76.8498 121.936C76.9012 121.999 76.8996 122.09 76.8448 122.151C76.4152 122.634 75.3934 123.707 74.8576 123.707Z" fill="black"/>
<path d="M74.5821 123.043L75.3368 121.907C75.6885 121.376 76.4366 121.298 76.8911 121.742L77.7537 122.466C77.7537 122.466 77.9179 122.963 77.8665 123.283C77.7985 123.701 77.6641 124.297 77.4037 124.888C77.0039 125.795 75.8942 127.62 75.4994 128.262C75.4164 128.396 75.2091 128.529 75.0664 128.464C74.8956 128.388 74.7181 128.25 74.5472 128.089C74.2818 127.84 74.3714 126.679 74.4659 125.871C74.5273 125.354 74.4809 124.03 74.4593 123.486C74.451 123.328 74.4941 123.174 74.5821 123.043Z" fill="white"/>
<path d="M75.1478 128.648C75.0963 128.648 75.0466 128.638 74.9968 128.616C74.826 128.54 74.6402 128.407 74.4312 128.211C74.2719 128.064 74.0861 127.657 74.2985 125.852C74.3582 125.347 74.3134 124.034 74.2902 123.494C74.2819 123.301 74.3349 123.114 74.4411 122.951L75.1959 121.815C75.3916 121.521 75.7035 121.331 76.0551 121.294C76.4068 121.259 76.7518 121.377 77.004 121.624L77.8583 122.339C77.8815 122.359 77.8997 122.386 77.9097 122.414C77.9163 122.435 78.0872 122.955 78.0291 123.311C77.9628 123.723 77.8251 124.341 77.5547 124.955C77.1549 125.861 76.0833 127.631 75.6404 128.349C75.5509 128.493 75.3501 128.648 75.1478 128.648ZM74.7198 123.134C74.6518 123.237 74.6186 123.356 74.6236 123.479C74.6468 124.028 74.6916 125.361 74.6286 125.891C74.4212 127.647 74.6169 127.929 74.6584 127.967C74.8376 128.135 74.9968 128.251 75.1328 128.312C75.1726 128.331 75.3004 128.266 75.3584 128.175C75.7001 127.619 76.8497 125.733 77.2511 124.821C77.5082 124.238 77.6376 123.65 77.7023 123.256C77.7355 123.049 77.6559 122.717 77.6094 122.561L76.7833 121.87C76.5926 121.684 76.3438 121.598 76.0916 121.624C75.8395 121.651 75.6139 121.787 75.4746 121.999L74.7198 123.134Z" fill="black"/>
<path d="M74.4909 124.504C74.418 124.504 74.3516 124.456 74.3317 124.382C74.3068 124.294 74.3599 124.203 74.4478 124.178L75.259 123.955C75.3469 123.93 75.4381 123.984 75.463 124.071C75.4879 124.159 75.4348 124.251 75.3469 124.276L74.5357 124.498C74.5208 124.503 74.5059 124.504 74.4909 124.504Z" fill="black"/>
<path d="M74.5522 125.227C74.4792 125.227 74.4129 125.179 74.393 125.104C74.3681 125.016 74.4212 124.925 74.5091 124.9L75.3203 124.678C75.4082 124.653 75.4994 124.706 75.5243 124.794C75.5492 124.882 75.4961 124.973 75.4082 124.998L74.597 125.22C74.5804 125.225 74.5655 125.227 74.5522 125.227Z" fill="black"/>
<path d="M75.38 128.523C75.2971 128.523 75.2191 128.51 75.1478 128.485C74.9056 128.402 74.3001 128.221 74.3665 127.353C74.4362 126.454 75.1213 125.995 75.6222 125.406C76.0037 124.955 75.9656 123.072 76.085 122.702C76.3007 122.04 77.2678 121.941 77.7538 122.465C78.0607 122.795 78.0972 123.515 78.0673 124.043C78.0109 125.031 77.4287 127.002 76.6921 127.952C76.3338 128.417 75.7798 128.523 75.38 128.523Z" fill="white"/>
<path d="M75.38 128.688C75.2805 128.688 75.1826 128.674 75.093 128.642L75.0714 128.635C74.8127 128.547 74.1243 128.314 74.2006 127.342C74.2586 126.59 74.7049 126.131 75.1361 125.686C75.2572 125.562 75.3833 125.431 75.4944 125.3C75.7118 125.044 75.7814 124.1 75.8279 123.478C75.8561 123.098 75.8793 122.798 75.9257 122.652C76.0352 122.317 76.3122 122.078 76.6855 121.995C77.1168 121.899 77.5829 122.04 77.8732 122.353C78.2265 122.735 78.263 123.488 78.2315 124.054C78.1767 125.014 77.6011 127.05 76.8231 128.056C76.3968 128.606 75.735 128.688 75.38 128.688ZM76.9608 122.295C76.8928 122.295 76.8248 122.302 76.7585 122.317C76.503 122.373 76.3139 122.533 76.2426 122.753C76.2077 122.859 76.1845 123.171 76.1596 123.501C76.1032 124.246 76.0336 125.175 75.7482 125.513C75.6288 125.654 75.4994 125.787 75.375 125.917C74.9669 126.338 74.5821 126.734 74.5323 127.368C74.4759 128.083 74.9338 128.239 75.1793 128.322L75.2008 128.33C75.2556 128.348 75.317 128.358 75.38 128.358C75.6753 128.358 76.221 128.292 76.5611 127.852C77.3009 126.895 77.8483 124.953 77.9014 124.036C77.9412 123.337 77.8433 122.806 77.6326 122.581C77.4651 122.397 77.2146 122.295 76.9608 122.295Z" fill="black"/>
<path d="M75.3799 128.689C75.1377 128.689 74.9154 128.595 74.7728 128.43C74.6451 128.283 74.5887 128.09 74.6169 127.888C74.7496 126.928 75.2688 126.432 75.8162 125.906C76.2126 125.527 76.3238 124.083 76.3719 123.466C76.3918 123.202 76.4017 123.082 76.42 123.018C76.5046 122.709 76.8811 122.434 77.2792 122.389C77.6492 122.348 77.961 122.515 78.1368 122.847C78.18 122.928 78.1485 123.028 78.0672 123.071C77.9859 123.114 77.8864 123.082 77.8432 123.001C77.7022 122.734 77.4783 122.699 77.3157 122.717C77.0387 122.747 76.7833 122.946 76.7401 123.104C76.7302 123.142 76.7152 123.32 76.702 123.49C76.6423 124.255 76.5311 125.678 76.0451 126.145C75.5176 126.651 75.0614 127.087 74.9453 127.933C74.9304 128.041 74.9569 128.137 75.0233 128.211C75.1029 128.303 75.2339 128.356 75.3799 128.356C75.4678 128.356 75.5541 128.351 75.637 128.339C75.7283 128.331 75.8112 128.392 75.8228 128.482C75.8344 128.573 75.7697 128.656 75.6802 128.668C75.5823 128.683 75.4811 128.689 75.3799 128.689Z" fill="black"/>
<path d="M70.301 78.058C70.301 78.058 71.1752 75.3973 71.2183 74.5248C71.2614 73.6522 70.3889 69.6396 70.0389 68.3308C70.0389 68.3308 70.3657 65.8807 68.4962 65.4511C68.3668 65.4212 68.2822 65.3184 68.2341 65.194C68.0798 64.7859 68.0201 64.5105 67.8692 64.0162C67.7447 63.6048 67.1459 63.779 67.1957 64.2534C67.2139 64.4309 67.3997 65.9305 67.476 66.5343C67.486 66.6139 67.4478 66.725 67.3947 66.7848C67.2703 66.9291 67.1393 67.2277 67.3981 67.7618C67.7978 68.5879 67.967 68.3474 68.395 69.0308C68.823 69.7142 68.954 72.1709 68.9822 73.4797C69.0104 74.7902 68.4696 75.8999 68.1843 76.3843C67.9023 76.8703 70.301 78.058 70.301 78.058Z" fill="white"/>
<path d="M70.3008 78.225C70.2759 78.225 70.251 78.2184 70.2278 78.2084C69.8894 78.0409 68.1891 77.1733 68.015 76.5911C67.9768 76.46 68.01 76.3622 68.0432 76.3041C68.2853 75.8927 68.8477 74.7929 68.8195 73.4875C68.7813 71.7507 68.6138 69.6921 68.2572 69.1231C68.0797 68.8395 67.9569 68.7333 67.8259 68.6205C67.6583 68.4762 67.4858 68.3269 67.2503 67.8392C66.945 67.2072 67.1325 66.8423 67.2702 66.6814C67.295 66.6515 67.3149 66.5868 67.3116 66.5603C67.2337 65.9349 67.0495 64.4519 67.0313 64.2744C66.9948 63.9211 67.2254 63.6839 67.4742 63.6341C67.7247 63.5827 67.9519 63.7221 68.0282 63.9725C68.078 64.1351 68.1162 64.2728 68.1526 64.4005C68.2273 64.6626 68.287 64.8699 68.3882 65.1387C68.4214 65.2266 68.4695 65.278 68.5325 65.2929C70.3987 65.7226 70.2361 68.0117 70.2062 68.3219C70.5364 69.5727 71.4288 73.6202 71.3823 74.5375C71.3376 75.4216 70.4932 78.0044 70.4567 78.1139C70.4418 78.1603 70.407 78.1968 70.3638 78.2151C70.3456 78.2217 70.3224 78.225 70.3008 78.225ZM67.5787 63.9543C67.5654 63.9543 67.5538 63.9559 67.5422 63.9576C67.4443 63.9775 67.3465 64.0737 67.3631 64.2379C67.3813 64.4121 67.5638 65.8918 67.6434 66.5155C67.6583 66.6382 67.6085 66.7975 67.524 66.8954C67.3747 67.0695 67.383 67.3449 67.5505 67.6916C67.7562 68.1179 67.8905 68.234 68.0448 68.3667C68.1808 68.4845 68.3351 68.6189 68.5391 68.944C69.0202 69.712 69.128 72.3711 69.1512 73.4775C69.1811 74.8676 68.5873 76.0337 68.3301 76.47C68.3285 76.4716 68.3285 76.4799 68.3334 76.4932C68.4247 76.7968 69.4283 77.4221 70.2029 77.8219C70.3987 77.2065 71.0174 75.2259 71.0522 74.5159C71.0937 73.6815 70.2411 69.7286 69.8778 68.3733C69.8728 68.3518 69.8712 68.3302 69.8728 68.3087C69.8844 68.2141 70.1565 66.0029 68.4579 65.6131C68.287 65.5733 68.151 65.4456 68.078 65.2531C67.9702 64.9711 67.9071 64.7472 67.8325 64.4884C67.796 64.3624 67.7578 64.2247 67.7097 64.0654C67.6849 63.9742 67.6251 63.9543 67.5787 63.9543Z" fill="black"/>
<path d="M68.9257 75.2713C68.5989 75.1999 68.2671 75.3675 68.1095 75.6611C67.7894 76.2582 65.5035 78.7448 65.1651 79.0135C64.7438 79.3469 63.5329 81.3641 60.9269 81.3093C60.7726 81.306 60.625 81.3591 60.5056 81.4569C60.2053 81.7041 59.5053 82.1918 58.2894 82.5601C57.5512 82.7823 56.9673 83.484 56.8993 85.0897C56.8197 86.9974 54.8341 90.7297 55.413 92.1563C56.4199 94.6428 58.0306 93.9428 59.5517 93.4385C59.5517 93.4385 59.6562 93.4385 59.5667 95.6746C59.429 99.0934 59.3444 99.2377 64.0819 98.9242C67.6401 98.6886 70.8963 98.1844 70.9295 97.4379C70.9544 96.8905 70.0055 93.9196 69.8065 90.3482C69.6074 86.7784 70.2345 81.3226 70.6309 79.9342C70.9859 78.6901 70.5214 75.6179 68.9257 75.2713Z" fill="white"/>
<path d="M61.7048 99.2007C60.7361 99.2007 60.1455 99.0862 59.7939 98.7428C59.2946 98.2568 59.3294 97.3942 59.3941 95.8316L59.4007 95.6674C59.4521 94.4084 59.4389 93.8776 59.4239 93.6569L59.3626 93.6768C57.9128 94.1645 56.2706 94.7169 55.2587 92.2187C54.9004 91.3329 55.4412 89.6874 55.9653 88.0949C56.327 86.9952 56.7002 85.8589 56.7334 85.0809C56.7964 83.5846 57.304 82.6839 58.2412 82.4003C59.4223 82.0436 60.1007 81.5758 60.401 81.3287C60.5503 81.2059 60.7394 81.1462 60.9301 81.1429C62.9954 81.1943 64.1698 79.859 64.7354 79.222C64.8748 79.0644 64.9743 78.9516 65.0622 78.8836C65.3874 78.6265 67.6583 76.1532 67.9635 75.5842C68.1592 75.2209 68.569 75.0269 68.9621 75.1115C69.4564 75.2193 69.8761 75.5577 70.2128 76.12C70.8846 77.2414 71.0572 79.0561 70.7918 79.9817C70.4019 81.3436 69.7749 86.7762 69.974 90.341C70.1067 92.7114 70.5778 94.848 70.8581 96.1236C71.0124 96.8219 71.1053 97.2433 71.0953 97.4473C71.0505 98.426 67.2618 98.8822 64.0918 99.0928C63.1131 99.1526 62.3302 99.2007 61.7048 99.2007ZM59.5517 93.2721C59.5965 93.2721 59.6429 93.292 59.6728 93.3252C59.7275 93.3832 59.8204 93.4778 59.7308 95.6807L59.7242 95.8449C59.6645 97.3129 59.6313 98.1224 60.0244 98.5056C60.479 98.9485 61.5505 98.9253 64.0686 98.7578C68.6403 98.4542 70.742 97.857 70.7619 97.4291C70.7685 97.2698 70.664 96.7937 70.5313 96.1916C70.2477 94.906 69.7732 92.7545 69.6389 90.3559C69.4382 86.7613 70.0751 81.2673 70.4699 79.8872C70.7154 79.0279 70.5346 77.3061 69.9259 76.2876C69.6389 75.8082 69.2905 75.5212 68.8908 75.4333C68.6419 75.3802 68.3815 75.5046 68.2554 75.7385C67.9237 76.3572 65.6461 78.8421 65.2679 79.1424C65.2032 79.1938 65.102 79.3082 64.9843 79.4409C64.3954 80.1045 63.1811 81.4746 61.0313 81.4746C60.9948 81.4746 60.96 81.4746 60.9235 81.473C60.8107 81.4664 60.7012 81.5095 60.6117 81.5825C60.2932 81.8462 59.5732 82.3422 58.3374 82.7154C57.5495 82.9543 57.1215 83.7538 57.0651 85.0925C57.0303 85.9153 56.6654 87.0234 56.2805 88.1961C55.7762 89.7305 55.2537 91.318 55.5672 92.091C56.4613 94.3005 57.8199 93.8444 59.2581 93.36L59.5019 93.2787C59.5152 93.2737 59.5334 93.2721 59.5517 93.2721Z" fill="black"/>
<path d="M59.278 93.8549C59.21 93.8549 59.1453 93.8118 59.1221 93.7438C59.0922 93.6576 59.137 93.5647 59.2216 93.5331C59.2465 93.5232 60.5072 92.9808 60.2965 89.4774C60.2915 89.3861 60.3612 89.3082 60.4524 89.3015C60.5436 89.2965 60.6233 89.3662 60.6282 89.4574C60.8555 93.2628 59.3974 93.8234 59.3344 93.845C59.3161 93.8516 59.2979 93.8549 59.278 93.8549Z" fill="black"/>
<path d="M63.8543 73.8208C63.9439 74.131 64.1164 74.8924 64.3039 75.1312C64.7617 75.7201 65.1631 77.6012 64.4399 78.8901C64.0285 79.6233 63.9887 80.2088 64.0202 80.5555C64.0418 80.7845 63.9323 81.0051 63.7399 81.1328L63.7316 81.1378C63.2671 81.443 62.7346 81.6304 62.1806 81.6852L62.018 81.7018C61.7559 81.7283 61.5071 81.5873 61.3927 81.3518C61.0443 80.6335 60.2846 79.1505 59.7952 78.774C59.1433 78.2714 55.4143 74.0646 57.8976 72.7558C62.2105 70.4833 63.5757 72.857 63.8543 73.8208Z" fill="white"/>
<path d="M61.9584 81.8716C61.6582 81.8716 61.3778 81.6991 61.2435 81.4254C60.5899 80.0784 60.0242 79.1611 59.6941 78.9056C59.2463 78.5606 56.7332 75.8551 56.8957 73.9591C56.9472 73.3586 57.259 72.9041 57.8197 72.6088C59.6726 71.6318 61.2003 71.3879 62.3632 71.8822C63.5293 72.3782 63.9208 73.4565 64.0137 73.7749C64.0319 73.8363 64.0518 73.9143 64.075 74.0022C64.1613 74.324 64.304 74.8631 64.4333 75.029C64.9177 75.6511 65.3424 77.6201 64.5826 78.972C64.1961 79.6587 64.153 80.2045 64.1829 80.5412C64.2094 80.8315 64.0734 81.1102 63.8279 81.2711C63.3352 81.5946 62.7729 81.7936 62.194 81.85L62.0314 81.8666C62.0098 81.8716 61.9833 81.8716 61.9584 81.8716ZM61.071 71.9652C60.1951 71.9652 59.1583 72.2787 57.974 72.9024C57.5128 73.1463 57.2673 73.5012 57.2258 73.9873C57.0832 75.6394 59.3259 78.204 59.8965 78.6419C60.4024 79.0317 61.1439 80.4616 61.542 81.2794C61.6266 81.4519 61.8108 81.5564 62.0015 81.5365L62.1641 81.5199C62.6883 81.4685 63.1992 81.2877 63.6404 80.9991C63.7914 80.9012 63.8694 80.7386 63.8544 80.5711C63.8196 80.1879 63.8677 79.5692 64.2957 78.8078C64.9774 77.5935 64.5992 75.7771 64.1746 75.2314C64.017 75.029 63.8876 74.5745 63.7566 74.0868C63.7333 74.0005 63.7134 73.9242 63.6968 73.8662C63.6156 73.5825 63.2672 72.6254 62.2354 72.1858C61.8854 72.0398 61.4973 71.9652 61.071 71.9652Z" fill="black"/>
<path d="M63.7299 77C63.7283 77 63.7266 77 63.725 77C63.2356 76.9883 62.9188 76.421 62.8591 75.867C62.8076 75.3859 62.9536 75.0442 63.2389 74.9746C63.5508 74.8999 63.7515 75.2582 63.7731 75.298C63.8162 75.3793 63.7863 75.4788 63.7051 75.522C63.6238 75.5651 63.5242 75.5352 63.4811 75.4539C63.4347 75.3693 63.3517 75.2881 63.3185 75.2964C63.229 75.3179 63.1576 75.5236 63.1908 75.8322C63.2339 76.2386 63.4496 76.6632 63.7349 76.6699C63.8261 76.6715 63.8991 76.7478 63.8958 76.8391C63.8942 76.9286 63.8195 77 63.7299 77Z" fill="black"/>
<path d="M64.7967 74.3124C64.7967 74.3124 64.659 70.8471 62.3765 70.3876C60.094 69.9281 57.3553 70.6796 56.6105 71.6914C55.8657 72.7033 56.5143 74.3903 56.5143 74.3903C56.5143 74.3903 55.6302 75.9894 56.7996 76.7193C57.9691 77.4492 59.1352 79.3336 60.3528 78.7148C61.5703 78.0961 62.2339 77.3878 62.1791 76.1487C62.1095 74.5031 64.7967 74.3124 64.7967 74.3124Z" fill="#001A49"/>
<path d="M132.503 88.271C132.967 86.7416 132.888 85.7762 132.466 84.7709L131.758 83.3626L133.889 82.5083L134.543 84.1107C134.754 84.6266 135.057 85.0994 135.44 85.5058L135.792 85.879L132.503 88.271Z" fill="white"/>
<path d="M132.503 88.4375C132.47 88.4375 132.435 88.4275 132.407 88.406C132.348 88.3645 132.324 88.2915 132.344 88.2235C132.828 86.6277 132.682 85.7154 132.314 84.8362L131.61 83.4378C131.589 83.3964 131.587 83.3483 131.604 83.3051C131.62 83.262 131.653 83.2272 131.697 83.2089L133.828 82.3546C133.913 82.3198 134.009 82.3613 134.044 82.4459L134.697 84.0483C134.901 84.5476 135.192 85.0004 135.562 85.3919L135.913 85.7651C135.946 85.8 135.963 85.8464 135.958 85.8945C135.953 85.9426 135.928 85.9858 135.89 86.014L132.601 88.4043C132.571 88.4259 132.538 88.4375 132.503 88.4375ZM131.989 83.4511L132.616 84.6985C133.044 85.7187 133.098 86.6327 132.79 87.8586L135.542 85.858L135.319 85.6225C134.921 85.2012 134.608 84.7135 134.389 84.176L133.798 82.7262L131.989 83.4511Z" fill="black"/>
<path d="M134.829 85.0989C134.882 84.933 135.101 84.8915 135.22 85.0193C135.557 85.3776 136.147 85.9764 136.595 86.2866C137.013 86.5752 137.143 87.1309 136.907 87.5755C136.238 88.8345 134.547 91.5649 132.763 93.65C132.641 93.7927 132.339 93.9835 131.901 93.7877C130.434 93.1292 131.828 90.1516 132.624 87.0513C132.655 86.9302 132.753 86.8357 132.878 86.8141L133.321 86.7328C134.137 86.5686 134.482 86.1837 134.829 85.0989Z" fill="white"/>
<path d="M132.26 94.0359C132.129 94.0359 131.985 94.0077 131.831 93.938C130.565 93.3691 131.169 91.3802 131.867 89.0744C132.071 88.4043 132.28 87.7109 132.461 87.0092C132.508 86.8251 132.659 86.6841 132.844 86.6492L133.287 86.568C134.037 86.4187 134.336 86.0919 134.669 85.0485C134.711 84.9174 134.818 84.8196 134.954 84.7897C135.094 84.7582 135.241 84.803 135.339 84.9058C135.654 85.2393 136.248 85.8464 136.688 86.1499C137.172 86.485 137.328 87.132 137.051 87.6545C136.354 88.9666 134.669 91.6754 132.886 93.7589C132.76 93.9049 132.539 94.0359 132.26 94.0359ZM135.046 85.1099C135.037 85.1099 135.032 85.1115 135.029 85.1115C135.014 85.1148 134.994 85.1248 134.986 85.148C134.619 86.2959 134.221 86.7206 133.35 86.8931L132.906 86.976C132.846 86.9876 132.798 87.0324 132.783 87.0921C132.601 87.8021 132.39 88.4971 132.186 89.1723C131.532 91.3271 130.968 93.1883 131.967 93.6361C132.372 93.8169 132.594 93.5897 132.635 93.5416C134.402 91.478 136.069 88.7957 136.759 87.4969C136.958 87.1237 136.847 86.6608 136.5 86.422C136.059 86.1168 135.493 85.5528 135.099 85.1331C135.08 85.1132 135.061 85.1099 135.046 85.1099Z" fill="black"/>
<path d="M136.494 86.2163C136.494 86.2163 136.562 86.2628 136.595 86.2843C137.013 86.573 137.142 87.1287 136.907 87.5732C136.238 88.8322 134.546 91.5626 132.763 93.6478C132.64 93.7904 132.338 93.9812 131.9 93.7854C131.766 93.7257 131.565 93.5615 131.565 93.5615L131.685 93.4089C133.393 91.2359 134.939 88.9417 136.309 86.5414L136.494 86.2163Z" fill="white"/>
<path d="M132.26 94.0368C132.129 94.0368 131.985 94.0086 131.831 93.939C131.682 93.871 131.481 93.7101 131.458 93.6918C131.388 93.6354 131.376 93.5309 131.431 93.4612L131.551 93.3086C133.249 91.1489 134.8 88.8448 136.162 86.4611L136.348 86.1359C136.371 86.0961 136.409 86.0679 136.454 86.0563C136.499 86.0464 136.547 86.0547 136.585 86.0812L136.686 86.1509C137.171 86.486 137.328 87.1329 137.049 87.6554C136.353 88.9675 134.667 91.6764 132.884 93.7598C132.76 93.9058 132.539 94.0368 132.26 94.0368ZM131.798 93.5326C131.856 93.574 131.919 93.6155 131.967 93.6354C132.372 93.8179 132.594 93.589 132.635 93.5409C134.402 91.4773 136.069 88.795 136.759 87.4962C136.948 87.1395 136.855 86.7033 136.549 86.4561L136.454 86.6236C135.084 89.0223 133.523 91.3396 131.816 93.511L131.798 93.5326Z" fill="black"/>
<path d="M132.015 89.5341C131.935 89.5341 131.866 89.4761 131.851 89.3964C131.836 89.3069 131.897 89.2206 131.987 89.2057L133.456 88.9602C133.546 88.9436 133.632 89.0066 133.647 89.0962C133.662 89.1874 133.601 89.272 133.511 89.287L132.042 89.5325C132.033 89.5341 132.023 89.5341 132.015 89.5341Z" fill="black"/>
<path d="M131.776 90.3702C131.695 90.3702 131.625 90.3105 131.612 90.2292C131.598 90.138 131.662 90.055 131.751 90.0401L132.952 89.8626C133.042 89.8493 133.126 89.9124 133.141 90.0019C133.154 90.0932 133.091 90.1761 133.002 90.191L131.801 90.3685C131.793 90.3685 131.784 90.3702 131.776 90.3702Z" fill="black"/>
<path d="M144.509 66.0725C144.509 66.0725 129.719 62.8329 125.212 65.3974C124.534 65.7839 123.888 66.5934 123.747 67.3614C123.315 69.6987 124.618 74.7912 131.743 84.3642C131.844 84.4985 132.023 84.5516 132.181 84.4919L134.442 83.636C134.626 83.5663 134.724 83.3689 134.671 83.1798L131.653 72.6298C131.575 72.3544 131.803 72.089 132.086 72.1238L146.18 73.854L144.509 66.0725Z" fill="#001A49"/>
<path d="M140.142 93.8881L139.851 95.2632C139.463 97.2654 140.928 98.2889 140.928 98.2889L136.597 98.8147C136.597 98.8147 137.542 98.2408 137.35 95.4606L137.103 93.1333L140.142 93.8881Z" fill="white"/>
<path d="M136.598 98.9825C136.529 98.9825 136.465 98.9377 136.442 98.8714C136.417 98.7967 136.446 98.7155 136.514 98.6756C136.52 98.6707 137.368 98.0868 137.187 95.4741L136.94 93.1535C136.935 93.1004 136.955 93.0473 136.996 93.0108C137.038 92.976 137.093 92.9627 137.146 92.9743L140.185 93.7274C140.271 93.749 140.326 93.8352 140.307 93.9232L140.017 95.2983C139.657 97.1628 140.971 98.115 141.027 98.1548C141.084 98.1946 141.11 98.2643 141.092 98.3306C141.075 98.397 141.019 98.4467 140.951 98.455L136.62 98.9809C136.611 98.9825 136.605 98.9825 136.598 98.9825ZM137.293 93.3525L137.516 95.4443C137.64 97.2441 137.293 98.1614 137.01 98.5993L140.545 98.1697C140.117 97.7318 139.395 96.7398 139.687 95.232L139.944 94.0111L137.293 93.3525Z" fill="black"/>
<path d="M140.231 96.4404C140.588 96.8502 141.235 97.6215 141.732 98.368C142.044 98.8358 141.858 99.3765 141.523 99.8244C140.842 100.74 139.906 101.443 138.806 102.168C137.846 102.802 136.773 103.469 135.48 104.059C135.129 104.22 134.339 104.439 133.81 104.175C132.212 103.379 134.875 100.889 136.97 98.018C137.051 97.9052 137.192 97.8504 137.328 97.877L137.818 97.9748C138.309 98.0727 138.808 97.867 139.085 97.4523L139.743 96.4686C139.858 96.3011 140.098 96.2878 140.231 96.4404Z" fill="white"/>
<path d="M134.404 104.462C134.17 104.462 133.938 104.424 133.735 104.322C133.428 104.17 133.241 103.949 133.18 103.667C132.987 102.791 134.032 101.483 135.358 99.8254C135.847 99.2133 136.353 98.5797 136.834 97.9195C136.953 97.7553 137.161 97.674 137.358 97.7138L137.849 97.8116C138.275 97.8946 138.705 97.7188 138.947 97.3588L139.606 96.3751C139.689 96.2524 139.82 96.1761 139.967 96.1678C140.115 96.1595 140.258 96.2175 140.356 96.3303C140.704 96.7301 141.364 97.5164 141.868 98.2745C142.177 98.7373 142.101 99.3228 141.654 99.9217C140.968 100.844 140.055 101.541 138.896 102.305C137.983 102.908 136.872 103.603 135.547 104.208C135.306 104.319 134.853 104.462 134.404 104.462ZM137.259 98.0356C137.199 98.0356 137.139 98.0638 137.103 98.1152C136.617 98.7804 136.109 99.4174 135.616 100.031C134.447 101.493 133.344 102.873 133.503 103.594C133.543 103.777 133.667 103.918 133.883 104.024C134.327 104.246 135.041 104.074 135.411 103.906C136.714 103.311 137.813 102.622 138.715 102.028C139.845 101.284 140.732 100.607 141.391 99.7226C141.643 99.3842 141.883 98.8899 141.595 98.4569C141.1 97.7138 140.45 96.9408 140.107 96.546C140.077 96.5111 140.035 96.4946 139.991 96.4962C139.966 96.4979 139.918 96.5078 139.884 96.5576L139.226 97.5413C138.911 98.0124 138.345 98.2463 137.788 98.1351L137.298 98.0372C137.283 98.0372 137.272 98.0356 137.259 98.0356Z" fill="black"/>
<path d="M141.475 98.0205C141.475 98.0205 141.707 98.3307 141.732 98.3672C141.81 98.485 141.857 98.621 141.882 98.7603C141.963 99.2115 141.807 99.6727 141.49 100.004C141.414 100.084 141.309 100.187 141.188 100.301C139.933 101.496 138.519 102.514 136.996 103.345C136.223 103.767 134.51 104.633 133.81 104.175C133.594 104.034 133.462 103.602 133.462 103.602C133.462 103.602 133.871 103.848 135.104 103.236C137.186 102.202 138.596 101.043 140.312 99.6561C140.651 99.3824 140.883 99.1336 141.124 98.835C141.314 98.6027 141.435 98.3191 141.475 98.0205Z" fill="white"/>
<path d="M134.334 104.469C134.084 104.469 133.878 104.417 133.719 104.313C133.46 104.144 133.317 103.701 133.302 103.651C133.282 103.584 133.304 103.513 133.359 103.472C133.413 103.43 133.488 103.425 133.546 103.46C133.548 103.46 133.936 103.631 135.029 103.087C137.026 102.095 138.423 100.967 140.04 99.6614L140.208 99.527C140.501 99.2915 140.729 99.0593 140.996 98.7308C141.167 98.5185 141.276 98.2647 141.311 97.9976C141.319 97.9313 141.367 97.8749 141.434 97.8583C141.498 97.8417 141.568 97.8649 141.608 97.9197C141.663 97.9927 141.845 98.2365 141.87 98.2746C141.955 98.4007 142.013 98.5533 142.044 98.7308C142.134 99.2218 141.971 99.741 141.61 100.119C141.532 100.201 141.425 100.305 141.303 100.423C140.054 101.611 138.632 102.642 137.076 103.492C135.882 104.142 134.964 104.469 134.334 104.469ZM133.73 103.817C133.78 103.911 133.84 103.996 133.901 104.036C134.153 104.2 134.88 104.311 136.917 103.2C138.446 102.365 139.845 101.35 141.074 100.182C141.193 100.069 141.294 99.9683 141.369 99.8903C141.658 99.5884 141.787 99.177 141.717 98.7905C141.694 98.6578 141.651 98.5467 141.593 98.4588C141.588 98.4521 141.573 98.4322 141.553 98.4024C141.485 98.5965 141.384 98.7789 141.253 98.9415C140.971 99.2898 140.729 99.5353 140.417 99.7875L140.249 99.9218C138.617 101.241 137.207 102.379 135.177 103.385C134.47 103.737 134.007 103.823 133.73 103.817Z" fill="black"/>
<path d="M137.36 100.182C137.348 100.182 137.336 100.181 137.325 100.179L135.709 99.8305C135.62 99.8106 135.563 99.7227 135.581 99.6331C135.601 99.5435 135.689 99.4855 135.779 99.5054L137.395 99.8537C137.484 99.8736 137.54 99.9615 137.522 100.051C137.506 100.129 137.436 100.182 137.36 100.182Z" fill="black"/>
<path d="M136.467 100.907C136.454 100.907 136.442 100.905 136.429 100.902L135.119 100.593C135.029 100.572 134.974 100.482 134.996 100.394C135.017 100.304 135.105 100.25 135.195 100.271L136.505 100.58C136.595 100.601 136.65 100.691 136.628 100.779C136.61 100.855 136.542 100.907 136.467 100.907Z" fill="black"/>
<path d="M134.939 70.2955C139.249 66.6146 153.115 66.4985 153.115 66.4985C153.115 66.4985 154.847 68.5604 154.021 72.7108C153.749 74.0793 152.78 75.3068 151.249 75.3068L142.742 75.3781C142.119 75.3831 141.624 75.9023 141.648 76.5244C141.805 80.6316 141.946 89.123 140.772 94.9089C140.724 95.1428 140.548 95.3303 140.316 95.3933C139.771 95.5409 138.708 95.7781 137.554 95.7632C137.194 95.7582 136.892 95.4879 136.845 95.1312L134.024 74.0909C133.939 73.4572 133.937 72.812 134.044 72.1816C134.155 71.5048 134.404 70.7534 134.939 70.2955Z" fill="#001A49"/>
<path d="M133.785 72.9148C133.783 72.9148 133.781 72.9148 133.78 72.9148C133.689 72.9115 133.616 72.8352 133.619 72.7439C133.718 69.2671 138.205 68.2734 138.25 68.2651C138.34 68.2452 138.428 68.3033 138.448 68.3929C138.466 68.4824 138.41 68.5704 138.32 68.5903C138.277 68.5986 134.044 69.5391 133.951 72.7539C133.947 72.8435 133.874 72.9148 133.785 72.9148Z" fill="white"/>
<path d="M128.463 57.9315C128.491 57.4454 128.644 56.9279 128.394 56.5331L127.888 55.8629C127.518 55.2906 127.558 54.5376 127.788 53.9172L128.452 52.3147C128.515 52.1356 128.772 52.5403 128.825 52.7228L130.635 59.1407C130.937 60.0697 131.967 60.151 132.546 59.7545L134.929 58.1272L137.749 62.0437C137.749 62.0437 135.009 63.9795 131.491 64.5982C130.696 64.7409 128.073 64.6629 128.463 57.9315Z" fill="white"/>
<path d="M131.149 64.7965C130.759 64.7965 130.199 64.6953 129.678 64.2325C128.576 63.2522 128.112 61.1289 128.298 57.9224C128.304 57.803 128.319 57.6836 128.332 57.5625C128.374 57.2075 128.414 56.8724 128.254 56.6219L127.757 55.9634C127.395 55.4027 127.352 54.6197 127.636 53.86L128.301 52.2526C128.339 52.1431 128.435 52.1066 128.51 52.105C128.764 52.1133 128.966 52.6093 128.986 52.6789L130.796 59.0969C130.93 59.5082 131.212 59.6824 131.426 59.7554C131.761 59.8699 132.164 59.8168 132.455 59.6194L134.838 57.9921C134.913 57.9407 135.014 57.9589 135.067 58.0319L137.887 61.9483C137.914 61.9848 137.924 62.0296 137.915 62.0728C137.909 62.1159 137.884 62.1557 137.847 62.1806C137.819 62.2005 135.036 64.1446 131.522 64.7633C131.433 64.7799 131.305 64.7965 131.149 64.7965ZM128.543 52.5296L127.943 53.9811C127.697 54.638 127.729 55.3098 128.027 55.7726L128.526 56.4328C128.757 56.7944 128.709 57.2042 128.662 57.6006C128.649 57.7151 128.636 57.8295 128.629 57.9407C128.405 61.8024 129.197 63.3583 129.898 63.9837C130.494 64.5145 131.134 64.4963 131.463 64.4382C134.463 63.9091 136.918 62.3962 137.516 62.0047L134.89 58.3587L132.639 59.8947C132.267 60.1485 131.748 60.2182 131.317 60.0706C130.913 59.9329 130.615 59.621 130.476 59.1947L128.664 52.7702C128.646 52.7022 128.593 52.6043 128.543 52.5296ZM128.608 52.3721L128.606 52.3754C128.608 52.3737 128.608 52.3737 128.608 52.3721Z" fill="black"/>
<path d="M154.387 67.4815C154.075 66.2358 153.846 65.0779 152.645 61.9129C151.811 59.7166 153.012 55.218 150.917 53.2075C147.47 49.8998 137.69 55.4585 137.054 55.8251L136.392 56.1817C135.648 56.608 134.929 57.099 134.244 57.6149L134.117 57.7111L137.205 62.5864L140.775 60.7551C141.759 62.3492 142.583 64.0395 143.237 65.8011L143.651 67.3289C143.651 67.3289 143.505 67.6242 147.352 68.1799C150.124 68.5796 152.642 68.4038 153.832 68.2728C154.221 68.2313 154.482 67.8581 154.387 67.4815Z" fill="white"/>
<path d="M150.93 68.5931C149.854 68.5931 148.62 68.5301 147.329 68.3443C143.718 67.8234 143.56 67.5248 143.509 67.4253C143.495 67.4021 143.489 67.3772 143.486 67.3523L143.077 65.8461C142.454 64.1624 141.657 62.5202 140.715 60.9742L137.283 62.7342C137.207 62.774 137.114 62.7475 137.068 62.6761L133.979 57.8009C133.932 57.7279 133.951 57.6317 134.019 57.5803L134.146 57.4841C134.911 56.9085 135.619 56.4357 136.313 56.0392L136.978 55.6793C138.045 55.0639 147.541 49.7374 151.033 53.0882C152.375 54.3755 152.415 56.6414 152.45 58.6403C152.471 59.8744 152.491 61.0405 152.801 61.855C153.868 64.665 154.173 65.9125 154.442 67.0123C154.477 67.1566 154.512 67.2976 154.548 67.4419C154.604 67.6675 154.561 67.9064 154.429 68.0988C154.294 68.2912 154.085 68.4156 153.851 68.4405C153.186 68.5118 152.161 68.5931 150.93 68.5931ZM143.806 67.2661C143.905 67.3324 144.468 67.5978 147.377 68.0175C150.107 68.4123 152.582 68.2447 153.815 68.1104C153.953 68.0955 154.077 68.0225 154.155 67.908C154.233 67.7952 154.259 67.6559 154.226 67.5215C154.19 67.3772 154.155 67.2345 154.12 67.0902C153.853 65.9987 153.549 64.7613 152.491 61.9711C152.161 61.1019 152.141 59.9092 152.118 58.6452C152.081 56.6165 152.045 54.5181 150.804 53.3271C147.43 50.0891 137.559 55.7274 137.139 55.9679L136.472 56.3279C135.794 56.716 135.097 57.1805 134.344 57.7478L134.339 57.7528L137.265 62.3709L140.7 60.6093C140.777 60.5694 140.871 60.596 140.918 60.669C141.906 62.2714 142.739 63.98 143.394 65.7449L143.806 67.2661ZM143.802 67.4021C143.801 67.4021 143.801 67.4021 143.802 67.4021C143.801 67.4021 143.801 67.4021 143.802 67.4021ZM143.804 67.3954C143.804 67.3971 143.802 67.3988 143.801 67.4004C143.802 67.3988 143.804 67.3971 143.804 67.3954Z" fill="black"/>
<path d="M142.046 59.5216L140.397 61.0394C140.282 61.1455 140.145 61.2301 139.992 61.2617C139.678 61.3264 139.343 61.2152 139.133 60.9515L135.898 56.1476C135.658 55.7893 135.263 55.5653 134.831 55.5421L132.773 55.3746C132.501 55.353 132.338 55.6798 132.529 55.8755C132.728 56.0795 133.022 56.2786 133.443 56.3566C133.702 56.403 133.901 56.6021 133.941 56.8625C134.11 57.9689 135.379 58.4599 135.379 58.4599C135.379 58.4599 136.615 65.8632 140.126 64.9641C144.783 63.7714 147.452 60.5169 147.452 60.5169L142.046 59.5216Z" fill="white"/>
<path d="M139.546 65.2008C139.09 65.2008 138.652 65.0664 138.239 64.7961C136.193 63.464 135.357 59.2606 135.231 58.5706C134.924 58.4312 133.934 57.9054 133.776 56.8819C133.748 56.6944 133.606 56.5501 133.413 56.5153C133.02 56.444 132.683 56.2665 132.411 55.9878C132.277 55.8501 132.244 55.6494 132.327 55.4752C132.411 55.2961 132.592 55.1916 132.788 55.2065L134.846 55.374C135.322 55.4006 135.769 55.6544 136.037 56.0525L139.272 60.8564C139.431 61.0554 139.698 61.1517 139.96 61.0969C140.072 61.0737 140.184 61.0123 140.286 60.9161L141.934 59.3983C141.973 59.3635 142.026 59.3485 142.077 59.3568L147.483 60.3471C147.541 60.3571 147.589 60.3986 147.609 60.4533C147.629 60.508 147.619 60.5694 147.581 60.6159C147.554 60.649 144.824 63.9268 140.169 65.1179C139.957 65.1726 139.75 65.2008 139.546 65.2008ZM132.748 55.5366C132.67 55.5366 132.635 55.5963 132.627 55.6162C132.615 55.6394 132.595 55.7008 132.648 55.7572C132.871 55.9861 133.149 56.1304 133.473 56.1902C133.801 56.2499 134.055 56.5087 134.105 56.8338C134.257 57.8324 135.427 58.2968 135.439 58.3002C135.493 58.3217 135.533 58.3698 135.543 58.4279C135.551 58.476 136.358 63.1771 138.419 64.519C138.937 64.8558 139.496 64.9503 140.085 64.7994C143.942 63.8124 146.443 61.364 147.131 60.6225L142.097 59.7002L140.51 61.1616C140.365 61.2976 140.198 61.3889 140.027 61.4237C139.64 61.5033 139.249 61.3623 139.003 61.0538L135.762 56.2383C135.551 55.9248 135.201 55.7257 134.825 55.7058L132.761 55.5383C132.756 55.5366 132.753 55.5366 132.748 55.5366Z" fill="black"/>
<path d="M142.183 58.9539C142.15 58.9539 142.119 58.944 142.089 58.9241C142.014 58.8727 141.994 58.7681 142.047 58.6935L142.792 57.6153C142.843 57.539 142.948 57.5207 143.023 57.5738C143.097 57.6252 143.117 57.7297 143.064 57.8044L142.319 58.8826C142.288 58.9291 142.236 58.9539 142.183 58.9539Z" fill="black"/>
<path d="M147.667 60.2047C147.621 60.2047 147.574 60.1848 147.543 60.1483C147.483 60.0787 147.49 59.9742 147.56 59.9145C150.048 57.7481 150.804 55.9599 151.126 55.1968L151.169 55.0956C151.206 55.011 151.302 54.9712 151.386 55.0077C151.471 55.0442 151.509 55.1404 151.474 55.225L151.433 55.3245C151.101 56.1091 150.325 57.9471 147.778 60.1633C147.744 60.1915 147.706 60.2047 147.667 60.2047Z" fill="black"/>
<path d="M130.572 60.7754L134.539 60.9661C135.137 60.9943 135.676 60.6128 135.611 60.2064L134.287 51.9306C134.246 51.6685 133.954 51.4761 133.566 51.4579L129.598 51.2671C129.001 51.2389 128.462 51.6204 128.526 52.0268L129.85 60.3026C129.891 60.5664 130.185 60.7571 130.572 60.7754Z" fill="#001A49"/>
<path d="M147.1 52.6777L148.243 52.9829C148.515 53.0559 148.504 53.4142 148.24 53.5137C145.257 54.6317 143.778 54.1955 142.854 54.0794C142.58 54.0445 142.52 53.6763 142.769 53.5602L142.776 53.5568C143.102 53.4026 143.253 53.021 143.119 52.686L142.318 50.6788L144.04 47.3081L145.84 51.6542C146.093 52.1585 146.553 52.5317 147.1 52.6777Z" fill="white"/>
<path d="M144.643 54.4277C144.04 54.4277 143.565 54.3547 143.172 54.2934C143.051 54.2751 142.938 54.2569 142.834 54.2436C142.636 54.2187 142.484 54.0711 142.452 53.8753C142.421 53.6813 142.52 53.4938 142.699 53.4092C142.953 53.2898 143.068 52.9995 142.966 52.7457L142.165 50.7385C142.147 50.6938 142.15 50.644 142.172 50.6009L143.894 47.2302C143.923 47.1721 143.985 47.1356 144.048 47.1406C144.113 47.1439 144.169 47.1837 144.194 47.2434L145.994 51.5895C146.223 52.0407 146.644 52.3841 147.145 52.5168L148.288 52.822C148.474 52.8718 148.601 53.0244 148.61 53.2118C148.62 53.4125 148.495 53.595 148.299 53.668C146.702 54.2685 145.533 54.4277 144.643 54.4277ZM142.499 50.6855L143.273 52.6213C143.439 53.0377 143.252 53.5137 142.847 53.7045C142.774 53.7393 142.776 53.7974 142.779 53.8223C142.782 53.8422 142.797 53.9036 142.875 53.9135C142.983 53.9268 143.099 53.945 143.223 53.9649C144.164 54.1109 145.586 54.3315 148.182 53.3578C148.256 53.3296 148.28 53.2699 148.278 53.2284C148.276 53.1853 148.25 53.1571 148.202 53.1438L147.059 52.8386C146.466 52.6793 145.969 52.2763 145.692 51.7289L144.025 47.7046L142.499 50.6855Z" fill="black"/>
<path d="M140.218 45.8979C138.518 47.1569 139.206 48.3015 139.206 48.3015C139.329 48.6366 139.616 49.4162 139.581 49.5755C139.538 49.7729 139.327 50.1428 139.344 50.2506C139.359 50.3584 139.586 50.5243 139.938 50.5044C139.938 50.5044 140.545 52.1251 141.056 52.2727C141.567 52.4187 143.079 51.4151 143.079 51.4151L143.327 51.221C144.123 50.5957 144.455 49.68 144.445 48.6681C144.445 48.6681 144.116 43.0132 140.218 45.8979Z" fill="white"/>
<path d="M141.165 52.4519C141.109 52.4519 141.057 52.4453 141.009 52.432C140.498 52.2861 139.992 51.1033 139.823 50.6704C139.465 50.6521 139.206 50.4647 139.178 50.2756C139.163 50.1744 139.214 50.0516 139.304 49.841C139.35 49.7348 139.402 49.6137 139.418 49.5407C139.423 49.476 139.365 49.214 139.053 48.3696C138.97 48.2087 138.435 47.0111 140.12 45.7653C141.195 44.9707 142.119 44.7302 142.869 45.0503C144.109 45.5812 144.476 47.507 144.576 48.3116C144.587 48.4028 144.522 48.4857 144.431 48.4973C144.34 48.5073 144.257 48.4443 144.245 48.353C144.153 47.6066 143.819 45.82 142.736 45.3556C142.102 45.0835 141.289 45.3124 140.316 46.0324C138.753 47.1885 139.34 48.2071 139.347 48.217C139.352 48.2253 139.357 48.2353 139.36 48.2452C139.675 49.1012 139.775 49.4595 139.74 49.6137C139.717 49.7182 139.66 49.8476 139.607 49.9737C139.573 50.0533 139.523 50.1694 139.51 50.2242C139.548 50.2656 139.687 50.3536 139.926 50.3403C139.999 50.337 140.065 50.3801 140.09 50.4481C140.331 51.0884 140.802 52.0289 141.099 52.1135C141.401 52.2015 142.384 51.6773 142.985 51.2775L143.222 51.0917C143.325 51.0104 143.423 50.9209 143.512 50.828C143.575 50.7616 143.68 50.7583 143.746 50.8213C143.812 50.8844 143.816 50.9889 143.753 51.0552C143.652 51.1614 143.542 51.2609 143.426 51.3522L143.179 51.5462C142.93 51.7121 141.784 52.4519 141.165 52.4519Z" fill="black"/>
<path d="M140.584 44.8185C140.118 45.0872 139.72 45.5434 139.47 45.6462C139.065 45.8121 138.758 45.4471 138.289 45.7955C137.876 46.1024 137.579 46.4889 137.642 46.955C137.652 47.033 137.672 47.1126 137.705 47.1955C138.131 48.2986 138.906 48.2024 139.206 48.1709C139.206 48.1709 140.88 47.7081 141.225 47.6932C141.548 47.6799 142.089 47.9785 142.426 48.6088C142.469 48.6901 142.563 48.7316 142.653 48.7133C142.759 48.6918 142.832 48.5922 142.819 48.4844C142.781 48.146 142.744 47.4576 143.064 47.3432C143.438 47.2105 144.141 47.8259 143.783 48.4429C143.672 48.6337 143.801 48.8842 144.018 48.9058C144.201 48.924 144.405 48.8693 144.572 48.6254C144.572 48.6254 145.05 46.6133 144.158 45.2912C143.268 43.9691 141.205 44.4618 140.584 44.8185Z" fill="#001A49"/>
<path d="M139.312 50.5291C139.286 50.5291 139.259 50.5225 139.234 50.5092C139.024 50.3981 138.828 50.126 138.708 49.7827C138.627 49.5504 138.594 49.3149 138.614 49.1191C138.647 48.794 138.808 48.6912 138.902 48.6597C139.198 48.5568 139.553 48.8687 139.743 49.3995C139.775 49.4857 139.73 49.5803 139.644 49.6118C139.558 49.6433 139.463 49.5985 139.432 49.5123C139.289 49.1175 139.07 48.9516 139.01 48.9732C138.994 48.9782 138.956 49.0296 138.942 49.1523C138.927 49.2983 138.956 49.4891 139.02 49.6748C139.123 49.9685 139.279 50.1592 139.388 50.2173C139.47 50.2604 139.5 50.3599 139.458 50.4412C139.428 50.4976 139.372 50.5291 139.312 50.5291Z" fill="black"/>
<path d="M140.488 50.0564C140.17 50.0564 139.838 49.7595 139.681 49.3083C139.598 49.0694 139.578 48.8223 139.624 48.6133C139.676 48.3777 139.812 48.2069 139.996 48.1438C140.356 48.0178 140.782 48.3346 140.966 48.8638C141.049 49.1026 141.069 49.3498 141.023 49.5604C140.971 49.796 140.835 49.9669 140.651 50.0299C140.598 50.0481 140.543 50.0564 140.488 50.0564ZM140.158 48.4474C140.138 48.4474 140.122 48.4507 140.104 48.4557C140.031 48.4806 139.974 48.5635 139.948 48.6846C139.914 48.8339 139.931 49.0213 139.994 49.1988C140.123 49.5704 140.386 49.7695 140.541 49.7147C140.613 49.6898 140.671 49.6069 140.697 49.4858C140.731 49.3365 140.714 49.1491 140.651 48.9699C140.536 48.6415 140.316 48.4474 140.158 48.4474Z" fill="black"/>
<path d="M140.647 48.7494C140.581 48.7494 140.518 48.7095 140.493 48.6432C140.46 48.5586 140.502 48.4624 140.588 48.4292L142.359 47.7375C142.446 47.7043 142.54 47.7458 142.575 47.832C142.608 47.9166 142.567 48.0128 142.48 48.046L140.709 48.7377C140.687 48.746 140.667 48.7494 140.647 48.7494Z" fill="black"/>
<path d="M90.4399 57.8049C90.3852 57.8049 90.3321 57.7784 90.3006 57.7303C90.2508 57.654 90.2724 57.5511 90.3487 57.5014L108.015 45.9511C108.091 45.9013 108.194 45.9229 108.244 45.9992C108.294 46.0755 108.272 46.1784 108.196 46.2281L90.5295 57.7784C90.503 57.7966 90.4715 57.8049 90.4399 57.8049Z" fill="#001A49"/>
<path d="M89.1743 55.0295C89.1328 55.0295 89.093 55.0145 89.0598 54.9847C88.9935 54.9216 88.9902 54.8171 89.0532 54.7508L95.8361 47.588C95.8991 47.5217 96.0036 47.5184 96.07 47.5814C96.1363 47.6444 96.1396 47.7489 96.0766 47.8153L89.2937 54.978C89.2622 55.0129 89.2174 55.0295 89.1743 55.0295Z" fill="#001A49"/>
<path d="M30.0446 88.6C29.9932 88.6 29.9434 88.5768 29.9119 88.5337C29.8572 88.4607 29.8721 88.3562 29.9468 88.3015L39.6524 81.1105C39.7254 81.0558 39.8299 81.0707 39.8847 81.1454C39.9394 81.2183 39.9245 81.3229 39.8498 81.3776L30.1442 88.5685C30.1143 88.5884 30.0795 88.6 30.0446 88.6Z" fill="#001A49"/>
<path d="M39.8812 84.7104C39.8298 84.7104 39.7801 84.6872 39.7469 84.6424C39.6921 84.5694 39.7087 84.4649 39.7817 84.4102L48.3561 78.11C48.4307 78.0553 48.5336 78.0719 48.5883 78.1449C48.6431 78.2179 48.6265 78.3224 48.5535 78.3771L39.9791 84.6773C39.9509 84.7005 39.9161 84.7104 39.8812 84.7104Z" fill="#001A49"/>
<path d="M31.2057 91.0848C31.1543 91.0848 31.1045 91.0616 31.0713 91.0168C31.0166 90.9438 31.0332 90.8393 31.1062 90.7845L37.68 85.9557C37.7547 85.901 37.8575 85.9176 37.9123 85.9906C37.967 86.0636 37.9504 86.1681 37.8774 86.2228L31.3036 91.0516C31.2737 91.0748 31.2405 91.0848 31.2057 91.0848Z" fill="#001A49"/>
<path d="M76.989 85.9497C76.9375 85.9497 76.8878 85.9264 76.8563 85.8833C76.8015 85.8103 76.8164 85.7058 76.8911 85.6511L86.5968 78.4601C86.6698 78.4054 86.7743 78.4203 86.829 78.495C86.8837 78.568 86.8688 78.6725 86.7942 78.7272L77.0885 85.9181C77.0586 85.938 77.0238 85.9497 76.989 85.9497Z" fill="#001A49"/>
<path d="M78.1501 88.4345C78.1003 88.4345 78.0505 88.4113 78.0174 88.3681C77.9626 88.2952 77.9776 88.1906 78.0506 88.1359L93.4509 76.5823C93.5239 76.5276 93.6284 76.5425 93.6832 76.6155C93.7379 76.6885 93.723 76.793 93.65 76.8477L78.2496 88.4013C78.2198 88.4229 78.1849 88.4345 78.1501 88.4345Z" fill="#001A49"/>
<defs>
<linearGradient id="paint0_linear_69_5955" x1="96.9846" y1="-40.8087" x2="214.017" y2="79.4902" gradientUnits="userSpaceOnUse">
<stop stop-color="#CD10FF"/>
<stop offset="1" stop-color="#9F06FF"/>
</linearGradient>
</defs>
</svg>
