<svg width="17" height="17" viewBox="0 0 17 17" fill="none" xmlns="http://www.w3.org/2000/svg">
<path fill-rule="evenodd" clip-rule="evenodd" d="M1.69765 7.86003H5.00163C5.00163 7.86834 5.00163 7.87804 5.00163 7.88636V12.1944H0.817693V8.6665C0.817693 8.22308 1.21478 7.86003 1.69765 7.86003ZM2.81696 3.76533C2.07951 3.24847 1.61602 2.59443 1.44169 2.01244C1.31716 1.59397 1.32685 1.18796 1.47213 0.844311C1.63954 0.450777 1.96053 0.16394 2.43648 0.0489283C3.10198 -0.113197 4.13689 0.119598 5.50802 1.05355C5.68235 1.17272 5.9978 1.39304 6.30772 1.61059C6.67437 1.86695 7.02995 2.11637 7.33019 2.32422C7.64979 2.00967 8.087 1.81429 8.56987 1.81429C9.0984 1.81429 9.57158 2.04708 9.89534 2.41429C10.2205 2.18981 10.6272 1.90436 11.0479 1.60921C11.3578 1.39166 11.6746 1.16995 11.8476 1.05216C13.2173 0.118213 14.2536 -0.114582 14.9191 0.0475426C15.3951 0.16394 15.716 0.449391 15.8835 0.842925C16.0287 1.18657 16.0384 1.59397 15.9139 2.01106C15.7396 2.59304 15.2761 3.24709 14.5386 3.76395H16.4037C16.7316 3.76395 17 4.01337 17 4.31822V6.32885C17 6.6337 16.7316 6.88312 16.4037 6.88312H0.596321C0.268414 6.88312 0 6.6337 0 6.32885V4.31961C0 4.01476 0.268414 3.76533 0.596321 3.76533H2.81696ZM11.8489 2.75655C11.4934 3.00598 11.1433 3.24986 10.8126 3.46741C11.1295 3.44247 11.4892 3.39674 11.8642 3.3233C12.0634 3.2845 12.2585 3.24016 12.4411 3.18889C12.621 3.139 12.805 3.07942 12.9918 3.00736L12.9945 3.00598C13.9036 2.65679 14.4321 2.08173 14.5732 1.61059C14.605 1.50528 14.6133 1.42768 14.5981 1.39027C14.5967 1.38888 14.5967 1.3875 14.5967 1.3875V1.38888C14.5967 1.39304 14.5995 1.40828 14.5926 1.4069C14.2688 1.32791 13.6379 1.52745 12.639 2.20921C12.2834 2.4517 12.0648 2.60552 11.8489 2.75655ZM14.5967 1.38888C14.5967 1.38888 14.5967 1.39027 14.5967 1.38888V1.38888ZM6.5457 3.46741C6.21364 3.25124 5.86498 3.00598 5.5094 2.75655C5.29356 2.60552 5.07357 2.4517 4.72076 2.2106C3.72182 1.52884 3.09091 1.3293 2.76715 1.40828C2.76023 1.40967 2.763 1.39443 2.763 1.39027C2.763 1.39027 2.763 1.39027 2.76162 1.39304C2.7464 1.43046 2.7547 1.50667 2.78652 1.61337C2.92765 2.0845 3.45617 2.65956 4.36518 3.00875L4.36795 3.01014C4.55473 3.08219 4.74013 3.14178 4.91861 3.19166C5.10263 3.24293 5.29633 3.28727 5.49556 3.32607C5.86913 3.39536 6.22886 3.44247 6.5457 3.46741ZM6.57337 7.86003H15.3024C15.7866 7.86003 16.1823 8.22308 16.1823 8.66511V12.1944H6.57475V7.88774C6.57475 7.87804 6.57475 7.86973 6.57337 7.86003ZM16.1837 13.7908V16.1935C16.1837 16.6356 15.788 16.9986 15.3037 16.9986H6.57475V13.7908H16.1837ZM5.00163 17H1.69765C1.21478 17 0.817693 16.6383 0.817693 16.1949V13.7908H5.00163V17Z" fill="url(#paint0_linear_69_4444)"/>
<defs>
<linearGradient id="paint0_linear_69_4444" x1="9.58569" y1="21.0188" x2="21.1098" y2="9.13007" gradientUnits="userSpaceOnUse">
<stop stop-color="#CD10FF"/>
<stop offset="1" stop-color="#9F06FF"/>
</linearGradient>
</defs>
</svg>
